<svg width="21" height="22" viewBox="0 0 21 22" fill="none" xmlns="http://www.w3.org/2000/svg">
<path d="M13.4502 11.9502H8.4502C8.0402 11.9502 7.7002 11.6102 7.7002 11.2002C7.7002 10.7902 8.0402 10.4502 8.4502 10.4502H13.4502C13.8602 10.4502 14.2002 10.7902 14.2002 11.2002C14.2002 11.6102 13.8602 11.9502 13.4502 11.9502Z" fill="#08151A"/>
<path d="M10.9502 14.4502C10.5402 14.4502 10.2002 14.1102 10.2002 13.7002V8.7002C10.2002 8.2902 10.5402 7.9502 10.9502 7.9502C11.3602 7.9502 11.7002 8.2902 11.7002 8.7002V13.7002C11.7002 14.1102 11.3602 14.4502 10.9502 14.4502Z" fill="#08151A"/>
<path d="M10.75 21.25C5.1 21.25 0.5 16.65 0.5 11C0.5 5.35 5.1 0.75 10.75 0.75C16.4 0.75 21 5.35 21 11C21 16.65 16.4 21.25 10.75 21.25ZM10.75 2.25C5.92 2.25 2 6.18 2 11C2 15.82 5.92 19.75 10.75 19.75C15.58 19.75 19.5 15.82 19.5 11C19.5 6.18 15.58 2.25 10.75 2.25Z" fill="#08151A"/>
</svg>
