<svg width="20" height="21" viewBox="0 0 20 21" fill="none" xmlns="http://www.w3.org/2000/svg">
<path fill-rule="evenodd" clip-rule="evenodd" d="M15.5303 4.96967C15.8232 5.26256 15.8232 5.73744 15.5303 6.03033L5.53033 16.0303C5.23744 16.3232 4.76256 16.3232 4.46967 16.0303C4.17678 15.7374 4.17678 15.2626 4.46967 14.9697L14.4697 4.96967C14.7626 4.67678 15.2374 4.67678 15.5303 4.96967Z" fill="#8897B1"/>
<path fill-rule="evenodd" clip-rule="evenodd" d="M4.46967 4.96967C4.76256 4.67678 5.23744 4.67678 5.53033 4.96967L15.5303 14.9697C15.8232 15.2626 15.8232 15.7374 15.5303 16.0303C15.2374 16.3232 14.7626 16.3232 14.4697 16.0303L4.46967 6.03033C4.17678 5.73744 4.17678 5.26256 4.46967 4.96967Z" fill="#8897B1"/>
</svg>
