<svg width="223" height="159" viewBox="0 0 223 159" fill="none" xmlns="http://www.w3.org/2000/svg">
<path opacity="0.7" d="M194.543 12.1852C187.031 5.36875 176.03 0.964095 166.669 4.8762C156.496 9.128 152.122 21.187 143.39 27.9129C124.111 42.7631 93.945 26.1748 72.448 37.5998C60.4541 43.9746 54.0544 58.5757 55.7224 72.0331C57.3904 85.4905 66.2241 97.4589 77.6677 104.768C89.1112 112.077 102.915 115.095 116.503 115.321C128.083 115.514 139.668 113.668 150.658 110.05C161.789 106.381 172.325 100.895 181.686 93.8469C186.344 90.3424 190.707 86.4473 194.702 82.2012C196.364 80.4348 198.134 79.2345 199.933 77.6946C201.782 76.1094 203.059 73.5674 204.182 71.4443C208.931 62.4821 210.582 52.0253 209.373 41.9931C208.165 32.0118 204.086 22.291 197.232 14.8574C196.375 13.9233 195.479 13.0344 194.543 12.1852Z" fill="#E1E7F5"/>
<path opacity="0.7" d="M136.154 137.962C173.204 137.962 203.238 135.789 203.238 133.11C203.238 130.43 173.204 128.258 136.154 128.258C99.1048 128.258 69.0703 130.43 69.0703 133.11C69.0703 135.789 99.1048 137.962 136.154 137.962Z" fill="#EAEFF9"/>
<path d="M181.625 34.0386H90.6723C85.4413 34.0386 81.2031 38.2677 81.2031 43.4876V89.5554C81.2031 94.7753 85.4413 99.0044 90.6723 99.0044H139.181C139.487 99.0044 139.794 99.0667 140.077 99.1799L168.53 110.826C171.259 111.941 174.244 109.942 174.244 106.999V101.365C174.244 100.063 175.305 99.0044 176.609 99.0044H181.619C186.85 99.0044 191.088 94.7753 191.088 89.5554V43.4876C191.1 38.2677 186.856 34.0386 181.625 34.0386Z" fill="#1CB0CB"/>
<path d="M137.099 88.4684C130.228 83.2258 124.135 76.9529 120.237 69.5589C116.339 62.165 114.762 53.5765 116.884 45.5881C118.007 41.3532 120.248 37.3279 123.346 34.0386H90.6723C85.4413 34.0386 81.2031 38.2677 81.2031 43.4876V89.5554C81.2031 94.7753 85.4413 99.0044 90.6723 99.0044H139.181C139.487 99.0044 139.794 99.0667 140.077 99.1799L168.53 110.826C171.259 111.941 174.244 109.942 174.244 106.999V105.442C160.678 102.492 147.839 96.6662 137.099 88.4684Z" fill="#18ABC6"/>
<path d="M179.086 68.8512H93.2278C92.3598 68.8512 91.6562 68.1492 91.6562 67.283C91.6562 66.4167 92.3598 65.7147 93.2278 65.7147H179.086C179.954 65.7147 180.657 66.4167 180.657 67.283C180.657 68.1492 179.954 68.8512 179.086 68.8512Z" fill="#3CCBE6"/>
<path d="M93.2278 65.7147C92.3598 65.7147 91.6562 66.4167 91.6562 67.283C91.6562 68.1492 92.3598 68.8512 93.2278 68.8512H119.882C119.366 67.8265 118.901 66.7791 118.481 65.7147H93.2278Z" fill="#38B9D0"/>
<path d="M179.086 78.7137H93.2278C92.3598 78.7137 91.6562 78.0117 91.6562 77.1455C91.6562 76.2793 92.3598 75.5773 93.2278 75.5773H179.086C179.954 75.5773 180.657 76.2793 180.657 77.1455C180.657 78.0117 179.954 78.7137 179.086 78.7137Z" fill="#3CCBE6"/>
<path d="M93.2278 75.583C92.3598 75.583 91.6562 76.285 91.6562 77.1512C91.6562 78.0175 92.3598 78.7195 93.2278 78.7195H126.577C125.698 77.7004 124.858 76.653 124.064 75.583H93.2278Z" fill="#38B9D0"/>
<path d="M179.086 88.5815H93.2278C92.3598 88.5815 91.6562 87.8795 91.6562 87.0133C91.6562 86.1471 92.3598 85.4451 93.2278 85.4451H179.086C179.954 85.4451 180.657 86.1471 180.657 87.0133C180.657 87.8795 179.954 88.5815 179.086 88.5815Z" fill="#3CCBE6"/>
<path d="M91.6562 87.0133C91.6562 87.8795 92.3598 88.5815 93.2278 88.5815H137.255C137.203 88.5419 137.152 88.5079 137.107 88.4683C135.83 87.4945 134.588 86.4868 133.374 85.4451H93.2278C92.3598 85.4451 91.6562 86.1471 91.6562 87.0133Z" fill="#38B9D0"/>
<path d="M97.7707 55.0089L94.741 56.5998C94.3041 56.8262 93.7935 56.4582 93.8786 55.9713L94.4573 52.6027C94.4914 52.4102 94.4289 52.2121 94.2871 52.0762L91.8361 49.6927C91.4844 49.3474 91.6773 48.7472 92.1652 48.6793L95.5523 48.1868C95.7452 48.1584 95.9154 48.0396 96.0005 47.8641L97.5154 44.8012C97.7366 44.3596 98.3664 44.3596 98.582 44.8012L100.097 47.8641C100.182 48.0396 100.352 48.1584 100.545 48.1868L103.932 48.6793C104.42 48.7529 104.619 49.3474 104.261 49.6927L101.81 52.0762C101.668 52.2121 101.606 52.4102 101.64 52.6027L102.219 55.9713C102.304 56.4582 101.793 56.8262 101.356 56.5998L98.3267 55.0089C98.1508 54.9183 97.9465 54.9183 97.7707 55.0089Z" fill="#FEBB02"/>
<path d="M116.818 55.0089L113.788 56.5998C113.351 56.8262 112.84 56.4582 112.925 55.9713L113.504 52.6027C113.538 52.4102 113.476 52.2121 113.334 52.0762L110.883 49.6927C110.531 49.3474 110.724 48.7472 111.212 48.6793L114.599 48.1868C114.792 48.1584 114.962 48.0396 115.047 47.8641L116.562 44.8012C116.783 44.3596 117.413 44.3596 117.629 44.8012L119.144 47.8641C119.229 48.0396 119.399 48.1584 119.592 48.1868L122.979 48.6793C123.467 48.7529 123.666 49.3474 123.308 49.6927L120.857 52.0762C120.715 52.2121 120.653 52.4102 120.687 52.6027L121.266 55.9713C121.351 56.4582 120.84 56.8262 120.403 56.5998L117.374 55.0089C117.198 54.9183 116.993 54.9183 116.818 55.0089Z" fill="#FEBB02"/>
<path d="M135.872 55.0089L132.843 56.5998C132.406 56.8262 131.895 56.4582 131.98 55.9713L132.559 52.6027C132.593 52.4102 132.531 52.2121 132.389 52.0762L129.938 49.6927C129.586 49.3474 129.779 48.7472 130.267 48.6793L133.654 48.1868C133.847 48.1584 134.017 48.0396 134.102 47.8641L135.617 44.8012C135.838 44.3596 136.468 44.3596 136.684 44.8012L138.198 47.8641C138.283 48.0396 138.454 48.1584 138.647 48.1868L142.034 48.6793C142.522 48.7529 142.72 49.3474 142.363 49.6927L139.912 52.0762C139.77 52.2121 139.708 52.4102 139.742 52.6027L140.32 55.9713C140.405 56.4582 139.895 56.8262 139.458 56.5998L136.428 55.0089C136.252 54.9183 136.042 54.9183 135.872 55.0089Z" fill="#FEBB02"/>
<path d="M154.927 55.0089L151.897 56.5998C151.46 56.8262 150.95 56.4582 151.035 55.9713L151.614 52.6027C151.648 52.4102 151.585 52.2121 151.443 52.0762L148.992 49.6927C148.641 49.3474 148.834 48.7472 149.321 48.6793L152.709 48.1868C152.901 48.1584 153.072 48.0396 153.157 47.8641L154.672 44.8012C154.893 44.3596 155.523 44.3596 155.738 44.8012L157.253 47.8641C157.338 48.0396 157.508 48.1584 157.701 48.1868L161.088 48.6793C161.576 48.7529 161.775 49.3474 161.417 49.6927L158.966 52.0762C158.825 52.2121 158.762 52.4102 158.796 52.6027L159.375 55.9713C159.46 56.4582 158.949 56.8262 158.513 56.5998L155.483 55.0089C155.313 54.9183 155.103 54.9183 154.927 55.0089Z" fill="#FEBB02"/>
<path d="M173.974 55.0089L170.944 56.5998C170.507 56.8262 169.997 56.4582 170.082 55.9713L170.66 52.6027C170.694 52.4102 170.632 52.2121 170.49 52.0762L168.039 49.6927C167.688 49.3474 167.88 48.7472 168.368 48.6793L171.755 48.1868C171.948 48.1584 172.119 48.0396 172.204 47.8641L173.718 44.8012C173.94 44.3596 174.57 44.3596 174.785 44.8012L176.3 47.8641C176.385 48.0396 176.555 48.1584 176.748 48.1868L180.135 48.6793C180.623 48.7529 180.822 49.3474 180.464 49.6927L178.013 52.0762C177.872 52.2121 177.809 52.4102 177.843 52.6027L178.422 55.9713C178.507 56.4582 177.996 56.8262 177.559 56.5998L174.53 55.0089C174.354 54.9183 174.15 54.9183 173.974 55.0089Z" fill="#FEBB02"/>
<path d="M65.1718 99.2806L60.3152 101.828C59.6174 102.196 58.7947 101.602 58.9309 100.826L59.8613 95.4307C59.9124 95.1193 59.8103 94.808 59.589 94.5872L55.6572 90.7656C55.0899 90.2165 55.4019 89.254 56.1849 89.1408L61.6145 88.3538C61.9265 88.3085 62.1932 88.1161 62.335 87.833L64.7633 82.9244C65.115 82.2168 66.1249 82.2168 66.4767 82.9244L68.905 87.833C69.0468 88.1161 69.3135 88.3085 69.6255 88.3538L75.0551 89.1408C75.838 89.254 76.1501 90.2165 75.5827 90.7656L71.651 94.5872C71.424 94.808 71.3219 95.1193 71.3786 95.4307L72.3091 100.826C72.4453 101.602 71.6226 102.196 70.9248 101.828L66.0682 99.2806C65.7845 99.1334 65.4498 99.1334 65.1718 99.2806Z" fill="#FEBB02"/>
<path d="M194.383 49.5115L189.526 52.0592C188.828 52.4272 188.006 51.8327 188.142 51.0571L189.072 45.6617C189.123 45.3503 189.021 45.0389 188.8 44.8181L184.868 40.9966C184.301 40.4474 184.613 39.485 185.396 39.3717L190.825 38.5848C191.137 38.5395 191.404 38.347 191.546 38.0639L193.974 33.1554C194.326 32.4477 195.336 32.4477 195.688 33.1554L198.116 38.0639C198.258 38.347 198.524 38.5395 198.836 38.5848L204.266 39.3717C205.049 39.485 205.361 40.4474 204.794 40.9966L200.862 44.8181C200.635 45.0389 200.533 45.3503 200.59 45.6617L201.52 51.0571C201.656 51.8327 200.834 52.4272 200.136 52.0592L195.279 49.5115C194.995 49.3643 194.661 49.3643 194.383 49.5115Z" fill="#FEBB02"/>
<path d="M92.9052 38.775C95.524 27.7077 88.6562 16.6174 77.5654 14.0041C66.4746 11.3908 55.3607 18.2441 52.7418 29.3114C50.123 40.3787 56.9909 51.469 68.0817 54.0823C79.1725 56.6956 90.2863 49.8422 92.9052 38.775Z" fill="#22B4CF"/>
<path d="M72.8222 54.6292C76.9242 54.6292 80.7424 53.429 83.9593 51.3682C80.5042 50.6549 77.1738 49.4886 74.2235 47.5863C69.4181 44.4781 65.7927 39.0771 66.082 33.3703C66.3714 27.7087 70.4166 22.7606 75.3299 19.9185C77.9738 18.3899 80.8446 17.3708 83.8118 16.6122C80.629 14.6137 76.8674 13.4474 72.8279 13.4474C61.4297 13.4474 52.1875 22.6643 52.1875 34.0383C52.1875 45.4123 61.4297 54.6292 72.8222 54.6292Z" fill="#18ABC6"/>
<path opacity="0.7" d="M88.8764 37.8251C90.9696 28.9792 85.4802 20.1149 76.6155 18.0261C67.7508 15.9373 58.8677 21.4151 56.7745 30.261C54.6813 39.1069 60.1706 47.9712 69.0354 50.06C77.9001 52.1488 86.7832 46.671 88.8764 37.8251Z" fill="white"/>
<path d="M75.3366 19.9185C76.2671 19.3807 77.2259 18.9051 78.2074 18.4805C76.5224 17.903 74.7125 17.5803 72.8289 17.5803C63.7229 17.5803 56.3359 24.946 56.3359 34.0383C56.3359 43.1251 63.7172 50.4964 72.8289 50.4964C74.6842 50.4964 76.4713 50.185 78.1337 49.6188C76.7777 49.0583 75.4671 48.3903 74.2246 47.5863C69.4191 44.4782 65.7937 39.0771 66.0831 33.3703C66.3781 27.7088 70.4233 22.7606 75.3366 19.9185Z" fill="#ABE3ED"/>
<path d="M68.0128 41.6304C67.9958 41.6304 67.9844 41.6304 67.9674 41.6304C67.5532 41.619 67.1674 41.4379 66.8951 41.1322L62.7931 36.5463C62.2428 35.9292 62.2995 34.9838 62.9123 34.4346C63.5307 33.8854 64.4782 33.9364 65.0285 34.5535L68.0752 37.9617L79.1727 26.8878C79.757 26.3047 80.7045 26.3047 81.2889 26.8878C81.8733 27.4709 81.8733 28.4164 81.2889 28.9995L69.0681 41.1888C68.7901 41.4719 68.4099 41.6304 68.0128 41.6304Z" fill="#18ABC6"/>
<path d="M66.8971 41.1265C67.1694 41.4322 67.5609 41.6134 67.9694 41.6247C67.9864 41.6247 67.9977 41.6247 68.0148 41.6247C68.1226 41.6247 68.2247 41.6134 68.3268 41.5907C67.2432 39.8187 66.4886 37.8768 66.1992 35.8556L65.0305 34.5478C64.4801 33.9307 63.5327 33.8798 62.9142 34.4289C62.2958 34.9781 62.2448 35.9236 62.7951 36.5407L66.8971 41.1265Z" fill="#18ABC6"/>
<path d="M149.138 2H127.828C122.427 2 118.047 6.37069 118.047 11.7604C118.047 17.1502 122.427 21.5209 127.828 21.5209H134.199C134.341 21.5209 134.477 21.5492 134.608 21.6058L145.808 26.4974C146.647 26.8654 147.589 26.2483 147.589 25.3311V22.5343C147.589 21.9738 148.043 21.5152 148.61 21.5152H149.132C154.533 21.5152 158.913 17.1445 158.913 11.7548C158.913 6.37069 154.539 2 149.138 2Z" fill="#32B8D0"/>
<path d="M141.45 20.6717C138.143 19.228 135.147 16.8728 133.439 13.6967C131.737 10.5206 131.488 6.4726 133.275 3.34178C133.547 2.86621 133.876 2.41329 134.245 2H127.828C122.427 2 118.047 6.37069 118.047 11.7604C118.047 17.1502 122.427 21.5209 127.828 21.5209H134.199C134.341 21.5209 134.477 21.5492 134.608 21.6058L145.808 26.4974C146.647 26.8654 147.589 26.2483 147.589 25.3311V22.5343C147.589 22.5117 147.595 22.4947 147.595 22.472C145.484 22.0927 143.413 21.5266 141.45 20.6717Z" fill="#3CC6DF"/>
<path d="M150.06 10.2431H126.895C126.283 10.2431 125.789 9.75059 125.789 9.13915C125.789 8.52771 126.283 8.03516 126.895 8.03516H150.06C150.673 8.03516 151.167 8.52771 151.167 9.13915C151.167 9.75059 150.673 10.2431 150.06 10.2431Z" fill="#F7F9FE"/>
<path d="M132.049 8.03516H126.903C126.29 8.03516 125.797 8.52771 125.797 9.13915C125.797 9.75059 126.29 10.2431 126.903 10.2431H132.242C132.106 9.51281 132.038 8.77115 132.049 8.03516Z" fill="#EFF4FF"/>
<path d="M150.06 15.4859H126.895C126.283 15.4859 125.789 14.9934 125.789 14.3819C125.789 13.7705 126.283 13.278 126.895 13.278H150.06C150.673 13.278 151.167 13.7705 151.167 14.3819C151.167 14.9877 150.673 15.4859 150.06 15.4859Z" fill="#F7F9FE"/>
<path d="M125.789 14.3761C125.789 14.9875 126.283 15.4801 126.895 15.4801H134.594C134.163 14.9139 133.772 14.3195 133.437 13.691C133.363 13.5552 133.295 13.4136 133.227 13.2721H126.901C126.288 13.2721 125.789 13.7703 125.789 14.3761Z" fill="#EFF4FF"/>
<path opacity="0.5" d="M176.511 20.9267H175.002V19.415H174.077V20.9267H172.562V21.8495H174.077V23.3555H175.002V21.8495H176.511V20.9267Z" fill="#18ABC6"/>
<path opacity="0.5" d="M69.2535 60.88H67.7386V59.374H66.8195V60.88H65.3047V61.8028H66.8195V63.3088H67.7386V61.8028H69.2535V60.88Z" fill="#18ABC6"/>
<path opacity="0.5" d="M113.265 114.375H111.093V112.473H109.774V114.375H107.602V115.529H109.774V117.43H111.093V115.529H113.265V114.375Z" fill="#18ABC6"/>
<path opacity="0.5" d="M221.59 66.0552H219.155V63.6102H217.663V66.0552H215.219V67.5387H217.663V69.9837H219.155V67.5387H221.59V66.0552Z" fill="#18ABC6"/>
</svg>
