<svg width="27" height="24" viewBox="0 0 27 24" fill="none" xmlns="http://www.w3.org/2000/svg">
<path fill-rule="evenodd" clip-rule="evenodd" d="M14.1856 2.82707C15.5104 1.49746 17.308 0.75 19.1831 0.75C21.0581 0.75 22.8559 1.4975 24.1807 2.8272C25.5059 4.15616 26.25 5.95841 26.25 7.83718C26.25 9.71606 25.5058 11.5184 24.1804 12.8474L14.0309 23.0295C13.8902 23.1707 13.699 23.25 13.4997 23.25C13.3004 23.25 13.1092 23.1707 12.9685 23.0295L2.81883 12.8473C0.060389 10.08 0.0603893 5.59435 2.81883 2.82707C5.5786 0.0584645 10.0541 0.0584643 12.8138 2.82707L13.4997 3.51513L14.1856 2.82707C14.1856 2.82703 14.1855 2.82711 14.1856 2.82707ZM19.1831 2.25C17.7075 2.25 16.2919 2.8382 15.248 3.88591L14.0309 5.10698C13.8902 5.24815 13.699 5.32749 13.4997 5.32749C13.3004 5.32749 13.1092 5.24815 12.9685 5.10698L11.7515 3.88603C9.57788 1.70548 6.05478 1.70548 3.88119 3.88603C1.70627 6.06792 1.70627 9.60644 3.88119 11.7883L13.4997 21.4376L23.1182 11.7883C24.1626 10.741 24.75 9.31966 24.75 7.83718C24.75 6.3547 24.1628 4.93345 23.1183 3.88616C22.0744 2.83845 20.6586 2.25 19.1831 2.25Z" fill="white"/>
</svg>
