<svg width="20" height="22" viewBox="0 0 20 22" fill="none" xmlns="http://www.w3.org/2000/svg">
<path d="M15 4.875H17.5" stroke="#8897B1" stroke-linecap="round" stroke-linejoin="round"/>
<path d="M2.5 4.875H9.16667" stroke="#8897B1" stroke-linecap="round" stroke-linejoin="round"/>
<path d="M10.8335 11H17.5002" stroke="#8897B1" stroke-linecap="round" stroke-linejoin="round"/>
<path d="M2.5 11H5" stroke="#8897B1" stroke-linecap="round" stroke-linejoin="round"/>
<path d="M15 17.125H17.5" stroke="#8897B1" stroke-linecap="round" stroke-linejoin="round"/>
<path d="M2.5 17.125H9.16667" stroke="#8897B1" stroke-linecap="round" stroke-linejoin="round"/>
<path d="M14.5118 3.63774C15.1626 4.32112 15.1626 5.42887 14.5118 6.11224C13.861 6.79562 12.806 6.79562 12.1551 6.11224C11.5043 5.42887 11.5043 4.32112 12.1551 3.63774C12.806 2.95437 13.861 2.95437 14.5118 3.63774" stroke="#8897B1" stroke-linecap="round" stroke-linejoin="round"/>
<path d="M7.84479 9.76274C8.49563 10.4461 8.49563 11.5539 7.84479 12.2372C7.19396 12.9206 6.13896 12.9206 5.48813 12.2372C4.83729 11.5539 4.83729 10.4461 5.48813 9.76274C6.13896 9.07937 7.19396 9.07937 7.84479 9.76274" stroke="#8897B1" stroke-linecap="round" stroke-linejoin="round"/>
<path d="M14.5118 15.8877C15.1626 16.5711 15.1626 17.6789 14.5118 18.3622C13.861 19.0456 12.806 19.0456 12.1551 18.3622C11.5043 17.6789 11.5043 16.5711 12.1551 15.8877C12.806 15.2044 13.861 15.2044 14.5118 15.8877" stroke="#8897B1" stroke-linecap="round" stroke-linejoin="round"/>
</svg>
