<svg width="9" height="14" viewBox="0 0 9 14" fill="none" xmlns="http://www.w3.org/2000/svg">
<path d="M4.50653 0.5C6.81336 0.5 8.73693 2.21454 8.97556 4.46753C9.09127 5.58694 8.78032 6.62842 8.37535 7.64156C7.57266 9.63241 6.41563 11.4249 5.1429 13.1465C4.80302 13.607 4.21727 13.6212 3.8774 13.1678C2.43111 11.1982 1.11498 9.16481 0.34845 6.83388C0.0013406 5.79949 -0.143288 4.75093 0.182127 3.68111C0.753411 1.79653 2.50342 0.5 4.50653 0.5ZM4.54269 2.80967C3.36396 2.80259 2.40941 3.71654 2.40218 4.8572C2.39495 6.02621 3.33504 6.97558 4.50653 6.98267C5.69972 6.98267 6.65427 6.06872 6.6615 4.9068C6.66873 3.73071 5.73588 2.80967 4.54269 2.80967Z" fill="#08151A"/>
</svg>
