<svg width="72" height="72" viewBox="0 0 72 72" fill="none" xmlns="http://www.w3.org/2000/svg">
<path d="M63 30C63 48.4663 42.1223 64.6128 37.0843 68.2402C36.4291 68.712 35.5709 68.712 34.9157 68.2402C29.8777 64.6128 9 48.4662 9 30C9 22.8392 11.8446 15.9716 16.9081 10.9081C21.9716 5.84463 28.8392 3 36 3C43.1608 3 50.0284 5.84463 55.0919 10.9081C60.1554 15.9716 63 22.8392 63 30Z" fill="#0D235A"/>
<mask id="mask0_1_2" style="mask-type:luminance" maskUnits="userSpaceOnUse" x="22" y="33" width="27" height="11">
<path d="M48.685 33.9618H22.8494V43.2673H48.685V33.9618Z" fill="white"/>
</mask>
<g mask="url(#mask0_1_2)">
<path d="M22.857 33.9616C23.3293 33.9548 23.7965 34.0338 24.2322 34.191C24.9772 34.4585 25.7009 34.4679 26.4561 34.2368C27.4822 33.9225 28.5168 33.9489 29.5514 34.2377C30.3023 34.4466 31.0473 34.366 31.7889 34.1527C32.6239 33.9132 33.4708 33.9259 34.3032 34.1502C35.2852 34.4152 36.2493 34.422 37.2295 34.1358C38.152 33.8665 39.0813 33.9863 39.997 34.2037C40.7275 34.377 41.4495 34.3957 42.1749 34.185C43.0397 33.9344 43.9078 33.954 44.77 34.1986C45.5396 34.4169 46.3057 34.4059 47.0711 34.1859C47.5638 34.044 48.0658 33.9769 48.578 33.9854C48.6476 34.0151 48.7114 34.0653 48.6723 34.1425C48.4964 34.4917 48.5525 34.9572 48.149 35.1916C47.8755 35.1576 47.6096 35.2213 47.3531 35.2884C46.4145 35.5348 45.4818 35.4949 44.5381 35.3148C43.9154 35.1959 43.2775 35.105 42.6498 35.2681C41.5693 35.5475 40.5007 35.5093 39.4194 35.2647C38.6651 35.0939 37.9014 35.1245 37.1488 35.3216C36.211 35.5679 35.2767 35.5492 34.3372 35.3165C33.5141 35.1126 32.6842 35.105 31.8585 35.3088C30.9615 35.5297 30.0679 35.5186 29.1709 35.3097C28.4735 35.1474 27.7651 35.1143 27.0668 35.2774C25.9948 35.5271 24.9305 35.5671 23.8627 35.2715C23.8194 35.2672 23.7769 35.2638 23.7336 35.2596C23.6963 35.2443 23.6589 35.2298 23.6215 35.2145C23.1637 35.1109 22.7899 34.4976 22.857 33.9616Z" fill="#18ABC6"/>
<path d="M47.642 36.1066C47.7023 36.1338 47.8195 36.1652 47.7694 36.2332C47.4746 36.6299 47.3642 37.1684 46.8758 37.4173C46.1104 37.5277 45.3553 37.4632 44.6027 37.3018C43.8288 37.1361 43.055 37.1727 42.288 37.3476C41.5447 37.5175 40.7989 37.5456 40.0582 37.3748C38.9786 37.1259 37.91 37.114 36.8329 37.3918C36.1661 37.5642 35.4874 37.5541 34.8146 37.402C33.6942 37.1472 32.5772 37.1157 31.4534 37.3918C30.8842 37.5311 30.3024 37.5192 29.7264 37.4071C28.7768 37.2228 27.8263 37.1047 26.8647 37.3137C26.2675 37.4436 25.6644 37.498 25.0537 37.4819C24.9738 37.4776 24.8931 37.4734 24.8133 37.4691C24.7929 37.4436 24.7691 37.4377 24.7419 37.4521C24.1329 37.2415 24.0267 36.6273 23.7175 36.1763C23.7668 36.1542 23.8152 36.1321 23.8645 36.1092C24.7309 36.358 25.6101 36.4515 26.4918 36.2272C27.4584 35.9809 28.4192 35.9673 29.385 36.2034C30.1698 36.3954 30.953 36.3912 31.7329 36.1805C32.6001 35.9452 33.4666 35.9758 34.3347 36.1661C35.2266 36.3614 36.116 36.4591 37.0164 36.195C37.9193 35.9299 38.8308 35.9563 39.7396 36.1771C40.635 36.3946 41.5243 36.4056 42.4196 36.155C43.083 35.9699 43.7626 35.9877 44.4362 36.1278C44.6112 36.1644 44.7802 36.234 44.9569 36.2646C45.8641 36.4209 46.7568 36.3241 47.6428 36.1058L47.642 36.1066Z" fill="#18ABC6"/>
<path d="M26.1656 39.4016C25.8394 39.0584 25.4648 38.7577 25.2278 38.3364C25.6942 38.339 26.1588 38.3143 26.6116 38.1979C27.5213 37.9644 28.4302 37.9924 29.34 38.1962C30.0807 38.3627 30.8282 38.4154 31.5638 38.2047C32.5594 37.9193 33.5447 37.9652 34.536 38.203C35.3302 38.3933 36.1279 38.4426 36.9246 38.22C37.9006 37.9474 38.8766 37.9652 39.8577 38.1937C40.697 38.3891 41.5328 38.3993 42.3729 38.1716C43.0219 37.9958 43.6878 37.9728 44.3487 38.0935C44.9595 38.2047 45.5668 38.3373 46.1911 38.3525C45.9185 38.7407 45.6415 39.1255 45.2652 39.4245C44.3674 39.1629 43.4568 39.0924 42.5445 39.3158C41.6458 39.5358 40.7547 39.5469 39.8569 39.3353C38.9454 39.1204 38.0348 39.1247 37.1259 39.3515C36.2723 39.5647 35.4203 39.5732 34.5649 39.3634C33.543 39.1128 32.5212 39.1179 31.5018 39.3812C30.8876 39.5401 30.2599 39.5638 29.6534 39.4101C28.4854 39.1136 27.3285 39.1629 26.1656 39.4016Z" fill="#18ABC6"/>
<path d="M44.4082 40.1099C43.924 40.6221 43.3149 40.9568 42.7169 41.3085C41.6908 41.4274 40.6681 41.5251 39.6411 41.2838C38.8571 41.0995 38.0637 41.1455 37.2856 41.3349C36.2884 41.5761 35.3013 41.5616 34.3041 41.3339C33.6551 41.1861 32.9917 41.0648 32.3275 41.2015C31.1815 41.4377 30.0339 41.5022 28.877 41.3137C28.1737 41.0971 27.6462 40.5967 27.0618 40.1882C27.6785 39.8883 28.3087 40.0234 28.9254 40.1635C29.8776 40.3793 30.8239 40.4624 31.7779 40.1915C32.5738 39.9655 33.3714 39.9834 34.169 40.1805C35.2173 40.4396 36.2638 40.4787 37.3145 40.1873C38.0671 39.9792 38.8274 39.9952 39.5825 40.1745C40.635 40.4242 41.6772 40.4395 42.7271 40.1362C43.2767 39.9774 43.8467 39.9876 44.409 40.1108L44.4082 40.1099Z" fill="#18ABC6"/>
<path d="M30.7356 42.4C31.7227 42.1069 32.7191 41.8547 33.7503 42.1418C35.0746 42.5104 36.3886 42.5351 37.7146 42.1477C38.5725 41.8971 39.4228 42.1222 40.2714 42.2505C40.4523 42.2777 40.6341 42.304 40.8151 42.3312C39.2657 42.9666 37.6424 43.229 35.9792 43.2639C34.1801 43.3012 32.4422 42.9403 30.7356 42.4Z" fill="#18ABC6"/>
<path d="M24.7419 37.4529C24.7689 37.4386 24.7925 37.4445 24.8127 37.4697C24.7891 37.4638 24.7655 37.4579 24.7419 37.4529Z" fill="#18ABC6"/>
</g>
<mask id="mask1_1_2" style="mask-type:alpha" maskUnits="userSpaceOnUse" x="22" y="14" width="28" height="19">
<path d="M49.8615 14H22V32.5177H49.8615V14Z" fill="url(#paint0_linear_1_2)"/>
</mask>
<g mask="url(#mask1_1_2)">
<path fill-rule="evenodd" clip-rule="evenodd" d="M35.8459 43.1357C43.4927 43.1357 49.6917 36.9367 49.6917 29.2899C49.6917 21.643 43.4927 15.444 35.8459 15.444C28.199 15.444 22 21.643 22 29.2899C22 36.9367 28.199 43.1357 35.8459 43.1357ZM35.7595 36.9324C39.9812 36.9324 43.4036 33.51 43.4036 29.2883C43.4036 25.0665 39.9812 21.6441 35.7595 21.6441C31.5377 21.6441 28.1153 25.0665 28.1153 29.2883C28.1153 33.51 31.5377 36.9324 35.7595 36.9324Z" fill="#18ABC6"/>
</g>
<defs>
<linearGradient id="paint0_linear_1_2" x1="35.9308" y1="14" x2="35.9308" y2="32.5178" gradientUnits="userSpaceOnUse">
<stop stop-color="#ED8D10"/>
<stop offset="1" stop-color="#DB5622"/>
</linearGradient>
</defs>
</svg>
