<svg width="24" height="24" viewBox="0 0 24 24" fill="none" xmlns="http://www.w3.org/2000/svg">
<path fill-rule="evenodd" clip-rule="evenodd" d="M17.1764 2.76293C17.8599 2.07817 18.968 2.07929 19.6513 2.76267L21.2367 4.34799C21.2366 4.34796 21.2367 4.34802 21.2367 4.34799C21.9217 5.03142 21.9208 6.13984 21.2373 6.82333L14.8233 13.2373C14.4946 13.566 14.0499 13.75 13.586 13.75H11C10.5858 13.75 10.25 13.4142 10.25 13V10.414C10.25 9.95014 10.434 9.50536 10.7627 9.17667L17.1764 2.76293C17.1766 2.76279 17.1763 2.76307 17.1764 2.76293ZM18.5907 3.82333C18.4922 3.72485 18.3346 3.72582 18.238 3.82265L11.8233 10.2373C11.776 10.2846 11.75 10.3479 11.75 10.414V12.25H13.586C13.6521 12.25 13.7154 12.224 13.7627 12.1767L20.1767 5.76267C20.2752 5.66419 20.2742 5.50658 20.1773 5.41001L18.5907 3.82333Z" fill="#8897B1"/>
<path fill-rule="evenodd" clip-rule="evenodd" d="M2.25 13C2.25 12.5858 2.58579 12.25 3 12.25H7C7.41421 12.25 7.75 12.5858 7.75 13C7.75 13.4142 7.41421 13.75 7 13.75H3C2.58579 13.75 2.25 13.4142 2.25 13Z" fill="#8897B1"/>
<path fill-rule="evenodd" clip-rule="evenodd" d="M2.25 17C2.25 16.5858 2.58579 16.25 3 16.25H21C21.4142 16.25 21.75 16.5858 21.75 17C21.75 17.4142 21.4142 17.75 21 17.75H3C2.58579 17.75 2.25 17.4142 2.25 17Z" fill="#8897B1"/>
<path fill-rule="evenodd" clip-rule="evenodd" d="M2.25 21C2.25 20.5858 2.58579 20.25 3 20.25H21C21.4142 20.25 21.75 20.5858 21.75 21C21.75 21.4142 21.4142 21.75 21 21.75H3C2.58579 21.75 2.25 21.4142 2.25 21Z" fill="#8897B1"/>
</svg>
