<svg width="24" height="24" viewBox="0 0 24 24" fill="none" xmlns="http://www.w3.org/2000/svg">
<path fill-rule="evenodd" clip-rule="evenodd" d="M6.5 4C6.5 3.17186 7.17186 2.5 8 2.5H16C16.8281 2.5 17.5 3.17186 17.5 4V21C17.5 21.2761 17.2761 21.5 17 21.5C16.7239 21.5 16.5 21.2761 16.5 21V4C16.5 3.72414 16.2759 3.5 16 3.5H8C7.72414 3.5 7.5 3.72414 7.5 4V21C7.5 21.2761 7.27614 21.5 7 21.5C6.72386 21.5 6.5 21.2761 6.5 21V4Z" fill="#8897B1"/>
<path fill-rule="evenodd" clip-rule="evenodd" d="M1.5 10C1.5 9.17186 2.17186 8.5 3 8.5H7C7.27614 8.5 7.5 8.72386 7.5 9C7.5 9.27614 7.27614 9.5 7 9.5H3C2.72414 9.5 2.5 9.72414 2.5 10V21C2.5 21.2761 2.27614 21.5 2 21.5C1.72386 21.5 1.5 21.2761 1.5 21V10Z" fill="#8897B1"/>
<path fill-rule="evenodd" clip-rule="evenodd" d="M16.5 9C16.5 8.72386 16.7239 8.5 17 8.5H21C21.8281 8.5 22.5 9.17186 22.5 10V21C22.5 21.2761 22.2761 21.5 22 21.5C21.7239 21.5 21.5 21.2761 21.5 21V10C21.5 9.72414 21.2759 9.5 21 9.5H17C16.7239 9.5 16.5 9.27614 16.5 9Z" fill="#8897B1"/>
<path fill-rule="evenodd" clip-rule="evenodd" d="M9 17C9 16.7239 9.22386 16.5 9.5 16.5H14.5C14.7761 16.5 15 16.7239 15 17C15 17.2761 14.7761 17.5 14.5 17.5H9.5C9.22386 17.5 9 17.2761 9 17Z" fill="#8897B1"/>
<path fill-rule="evenodd" clip-rule="evenodd" d="M13.5 16.5C13.7761 16.5 14 16.7239 14 17V21C14 21.2761 13.7761 21.5 13.5 21.5C13.2239 21.5 13 21.2761 13 21V17C13 16.7239 13.2239 16.5 13.5 16.5Z" fill="#8897B1"/>
<path fill-rule="evenodd" clip-rule="evenodd" d="M10.5 16.5C10.7761 16.5 11 16.7239 11 17V21C11 21.2761 10.7761 21.5 10.5 21.5C10.2239 21.5 10 21.2761 10 21V17C10 16.7239 10.2239 16.5 10.5 16.5Z" fill="#8897B1"/>
<path fill-rule="evenodd" clip-rule="evenodd" d="M9.5 10.5C9.5 10.2239 9.72386 10 10 10H14C14.2761 10 14.5 10.2239 14.5 10.5C14.5 10.7761 14.2761 11 14 11H10C9.72386 11 9.5 10.7761 9.5 10.5Z" fill="#8897B1"/>
<path fill-rule="evenodd" clip-rule="evenodd" d="M9.5 13.5C9.5 13.2239 9.72386 13 10 13H14C14.2761 13 14.5 13.2239 14.5 13.5C14.5 13.7761 14.2761 14 14 14H10C9.72386 14 9.5 13.7761 9.5 13.5Z" fill="#8897B1"/>
<path fill-rule="evenodd" clip-rule="evenodd" d="M9.5 7.5C9.5 7.22386 9.72386 7 10 7H14C14.2761 7 14.5 7.22386 14.5 7.5C14.5 7.77614 14.2761 8 14 8H10C9.72386 8 9.5 7.77614 9.5 7.5Z" fill="#8897B1"/>
<path fill-rule="evenodd" clip-rule="evenodd" d="M4.5 13.5C4.5 13.2239 4.72386 13 5 13H7C7.27614 13 7.5 13.2239 7.5 13.5C7.5 13.7761 7.27614 14 7 14H5C4.72386 14 4.5 13.7761 4.5 13.5Z" fill="#8897B1"/>
<path fill-rule="evenodd" clip-rule="evenodd" d="M4.5 17C4.5 16.7239 4.72386 16.5 5 16.5H7C7.27614 16.5 7.5 16.7239 7.5 17C7.5 17.2761 7.27614 17.5 7 17.5H5C4.72386 17.5 4.5 17.2761 4.5 17Z" fill="#8897B1"/>
<path fill-rule="evenodd" clip-rule="evenodd" d="M16.5 13.5C16.5 13.2239 16.7239 13 17 13H19C19.2761 13 19.5 13.2239 19.5 13.5C19.5 13.7761 19.2761 14 19 14H17C16.7239 14 16.5 13.7761 16.5 13.5Z" fill="#8897B1"/>
<path fill-rule="evenodd" clip-rule="evenodd" d="M16.5 17C16.5 16.7239 16.7239 16.5 17 16.5H19C19.2761 16.5 19.5 16.7239 19.5 17C19.5 17.2761 19.2761 17.5 19 17.5H17C16.7239 17.5 16.5 17.2761 16.5 17Z" fill="#8897B1"/>
<path fill-rule="evenodd" clip-rule="evenodd" d="M0.5 21C0.5 20.7239 0.723858 20.5 1 20.5H23C23.2761 20.5 23.5 20.7239 23.5 21C23.5 21.2761 23.2761 21.5 23 21.5H1C0.723858 21.5 0.5 21.2761 0.5 21Z" fill="#8897B1"/>
</svg>
