<svg width="24" height="24" viewBox="0 0 24 24" fill="none" xmlns="http://www.w3.org/2000/svg">
<path fill-rule="evenodd" clip-rule="evenodd" d="M5.74805 11.4998C5.74805 11.2236 5.9719 10.9998 6.24805 10.9998H8.24888C8.52502 10.9998 8.74888 11.2236 8.74888 11.4998C8.74888 11.7759 8.52502 11.9998 8.24888 11.9998H6.24805C5.9719 11.9998 5.74805 11.7759 5.74805 11.4998Z" fill="#8897B1"/>
<path fill-rule="evenodd" clip-rule="evenodd" d="M20.4509 7.00932C20.5744 7.25629 20.4744 7.55664 20.2274 7.68018L18.1095 8.73962C17.8626 8.86317 17.5622 8.76311 17.4387 8.51614C17.3151 8.26918 17.4152 7.96882 17.6622 7.84528L19.78 6.78584C20.027 6.6623 20.3274 6.76235 20.4509 7.00932Z" fill="#8897B1"/>
<path fill-rule="evenodd" clip-rule="evenodd" d="M2.54899 7.00941C2.67248 6.76242 2.97282 6.6623 3.21981 6.7858L5.33869 7.84524C5.58568 7.96873 5.68579 8.26907 5.5623 8.51606C5.4388 8.76305 5.13847 8.86316 4.89148 8.73967L2.7726 7.68023C2.52561 7.55673 2.4255 7.25639 2.54899 7.00941Z" fill="#8897B1"/>
<path fill-rule="evenodd" clip-rule="evenodd" d="M5.52431 4.42642C5.78931 3.29573 6.79783 2.49625 7.95916 2.49625H15.0403C16.2017 2.49625 17.2102 3.29572 17.4752 4.42642L18.4393 8.54004C18.5023 8.8089 18.3355 9.07793 18.0666 9.14094C17.7978 9.20396 17.5287 9.03709 17.4657 8.76823L16.5016 4.65461L16.9884 4.54051L16.5016 4.65461C16.3425 3.97604 15.7373 3.49625 15.0403 3.49625H7.95916C7.26221 3.49625 6.65696 3.97604 6.49793 4.65461L6.01112 4.54051L6.49793 4.65461L5.5338 8.76823C5.47078 9.03709 5.20175 9.20396 4.93289 9.14094C4.66403 9.07793 4.49717 8.8089 4.56018 8.54004L5.52431 4.42642Z" fill="#8897B1"/>
<path fill-rule="evenodd" clip-rule="evenodd" d="M2.49609 11.4998C2.49609 9.56611 4.06366 7.99854 5.99734 7.99854H17.0019C18.9356 7.99854 20.5032 9.56611 20.5032 11.4998V12C20.5032 12.2761 20.2793 12.5 20.0032 12.5C19.727 12.5 19.5032 12.2761 19.5032 12V11.4998C19.5032 10.1184 18.3833 8.99854 17.0019 8.99854H5.99734C4.61594 8.99854 3.49609 10.1184 3.49609 11.4998V16.0017C3.49609 16.278 3.72014 16.5021 3.99651 16.5021H6.23344C6.50981 16.5021 6.73386 16.278 6.73386 16.0017V14.501C6.73386 14.2249 6.95772 14.001 7.23386 14.001H11.9708C12.247 14.001 12.4708 14.2249 12.4708 14.501C12.4708 14.7772 12.247 15.001 11.9708 15.001H7.73386V16.0017C7.73386 16.8303 7.0621 17.5021 6.23344 17.5021H3.99651C3.16785 17.5021 2.49609 16.8303 2.49609 16.0017V11.4998Z" fill="#8897B1"/>
<path fill-rule="evenodd" clip-rule="evenodd" d="M14.251 11.4998C14.251 11.2236 14.4748 10.9998 14.751 10.9998H16.7518C17.028 10.9998 17.2518 11.2236 17.2518 11.4998C17.2518 11.7759 17.028 11.9998 16.7518 11.9998H14.751C14.4748 11.9998 14.251 11.7759 14.251 11.4998Z" fill="#8897B1"/>
<path fill-rule="evenodd" clip-rule="evenodd" d="M18.0024 13.5008C18.2786 13.5008 18.5024 13.7247 18.5024 14.0008C18.5024 15.6585 19.8462 17.0023 21.5039 17.0023C21.78 17.0023 22.0039 17.2261 22.0039 17.5023C22.0039 17.7784 21.78 18.0023 21.5039 18.0023C19.8462 18.0023 18.5024 19.3461 18.5024 21.0037C18.5024 21.2799 18.2786 21.5037 18.0024 21.5037C17.7263 21.5037 17.5024 21.2799 17.5024 21.0037C17.5024 19.3461 16.1586 18.0023 14.501 18.0023C14.2248 18.0023 14.001 17.7784 14.001 17.5023C14.001 17.2261 14.2248 17.0023 14.501 17.0023C16.1586 17.0023 17.5024 15.6585 17.5024 14.0008C17.5024 13.7247 17.7263 13.5008 18.0024 13.5008ZM18.0024 15.9392C17.6385 16.5953 17.0954 17.1383 16.4394 17.5023C17.0954 17.8663 17.6385 18.4093 18.0024 19.0654C18.3664 18.4093 18.9094 17.8663 19.5655 17.5023C18.9094 17.1383 18.3664 16.5953 18.0024 15.9392Z" fill="#8897B1"/>
</svg>
