<svg width="24" height="24" viewBox="0 0 24 24" fill="none" xmlns="http://www.w3.org/2000/svg">
<path fill-rule="evenodd" clip-rule="evenodd" d="M16 13.5C16.2761 13.5 16.5 13.7239 16.5 14V18.2058C16.5 18.4819 16.2761 18.7058 16 18.7058C15.7239 18.7058 15.5 18.4819 15.5 18.2058V14C15.5 13.7239 15.7239 13.5 16 13.5Z" fill="#8897B1"/>
<path fill-rule="evenodd" clip-rule="evenodd" d="M8 13.5C8.27614 13.5 8.5 13.7239 8.5 14V18.2058C8.5 18.4819 8.27614 18.7058 8 18.7058C7.72386 18.7058 7.5 18.4819 7.5 18.2058V14C7.5 13.7239 7.72386 13.5 8 13.5Z" fill="#8897B1"/>
<path fill-rule="evenodd" clip-rule="evenodd" d="M12 14.5C12.2761 14.5 12.5 14.7239 12.5 15V20.75C12.5 21.0261 12.2761 21.25 12 21.25C11.7239 21.25 11.5 21.0261 11.5 20.75V15C11.5 14.7239 11.7239 14.5 12 14.5Z" fill="#8897B1"/>
<path d="M12.8927 5.00068C13.7423 4.98093 14.1081 5.39174 13.9724 6.07314C13.8682 6.60245 13.7246 7.12387 13.5889 7.64726C13.4768 8.08177 13.2074 8.39976 12.7787 8.52814C12.1946 8.70392 11.6046 8.87772 11.0047 8.9824C10.3164 9.09893 9.89355 8.62492 10.0234 7.91192C10.1099 7.43 10.2515 6.95797 10.3636 6.48C10.5052 5.87168 10.871 5.4905 11.4826 5.34829C12.0058 5.22584 12.525 5.09153 12.8927 5.00068ZM13.0107 6.35755C13.0284 6.18967 13.0796 5.93686 12.8416 5.95859C12.3362 6.00599 11.758 6.02179 11.3981 6.39902C11.0421 6.77231 11.0244 7.34705 10.9634 7.85662C10.9398 8.05412 11.1188 8.04425 11.2801 8.03437C12.3853 7.97315 12.9183 7.46161 13.0107 6.35755Z" fill="#8897B1"/>
<path fill-rule="evenodd" clip-rule="evenodd" d="M12 2.50001C9.51472 2.50001 7.5 4.51473 7.5 7.00001C7.5 9.48529 9.51472 11.5 12 11.5C14.4853 11.5 16.5 9.48529 16.5 7.00001C16.5 4.51473 14.4853 2.50001 12 2.50001ZM6.5 7.00001C6.5 3.96244 8.96243 1.50001 12 1.50001C15.0376 1.50001 17.5 3.96244 17.5 7.00001C17.5 10.0376 15.0376 12.5 12 12.5C8.96243 12.5 6.5 10.0376 6.5 7.00001Z" fill="#8897B1"/>
<path fill-rule="evenodd" clip-rule="evenodd" d="M4.67875 7.99275C4.82082 8.22954 4.74404 8.53667 4.50725 8.67875L3.74278 9.13743C3.59217 9.22778 3.50001 9.39054 3.5 9.56617C3.5 9.56617 3.5 9.56617 3.5 9.56617V19.2338C3.49999 19.4139 3.59688 19.5801 3.75364 19.6689C3.91038 19.7577 4.10276 19.7552 4.25723 19.6626C4.25722 19.6626 4.25723 19.6626 4.25723 19.6626L7.16612 17.9173C7.68908 17.6034 8.34999 17.6375 8.83789 18.0035C8.83788 18.0035 8.8379 18.0035 8.83789 18.0035L11.7 20.15C11.8778 20.2833 12.1222 20.2833 12.3 20.15L15.1621 18.0035C15.1621 18.0035 15.1621 18.0035 15.1621 18.0035C15.65 17.6375 16.3109 17.6034 16.8339 17.9172L19.7428 19.6626C19.8972 19.7552 20.0896 19.7576 20.2464 19.6689C20.4031 19.5801 20.5 19.4139 20.5 19.2338V9.56618C20.5 9.39055 20.4078 9.2278 20.2572 9.13744L19.4927 8.67874C19.256 8.53667 19.1792 8.22954 19.3213 7.99275C19.4633 7.75596 19.7705 7.67918 20.0073 7.82126L20.7717 8.27994C20.7717 8.27993 20.7717 8.27994 20.7717 8.27994C21.2235 8.55101 21.5 9.03927 21.5 9.56616V19.2338C21.5 19.7742 21.2093 20.2728 20.7391 20.5391C20.2689 20.8053 19.6917 20.7981 19.2283 20.5201L16.3194 18.7747C16.1451 18.6701 15.9248 18.6815 15.7621 18.8034L12.9 20.95C12.3667 21.35 11.6333 21.35 11.1 20.95C11.1 20.95 11.1 20.95 11.1 20.95L8.23791 18.8035C8.07529 18.6815 7.85498 18.6701 7.68068 18.7747L4.77171 20.5201C4.30831 20.7981 3.73116 20.8054 3.26091 20.5391C2.79065 20.2728 2.49999 19.7742 2.5 19.2338C2.5 19.2338 2.5 19.2338 2.5 19.2338V9.56617C2.50001 9.03927 2.77647 8.55101 3.22828 8.27993C3.22828 8.27994 3.22829 8.27993 3.22828 8.27993L3.99275 7.82125C4.22954 7.67918 4.53667 7.75596 4.67875 7.99275Z" fill="#8897B1"/>
</svg>
