<svg width="16" height="19" viewBox="0 0 16 19" fill="none" xmlns="http://www.w3.org/2000/svg">
<path d="M3.89644 16.8079C3.89644 16.5575 3.88473 16.3057 3.90035 16.0552C3.91336 15.8527 3.84049 15.761 3.65701 15.6981C2.51193 15.3039 1.61928 14.5704 1.01161 13.4674C0.588705 12.6997 0.340169 11.8663 0.226962 10.9932C-0.0254778 9.03627 -0.0202729 7.08208 0.375302 5.1443C0.571789 4.18088 0.947845 3.29547 1.57114 2.5428C2.02266 1.99541 2.59911 1.6355 3.2185 1.34948C4.26209 0.867776 5.36814 0.654292 6.49761 0.543445C7.31999 0.462704 8.14367 0.475021 8.96475 0.51197C10.3389 0.57492 11.6752 0.823985 12.9452 1.42064C14.1788 1.99951 14.9686 2.97935 15.4072 4.29994C15.7221 5.24693 15.8678 6.22677 15.9316 7.2244C16.0187 8.59699 15.9381 9.95863 15.7455 11.3148C15.5971 12.3603 15.2484 13.3292 14.6069 14.1613C14.0539 14.8783 13.3512 15.3683 12.5262 15.6652C11.3278 16.0977 10.0903 16.2975 8.82682 16.3659C8.16709 16.4015 7.51257 16.37 6.85675 16.3426C6.74094 16.3372 6.66677 16.3768 6.5965 16.4644C6.19312 16.9612 5.78713 17.4566 5.37855 17.9492C5.23151 18.1271 5.07796 18.3009 4.87887 18.4173C4.50152 18.6376 4.11375 18.4816 3.97321 18.0519C3.84049 17.6454 3.91206 17.2226 3.89644 16.8079ZM4.51323 17.8137C4.56397 17.7741 4.58219 17.7645 4.59651 17.7481C5.27445 16.9571 5.9602 16.1743 6.62513 15.3724C6.83593 15.1192 7.04673 14.9974 7.38375 15.0125C8.86716 15.0781 10.3284 14.9112 11.7585 14.4733C12.374 14.2844 12.9257 13.9861 13.3837 13.5085C14.0305 12.8325 14.3688 11.9922 14.5158 11.0671C14.7136 9.81905 14.7878 8.56278 14.7006 7.29693C14.6394 6.41289 14.5119 5.5439 14.2113 4.71186C13.9355 3.94687 13.5282 3.28452 12.832 2.86714C12.2361 2.50996 11.5971 2.27321 10.9296 2.11857C9.60496 1.8093 8.26468 1.76277 6.91791 1.83803C5.98883 1.89004 5.08187 2.0611 4.20353 2.39227C2.94524 2.86714 2.11375 3.76486 1.71948 5.11282C1.51388 5.81486 1.40198 6.53194 1.37075 7.26408C1.3174 8.51899 1.27445 9.77252 1.51909 11.0137C1.84179 12.6518 2.64986 13.8835 4.20223 14.4555C4.45857 14.5499 4.52234 14.6799 4.51843 14.9454C4.50412 15.8869 4.51323 16.8298 4.51323 17.8137Z" fill="#8897B1"/>
<path d="M10.4034 13.2963C10.2694 13.3004 10.147 13.258 10.026 13.206C8.67144 12.6244 7.44958 11.8211 6.4086 10.7386C5.17112 9.45357 4.23553 7.96192 3.66429 6.22257C3.48342 5.67381 3.59663 5.23863 4.01563 4.88009C4.20561 4.71724 4.40079 4.55849 4.60378 4.41207C4.97594 4.1411 5.35069 4.17942 5.65388 4.53386C6.03644 4.97999 6.38647 5.45622 6.67144 5.98035C6.7326 6.0912 6.77945 6.21299 6.81848 6.33479C6.90567 6.60164 6.87053 6.84523 6.65973 7.04093C6.5192 7.1723 6.37476 7.29957 6.23293 7.42821C6.05856 7.58832 6.00651 7.78675 6.05596 8.02487C6.22382 8.83228 6.69877 9.42346 7.27522 9.94212C7.61874 10.2514 7.9961 10.5005 8.43722 10.6332C8.66624 10.703 8.84971 10.6428 8.99545 10.4498C9.08133 10.3362 9.16461 10.2213 9.25049 10.1091C9.48081 9.80527 9.81392 9.70674 10.1418 9.87917C10.7664 10.2103 11.309 10.6674 11.8217 11.1614C11.987 11.3216 12.0729 11.5501 11.987 11.7882C11.7606 12.4232 11.3754 12.9199 10.7846 13.2196C10.6675 13.2799 10.5361 13.3031 10.4034 13.2963Z" fill="#8897B1"/>
<path d="M11.8087 8.3711C11.771 8.49837 11.8738 8.70638 11.6955 8.7228C11.4977 8.74059 11.568 8.51753 11.5589 8.40394C11.5159 7.81686 11.4431 7.23799 11.201 6.70155C10.6012 5.37275 9.59531 4.65292 8.20299 4.52976C8.13142 4.52292 8.05855 4.52702 7.98698 4.51881C7.8998 4.50786 7.79961 4.49281 7.80871 4.36828C7.81652 4.26153 7.90631 4.25196 7.98828 4.24648C8.19128 4.2328 8.39297 4.26564 8.59206 4.29985C10.3188 4.60366 11.594 6.04604 11.7593 7.87845C11.7749 8.0454 11.7931 8.21099 11.8087 8.3711Z" fill="#8897B1"/>
<path d="M10.8003 8.00435C10.8003 8.01941 10.8016 8.03446 10.8003 8.04951C10.7912 8.15215 10.8185 8.2931 10.6793 8.29995C10.5362 8.30679 10.5453 8.16447 10.5427 8.0632C10.5362 7.80455 10.5167 7.54728 10.4386 7.29958C10.1393 6.35396 9.51861 5.80246 8.58822 5.63003C8.48152 5.61087 8.37352 5.59582 8.26812 5.57666C8.19005 5.5616 8.12629 5.51918 8.1393 5.42612C8.15231 5.3317 8.22648 5.31528 8.30455 5.32212C9.43272 5.4097 10.4034 6.08437 10.7105 7.35295C10.7613 7.56507 10.7795 7.7854 10.8133 8.00298C10.8094 8.00298 10.8042 8.00435 10.8003 8.00435Z" fill="#8897B1"/>
<path d="M8.64162 6.43745C9.29224 6.46756 9.81534 7.05601 9.80362 7.73888C9.80232 7.82236 9.80492 7.92226 9.70343 7.93868C9.57591 7.96057 9.57721 7.84288 9.55899 7.75804C9.52776 7.61708 9.51605 7.47066 9.47051 7.33654C9.3573 7.00127 9.11787 6.80968 8.79256 6.73167C8.73661 6.71799 8.67675 6.71662 8.6221 6.70157C8.53622 6.67693 8.4113 6.6783 8.43733 6.53461C8.45555 6.41555 8.56485 6.44155 8.64162 6.43745Z" fill="#8897B1"/>
</svg>
