<svg width="19" height="19" viewBox="0 0 19 19" fill="none" xmlns="http://www.w3.org/2000/svg">
<path d="M9.04345 18.5167C7.46498 18.5167 5.91535 18.0987 4.54591 17.3059L1.0286 18.5167L1.74936 14.7976C0.617762 13.248 0.0195312 11.4244 0.0195312 9.50001C0.0195312 4.52675 4.063 0.483276 9.03624 0.483276C14.0095 0.483276 18.053 4.52675 18.053 9.50001C18.0674 14.4661 14.0239 18.5167 9.04345 18.5167ZM4.71168 15.8283L4.98557 16.0013C6.21086 16.7725 7.61634 17.1761 9.05066 17.1761C13.2815 17.1761 16.7268 13.7309 16.7268 9.50001C16.7268 5.26913 13.2815 1.82389 9.05066 1.82389C4.81259 1.81669 1.36735 5.26193 1.36735 9.4928C1.36735 11.2154 1.92955 12.8443 2.99627 14.2138L3.18367 14.4516L2.78725 16.4842L4.71168 15.8283Z" fill="#8897B1"/>
<path d="M4.49539 6.03312C4.49539 6.03312 5.02155 5.11054 5.45401 5.05288C5.88646 5.00243 6.44145 5.00243 6.59281 5.28352C6.74417 5.56462 7.41447 7.20796 7.41447 7.20796C7.41447 7.20796 7.52979 7.48906 7.3496 7.76295C7.16941 8.02963 6.773 8.42605 6.773 8.42605C6.773 8.42605 6.54956 8.70714 6.773 9.00986C6.99643 9.31258 7.33519 9.86036 8.04154 10.5667C8.74788 11.2731 10.1029 11.7776 10.1029 11.7776C10.1029 11.7776 10.2975 11.8064 10.42 11.6839C10.5426 11.5614 11.2129 10.7253 11.2129 10.7253C11.2129 10.7253 11.4291 10.4514 11.7823 10.61C12.1355 10.7757 13.6851 11.5469 13.6851 11.5469C13.6851 11.5469 13.8653 11.6118 13.8653 11.8857C13.8653 12.1596 13.7572 12.8299 13.5265 13.0533C13.3031 13.2768 12.64 13.9759 11.6453 13.9759C10.6507 13.9759 8.28659 13.1687 7.02526 11.9073C5.76393 10.646 4.64675 9.37024 4.38007 8.20982C4.13501 7.03498 4.17105 6.50882 4.49539 6.03312Z" fill="#8897B1"/>
</svg>
