<svg width="29" height="30" viewBox="0 0 29 30" fill="none" xmlns="http://www.w3.org/2000/svg">
<g clip-path="url(#clip0_4205_2781)">
<path d="M1.41505 20.3279C1.88734 20.3211 2.35453 20.4001 2.79029 20.5573C3.53525 20.8248 4.25897 20.8342 5.01412 20.6031C6.04023 20.2888 7.07485 20.3152 8.10946 20.604C8.86036 20.8129 9.60532 20.7323 10.3469 20.519C11.1819 20.2795 12.0288 20.2922 12.8612 20.5165C13.8432 20.7815 14.8073 20.7883 15.7875 20.5021C16.71 20.2328 17.6393 20.3526 18.555 20.57C19.2855 20.7433 20.0075 20.762 20.7329 20.5513C21.5977 20.3007 22.4658 20.3203 23.328 20.5649C24.0976 20.7832 24.8637 20.7722 25.6291 20.5522C26.1218 20.4103 26.6238 20.3432 27.136 20.3517C27.2056 20.3814 27.2694 20.4316 27.2303 20.5088C27.0544 20.858 27.1105 21.3235 26.707 21.5579C26.4335 21.5239 26.1676 21.5876 25.9111 21.6547C24.9725 21.9011 24.0398 21.8612 23.0961 21.6811C22.4734 21.5622 21.8355 21.4713 21.2078 21.6344C20.1273 21.9138 19.0587 21.8756 17.9774 21.631C17.2231 21.4602 16.4594 21.4908 15.7068 21.6879C14.769 21.9342 13.8347 21.9155 12.8952 21.6828C12.0721 21.4789 11.2422 21.4713 10.4165 21.6751C9.51953 21.896 8.62592 21.8849 7.72891 21.676C7.03153 21.5137 6.3231 21.4806 5.62486 21.6437C4.55287 21.8934 3.48853 21.9334 2.42079 21.6378C2.37746 21.6335 2.33499 21.6301 2.29167 21.6259C2.2543 21.6106 2.21692 21.5961 2.17955 21.5808C1.7217 21.4772 1.34795 20.8639 1.41505 20.3279Z" fill="#18ABC6"/>
<path d="M26.2 22.4729C26.2603 22.5001 26.3776 22.5315 26.3274 22.5995C26.0327 22.9962 25.9223 23.5347 25.4338 23.7836C24.6685 23.894 23.9133 23.8295 23.1607 23.6681C22.3869 23.5024 21.6131 23.539 20.846 23.7139C20.1028 23.8838 19.357 23.9119 18.6162 23.7411C17.5366 23.4922 16.468 23.4803 15.3909 23.7581C14.7241 23.9305 14.0454 23.9204 13.3727 23.7683C12.2523 23.5135 11.1353 23.482 10.0115 23.7581C9.44233 23.8974 8.86047 23.8855 8.28455 23.7734C7.33488 23.5891 6.38436 23.471 5.4228 23.68C4.82564 23.8099 4.22254 23.8643 3.6118 23.8482C3.53195 23.8439 3.45126 23.8397 3.37141 23.8354C3.35102 23.8099 3.32724 23.804 3.30006 23.8184C2.69101 23.6078 2.58483 22.9936 2.27563 22.5426C2.3249 22.5205 2.37332 22.4984 2.42259 22.4755C3.28901 22.7243 4.16818 22.8178 5.04989 22.5935C6.01655 22.3472 6.97727 22.3336 7.94308 22.5697C8.72796 22.7617 9.51114 22.7575 10.2909 22.5468C11.1582 22.3115 12.0246 22.3421 12.8927 22.5324C13.7847 22.7277 14.674 22.8254 15.5744 22.5613C16.4774 22.2962 17.3888 22.3226 18.2977 22.5434C19.193 22.7609 20.0824 22.7719 20.9777 22.5213C21.6411 22.3362 22.3206 22.354 22.9942 22.4941C23.1692 22.5307 23.3383 22.6003 23.5149 22.6309C24.4221 22.7872 25.3149 22.6904 26.2009 22.4721L26.2 22.4729Z" fill="#18ABC6"/>
<path d="M4.72367 25.7679C4.39748 25.4247 4.02288 25.124 3.78589 24.7027C4.25223 24.7053 4.71687 24.6806 5.16962 24.5642C6.07937 24.3307 6.98826 24.3587 7.89801 24.5625C8.63872 24.729 9.38622 24.7817 10.1218 24.571C11.1174 24.2856 12.1027 24.3315 13.094 24.5693C13.8882 24.7596 14.6859 24.8089 15.4826 24.5863C16.4586 24.3137 17.4346 24.3315 18.4157 24.56C19.255 24.7554 20.0908 24.7656 20.9309 24.5379C21.5799 24.3621 22.2458 24.3391 22.9067 24.4598C23.5175 24.571 24.1248 24.7036 24.7491 24.7188C24.4765 25.107 24.1995 25.4918 23.8232 25.7908C22.9254 25.5292 22.0148 25.4587 21.1025 25.6821C20.2038 25.9021 19.3127 25.9132 18.4149 25.7016C17.5034 25.4867 16.5928 25.491 15.6839 25.7178C14.8303 25.931 13.9783 25.9395 13.1229 25.7297C12.101 25.4791 11.0792 25.4842 10.0598 25.7475C9.44568 25.9064 8.81795 25.9301 8.21145 25.7764C7.04348 25.4799 5.88655 25.5301 4.72367 25.7688V25.7679Z" fill="#18ABC6"/>
<path d="M22.9662 26.4763C22.482 26.9885 21.873 27.3232 21.275 27.6749C20.2489 27.7938 19.2261 27.8915 18.1992 27.6502C17.4151 27.4659 16.6218 27.5118 15.8437 27.7012C14.8465 27.9424 13.8594 27.928 12.8622 27.7003C12.2132 27.5525 11.5498 27.4311 10.8855 27.5678C9.73964 27.804 8.59205 27.8685 7.43512 27.68C6.73179 27.4634 6.20429 26.963 5.61987 26.5545C6.23656 26.2546 6.86685 26.3897 7.48354 26.5298C8.43576 26.7456 9.38203 26.8288 10.3359 26.5579C11.1319 26.3319 11.9295 26.3497 12.7271 26.5468C13.7753 26.8059 14.8218 26.845 15.8726 26.5536C16.6252 26.3455 17.3854 26.3616 18.1406 26.5409C19.193 26.7906 20.2353 26.8059 21.2852 26.5026C21.8348 26.3438 22.4047 26.354 22.9671 26.4772L22.9662 26.4763Z" fill="#18ABC6"/>
<path d="M9.2937 28.7664C10.2807 28.4733 11.2771 28.2211 12.3084 28.5082C13.6326 28.8768 14.9467 28.9015 16.2727 28.5141C17.1306 28.2635 17.9809 28.4886 18.8295 28.6169C19.0104 28.6441 19.1922 28.6704 19.3731 28.6976C17.8237 29.333 16.2005 29.5954 14.5373 29.6303C12.7382 29.6676 11.0002 29.3058 9.2937 28.7655V28.7664Z" fill="#18ABC6"/>
<path d="M3.30005 23.8192C3.32699 23.8049 3.35056 23.8108 3.37077 23.836C3.3472 23.8301 3.32362 23.8242 3.30005 23.8192Z" fill="#18ABC6"/>
</g>
<mask id="mask0_4205_2781" style="mask-type:alpha" maskUnits="userSpaceOnUse" x="0" y="0" width="29" height="19">
<rect x="0.558105" y="0.366333" width="27.8615" height="18.5177" fill="url(#paint0_linear_4205_2781)"/>
</mask>
<g mask="url(#mask0_4205_2781)">
<path fill-rule="evenodd" clip-rule="evenodd" d="M14.4039 29.502C22.0508 29.502 28.2497 23.303 28.2497 15.6562C28.2497 8.00935 22.0508 1.81036 14.4039 1.81036C6.75709 1.81036 0.558105 8.00935 0.558105 15.6562C0.558105 23.303 6.75709 29.502 14.4039 29.502ZM14.3175 23.2987C18.5393 23.2987 21.9616 19.8763 21.9616 15.6546C21.9616 11.4328 18.5393 8.01045 14.3175 8.01045C10.0958 8.01045 6.6734 11.4328 6.6734 15.6546C6.6734 19.8763 10.0958 23.2987 14.3175 23.2987Z" fill="#18ABC6"/>
</g>
<defs>
<linearGradient id="paint0_linear_4205_2781" x1="14.4889" y1="0.366333" x2="14.4889" y2="18.8841" gradientUnits="userSpaceOnUse">
<stop stop-color="#ED8D10"/>
<stop offset="1" stop-color="#DB5622"/>
</linearGradient>
<clipPath id="clip0_4205_2781">
<rect width="25.8356" height="9.30558" fill="white" transform="translate(1.40747 20.3281)"/>
</clipPath>
</defs>
</svg>
