<svg width="68" height="50" viewBox="0 0 68 50" fill="none" xmlns="http://www.w3.org/2000/svg">
<path d="M45.744 12.1946C45.641 12.1946 45.5392 12.197 45.4374 12.1993C44.156 6.36371 39.0034 2 32.842 2C26.332 2 20.95 6.8709 20.0677 13.2019C15.5107 13.832 12 17.7796 12 22.5559C12 27.7709 16.1848 31.9974 21.3456 31.9974C23.0483 31.9974 24.6445 31.5375 26.0195 30.7336C27.9282 32.1582 30.2874 33 32.842 33C35.3967 33 37.6646 32.1902 39.5534 30.8152C41.2737 32.1334 43.4187 32.9161 45.744 32.9161C51.408 32.9161 56 28.2769 56 22.5547C56 16.8326 51.408 12.1934 45.744 12.1934V12.1946Z" fill="#E5EAF8"/>
<path d="M27.8681 38.4889C27.8681 36.9077 26.2879 33.5859 26.2879 33.5859C26.2879 33.5859 24.7078 36.9077 24.7078 38.4889C24.7078 40.07 25.4148 41.3521 26.2879 41.3521C27.161 41.3521 27.8681 40.07 27.8681 38.4889Z" fill="#5DBDF1"/>
<path d="M40.5842 37.7966C40.5842 36.6212 39.4098 34.1538 39.4098 34.1538C39.4098 34.1538 38.2354 36.6212 38.2354 37.7966C38.2354 38.9721 38.761 39.9243 39.4098 39.9243C40.0585 39.9243 40.5842 38.9721 40.5842 37.7966Z" fill="#5DBDF1"/>
<path d="M33.5894 46.1529C33.5894 45.1974 32.6338 43.1885 32.6338 43.1885C32.6338 43.1885 31.6782 45.1963 31.6782 46.1529C31.6782 47.1095 32.106 47.8836 32.6338 47.8836C33.1616 47.8836 33.5894 47.1084 33.5894 46.1529Z" fill="#5DBDF1"/>
</svg>
