<svg width="68" height="50" viewBox="0 0 68 50" fill="none" xmlns="http://www.w3.org/2000/svg">
<path d="M25.0236 38.3123C25.0236 36.6259 23.3382 33.083 23.3382 33.083C23.3382 33.083 21.6528 36.6259 21.6528 38.3123C21.6528 39.9987 22.407 41.3662 23.3382 41.3662C24.2694 41.3662 25.0236 39.9987 25.0236 38.3123Z" fill="#5DBDF1"/>
<path d="M41.9139 39.065C41.9139 37.8113 40.6613 35.1797 40.6613 35.1797C40.6613 35.1797 39.4087 37.8113 39.4087 39.065C39.4087 40.3187 39.9693 41.3343 40.6613 41.3343C41.3532 41.3343 41.9139 40.3187 41.9139 39.065Z" fill="#5DBDF1"/>
<path d="M34.452 47.977C34.452 46.9579 33.4328 44.8164 33.4328 44.8164C33.4328 44.8164 32.4136 46.9579 32.4136 47.977C32.4136 48.9961 32.8698 49.8229 33.4328 49.8229C33.9957 49.8229 34.452 48.9961 34.452 47.977Z" fill="#5DBDF1"/>
<path d="M46.0784 10.2562C45.9752 10.2562 45.8732 10.2586 45.7711 10.2609C44.4869 4.4722 39.3229 0.143555 33.1479 0.143555C26.6235 0.143555 21.2296 4.97532 20.3453 11.2554C15.7783 11.8805 12.2598 15.7963 12.2598 20.5343C12.2598 25.7073 16.4538 29.8999 21.626 29.8999C23.3325 29.8999 24.9322 29.4437 26.3103 28.6462C28.2232 30.0594 30.5876 30.8944 33.1479 30.8944C35.7082 30.8944 37.9812 30.0911 39.8741 28.7272C41.5982 30.0348 43.748 30.8111 46.0784 30.8111C51.7549 30.8111 56.3571 26.2092 56.3571 20.5331C56.3571 14.857 51.7549 10.2551 46.0784 10.2551V10.2562Z" fill="#E5EAF8"/>
<path d="M34.3923 28.1877L42.0826 18.8432L37.6024 15.563C35.9346 18.1337 28.1364 30.1579 26.634 32.473L30.583 31.896L34.8661 31.2709C32.6049 34.7247 27.0668 43.1814 27.0668 43.1814C28.31 41.8022 39.6314 29.2397 40.5321 28.2405L37.4921 28.2147L34.3935 28.1877H34.3923Z" fill="#FDCC1D"/>
</svg>
