<svg width="68" height="50" viewBox="0 0 68 50" fill="none" xmlns="http://www.w3.org/2000/svg">
<path d="M21.846 30.1913C26.5737 30.1913 30.4063 26.359 30.4063 21.6316C30.4063 16.9041 26.5737 13.0718 21.846 13.0718C17.1182 13.0718 13.2856 16.9041 13.2856 21.6316C13.2856 26.359 17.1182 30.1913 21.846 30.1913Z" fill="#FDCC1D"/>
<path d="M20.0137 11.4462L21.8459 5L23.6793 11.4462H20.0137Z" fill="#FDCC1D"/>
<path d="M13.3475 15.7252L10.0859 9.87109L15.9405 13.1336L13.3475 15.7252Z" fill="#FDCC1D"/>
<path d="M11.6607 23.4654L5.21411 21.6321L11.6607 19.7988V23.4654Z" fill="#FDCC1D"/>
<path d="M15.9405 30.1294L10.0859 33.3908L13.3475 27.5366L15.9405 30.1294Z" fill="#FDCC1D"/>
<path d="M23.6793 31.8164L21.8459 38.2626L20.0137 31.8164H23.6793Z" fill="#FDCC1D"/>
<path d="M30.3447 27.5366L33.6075 33.3908L27.7529 30.1294L30.3447 27.5366Z" fill="#FDCC1D"/>
<path d="M32.032 19.7988L38.4786 21.6321L32.032 23.4654V19.7988Z" fill="#FDCC1D"/>
<path d="M27.7529 13.1336L33.6075 9.87109L30.3447 15.7252L27.7529 13.1336Z" fill="#FDCC1D"/>
<path d="M51.9235 23.9068C51.8187 23.9068 51.7152 23.9092 51.6116 23.9116C50.308 17.9953 45.0662 13.5713 38.7982 13.5713C32.1754 13.5713 26.7002 18.5095 25.8026 24.9281C21.1667 25.5669 17.5952 29.569 17.5952 34.4114C17.5952 39.6984 21.8525 43.9834 27.1026 43.9834C28.8348 43.9834 30.4587 43.5172 31.8575 42.7021C33.7992 44.1465 36.1993 44.9999 38.7982 44.9999C41.397 44.9999 43.7043 44.1788 45.6257 42.7848C47.3758 44.1213 49.558 44.9148 51.9235 44.9148C57.6856 44.9148 62.3571 40.2114 62.3571 34.4102C62.3571 28.609 57.6856 23.9056 51.9235 23.9056V23.9068Z" fill="#E5EAF8"/>
</svg>
