<svg width="30" height="30" viewBox="0 0 30 30" fill="none" xmlns="http://www.w3.org/2000/svg">
<path fill-rule="evenodd" clip-rule="evenodd" d="M5.7862 21.4546C2.43878 16.6769 3.29881 10.1331 7.76704 6.38263C12.2353 2.63215 18.8291 2.91946 22.9542 7.04437C27.0793 11.1693 27.3668 17.7631 23.6165 22.2315C19.8662 26.6999 13.3225 27.5602 8.54469 24.2129L4.9981 25.001L5.7862 21.4546Z" stroke="#18ABC6" stroke-width="1.5" stroke-linecap="round" stroke-linejoin="round"/>
<path fill-rule="evenodd" clip-rule="evenodd" d="M13.9643 10.2323C14.1588 9.838 14.5604 9.58838 15 9.58838C15.4397 9.58838 15.8412 9.838 16.0358 10.2323L16.7469 11.6738C16.9151 12.0148 17.2403 12.2511 17.6165 12.3058L19.2071 12.5371C19.6421 12.6003 20.0034 12.9049 20.1393 13.3229C20.2752 13.7409 20.162 14.1998 19.8474 14.5067L18.6961 15.6297C18.4241 15.895 18.3 16.2772 18.3643 16.6517L18.636 18.2356C18.7103 18.6689 18.5322 19.1068 18.1766 19.3652C17.821 19.6236 17.3495 19.6577 16.9603 19.4532L15.5374 18.7053C15.201 18.5285 14.7992 18.5285 14.4628 18.7053L13.0398 19.4532C12.6507 19.6577 12.1792 19.6236 11.8236 19.3652C11.4679 19.1068 11.2899 18.6689 11.3642 18.2356L11.6359 16.6517C11.7001 16.2772 11.576 15.895 11.304 15.6297L10.1527 14.5067C9.83809 14.1998 9.72492 13.7409 9.86081 13.3229C9.99669 12.9049 10.3581 12.6003 10.793 12.5371L12.3836 12.3058C12.7598 12.2511 13.0851 12.0148 13.2532 11.6738L13.9643 10.2323Z" stroke="#18ABC6" stroke-width="1.5" stroke-linecap="round" stroke-linejoin="round"/>
</svg>
