<svg width="79" height="59" viewBox="0 0 79 59" fill="none" xmlns="http://www.w3.org/2000/svg">
<path d="M61.6718 20.7093C61.5699 20.7093 61.468 20.7108 61.3676 20.7136C60.097 14.9392 54.989 10.6201 48.8793 10.6201C42.4244 10.6201 37.0872 15.4414 36.2128 21.7067C31.6949 22.3302 28.2141 26.2369 28.2141 30.9641C28.2141 36.125 32.3627 40.3085 37.4806 40.3085C39.1686 40.3085 40.7519 39.8533 42.1145 39.0571C44.0063 40.4668 46.3466 41.3001 48.8793 41.3001C51.4121 41.3001 53.6618 40.4982 55.5338 39.1385C57.2402 40.4426 59.3668 41.2174 61.6718 41.2174C67.2877 41.2174 71.841 36.6258 71.841 30.9626C71.841 25.2995 67.2877 20.7079 61.6718 20.7079V20.7093Z" fill="#CED7EC"/>
<path d="M46.7779 22.6498C46.6565 22.6498 46.5364 22.6526 46.4164 22.6553C44.9055 15.7693 38.8301 10.6201 31.5652 10.6201C23.8891 10.6201 17.5432 16.3678 16.5028 23.8384C11.1297 24.5819 6.99023 29.2401 6.99023 34.8761C6.99023 41.0297 11.9246 46.0171 18.0096 46.0171C20.0173 46.0171 21.8994 45.4744 23.5207 44.5258C25.7712 46.2068 28.553 47.2001 31.5652 47.2001C34.5774 47.2001 37.2515 46.2445 39.4786 44.622C41.5069 46.1775 44.0362 47.1011 46.7779 47.1011C53.4564 47.1011 58.8708 41.6268 58.8708 34.8747C58.8708 28.1226 53.4564 22.6484 46.7779 22.6484V22.6498Z" fill="#E5EAF8"/>
</svg>
