<svg width="68" height="50" viewBox="0 0 68 50" fill="none" xmlns="http://www.w3.org/2000/svg">
<path d="M45.7447 12.1943C45.6418 12.1943 45.54 12.1966 45.4371 12.1999C44.1552 6.36442 39.0034 2 32.8423 2C26.3331 2 20.9504 6.87099 20.0681 13.2019C15.5119 13.8313 12 17.7798 12 22.5557C12 27.7707 16.184 31.9979 21.3456 31.9979C23.0479 31.9979 24.644 31.5378 26.019 30.7337C27.9271 32.1583 30.2873 33 32.8423 33C35.3974 33 37.6657 32.1904 39.5541 30.8156C41.2749 32.134 43.4195 32.917 45.7447 32.917C51.4088 32.917 56 28.2783 56 22.5557C56 16.8331 51.4088 12.1943 45.7447 12.1943Z" fill="#E5EAF8"/>
<path d="M21.2651 37.9178C21.4848 37.7176 21.7046 37.5181 21.9243 37.3179C21.9553 37.2901 21.9854 37.2622 22.0164 37.2343C22.1332 37.128 22.1263 36.9454 22.0164 36.8375C21.8051 36.6293 21.5947 36.421 21.3835 36.2127C21.385 36.1291 21.3858 36.0462 21.3873 35.9626L21.3943 35.5277C21.628 35.7088 21.8624 35.89 22.0961 36.0711L22.2555 36.1943C22.3174 36.242 22.3785 36.2758 22.4605 36.2765C22.534 36.2772 22.623 36.2471 22.6733 36.1943C22.7244 36.1415 22.7623 36.0733 22.7599 36C22.7576 35.9289 22.7344 35.8452 22.6733 35.7983C22.5263 35.6846 22.3793 35.571 22.2323 35.4573C21.9986 35.2761 21.7641 35.095 21.5305 34.9146C21.4887 34.8823 21.4461 34.8493 21.4043 34.817C21.4067 34.6806 21.409 34.5442 21.4113 34.4078C21.5312 34.5002 21.6512 34.5933 21.7711 34.6857C21.8098 34.7158 21.8485 34.7459 21.8872 34.7752C21.9491 34.8229 22.0102 34.8566 22.0922 34.8573C22.1657 34.8581 22.2547 34.828 22.305 34.7752C22.3561 34.7224 22.394 34.6542 22.3916 34.5809C22.3893 34.5097 22.3661 34.4261 22.305 34.3792C22.1998 34.2978 22.0953 34.2171 21.9901 34.1357C21.8237 34.0066 21.6574 33.8782 21.491 33.7492C21.4678 33.7316 21.4454 33.7132 21.4221 33.6956L21.4237 33.6186C21.426 33.4903 21.4276 33.3627 21.4299 33.2343C21.6829 33.4125 21.9359 33.5915 22.1881 33.7697C22.2485 33.8122 22.3096 33.8555 22.37 33.8981C22.4481 33.9406 22.5325 33.9626 22.6222 33.9641C22.7151 33.9648 22.8025 33.9435 22.8837 33.9003C22.965 33.8562 23.0284 33.7968 23.0756 33.7206C23.1205 33.6465 23.1437 33.5666 23.1453 33.4815C23.1244 33.2871 23.1043 33.0928 23.0834 32.8992C23.064 32.7158 23.0447 32.5317 23.0253 32.3484C23.1004 32.388 23.1762 32.4276 23.2513 32.4672C23.3325 32.5097 23.4138 32.553 23.495 32.5955C23.5113 32.6894 23.5275 32.7833 23.5445 32.8772C23.5793 33.0781 23.6149 33.2791 23.6498 33.48C23.6583 33.5269 23.666 33.5732 23.6745 33.6201C23.6861 33.6883 23.7519 33.7602 23.813 33.7939C23.8741 33.8276 23.9647 33.843 24.0335 33.8232C24.1078 33.802 24.1798 33.7594 24.2169 33.692C24.2541 33.6245 24.261 33.5585 24.2479 33.4829C24.2254 33.3561 24.2038 33.2299 24.1813 33.103C24.172 33.0495 24.1628 32.996 24.1535 32.9424C24.2486 32.9923 24.3438 33.0429 24.4382 33.0928C24.4684 33.1089 24.4978 33.1243 24.528 33.1404C24.5543 33.2901 24.5806 33.4397 24.6061 33.5893L24.7539 34.4364L24.7879 34.6293C24.7995 34.6975 24.8653 34.7693 24.9264 34.8031C24.9876 34.8368 25.0781 34.8522 25.147 34.8324C25.2212 34.8111 25.2932 34.7686 25.3303 34.7011C25.3675 34.6337 25.3744 34.5676 25.3613 34.4921C25.3303 34.3146 25.2994 34.1371 25.2684 33.9597L25.1856 33.4866C25.2777 33.535 25.369 33.5834 25.4611 33.6318C25.5741 33.6912 25.687 33.7506 25.8 33.81C25.8046 33.8122 25.8093 33.8152 25.8139 33.8174C25.8836 34.0557 25.954 34.2948 26.0236 34.5332C26.0352 34.5721 26.0461 34.6109 26.0577 34.6498C26.0994 34.7928 26.2596 34.8947 26.4167 34.8537C26.7099 34.7767 27.004 34.6989 27.2972 34.6219C27.3382 34.6109 27.3792 34.6007 27.4202 34.5897C27.4434 34.5838 27.4659 34.575 27.4868 34.564C27.5355 34.5398 27.5781 34.5053 27.6036 34.4584C27.6253 34.4239 27.6392 34.3792 27.6431 34.3352C27.6431 34.333 27.6431 34.3315 27.6431 34.3293C27.6431 34.3264 27.6431 34.3242 27.6431 34.3212C27.6431 34.3198 27.6431 34.3176 27.6431 34.3161C27.6431 34.2926 27.6407 34.2699 27.6338 34.2494C27.5525 33.9714 27.4705 33.6927 27.3893 33.4147L27.3552 33.2981C27.3135 33.1551 27.1533 33.0532 26.9962 33.0942C26.703 33.1712 26.4089 33.249 26.1157 33.326L26.1041 33.3289C26.0205 33.2849 25.937 33.2409 25.8534 33.1969C25.7219 33.1272 25.5895 33.0583 25.458 32.9886L25.4781 32.9798C25.7528 32.861 26.0275 32.7415 26.3022 32.6227C26.3648 32.5955 26.4275 32.5684 26.4894 32.5413C26.5552 32.5126 26.6101 32.4356 26.6287 32.3718C26.648 32.3058 26.6403 32.2178 26.6008 32.1591C26.5598 32.0975 26.4995 32.044 26.4221 32.0271C26.3416 32.0095 26.272 32.0205 26.1977 32.0535C26.0252 32.1283 25.8526 32.2032 25.6801 32.278C25.4054 32.3968 25.1307 32.5163 24.856 32.6351C24.8436 32.6403 24.8305 32.6461 24.8181 32.6513C24.6835 32.5801 24.5481 32.509 24.4134 32.4378L24.8754 32.2376C24.921 32.2178 24.9659 32.198 25.0116 32.179C25.0773 32.1503 25.1323 32.0733 25.1508 32.0095C25.1702 31.9435 25.1624 31.8555 25.123 31.7968C25.082 31.7352 25.0216 31.6817 24.9442 31.6648C24.8638 31.6472 24.7941 31.6582 24.7198 31.6912C24.5968 31.7448 24.4738 31.7983 24.35 31.8511C24.1581 31.9347 23.9654 32.0176 23.7736 32.1012C23.7449 32.0858 23.7155 32.0711 23.6869 32.0557L23.3813 31.8944C23.6443 31.7873 23.9074 31.6795 24.1705 31.5724C24.2401 31.5438 24.3098 31.516 24.3786 31.4873C24.4599 31.4433 24.5233 31.3839 24.5705 31.3077C24.6154 31.2336 24.6386 31.1536 24.6402 31.0686C24.6409 30.9806 24.6185 30.8977 24.5728 30.8207C24.5264 30.7437 24.4637 30.6835 24.3833 30.6388C24.1952 30.5589 24.008 30.4782 23.82 30.3982C23.6652 30.3322 23.5105 30.2662 23.3557 30.1995C23.4169 30.1665 23.478 30.1342 23.5391 30.1012C23.625 30.055 23.7109 30.0095 23.796 29.9633C23.8594 29.9905 23.9221 30.0169 23.9856 30.044C24.1813 30.1276 24.3779 30.2112 24.5736 30.2948C24.6193 30.3139 24.6649 30.3337 24.7106 30.3528C24.7833 30.3836 24.8514 30.4012 24.9311 30.3821C25.0023 30.3652 25.0796 30.3139 25.1145 30.2508C25.1493 30.1878 25.1678 30.1115 25.1454 30.0418C25.1237 29.9736 25.0781 29.8981 25.0069 29.868C24.8831 29.8152 24.7601 29.7624 24.6363 29.7103C24.5674 29.681 24.4993 29.6516 24.4305 29.623C24.5272 29.5717 24.6231 29.5196 24.7198 29.4683C24.757 29.4485 24.7934 29.4287 24.8305 29.4089C24.9435 29.4573 25.0572 29.5057 25.1702 29.5534C25.4456 29.6707 25.7211 29.788 25.9965 29.9054C26.0592 29.9318 26.1219 29.9589 26.1846 29.9853C26.2573 30.0161 26.3254 30.0337 26.4051 30.0147C26.4763 29.9978 26.5536 29.9465 26.5884 29.8834C26.6233 29.8203 26.6418 29.744 26.6194 29.6744C26.5977 29.6062 26.5521 29.5306 26.4809 29.5006C26.3076 29.4265 26.135 29.3531 25.9617 29.2791C25.7961 29.2087 25.6306 29.1375 25.465 29.0671C25.5555 29.018 25.6468 28.9696 25.7373 28.9204C25.8495 28.8603 25.9617 28.8001 26.0747 28.7393C26.0878 28.7319 26.101 28.7253 26.1141 28.718C26.3633 28.7833 26.6132 28.8493 26.8624 28.9146L26.9854 28.9468C27.1394 28.9872 27.3065 28.8977 27.349 28.7517C27.4303 28.4738 27.5115 28.1951 27.5928 27.9171C27.6028 27.8834 27.6129 27.8489 27.6222 27.8152C27.6237 27.8101 27.6253 27.8057 27.626 27.8005C27.6338 27.7734 27.6369 27.744 27.6361 27.7147C27.6353 27.67 27.6237 27.626 27.599 27.5878C27.5634 27.5277 27.4922 27.4712 27.4202 27.4558C27.127 27.3788 26.833 27.3018 26.5397 27.2248C26.4987 27.2138 26.4577 27.2035 26.4167 27.1925C26.2627 27.1522 26.0956 27.2417 26.053 27.3876C25.9718 27.6656 25.8905 27.9443 25.8093 28.2222L25.8039 28.2398C25.7164 28.2868 25.629 28.3337 25.5416 28.3806C25.4147 28.4489 25.287 28.5171 25.1601 28.5853C25.2065 28.3088 25.253 28.0323 25.2994 27.755C25.3102 27.6905 25.3211 27.6267 25.3319 27.5622C25.345 27.4859 25.3458 27.4192 25.304 27.3495C25.2684 27.2893 25.1973 27.2329 25.1253 27.2175C25.051 27.2013 24.9675 27.2043 24.9009 27.2439C24.839 27.2805 24.774 27.3414 24.7616 27.4133C24.7315 27.5908 24.7021 27.7682 24.6719 27.9457C24.6247 28.2281 24.5767 28.5112 24.5295 28.7936C24.5218 28.8412 24.5133 28.8889 24.5055 28.9366C24.3802 29.004 24.2548 29.0715 24.1287 29.139C24.1527 28.9974 24.1759 28.8566 24.1999 28.7151L24.2231 28.575C24.2363 28.4987 24.237 28.432 24.1952 28.3623C24.1597 28.3022 24.0885 28.2457 24.0165 28.2303C23.9422 28.2142 23.8587 28.2171 23.7921 28.2567C23.7302 28.2934 23.6652 28.3542 23.6529 28.4261C23.632 28.553 23.6103 28.6799 23.5894 28.8068C23.5554 29.0077 23.5221 29.2087 23.488 29.4103C23.4834 29.4375 23.4788 29.4639 23.4741 29.491L23.3851 29.5387L23.0478 29.7198C23.0841 29.4287 23.1197 29.1383 23.1561 28.8471C23.1646 28.7759 23.1739 28.7048 23.1824 28.6337C23.1832 28.5457 23.1608 28.4628 23.1151 28.3858C23.0687 28.3088 23.006 28.2486 22.9255 28.2039C22.8474 28.1614 22.763 28.1394 22.6733 28.1379C22.5804 28.1372 22.493 28.1584 22.4118 28.2017C22.2446 28.3154 22.0775 28.4298 21.9104 28.5435C21.7719 28.6381 21.6334 28.7327 21.4949 28.8266C21.4956 28.7613 21.4972 28.696 21.498 28.6315C21.4995 28.5215 21.5018 28.4114 21.5034 28.3014L21.7626 28.0961C21.9274 27.9655 22.0922 27.835 22.257 27.7037C22.2949 27.6736 22.3336 27.6428 22.3715 27.6128C22.4257 27.5702 22.4574 27.483 22.4582 27.4184C22.459 27.3487 22.4272 27.2644 22.3715 27.2167C22.3158 27.1683 22.2439 27.1324 22.1665 27.1346C22.0829 27.1368 22.0172 27.1654 21.9537 27.2167C21.85 27.2989 21.7463 27.3817 21.6419 27.4639C21.5993 27.4976 21.5575 27.5306 21.515 27.5644C21.5165 27.4925 21.5173 27.4199 21.5189 27.348C21.5196 27.2835 21.5212 27.2197 21.522 27.1551C21.6535 27.051 21.785 26.9468 21.9158 26.8427C22.1471 26.6593 22.3785 26.4753 22.6106 26.2919C22.6632 26.2501 22.7158 26.2083 22.7685 26.1665C22.8226 26.124 22.8543 26.0367 22.8551 25.9721C22.8559 25.9025 22.8242 25.8181 22.7685 25.7705C22.7127 25.722 22.6408 25.6861 22.5634 25.6883C22.4799 25.6905 22.4141 25.7191 22.3506 25.7705C22.2052 25.8856 22.0597 26.0015 21.9142 26.1166C21.7873 26.2171 21.6605 26.3176 21.5336 26.4188C21.5343 26.3579 21.5359 26.297 21.5367 26.2369C21.539 26.1152 21.5405 25.9934 21.5428 25.8717C21.5428 25.8563 21.5428 25.8416 21.5436 25.8262C21.7432 25.6399 21.9421 25.4536 22.1417 25.2666C22.1719 25.238 22.2021 25.2101 22.2323 25.1815C22.3468 25.0745 22.3444 24.8926 22.2323 24.7848C22.0187 24.5794 21.8044 24.3741 21.5908 24.168C21.5653 24.143 21.5398 24.1188 21.5134 24.0939C21.5096 24.0895 21.5049 24.0858 21.5011 24.0822C21.4492 24.0323 21.3695 24.0007 21.296 24C21.2225 23.9993 21.1335 24.0293 21.0832 24.0822C20.8666 24.2846 20.6499 24.4877 20.4325 24.6901C20.4023 24.7188 20.3722 24.7466 20.342 24.7752C20.2275 24.8823 20.2298 25.0642 20.342 25.172C20.5455 25.3678 20.7498 25.5636 20.9532 25.7595V25.802L20.9471 26.1254C20.9455 26.2362 20.9432 26.3462 20.9416 26.4569L20.92 26.4423C20.6724 26.2787 20.4248 26.1144 20.1772 25.9509C20.1207 25.9135 20.0642 25.8761 20.0077 25.8394C19.9497 25.8013 19.853 25.7939 19.7872 25.8101C19.716 25.8269 19.6387 25.8783 19.6038 25.9413C19.569 26.0044 19.5504 26.0807 19.5729 26.1504C19.5969 26.2259 19.6425 26.2794 19.7114 26.3242C19.8669 26.4269 20.0224 26.5303 20.178 26.6329C20.4256 26.7965 20.6732 26.9608 20.9208 27.1243L20.9316 27.1309V27.1867L20.9238 27.612C20.7846 27.5204 20.6453 27.4279 20.5068 27.3363C20.4658 27.3091 20.4248 27.282 20.3838 27.2549C20.3257 27.2167 20.229 27.2094 20.1633 27.2255C20.0921 27.2424 20.0147 27.2937 19.9799 27.3568C19.9451 27.4199 19.9265 27.4962 19.9489 27.5658C19.9729 27.6414 20.0186 27.6949 20.0874 27.7396C20.1988 27.813 20.3095 27.8863 20.4209 27.9597C20.5857 28.0682 20.7498 28.1775 20.9146 28.286C20.9138 28.3476 20.9122 28.4092 20.9115 28.4709C20.9091 28.5941 20.9076 28.7173 20.9053 28.8405C20.6561 28.6645 20.407 28.4885 20.1571 28.3124L19.9752 28.1841C19.8971 28.1416 19.8127 28.1196 19.723 28.1181C19.6301 28.1174 19.5427 28.1386 19.4615 28.1819C19.3802 28.2259 19.3168 28.2853 19.2696 28.3616C19.2247 28.4357 19.2015 28.5156 19.1999 28.6007C19.2208 28.795 19.2409 28.9894 19.2618 29.183C19.282 29.3759 19.3028 29.5688 19.323 29.7616C19.244 29.7206 19.1659 29.6788 19.0877 29.6377L18.8332 29.5035C18.8208 29.414 18.8076 29.3238 18.7953 29.2343C18.7666 29.0326 18.7388 28.8302 18.7102 28.6285C18.7032 28.5816 18.697 28.5347 18.69 28.4877C18.6808 28.4202 18.6111 28.3462 18.5515 28.3139C18.4904 28.2802 18.3999 28.2648 18.331 28.2846C18.2567 28.3058 18.1848 28.3484 18.1476 28.4158C18.1376 28.4378 18.1283 28.4599 18.1182 28.4819C18.1043 28.5295 18.1035 28.5772 18.1167 28.6249C18.1345 28.7517 18.1523 28.8794 18.1701 29.0062C18.1778 29.0598 18.1848 29.1126 18.1925 29.1661C18.0973 29.1155 18.0014 29.0656 17.9062 29.015C17.866 28.9938 17.8265 28.9725 17.7863 28.952C17.767 28.8148 17.7476 28.6777 17.7283 28.5405C17.6888 28.2567 17.6486 27.9729 17.6083 27.689C17.5991 27.6245 17.5905 27.56 17.5813 27.4954C17.572 27.428 17.5023 27.3539 17.4428 27.3216C17.3816 27.2879 17.2911 27.2725 17.2222 27.2923C17.148 27.3135 17.076 27.3561 17.0389 27.4235C17.0288 27.4456 17.0195 27.4676 17.0095 27.4896C16.9955 27.5372 16.9948 27.5849 17.0079 27.6326C17.0327 27.8108 17.0582 27.989 17.083 28.1672C17.1039 28.3161 17.1247 28.465 17.1456 28.6146C17.0582 28.5684 16.97 28.5222 16.8826 28.476C16.7704 28.4166 16.6574 28.3572 16.5452 28.2985C16.5189 28.2846 16.4926 28.2706 16.4655 28.2567C16.3974 28.0337 16.3293 27.8101 16.2612 27.5871L16.2257 27.4712C16.1823 27.3297 16.0245 27.2241 15.8666 27.2673C15.5742 27.3473 15.2817 27.428 14.9892 27.5079C14.9482 27.5189 14.908 27.5306 14.867 27.5416C14.8515 27.546 14.8352 27.5512 14.8205 27.5578C14.764 27.582 14.713 27.6194 14.6836 27.6722C14.6666 27.7 14.6542 27.733 14.648 27.7682C14.6426 27.7969 14.641 27.8262 14.6464 27.8555C14.648 27.8643 14.6503 27.8731 14.6526 27.8812C14.737 28.1584 14.8221 28.4356 14.9064 28.7129L14.942 28.8288C14.9853 28.9703 15.1432 29.0759 15.301 29.0326C15.5935 28.9527 15.886 28.872 16.1785 28.7921C16.1978 28.787 16.2171 28.7818 16.2357 28.7767C16.3201 28.8214 16.4044 28.8654 16.4887 28.9102C16.6187 28.9791 16.7495 29.0473 16.8795 29.1162C16.8632 29.1228 16.8462 29.1295 16.83 29.1361C16.5514 29.2468 16.2729 29.3575 15.9943 29.4683C15.9309 29.4932 15.8674 29.5189 15.804 29.5438C15.739 29.5695 15.6825 29.6516 15.6647 29.7132C15.6453 29.7792 15.6531 29.8673 15.6925 29.9259C15.7336 29.9875 15.7939 30.0411 15.8713 30.0579C15.896 30.0616 15.9216 30.0645 15.9463 30.0682C15.9997 30.0682 16.0492 30.0565 16.0964 30.0315C16.2713 29.9619 16.4462 29.8922 16.621 29.8225C16.8996 29.7118 17.1781 29.601 17.4567 29.4903C17.4822 29.48 17.5078 29.4697 17.5333 29.4595C17.6579 29.5255 17.7832 29.5908 17.9078 29.6568C17.7507 29.7191 17.5936 29.7814 17.4358 29.8445C17.3901 29.8629 17.3437 29.8812 17.2981 29.8995C17.2331 29.9252 17.1766 30.0073 17.1588 30.0689C17.1394 30.1349 17.1472 30.223 17.1866 30.2816C17.2277 30.3432 17.288 30.3968 17.3654 30.4136C17.3901 30.4173 17.4157 30.4202 17.4404 30.4239C17.4938 30.4239 17.5433 30.4122 17.5905 30.3872L17.965 30.2384C18.1631 30.1599 18.3612 30.0807 18.5593 30.0022H18.5616L18.6498 30.0477C18.7442 30.0975 18.8394 30.1474 18.9338 30.1973C18.68 30.3007 18.4262 30.4041 18.1732 30.5083C18.1035 30.5369 18.0339 30.5647 17.965 30.5933C17.8838 30.6373 17.8203 30.6967 17.7731 30.773C17.7283 30.8471 17.7051 30.927 17.7035 31.0121C17.7027 31.1001 17.7252 31.183 17.7708 31.26C17.8173 31.337 17.8799 31.3971 17.9604 31.4419C18.1484 31.5218 18.3357 31.6025 18.5237 31.6824C18.6869 31.7521 18.8494 31.8218 19.0127 31.8915C18.9454 31.9274 18.8781 31.9633 18.8107 31.9993C18.7411 32.0367 18.6722 32.0733 18.6026 32.1107C18.4912 32.0675 18.3798 32.0249 18.2683 31.9817C18.0695 31.9047 17.8706 31.8276 17.6718 31.7506L17.5333 31.6971C17.4683 31.6722 17.3669 31.692 17.3089 31.7235C17.2455 31.7572 17.1859 31.8247 17.1696 31.8929C17.1526 31.9633 17.1557 32.0425 17.1975 32.1056L17.2455 32.1657C17.2826 32.2002 17.3259 32.2244 17.3762 32.2376C17.5016 32.286 17.6269 32.3344 17.7523 32.3828C17.8188 32.4085 17.8853 32.4342 17.9519 32.4598L17.6346 32.63C17.6145 32.641 17.5944 32.6513 17.5751 32.6623C17.4079 32.5977 17.2416 32.5332 17.0745 32.4686C16.7951 32.3608 16.515 32.2523 16.2357 32.1445C16.1723 32.1195 16.1088 32.0953 16.0446 32.0704C15.9796 32.0455 15.8782 32.0653 15.8202 32.0968C15.7568 32.1305 15.6972 32.198 15.6809 32.2662C15.6639 32.3366 15.667 32.4158 15.7088 32.4789L15.7568 32.5391C15.7939 32.5735 15.8372 32.5977 15.8875 32.6109C16.0632 32.6791 16.2388 32.7466 16.4144 32.8148C16.5839 32.8808 16.7541 32.9461 16.9236 33.0121C16.8207 33.0671 16.7178 33.1221 16.6148 33.1778C16.5027 33.238 16.3912 33.2981 16.279 33.3583C16.2543 33.3715 16.2295 33.3847 16.204 33.3979C15.9781 33.3443 15.7521 33.2908 15.5262 33.238C15.4852 33.2285 15.4442 33.2182 15.4024 33.2086C15.2507 33.1727 15.0782 33.2534 15.0387 33.4037C14.9652 33.6839 14.8917 33.9641 14.8174 34.2442C14.8074 34.2831 14.7965 34.3227 14.7865 34.3616C14.7811 34.3814 14.778 34.4019 14.7772 34.4232C14.7741 34.476 14.7842 34.5295 14.8143 34.575C14.8345 34.6087 14.8654 34.641 14.9018 34.6659L14.9049 34.6681C14.9118 34.6733 14.9196 34.6777 14.9265 34.6813H14.9281C14.9281 34.6813 14.935 34.6857 14.9381 34.6872C14.9559 34.696 14.9737 34.7026 14.9923 34.7063C15.2879 34.7759 15.5834 34.8456 15.879 34.916C15.92 34.9256 15.961 34.9358 16.0028 34.9454C16.1545 34.9813 16.327 34.9006 16.3665 34.7503C16.44 34.4701 16.5135 34.1899 16.5878 33.9098L16.6102 33.8247C16.6767 33.7888 16.7433 33.7528 16.8098 33.7176C16.9298 33.6531 17.0497 33.5893 17.1696 33.5247C17.134 33.8012 17.0977 34.0777 17.0621 34.355C17.0536 34.4195 17.0451 34.484 17.0365 34.5486C17.028 34.6161 17.0745 34.7048 17.1232 34.7503C17.1735 34.7979 17.2563 34.8346 17.3282 34.8324C17.4056 34.8302 17.4869 34.8067 17.541 34.7503C17.5565 34.7312 17.572 34.7121 17.5874 34.6923C17.613 34.6498 17.6269 34.6043 17.6277 34.5552C17.6509 34.377 17.6741 34.198 17.6973 34.0198C17.7337 33.7404 17.7701 33.4609 17.8064 33.1815C17.9411 33.1096 18.0749 33.037 18.2095 32.9652C18.191 33.1104 18.1716 33.2556 18.1531 33.4008C18.1469 33.4477 18.1407 33.4947 18.1345 33.5416C18.126 33.6091 18.1724 33.6978 18.2211 33.7433C18.2714 33.791 18.3542 33.8276 18.4262 33.8254C18.5036 33.8232 18.5848 33.7998 18.639 33.7433C18.6544 33.7242 18.6699 33.7052 18.6854 33.6854C18.7109 33.6428 18.7249 33.5974 18.7256 33.5482C18.7419 33.4206 18.7589 33.2937 18.7752 33.1661C18.7984 32.985 18.8223 32.8038 18.8456 32.6227C18.8842 32.6021 18.9222 32.5816 18.9609 32.5611C19.0699 32.5024 19.1798 32.4437 19.2889 32.385C19.2541 32.6674 19.2193 32.9498 19.1837 33.2321C19.1752 33.3033 19.1659 33.3744 19.1574 33.4455C19.1566 33.5336 19.179 33.6164 19.2247 33.6934C19.2711 33.7704 19.3338 33.8306 19.4143 33.8753C19.4924 33.9179 19.5768 33.9399 19.6665 33.9413C19.7594 33.9421 19.8468 33.9208 19.928 33.8775C20.0952 33.7638 20.2623 33.6494 20.4294 33.5358C20.5641 33.4441 20.6995 33.3517 20.8341 33.26C20.8333 33.326 20.8318 33.392 20.831 33.458C20.8294 33.5475 20.8279 33.637 20.8264 33.7264C20.7714 33.7638 20.7173 33.8005 20.6623 33.8379C20.4875 33.9567 20.3126 34.0748 20.1385 34.1936C20.0983 34.2215 20.0573 34.2486 20.017 34.2765C19.9512 34.3212 19.9002 34.3689 19.8777 34.4459C19.8584 34.5119 19.8661 34.5999 19.9056 34.6586C19.9466 34.7202 20.007 34.7737 20.0843 34.7906C20.1563 34.806 20.2468 34.8067 20.3087 34.7642C20.4186 34.6894 20.5292 34.6146 20.6391 34.5398C20.6979 34.5002 20.7567 34.4598 20.8155 34.4202C20.814 34.5266 20.8124 34.6337 20.8101 34.74C20.8101 34.7803 20.8086 34.8207 20.8078 34.861C20.7103 34.927 20.6136 34.993 20.5161 35.059C20.2708 35.2255 20.0248 35.392 19.7795 35.5592C19.7238 35.5974 19.6681 35.6348 19.6116 35.6729C19.5458 35.7176 19.4947 35.7653 19.4723 35.8423C19.453 35.9083 19.4607 35.9963 19.5002 36.055C19.5412 36.1166 19.6015 36.1701 19.6789 36.187C19.7508 36.2024 19.8414 36.2031 19.9033 36.1606L20.366 35.8467C20.5091 35.7492 20.653 35.6524 20.7962 35.5548L20.7915 35.8511C20.79 35.9685 20.7877 36.0858 20.7861 36.2031C20.595 36.377 20.4039 36.5508 20.212 36.7253C20.181 36.7532 20.1509 36.7811 20.1199 36.8089C20.0031 36.9153 20.0101 37.0979 20.1199 37.2057C20.3312 37.414 20.5416 37.6223 20.7528 37.8306C20.7768 37.854 20.8008 37.8775 20.8248 37.9017C20.8302 37.9076 20.8356 37.9127 20.8411 37.9178C20.8921 37.9685 20.9734 37.9993 21.0461 38C21.1196 38.0007 21.2086 37.9707 21.2589 37.9178H21.2651ZM20.7211 31.5629C20.7265 31.5218 20.7312 31.4807 20.7366 31.4397C20.7474 31.3502 20.6762 31.2307 20.5896 31.1933C20.4642 31.1397 20.3389 31.0862 20.2135 31.0326C20.3002 30.9974 20.3869 30.9622 20.4735 30.9263C20.5138 30.9102 20.554 30.8933 20.5935 30.8772C20.6786 30.8427 20.7528 30.7246 20.7436 30.6373C20.7296 30.5068 20.7157 30.3762 20.7018 30.245C20.7776 30.2985 20.8542 30.3528 20.93 30.4063C20.9649 30.4312 20.9997 30.4554 21.0353 30.4804C21.1095 30.5332 21.255 30.5332 21.3301 30.4818C21.4423 30.4056 21.5537 30.3293 21.6659 30.253C21.655 30.341 21.6442 30.4298 21.6334 30.5178C21.6303 30.542 21.6272 30.5662 21.6241 30.5904C21.6194 30.6102 21.6171 30.6307 21.6171 30.6505C21.6148 30.6923 21.6318 30.74 21.6558 30.7811C21.6806 30.8258 21.7169 30.8669 21.7649 30.8874L21.7711 30.8904C21.7858 30.8984 21.802 30.905 21.8183 30.9102C21.9258 30.9564 22.0334 31.0018 22.141 31.048C22.0543 31.0832 21.9676 31.1184 21.881 31.1544L21.8129 31.1823C21.792 31.1881 21.7719 31.1969 21.7533 31.2072C21.6844 31.2395 21.6241 31.3253 21.6117 31.403V31.4067C21.6117 31.4067 21.6109 31.4118 21.6102 31.414C21.6102 31.4155 21.6102 31.4169 21.6102 31.4184C21.6102 31.4221 21.6102 31.425 21.6102 31.4287V31.4323C21.6102 31.436 21.6102 31.4397 21.6102 31.4441L21.6519 31.8365C21.5761 31.7829 21.4995 31.7286 21.4237 31.6751C21.3889 31.6502 21.3541 31.626 21.3185 31.601C21.2442 31.5482 21.0987 31.5482 21.0237 31.5996L21.0182 31.6032C21.0028 31.612 20.9873 31.6223 20.9741 31.6333C20.879 31.6986 20.7838 31.7631 20.6886 31.8284C20.6995 31.7404 20.7103 31.6516 20.7211 31.5636V31.5629Z" fill="#5DBDF1"/>
<path d="M29.443 49.4388C29.5692 49.3178 29.6955 49.1968 29.8217 49.0748L29.8749 49.0237C29.9417 48.959 29.9375 48.8484 29.8749 48.7827C29.7539 48.6565 29.6329 48.5303 29.5108 48.404C29.5108 48.3529 29.5119 48.3029 29.5129 48.2528C29.5139 48.1652 29.516 48.0775 29.5171 47.9889C29.6516 48.0984 29.7862 48.2079 29.9208 48.3185L30.0126 48.3936C30.0481 48.4228 30.0835 48.4426 30.1305 48.4437C30.1722 48.4437 30.2244 48.4259 30.2525 48.3936C30.2817 48.3613 30.3036 48.3196 30.3026 48.2757C30.3016 48.233 30.288 48.1819 30.2525 48.1537C30.168 48.0849 30.0835 48.016 29.999 47.9472C29.8645 47.8376 29.7299 47.7281 29.5953 47.6175C29.5713 47.5977 29.5473 47.5779 29.5223 47.5581L29.5265 47.3098C29.5953 47.3661 29.6642 47.4225 29.733 47.4788L29.7998 47.533C29.8352 47.5622 29.8707 47.5821 29.9177 47.5831C29.9594 47.5831 30.0115 47.5654 30.0397 47.533C30.0689 47.5007 30.0908 47.459 30.0898 47.4152C30.0887 47.3724 30.0752 47.3213 30.0397 47.2931C29.9792 47.2441 29.9187 47.1951 29.8592 47.145C29.7633 47.0668 29.6683 46.9885 29.5724 46.9103L29.5327 46.878V46.831C29.5348 46.7538 29.5359 46.6756 29.5369 46.5984C29.6819 46.7069 29.8279 46.8154 29.9729 46.9228C30.0074 46.9489 30.0428 46.975 30.0773 47.0011C30.1221 47.0271 30.1701 47.0407 30.2223 47.0417C30.2755 47.0417 30.3255 47.0292 30.3725 47.0031C30.4194 46.9771 30.4559 46.9406 30.4831 46.8947C30.5091 46.8498 30.5227 46.8018 30.5237 46.7497C30.5123 46.6318 30.4998 46.5139 30.4883 46.396C30.4768 46.2844 30.4664 46.1739 30.4549 46.0622C30.4987 46.0862 30.5415 46.1102 30.5853 46.1342C30.6322 46.1603 30.6781 46.1864 30.7251 46.2125C30.7345 46.2698 30.7439 46.3262 30.7532 46.3835C30.7731 46.5056 30.7939 46.6276 30.8138 46.7486C30.8179 46.7768 30.8231 46.8049 30.8273 46.8331C30.8346 46.8748 30.8711 46.9186 30.9066 46.9385C30.9421 46.9593 30.9932 46.9687 31.0339 46.9562C31.0766 46.9437 31.1184 46.9176 31.1392 46.8769C31.1611 46.8362 31.1643 46.7956 31.157 46.7497L31.1184 46.5191C31.1131 46.4868 31.1079 46.4545 31.1027 46.4221C31.157 46.4524 31.2123 46.4826 31.2665 46.5129L31.3187 46.5421C31.3333 46.6328 31.3489 46.7236 31.3635 46.8143C31.3917 46.9854 31.4198 47.1565 31.4491 47.3276C31.4553 47.3661 31.4616 47.4058 31.4689 47.4444C31.4762 47.4861 31.5127 47.5299 31.5482 47.5497C31.5836 47.5706 31.6347 47.58 31.6754 47.5675C31.7182 47.5549 31.7599 47.5289 31.7808 47.4882C31.8027 47.4475 31.8058 47.4068 31.7985 47.3609C31.7808 47.2535 31.7631 47.146 31.7453 47.0386C31.7297 46.9426 31.714 46.8477 31.6973 46.7517C31.7505 46.781 31.8027 46.8102 31.8559 46.8394C31.9206 46.8759 31.9853 46.9113 32.051 46.9479L32.0593 46.952C32.1 47.097 32.1396 47.241 32.1803 47.386L32.2001 47.4569C32.2241 47.5435 32.3159 47.605 32.4067 47.58C32.5757 47.533 32.7436 47.4861 32.9126 47.4392L32.9836 47.4193C32.9971 47.4152 33.0097 47.41 33.0222 47.4037C33.0503 47.3891 33.0743 47.3682 33.0889 47.3401C33.1015 47.3192 33.1098 47.2921 33.1119 47.265V47.2535C33.1119 47.2389 33.1119 47.2253 33.1077 47.2128C33.0608 47.0438 33.0138 46.8759 32.9669 46.7069C32.9606 46.6829 32.9533 46.66 32.9471 46.636C32.9231 46.5494 32.8313 46.4878 32.7405 46.5129C32.5715 46.5598 32.4036 46.6068 32.2346 46.6537L32.2283 46.6558C32.1803 46.6287 32.1323 46.6026 32.0844 46.5755C32.0082 46.5337 31.9331 46.491 31.8569 46.4492L31.8684 46.444C32.0259 46.3721 32.1845 46.3001 32.342 46.2271C32.3775 46.2104 32.414 46.1947 32.4495 46.178C32.487 46.1613 32.5194 46.1144 32.5298 46.0758C32.5413 46.0351 32.5361 45.983 32.5141 45.9465C32.4912 45.9089 32.4557 45.8766 32.4119 45.8661C32.366 45.8557 32.3253 45.862 32.2826 45.8818C32.1835 45.9266 32.0844 45.9725 31.9853 46.0174C31.8277 46.0894 31.6692 46.1613 31.5116 46.2344L31.4897 46.2448C31.4125 46.202 31.3343 46.1582 31.2571 46.1154C31.3458 46.0748 31.4344 46.0341 31.5221 45.9944C31.5482 45.983 31.5742 45.9704 31.6003 45.959C31.6379 45.9423 31.6702 45.8953 31.6806 45.8568C31.6921 45.8161 31.6869 45.7639 31.665 45.7274C31.642 45.6899 31.6066 45.6575 31.5628 45.6471C31.5169 45.6367 31.4762 45.6429 31.4334 45.6627C31.3625 45.6951 31.2915 45.7274 31.2206 45.7597C31.11 45.8098 30.9994 45.8609 30.8889 45.911C30.8722 45.9016 30.8555 45.8922 30.8388 45.8828C30.7804 45.8505 30.722 45.8182 30.6635 45.7848C30.8148 45.7201 30.9661 45.6544 31.1173 45.5897C31.157 45.573 31.1976 45.5553 31.2373 45.5386C31.2842 45.5125 31.3207 45.476 31.3479 45.4301C31.3739 45.3853 31.3875 45.3373 31.3875 45.2851C31.3875 45.2319 31.375 45.1819 31.3489 45.1349C31.3228 45.088 31.2863 45.0515 31.2404 45.0243C31.133 44.9753 31.0245 44.9273 30.917 44.8783L30.65 44.7584C30.6854 44.7385 30.7199 44.7187 30.7553 44.6989C30.8044 44.6707 30.8534 44.6436 30.9035 44.6154C30.94 44.6321 30.9765 44.6478 31.012 44.6645C31.1246 44.7156 31.2373 44.7657 31.35 44.8168L31.4282 44.8522C31.4699 44.871 31.5096 44.8814 31.5555 44.87C31.5961 44.8595 31.641 44.8282 31.6608 44.7907C31.6806 44.7521 31.6911 44.7062 31.6786 44.6634C31.666 44.6227 31.64 44.5758 31.5993 44.5581C31.5283 44.5257 31.4574 44.4944 31.3865 44.4621C31.3468 44.4444 31.3082 44.4266 31.2686 44.4089C31.3239 44.3776 31.3792 44.3463 31.4344 44.315L31.4981 44.2785C31.5628 44.3077 31.6285 44.3369 31.6932 44.3661C31.8517 44.4371 32.0092 44.508 32.1678 44.58C32.2043 44.5967 32.2398 44.6123 32.2763 44.629C32.318 44.6478 32.3577 44.6582 32.4036 44.6467C32.4443 44.6363 32.4891 44.605 32.5089 44.5675C32.5287 44.5289 32.5392 44.483 32.5267 44.4402C32.5141 44.3995 32.4881 44.3526 32.4474 44.3348C32.3483 44.29 32.2481 44.2451 32.149 44.2003C32.0541 44.1575 31.9581 44.1147 31.8632 44.072L32.0197 43.9833C32.0844 43.9468 32.149 43.9103 32.2137 43.8738C32.221 43.8696 32.2283 43.8654 32.2367 43.8613C32.3796 43.9009 32.5235 43.9405 32.6665 43.9802C32.6904 43.9864 32.7134 43.9927 32.7374 44C32.8261 44.025 32.922 43.9698 32.9471 43.8811C32.994 43.7121 33.041 43.5442 33.0869 43.3752L33.1035 43.3136C33.1035 43.3136 33.1056 43.3074 33.1056 43.3053C33.1098 43.2886 33.1119 43.2709 33.1108 43.2531C33.1108 43.226 33.1035 43.1989 33.0889 43.1759C33.0681 43.1394 33.0274 43.105 32.9867 43.0956C32.8177 43.0487 32.6498 43.0017 32.4808 42.9558C32.4568 42.9496 32.4338 42.9433 32.4098 42.936C32.3212 42.912 32.2252 42.9663 32.2001 43.0549C32.1532 43.2239 32.1063 43.3919 32.0604 43.5609L32.0572 43.5713C32.0072 43.5994 31.9571 43.6287 31.906 43.6568C31.8329 43.6985 31.7599 43.7392 31.6869 43.781C31.714 43.613 31.7401 43.4451 31.7672 43.2782C31.7735 43.2396 31.7797 43.1999 31.786 43.1613C31.7933 43.1154 31.7943 43.0748 31.7704 43.032C31.7495 42.9955 31.7088 42.9611 31.6681 42.9517C31.6254 42.9412 31.5774 42.9433 31.5388 42.9673C31.5033 42.9892 31.4657 43.0268 31.4584 43.0695L31.4073 43.3929C31.3802 43.564 31.3531 43.7361 31.326 43.9072C31.3218 43.9364 31.3166 43.9645 31.3124 43.9937C31.2404 44.0344 31.1684 44.0751 31.0965 44.1158C31.11 44.0303 31.1236 43.9447 31.1371 43.8592L31.1507 43.7747C31.158 43.7288 31.159 43.6881 31.1351 43.6453C31.1142 43.6088 31.0735 43.5744 31.0328 43.565C30.9901 43.5546 30.9421 43.5567 30.9035 43.5807C30.868 43.6026 30.8304 43.6401 30.8231 43.6829C30.8106 43.7601 30.7992 43.8362 30.7866 43.9134C30.7668 44.0355 30.748 44.1575 30.7282 44.2796C30.7261 44.2962 30.723 44.3119 30.7209 44.3286L30.6698 44.3578C30.6051 44.3943 30.5404 44.4308 30.4758 44.4673C30.4966 44.291 30.5175 44.1147 30.5373 43.9385C30.5425 43.8957 30.5477 43.8519 30.553 43.8091C30.553 43.7559 30.5404 43.7058 30.5144 43.6589C30.4883 43.612 30.4518 43.5755 30.4059 43.5483C30.361 43.5223 30.313 43.5087 30.2609 43.5087C30.2077 43.5087 30.1576 43.5212 30.1106 43.5473C30.0147 43.6161 29.9187 43.685 29.8227 43.7549C29.7434 43.8122 29.6631 43.8696 29.5838 43.927C29.5838 43.8873 29.5849 43.8477 29.5859 43.8081C29.5859 43.7413 29.588 43.6746 29.5891 43.6078C29.6391 43.5661 29.6882 43.5243 29.7382 43.4837C29.8332 43.4044 29.9281 43.3251 30.022 43.2458C30.0439 43.2271 30.0658 43.2093 30.0877 43.1905C30.119 43.1645 30.1367 43.1113 30.1378 43.0727C30.1378 43.0309 30.12 42.9788 30.0877 42.9506C30.0554 42.9214 30.0136 42.8995 29.9698 42.9006C29.9218 42.9016 29.8843 42.9193 29.8478 42.9506C29.7883 43.0007 29.7288 43.0508 29.6683 43.1008C29.6443 43.1207 29.6193 43.1415 29.5953 43.1613C29.5953 43.1175 29.5964 43.0737 29.5974 43.0299C29.5974 42.9913 29.5984 42.9517 29.5995 42.9131C29.6746 42.8494 29.7507 42.7869 29.8259 42.7232C29.9594 42.6116 30.0919 42.5 30.2254 42.3894L30.3162 42.3133C30.3475 42.2872 30.3652 42.234 30.3662 42.1954C30.3662 42.1537 30.3485 42.1015 30.3162 42.0734C30.2838 42.0442 30.2421 42.0223 30.1983 42.0233C30.1503 42.0243 30.1127 42.0421 30.0762 42.0734C29.9928 42.1433 29.9093 42.2131 29.8259 42.283C29.7528 42.3435 29.6798 42.4051 29.6068 42.4656C29.6068 42.4291 29.6078 42.3915 29.6089 42.355C29.6099 42.2809 29.611 42.2069 29.612 42.1339C29.612 42.1245 29.612 42.1151 29.612 42.1067C29.7268 41.9941 29.8415 41.8804 29.9552 41.7677C29.9729 41.751 29.9896 41.7333 30.0074 41.7166C30.0731 41.6519 30.0721 41.5414 30.0074 41.4757C29.8843 41.3515 29.7612 41.2264 29.6381 41.1022C29.6235 41.0876 29.6089 41.072 29.5943 41.0574C29.5922 41.0553 29.5901 41.0522 29.587 41.0501C29.5567 41.0198 29.5119 41.001 29.4691 41C29.4274 41 29.3752 41.0177 29.347 41.0501C29.2229 41.1732 29.0977 41.2962 28.9736 41.4193L28.9214 41.4704C28.8557 41.5351 28.8567 41.6457 28.9214 41.7114C29.0383 41.8303 29.1551 41.9492 29.273 42.0671V42.0932C29.2719 42.1589 29.2709 42.2236 29.2698 42.2893C29.2698 42.3561 29.2678 42.4228 29.2667 42.4906L29.2542 42.4823C29.1123 42.3832 28.9694 42.2841 28.8275 42.185C28.7952 42.162 28.7629 42.1401 28.7305 42.1172C28.6971 42.0942 28.6418 42.0901 28.6032 42.0994C28.5626 42.1099 28.5177 42.1412 28.4979 42.1787C28.4781 42.2173 28.4676 42.2632 28.4802 42.306C28.4937 42.3519 28.5208 42.3842 28.5594 42.4113L28.8275 42.5981C28.9694 42.6972 29.1123 42.7962 29.2542 42.8953L29.2605 42.8995C29.2605 42.911 29.2605 42.9225 29.2605 42.9329C29.2594 43.0184 29.2573 43.105 29.2563 43.1905C29.176 43.1353 29.0967 43.0789 29.0163 43.0236C28.9924 43.007 28.9694 42.9913 28.9454 42.9746C28.912 42.9517 28.8567 42.9475 28.8181 42.9569C28.7775 42.9673 28.7326 42.9986 28.7128 43.0362C28.693 43.0748 28.6825 43.1207 28.695 43.1634C28.7086 43.2093 28.7357 43.2417 28.7743 43.2688L28.9663 43.4023C29.0612 43.468 29.1551 43.5337 29.25 43.6005L29.2479 43.7131L29.2448 43.9374C29.1019 43.831 28.9579 43.7236 28.815 43.6172C28.7806 43.5911 28.7451 43.565 28.7107 43.5389C28.6658 43.5129 28.6179 43.4993 28.5657 43.4983C28.5125 43.4983 28.4624 43.5108 28.4155 43.5369C28.3685 43.5629 28.332 43.5994 28.3049 43.6453C28.2788 43.6902 28.2653 43.7382 28.2653 43.7903C28.2767 43.9082 28.2892 44.0261 28.3007 44.144L28.3362 44.4944C28.2913 44.4694 28.2454 44.4444 28.2006 44.4193L28.0545 44.338C28.0472 44.2837 28.0399 44.2295 28.0326 44.1742L27.9836 43.807L27.9721 43.7215C27.9669 43.6808 27.9262 43.636 27.8928 43.6161C27.8574 43.5953 27.8063 43.5859 27.7656 43.5984C27.7228 43.6109 27.6811 43.637 27.6602 43.6777L27.6435 43.7173C27.6352 43.7465 27.6352 43.7747 27.6425 43.8039C27.6529 43.8811 27.6633 43.9583 27.6738 44.0355C27.6779 44.0678 27.6821 44.1001 27.6863 44.1325C27.631 44.1022 27.5768 44.072 27.5215 44.0407C27.4985 44.0282 27.4756 44.0146 27.4526 44.0021C27.4411 43.9186 27.4307 43.8362 27.4192 43.7528C27.3963 43.5807 27.3733 43.4086 27.3504 43.2364C27.3452 43.1968 27.3399 43.1582 27.3347 43.1186C27.3295 43.0779 27.2888 43.033 27.2555 43.0132C27.22 42.9924 27.1689 42.983 27.1282 42.9955C27.0854 43.008 27.0437 43.0341 27.0228 43.0748L27.0061 43.1144C26.9978 43.1436 26.9978 43.1718 27.0051 43.201C27.0197 43.3095 27.0343 43.4169 27.0479 43.5254C27.0604 43.6161 27.0719 43.7058 27.0844 43.7966C27.0343 43.7684 26.9832 43.7403 26.9331 43.7121C26.8684 43.6766 26.8038 43.6401 26.7391 43.6047C26.7234 43.5963 26.7088 43.588 26.6932 43.5796C26.6535 43.444 26.6149 43.3095 26.5753 43.1739C26.569 43.1509 26.5617 43.1269 26.5544 43.104C26.5294 43.0184 26.4386 42.9538 26.3479 42.9809C26.1799 43.0299 26.012 43.0779 25.843 43.1269C25.82 43.1332 25.796 43.1405 25.7731 43.1478C25.7637 43.1509 25.7554 43.154 25.746 43.1572C25.7136 43.1718 25.6844 43.1947 25.6667 43.2271C25.6573 43.2437 25.65 43.2646 25.6458 43.2855C25.6427 43.3032 25.6416 43.3209 25.6458 43.3387C25.6458 43.3439 25.6479 43.3491 25.6489 43.3543C25.698 43.5223 25.746 43.6902 25.795 43.8592C25.8023 43.8821 25.8086 43.9061 25.8159 43.9291C25.8409 44.0146 25.9317 44.0793 26.0224 44.0522C26.1904 44.0031 26.3583 43.9551 26.5273 43.9061L26.5607 43.8967C26.6087 43.9239 26.6577 43.951 26.7057 43.9771C26.7808 44.0188 26.8559 44.0605 26.93 44.1022L26.9018 44.1137L26.4219 44.315L26.3124 44.3609C26.2749 44.3766 26.2425 44.4266 26.2321 44.4631C26.2206 44.5038 26.2258 44.556 26.2477 44.5925C26.2707 44.63 26.3062 44.6624 26.35 44.6728C26.3646 44.6749 26.3781 44.677 26.3927 44.6791C26.423 44.6791 26.4522 44.6718 26.4793 44.6572C26.5795 44.6154 26.6807 44.5727 26.7808 44.531L27.2607 44.3296L27.3045 44.3109C27.3765 44.3505 27.4474 44.3901 27.5194 44.4308C27.4286 44.4684 27.3389 44.507 27.2482 44.5445C27.2221 44.556 27.1949 44.5664 27.1689 44.5779C27.1313 44.5935 27.099 44.6436 27.0885 44.6801C27.0771 44.7208 27.0823 44.773 27.1042 44.8095C27.1271 44.847 27.1626 44.8793 27.2064 44.8898L27.2492 44.896C27.2794 44.896 27.3087 44.8887 27.3358 44.8741C27.4078 44.8439 27.4797 44.8136 27.5507 44.7834C27.6644 44.7354 27.7781 44.6874 27.8918 44.6405H27.8928L27.944 44.6686C27.9982 44.6989 28.0524 44.7291 28.1077 44.7594C27.9617 44.822 27.8167 44.8846 27.6706 44.9482C27.631 44.9649 27.5903 44.9826 27.5507 44.9993C27.5037 45.0254 27.4672 45.0619 27.4401 45.1078C27.414 45.1526 27.4005 45.2006 27.4005 45.2528C27.4005 45.306 27.413 45.3561 27.4391 45.403C27.4651 45.4499 27.5016 45.4864 27.5475 45.5136C27.655 45.5626 27.7635 45.6106 27.8709 45.6596C27.9648 45.7013 28.0577 45.7441 28.1515 45.7858C28.1129 45.8077 28.0744 45.8296 28.0358 45.8515C27.9961 45.8745 27.9565 45.8964 27.9158 45.9193C27.8522 45.8933 27.7875 45.8672 27.7238 45.8411C27.6091 45.7942 27.4954 45.7483 27.3806 45.7013C27.3546 45.6909 27.3274 45.6794 27.3014 45.669C27.2638 45.6533 27.2054 45.6659 27.172 45.6846C27.1355 45.7055 27.1011 45.7462 27.0917 45.7869C27.0812 45.8296 27.0833 45.8776 27.1073 45.9162C27.1167 45.9287 27.1261 45.9402 27.1344 45.9527C27.1553 45.9736 27.1803 45.9882 27.2096 45.9965C27.2815 46.0257 27.3535 46.0549 27.4255 46.0852C27.4641 46.1008 27.5016 46.1165 27.5402 46.1321C27.4797 46.1666 27.4182 46.201 27.3577 46.2354L27.3233 46.2552C27.2273 46.2166 27.1313 46.177 27.0353 46.1384C26.8747 46.0727 26.714 46.007 26.5534 45.9423C26.5169 45.9277 26.4804 45.912 26.4439 45.8974C26.4063 45.8818 26.3479 45.8943 26.3145 45.9131C26.278 45.9339 26.2436 45.9746 26.2342 46.0153C26.2237 46.0581 26.2258 46.1061 26.2498 46.1447L26.2769 46.1812C26.2978 46.202 26.3228 46.2166 26.3521 46.225C26.4532 46.2657 26.5544 46.3074 26.6546 46.3481L26.9477 46.467C26.8883 46.5004 26.8298 46.5337 26.7704 46.5671C26.7057 46.6036 26.6421 46.6401 26.5774 46.6766C26.5628 46.685 26.5492 46.6923 26.5346 46.7006C26.4053 46.6683 26.2749 46.636 26.1455 46.6036L26.0746 46.5859C25.9869 46.564 25.8878 46.613 25.8649 46.7048C25.8221 46.8748 25.7804 47.0449 25.7376 47.2138C25.7314 47.2378 25.7261 47.2608 25.7199 47.2848C25.7168 47.2973 25.7147 47.3098 25.7147 47.3223C25.7126 47.3547 25.7188 47.387 25.7355 47.4141C25.747 47.4339 25.7647 47.4538 25.7856 47.4694H25.7877C25.7877 47.4694 25.796 47.4767 25.8002 47.4788C25.8002 47.4788 25.8044 47.4819 25.8065 47.483C25.8169 47.4882 25.8273 47.4924 25.8378 47.4944C26.0078 47.5372 26.1778 47.5789 26.3468 47.6217L26.4178 47.6394C26.5054 47.6613 26.6045 47.6123 26.6275 47.5205C26.6702 47.3505 26.712 47.1805 26.7547 47.0115C26.7589 46.9948 26.7631 46.9771 26.7672 46.9604C26.8058 46.9385 26.8434 46.9166 26.882 46.8957C26.9508 46.8571 27.0197 46.8175 27.0885 46.7789C27.0677 46.9468 27.0468 47.1148 27.027 47.2817C27.0218 47.3213 27.0176 47.3599 27.0124 47.3995C27.0072 47.4402 27.0343 47.4944 27.0625 47.5216C27.0917 47.5508 27.1386 47.5727 27.1803 47.5716C27.2252 47.5706 27.2721 47.556 27.3024 47.5216L27.3295 47.4871C27.3441 47.4611 27.3525 47.4339 27.3525 47.4037C27.366 47.2952 27.3796 47.1878 27.3921 47.0793C27.413 46.9103 27.4338 46.7403 27.4547 46.5713L27.6863 46.4399C27.6759 46.5275 27.6644 46.6161 27.6539 46.7038C27.6508 46.7319 27.6466 46.7611 27.6435 46.7893C27.6383 46.83 27.6654 46.8842 27.6936 46.9113C27.7228 46.9405 27.7697 46.9625 27.8115 46.9614C27.8563 46.9604 27.9033 46.9458 27.9335 46.9113L27.9606 46.8769C27.9752 46.8508 27.9836 46.8237 27.9836 46.7935C27.993 46.7163 28.0024 46.6391 28.0118 46.5619C28.0253 46.4524 28.0389 46.3418 28.0524 46.2323C28.0744 46.2198 28.0963 46.2072 28.1182 46.1947C28.1808 46.1593 28.2433 46.1238 28.307 46.0883C28.2872 46.2594 28.2663 46.4305 28.2465 46.6015C28.2413 46.6443 28.236 46.6881 28.2308 46.7309C28.2308 46.7841 28.2433 46.8342 28.2694 46.8811C28.2955 46.928 28.332 46.9645 28.3779 46.9917C28.4228 47.0177 28.4708 47.0313 28.5229 47.0323C28.5761 47.0323 28.6262 47.0198 28.6731 46.9938C28.7691 46.9249 28.8651 46.8561 28.9611 46.7862C29.0383 46.7309 29.1165 46.6746 29.1937 46.6193L29.1916 46.7392L29.1895 46.902C29.1582 46.9249 29.1269 46.9468 29.0956 46.9698L28.7941 47.1857L28.7243 47.2358C28.6867 47.2629 28.6575 47.2921 28.6439 47.338C28.6325 47.3787 28.6377 47.4308 28.6596 47.4673C28.6825 47.5049 28.718 47.5372 28.7618 47.5476C28.8035 47.557 28.8547 47.557 28.8912 47.532C28.9548 47.4871 29.0174 47.4412 29.081 47.3964C29.1144 47.3724 29.1488 47.3484 29.1822 47.3234C29.1822 47.388 29.1801 47.4527 29.1791 47.5174V47.5904C29.1217 47.6301 29.0664 47.6707 29.0101 47.7104C28.8693 47.8116 28.7284 47.9127 28.5866 48.0139C28.5542 48.0369 28.5219 48.0598 28.4906 48.0828C28.453 48.1099 28.4238 48.1391 28.4103 48.185C28.3988 48.2257 28.404 48.2778 28.4259 48.3143C28.4489 48.3519 28.4843 48.3842 28.5281 48.3947C28.5699 48.404 28.621 48.404 28.6575 48.379C28.7462 48.3154 28.8348 48.2518 28.9235 48.1881C29.0059 48.1287 29.0883 48.0702 29.1707 48.0108L29.1676 48.1902L29.1645 48.404C29.0549 48.5094 28.9444 48.6148 28.8348 48.7201C28.8171 48.7368 28.7994 48.7535 28.7816 48.7712C28.7149 48.8359 28.719 48.9465 28.7816 49.0122C28.9026 49.1384 29.0236 49.2646 29.1457 49.3908C29.1593 49.4054 29.1728 49.419 29.1874 49.4336C29.1906 49.4367 29.1937 49.4409 29.1968 49.443C29.226 49.4732 29.273 49.492 29.3147 49.4931C29.3564 49.4931 29.4086 49.4753 29.4368 49.443L29.443 49.4388ZM29.1301 45.5866L29.1384 45.5115C29.1447 45.4572 29.104 45.3842 29.0539 45.3623C28.9819 45.33 28.9099 45.2976 28.838 45.2653C28.888 45.2434 28.9371 45.2225 28.9871 45.2006L29.056 45.1704C29.105 45.1495 29.1478 45.0775 29.1426 45.0243C29.1342 44.9451 29.1269 44.8658 29.1186 44.7865C29.1624 44.8188 29.2062 44.8522 29.25 44.8846C29.2698 44.8992 29.2907 44.9148 29.3105 44.9294C29.3533 44.9618 29.4368 44.9618 29.4795 44.9294C29.5442 44.8835 29.6078 44.8366 29.6725 44.7907C29.6663 44.8439 29.66 44.8981 29.6537 44.9513C29.6516 44.9659 29.6506 44.9805 29.6485 44.9951C29.6454 45.0077 29.6443 45.0191 29.6443 45.0316C29.6433 45.0567 29.6527 45.0859 29.6663 45.1109C29.6809 45.138 29.7017 45.1631 29.7288 45.1756L29.732 45.1777C29.7403 45.1829 29.7497 45.186 29.7591 45.1902C29.8206 45.2184 29.8822 45.2455 29.9448 45.2737C29.8947 45.2956 29.8457 45.3164 29.7956 45.3383L29.757 45.355C29.7445 45.3592 29.733 45.3634 29.7226 45.3696C29.6829 45.3894 29.6485 45.4416 29.6412 45.4885V45.4979C29.6412 45.4979 29.6402 45.5021 29.6402 45.5042V45.5063C29.6402 45.5063 29.6402 45.5104 29.6402 45.5136C29.6485 45.5928 29.6558 45.6721 29.6642 45.7514C29.6204 45.7191 29.5765 45.6857 29.5327 45.6533L29.4722 45.6085C29.4294 45.5762 29.346 45.5762 29.3032 45.6085L29.3001 45.6106C29.2907 45.6158 29.2824 45.6221 29.2751 45.6294C29.2208 45.669 29.1655 45.7076 29.1113 45.7472C29.1175 45.694 29.1238 45.6398 29.1301 45.5866Z" fill="#5DBDF1"/>
<path d="M43.7361 44.9315C43.9053 44.7744 44.0745 44.6174 44.2428 44.4603C44.2661 44.4386 44.2903 44.4169 44.3136 44.3943C44.4034 44.3108 44.3982 44.1679 44.3136 44.0827C44.1513 43.919 43.989 43.7552 43.8267 43.5923C43.8276 43.5263 43.8284 43.4612 43.8302 43.396C43.8319 43.2824 43.8336 43.1688 43.8354 43.0543C44.0149 43.1963 44.1953 43.3383 44.3749 43.4804C44.4155 43.5129 44.4569 43.5447 44.4975 43.5773C44.545 43.6149 44.5925 43.6408 44.6555 43.6416C44.7116 43.6416 44.7807 43.6182 44.8195 43.5773C44.8584 43.5363 44.8877 43.482 44.886 43.4244C44.8843 43.3684 44.8661 43.3024 44.8195 43.2657C44.7064 43.1763 44.5933 43.0869 44.4802 42.9975C44.3007 42.8555 44.1202 42.7135 43.9407 42.5714C43.9079 42.5455 43.8759 42.5205 43.8431 42.4946C43.8448 42.3876 43.8466 42.2807 43.8483 42.1729L44.1246 42.3918C44.1539 42.4152 44.1841 42.4386 44.2135 42.462C44.261 42.4996 44.3084 42.5255 44.3715 42.5263C44.4276 42.5263 44.4966 42.5029 44.5355 42.462C44.5743 42.4211 44.6037 42.3667 44.602 42.3091C44.6002 42.2531 44.5821 42.1871 44.5355 42.1504L44.2938 41.9591C44.166 41.858 44.0374 41.7569 43.9096 41.6558L43.8569 41.614C43.8569 41.594 43.8569 41.5739 43.8578 41.553L43.863 41.2515C44.0572 41.3918 44.2515 41.5322 44.4466 41.6717L44.5864 41.7728C44.6469 41.8062 44.7116 41.8237 44.7807 41.8246C44.8523 41.8246 44.9188 41.8087 44.9818 41.7744C45.044 41.7402 45.0932 41.6934 45.1294 41.6333C45.164 41.5748 45.1821 41.5121 45.183 41.4453L45.1355 40.9875C45.1208 40.8429 45.1053 40.6992 45.0906 40.5547C45.1484 40.5856 45.2063 40.6174 45.2641 40.6483C45.3263 40.6817 45.3893 40.7151 45.4514 40.7494L45.4894 40.9699C45.5162 41.1278 45.5438 41.2857 45.5706 41.4436C45.5766 41.4804 45.5835 41.5171 45.5896 41.5539C45.5991 41.6074 45.6491 41.6642 45.6958 41.6909C45.7432 41.7176 45.8123 41.7293 45.8658 41.7143C45.9228 41.6976 45.9789 41.6642 46.0074 41.6115C46.0359 41.5581 46.0419 41.5063 46.0316 41.4469L45.9807 41.1487L45.9591 41.0226C46.0324 41.0618 46.105 41.1011 46.1783 41.1404L46.2474 41.1779C46.2673 41.2957 46.288 41.4127 46.3078 41.5305C46.3458 41.7519 46.3838 41.9741 46.4218 42.1955L46.4477 42.3467C46.4572 42.4002 46.5073 42.457 46.5539 42.4837C46.6014 42.5104 46.6704 42.5221 46.724 42.5071C46.7809 42.4904 46.837 42.457 46.8655 42.4043C46.894 42.3509 46.9001 42.2991 46.8897 42.2398C46.8655 42.1002 46.8422 41.9607 46.8181 41.8221C46.7965 41.6984 46.7758 41.5748 46.7542 41.4503C46.825 41.4879 46.8957 41.5263 46.9657 41.5639C47.0529 41.6107 47.1392 41.6575 47.2264 41.7043L47.2376 41.7101C47.2911 41.8972 47.3455 42.0852 47.3991 42.2723C47.4077 42.3024 47.4163 42.3333 47.425 42.3634C47.4569 42.4762 47.5803 42.5556 47.7012 42.523L48.378 42.3409C48.4091 42.3325 48.4411 42.3241 48.4721 42.3158C48.4903 42.3108 48.5075 42.3041 48.5231 42.2957C48.5602 42.2765 48.593 42.2498 48.6129 42.213C48.6293 42.1855 48.6405 42.1504 48.6431 42.1161C48.6431 42.1145 48.6431 42.1128 48.6431 42.1119C48.6431 42.1094 48.6431 42.1078 48.6431 42.1053V42.1011C48.6431 42.0827 48.6413 42.0652 48.6362 42.0485C48.5731 41.8304 48.511 41.6115 48.448 41.3935C48.4393 41.3634 48.4307 41.3325 48.4221 41.3024C48.3901 41.1896 48.2667 41.1103 48.1458 41.1429C47.9205 41.2038 47.6943 41.264 47.469 41.325L47.4603 41.3275C47.3965 41.2932 47.3317 41.2581 47.2678 41.2239C47.1668 41.1696 47.065 41.1145 46.9639 41.0601L46.9795 41.0535C47.191 40.9599 47.4016 40.8663 47.6132 40.7728L47.7573 40.7093C47.8074 40.6867 47.8506 40.6266 47.8644 40.5764C47.879 40.5246 47.873 40.4553 47.8428 40.4094C47.8117 40.3609 47.7642 40.3191 47.7055 40.3058C47.6442 40.2916 47.5907 40.3008 47.5329 40.3267C47.3999 40.3851 47.2678 40.4444 47.1349 40.5029C46.9234 40.5965 46.7127 40.6901 46.5012 40.7836L46.4719 40.7962C46.3683 40.7402 46.2647 40.6842 46.1602 40.6291C46.2785 40.5764 46.3968 40.5246 46.515 40.472C46.5496 40.457 46.585 40.4411 46.6195 40.4261C46.6696 40.4035 46.7127 40.3434 46.7265 40.2932C46.7412 40.2414 46.7352 40.1721 46.705 40.1261C46.6739 40.0777 46.6264 40.0359 46.5677 40.0226C46.5064 40.0084 46.4529 40.0175 46.395 40.0434C46.3001 40.0852 46.206 40.127 46.111 40.1696L45.6673 40.3659C45.6448 40.3542 45.6232 40.3417 45.6008 40.33C45.5222 40.2882 45.4445 40.2456 45.366 40.2038C45.568 40.1195 45.7709 40.0351 45.9729 39.9507L46.1335 39.8839C46.1956 39.8496 46.2448 39.8028 46.2811 39.7427C46.3156 39.6842 46.3337 39.6216 46.3346 39.5547C46.3346 39.4854 46.3182 39.4211 46.2828 39.3601C46.2474 39.2999 46.1991 39.2523 46.1369 39.2172C45.9927 39.1546 45.8486 39.0911 45.7035 39.0284C45.5844 38.9766 45.4653 38.9248 45.3461 38.8722C45.3927 38.8463 45.4402 38.8204 45.4868 38.7953C45.5525 38.7594 45.6189 38.7235 45.6845 38.6867C45.7329 38.7076 45.7812 38.7293 45.8304 38.7502C45.9815 38.8154 46.1317 38.8814 46.2828 38.9474C46.3182 38.9624 46.3527 38.9774 46.3881 38.9933C46.4442 39.0175 46.4969 39.0317 46.5582 39.0167C46.6126 39.0033 46.673 38.9632 46.6998 38.914C46.7265 38.8647 46.7412 38.8045 46.724 38.7494C46.7075 38.6959 46.6722 38.6366 46.6178 38.6124C46.5228 38.5714 46.4278 38.5297 46.3329 38.4887C46.2802 38.4662 46.2276 38.4428 46.1749 38.4202C46.2491 38.3793 46.3234 38.3392 46.3968 38.2982C46.4253 38.2824 46.4537 38.2673 46.4822 38.2515C46.5694 38.2891 46.6566 38.3275 46.7438 38.3651C46.9553 38.457 47.1677 38.5497 47.3792 38.6416C47.4275 38.6625 47.4759 38.6834 47.5234 38.7043C47.5795 38.7285 47.6321 38.7427 47.6934 38.7277C47.7478 38.7143 47.8083 38.6742 47.835 38.6249C47.8618 38.5756 47.8765 38.5155 47.8592 38.4603C47.8428 38.4069 47.8074 38.3475 47.753 38.3233C47.6201 38.2657 47.4871 38.2072 47.3542 38.1495C47.2264 38.0944 47.0995 38.0384 46.9717 37.9833C47.0416 37.9449 47.1116 37.9064 47.1815 37.868C47.2678 37.8204 47.3542 37.7736 47.4405 37.726C47.4509 37.7201 47.4603 37.7151 47.4707 37.7093C47.6624 37.7611 47.854 37.812 48.0465 37.8638C48.0776 37.8722 48.1095 37.8805 48.1406 37.8889C48.2589 37.9206 48.3875 37.8505 48.4203 37.7352C48.4825 37.5171 48.5455 37.2982 48.6077 37.0794L48.631 36.9992C48.631 36.9992 48.6336 36.9916 48.6344 36.9875C48.6405 36.9657 48.6431 36.9432 48.6422 36.9198C48.6422 36.8847 48.6327 36.8505 48.6137 36.8204C48.5861 36.7736 48.5317 36.7293 48.4765 36.7168C48.2503 36.6566 48.0249 36.5957 47.7988 36.5355L47.7047 36.5104C47.5864 36.4787 47.4578 36.5489 47.425 36.6642L47.2376 37.32L47.2333 37.3342C47.166 37.3709 47.0986 37.4077 47.0313 37.4444C46.9337 37.4979 46.8353 37.5514 46.7378 37.6048C46.7732 37.3876 46.8094 37.1704 46.8448 36.9532L46.8698 36.802C46.8793 36.7419 46.8811 36.6901 46.8483 36.6349C46.8206 36.5881 46.7663 36.5439 46.711 36.5313C46.654 36.5188 46.5893 36.5205 46.5383 36.5522C46.4909 36.5815 46.4408 36.6282 46.4313 36.685C46.408 36.8246 46.3855 36.9641 46.3622 37.1036C46.326 37.3258 46.2888 37.5472 46.2526 37.7694C46.2465 37.807 46.2405 37.8438 46.2345 37.8814C46.1378 37.934 46.0411 37.9875 45.9453 38.0401C45.9634 37.929 45.9815 37.8187 45.9996 37.7076C46.0057 37.6708 46.0117 37.6341 46.0178 37.5973C46.0273 37.5372 46.029 37.4854 45.9962 37.4302C45.9686 37.3835 45.9142 37.3392 45.8589 37.3266C45.8019 37.3141 45.7372 37.3158 45.6863 37.3475C45.6388 37.3768 45.5887 37.4236 45.5792 37.4804C45.5628 37.5798 45.5464 37.6792 45.53 37.7786C45.5041 37.9365 45.4782 38.0944 45.4523 38.2523L45.442 38.3158L45.3729 38.3534L45.1139 38.4954C45.1415 38.2673 45.1692 38.0384 45.1968 37.8104L45.2175 37.6424C45.2175 37.5731 45.2011 37.5088 45.1657 37.4478C45.1303 37.3876 45.082 37.34 45.0198 37.3049C44.9594 37.2715 44.8946 37.254 44.8256 37.2531C44.7539 37.2531 44.6866 37.269 44.6244 37.3033C44.4958 37.3927 44.3671 37.482 44.2385 37.5714C44.1323 37.6458 44.0253 37.7201 43.9191 37.7937C43.9191 37.7427 43.9208 37.6917 43.9217 37.6399L43.926 37.381C43.9925 37.3275 44.0589 37.2732 44.1254 37.2197C44.2523 37.117 44.3792 37.0142 44.5053 36.9114L44.5933 36.8396C44.6348 36.8062 44.6598 36.7377 44.6598 36.6867C44.6598 36.6324 44.6356 36.5656 44.5933 36.528C44.551 36.4904 44.4949 36.462 44.4353 36.4637C44.3715 36.4653 44.3205 36.4879 44.2713 36.528C44.191 36.5923 44.1116 36.6575 44.0313 36.7218C43.9985 36.7485 43.9666 36.7744 43.9338 36.8012C43.9346 36.7444 43.9355 36.6884 43.9364 36.6316C43.9364 36.5815 43.9381 36.5305 43.9389 36.4804C44.04 36.3985 44.141 36.3166 44.242 36.2348C44.4198 36.0902 44.5985 35.9465 44.7763 35.802L44.8981 35.7034C44.9395 35.67 44.9645 35.6015 44.9645 35.5505C44.9645 35.4962 44.9404 35.4294 44.8981 35.3918C44.8558 35.3542 44.7997 35.3258 44.7401 35.3275C44.6762 35.3292 44.6253 35.3517 44.5761 35.3918C44.4638 35.482 44.3525 35.5731 44.2402 35.6633C44.1427 35.7427 44.0451 35.8212 43.9476 35.9006C43.9476 35.853 43.9493 35.8053 43.9502 35.7577L43.9545 35.4703C43.9545 35.4586 43.9545 35.447 43.9545 35.4344C44.1082 35.2882 44.261 35.142 44.4146 34.995C44.4379 34.9724 44.4612 34.9507 44.4846 34.9282C44.5726 34.8446 44.5709 34.7009 44.4846 34.6165C44.3197 34.4553 44.1556 34.2941 43.9907 34.132C43.9709 34.1128 43.951 34.0936 43.9312 34.0735C43.9277 34.0702 43.9251 34.0668 43.9217 34.0643C43.882 34.0251 43.8207 34.0008 43.7637 34C43.7076 34 43.6385 34.0234 43.5997 34.0643C43.4331 34.2239 43.2664 34.3826 43.0998 34.5422C43.0765 34.5647 43.0532 34.5865 43.0299 34.609C42.9418 34.6926 42.9436 34.8363 43.0299 34.9206C43.187 35.0744 43.3433 35.2281 43.5004 35.3818C43.5004 35.3927 43.5004 35.4035 43.5004 35.4152C43.4987 35.4996 43.4978 35.5848 43.4961 35.6692C43.4943 35.7561 43.4935 35.8429 43.4918 35.929L43.4754 35.9173C43.2846 35.7886 43.0946 35.66 42.9039 35.5313C42.8607 35.5021 42.8175 35.4729 42.7735 35.4436C42.7286 35.4135 42.6544 35.4077 42.6034 35.4202C42.549 35.4336 42.4886 35.4737 42.4618 35.523C42.4351 35.5723 42.4204 35.6324 42.4377 35.6876C42.4558 35.7469 42.4912 35.7886 42.5439 35.8246C42.6639 35.9056 42.783 35.9858 42.903 36.0668C43.0938 36.1955 43.2837 36.3241 43.4745 36.4528L43.4823 36.4587V36.5029C43.4797 36.614 43.4779 36.7251 43.4762 36.8371C43.3692 36.7652 43.2621 36.6926 43.1551 36.6207C43.124 36.5998 43.0921 36.5781 43.061 36.5572C43.0161 36.5272 42.9418 36.5213 42.8909 36.5338C42.8365 36.5472 42.7761 36.5873 42.7493 36.6366C42.7226 36.6859 42.7079 36.746 42.7252 36.8012C42.7433 36.8605 42.7787 36.9023 42.8313 36.9382C42.9168 36.9958 43.0023 37.0535 43.0877 37.1111C43.2146 37.1963 43.3407 37.2815 43.4676 37.3676L43.465 37.513C43.4633 37.6099 43.4615 37.7059 43.4607 37.8028C43.269 37.665 43.0774 37.5263 42.8857 37.3885C42.8391 37.3551 42.7925 37.3208 42.7459 37.2874C42.6854 37.254 42.6207 37.2364 42.5516 37.2356C42.48 37.2356 42.4135 37.2515 42.3505 37.2857C42.2883 37.32 42.2391 37.3668 42.2029 37.4269C42.1683 37.4854 42.1502 37.548 42.1493 37.6149C42.1649 37.7678 42.1813 37.9198 42.1968 38.0727C42.2124 38.2239 42.2279 38.3751 42.2434 38.5271C42.183 38.4946 42.1226 38.462 42.0621 38.4294C41.9965 38.3943 41.9318 38.3592 41.8662 38.3241C41.8567 38.254 41.8472 38.183 41.8368 38.1128L41.7712 37.6374L41.7557 37.5272C41.7488 37.4745 41.6952 37.416 41.6495 37.3901C41.602 37.3634 41.5329 37.3517 41.4794 37.3668C41.4224 37.3835 41.3663 37.4169 41.3378 37.4695C41.3301 37.4871 41.3232 37.5038 41.3154 37.5213C41.305 37.5589 41.3042 37.5965 41.3137 37.6341C41.3275 37.7343 41.3413 37.8338 41.3551 37.934C41.3611 37.9758 41.3663 38.0175 41.3724 38.0593C41.299 38.0201 41.2256 37.9808 41.1522 37.9407C41.1211 37.924 41.0909 37.9073 41.0598 37.8914C41.0452 37.7836 41.0305 37.6759 41.0158 37.5681L40.9243 36.8998L40.9036 36.7477C40.8967 36.6951 40.8432 36.6366 40.7974 36.6107C40.7499 36.584 40.6809 36.5723 40.6273 36.5873C40.5704 36.604 40.5142 36.6374 40.4858 36.6901C40.478 36.7076 40.4711 36.7243 40.4633 36.7419C40.4529 36.7794 40.4521 36.817 40.4616 36.8546C40.4806 36.995 40.5004 37.1345 40.5194 37.2749C40.5358 37.3918 40.5514 37.5088 40.5678 37.6257C40.5004 37.5898 40.4331 37.5531 40.3658 37.5171C40.2794 37.4703 40.1931 37.4244 40.1068 37.3776C40.086 37.3668 40.0662 37.3559 40.0455 37.345C39.9928 37.1696 39.941 36.9942 39.8883 36.8195C39.8789 36.7895 39.8702 36.7586 39.8607 36.7285C39.8271 36.6174 39.7062 36.5347 39.5845 36.5689C39.3591 36.6316 39.1347 36.6951 38.9094 36.7577L38.8153 36.7845C38.8032 36.7878 38.7911 36.792 38.7799 36.797C38.7358 36.8162 38.697 36.8454 38.6745 36.8872C38.6616 36.9089 38.6521 36.9357 38.6469 36.9624C38.6426 36.985 38.6417 37.0084 38.6452 37.0309C38.6461 37.0376 38.6478 37.0451 38.6495 37.051C38.7143 37.269 38.7799 37.4862 38.8446 37.7043C38.8541 37.7343 38.8627 37.7652 38.8722 37.7953C38.9059 37.9064 39.0268 37.9891 39.1485 37.9549L39.8236 37.7661L39.8676 37.7536C39.9324 37.7886 39.9971 37.8237 40.0619 37.858C40.162 37.9123 40.2622 37.9658 40.3623 38.0201L40.3243 38.0359C40.1102 38.1228 39.8961 38.2097 39.682 38.2966C39.6337 38.3166 39.5845 38.3358 39.5361 38.3559C39.4861 38.3759 39.4429 38.4403 39.4291 38.4887C39.4144 38.5405 39.4204 38.609 39.4507 38.6558C39.4817 38.7043 39.5292 38.746 39.5879 38.7594C39.6069 38.7619 39.6259 38.7644 39.6458 38.7678C39.6872 38.7678 39.7252 38.7586 39.7606 38.7394C39.8953 38.685 40.0299 38.6299 40.1646 38.5756C40.3787 38.4887 40.5928 38.4018 40.8069 38.315C40.8268 38.3066 40.8466 38.2991 40.8656 38.2907C40.9614 38.3425 41.0573 38.3943 41.1531 38.4453C41.0322 38.4946 40.9114 38.5439 40.7905 38.5923C40.7551 38.6065 40.7197 38.6207 40.6843 38.6358C40.6342 38.6558 40.5911 38.7201 40.5773 38.7686C40.5626 38.8204 40.5686 38.8897 40.5988 38.9357C40.6299 38.9841 40.6774 39.0259 40.7361 39.0393C40.7551 39.0418 40.7741 39.0443 40.794 39.0476C40.8354 39.0476 40.8734 39.0384 40.9088 39.0192L41.1971 38.9023C41.3499 38.8404 41.5019 38.7786 41.6547 38.7168H41.6564C41.6788 38.7285 41.7021 38.7402 41.7246 38.7527C41.7971 38.792 41.8705 38.8312 41.943 38.8705C41.7479 38.9515 41.5528 39.0334 41.3577 39.1145C41.3042 39.137 41.2506 39.1587 41.1971 39.1813C41.135 39.2155 41.0857 39.2623 41.0495 39.3225C41.015 39.381 40.9968 39.4436 40.996 39.5104C40.996 39.5798 41.0124 39.6441 41.0478 39.7051C41.0832 39.7652 41.1315 39.8129 41.1937 39.848C41.3378 39.9106 41.482 39.9741 41.627 40.0368C41.7522 40.0911 41.8774 40.1462 42.0026 40.2005L41.8472 40.2857C41.7936 40.315 41.741 40.3442 41.6875 40.3734C41.602 40.34 41.5165 40.3058 41.4311 40.2723C41.2783 40.2122 41.1255 40.1512 40.9718 40.0911C40.9364 40.0769 40.901 40.0627 40.8647 40.0493C40.8147 40.0292 40.737 40.0451 40.6921 40.0702C40.6437 40.0969 40.598 40.1495 40.585 40.203C40.5721 40.2581 40.5738 40.3208 40.6066 40.3701C40.6187 40.386 40.6308 40.4018 40.6437 40.4169C40.6722 40.4444 40.7059 40.4628 40.7439 40.4737C40.8406 40.5121 40.9364 40.5497 41.0331 40.5881C41.084 40.6082 41.1358 40.6282 41.1868 40.6491C41.1056 40.6934 41.0244 40.7385 40.9424 40.7828C40.9269 40.7911 40.9114 40.7995 40.8967 40.8079C40.768 40.7569 40.6403 40.7068 40.5117 40.6558C40.2967 40.5706 40.0817 40.4862 39.8668 40.401C39.8176 40.3818 39.7692 40.3626 39.72 40.3434C39.6699 40.3233 39.5922 40.3392 39.5473 40.3642C39.499 40.391 39.4532 40.4436 39.4403 40.4971C39.4273 40.5522 39.4291 40.6149 39.4619 40.6642C39.474 40.68 39.4861 40.6959 39.499 40.7109C39.5275 40.7385 39.5612 40.7569 39.5991 40.7678C39.7338 40.8212 39.8694 40.8747 40.004 40.9282C40.1344 40.98 40.2656 41.0309 40.396 41.0827C40.3165 41.1261 40.238 41.1696 40.1586 41.213C40.0722 41.2598 39.9859 41.3074 39.9004 41.3542C39.8814 41.3651 39.8624 41.3751 39.8426 41.386C39.6691 41.3442 39.4947 41.3024 39.3212 41.2598L39.2262 41.2373C39.1097 41.2089 38.9767 41.2723 38.9465 41.391C38.8895 41.6107 38.8334 41.8312 38.7764 42.051L38.7531 42.1429C38.7488 42.1587 38.7471 42.1746 38.7462 42.1913C38.7436 42.2331 38.7514 42.2749 38.7747 42.3108C38.7902 42.3375 38.8135 42.3626 38.842 42.3818L38.8446 42.3835C38.8498 42.3876 38.8558 42.391 38.8619 42.3943H38.8636C38.8636 42.3943 38.8688 42.3977 38.8714 42.3993C38.8852 42.406 38.899 42.411 38.9128 42.4144C39.1399 42.4695 39.3678 42.5238 39.5948 42.5789L39.6898 42.6015C39.8063 42.6299 39.9393 42.5664 39.9695 42.4478C40.0265 42.2281 40.0826 42.0075 40.1396 41.7878C40.1456 41.7652 40.1508 41.7435 40.1568 41.721C40.2078 41.6926 40.2596 41.665 40.3105 41.6366C40.4029 41.5865 40.4952 41.5355 40.5868 41.4854C40.5591 41.7026 40.5315 41.9198 40.5039 42.137C40.4978 42.188 40.4909 42.2389 40.4849 42.2891C40.478 42.3425 40.5142 42.4119 40.5514 42.4478C40.5902 42.4854 40.6541 42.5138 40.7093 42.5121C40.7689 42.5104 40.8319 42.4921 40.8734 42.4478C40.8855 42.4328 40.8975 42.4177 40.9096 42.4027C40.9295 42.3693 40.9398 42.3333 40.9407 42.2949C40.9588 42.1546 40.9761 42.0142 40.9942 41.8747C41.0219 41.655 41.0503 41.4361 41.078 41.2164L41.3879 41.0468C41.3732 41.1604 41.3585 41.2749 41.3447 41.3885C41.3404 41.4252 41.3352 41.462 41.3309 41.4987C41.324 41.5522 41.3603 41.6207 41.3974 41.6575C41.4362 41.6951 41.5001 41.7235 41.5554 41.7218C41.6149 41.7201 41.678 41.7018 41.7194 41.6575C41.7315 41.6424 41.7436 41.6274 41.7557 41.6124C41.7755 41.5789 41.7859 41.543 41.7867 41.5046C41.7997 41.4043 41.8118 41.3049 41.8247 41.2047C41.8429 41.0627 41.861 40.9198 41.8791 40.7778C41.9085 40.7619 41.9378 40.7452 41.9672 40.7293L42.2193 40.5915C42.1925 40.8129 42.1657 41.0351 42.139 41.2565L42.1183 41.4244C42.1183 41.4937 42.1347 41.5581 42.17 41.619C42.2054 41.6792 42.2538 41.7268 42.3159 41.7619C42.3764 41.7953 42.4411 41.8129 42.5102 41.8137C42.5818 41.8137 42.6492 41.7978 42.7113 41.7636C42.84 41.6742 42.9686 41.5848 43.0972 41.4954C43.2008 41.4236 43.3053 41.3509 43.4089 41.279C43.4089 41.3308 43.4072 41.3826 43.4063 41.4344C43.4054 41.5046 43.4037 41.5748 43.4028 41.6449C43.3605 41.6742 43.3191 41.7034 43.2768 41.7318C43.1421 41.8246 43.0083 41.9181 42.8736 42.0109C42.8426 42.0326 42.8115 42.0543 42.7804 42.076C42.7295 42.1111 42.6906 42.1487 42.6734 42.2089C42.6587 42.2606 42.6647 42.3292 42.6949 42.3759C42.726 42.4244 42.7735 42.4662 42.8322 42.4795C42.8875 42.4921 42.9565 42.4921 43.0049 42.4586C43.0895 42.4002 43.1741 42.3417 43.2587 42.2824C43.3036 42.2506 43.3493 42.2197 43.3942 42.188C43.3925 42.2715 43.3916 42.3551 43.3899 42.4394C43.3899 42.4712 43.389 42.5029 43.3882 42.5347C43.3131 42.5865 43.2388 42.6383 43.1637 42.6901C42.9746 42.8212 42.7864 42.9515 42.5974 43.0827L42.4688 43.1721C42.4178 43.2072 42.379 43.2448 42.3617 43.3049C42.347 43.3567 42.3531 43.4261 42.3833 43.472C42.4144 43.5205 42.4618 43.5622 42.5205 43.5756C42.5758 43.5881 42.6449 43.5881 42.6932 43.5547C42.8115 43.4728 42.9306 43.3901 43.0489 43.3083C43.1594 43.2322 43.269 43.1554 43.3795 43.0794C43.3787 43.1571 43.3769 43.2348 43.3761 43.3124C43.3744 43.4043 43.3735 43.4971 43.3718 43.589C43.225 43.726 43.0774 43.8622 42.9306 43.9992C42.9073 44.0209 42.8831 44.0426 42.8598 44.0652C42.77 44.1487 42.7752 44.2916 42.8598 44.3768C43.0221 44.5405 43.1844 44.7043 43.3467 44.8672C43.3649 44.8855 43.3838 44.9039 43.402 44.9231C43.4063 44.9273 43.4106 44.9323 43.4149 44.9357C43.4538 44.9749 43.5168 44.9992 43.5729 45C43.629 45 43.6981 44.9766 43.7369 44.9357L43.7361 44.9315ZM43.3174 39.9415C43.3217 39.9089 43.3251 39.8772 43.3295 39.8446C43.3381 39.7744 43.2828 39.68 43.2164 39.6516C43.1197 39.6099 43.0239 39.5673 42.9272 39.5255C42.9936 39.4979 43.0601 39.4703 43.1266 39.4419C43.1577 39.4294 43.1879 39.416 43.219 39.4035C43.2846 39.3759 43.3415 39.284 43.3346 39.2147L43.3027 38.9064C43.3614 38.949 43.4201 38.9908 43.4788 39.0334C43.5056 39.0526 43.5323 39.0718 43.5591 39.0919C43.6161 39.1328 43.7274 39.1337 43.7853 39.0927C43.8716 39.0326 43.9571 38.9733 44.0434 38.9131C44.0348 38.9825 44.027 39.0518 44.0184 39.1211C44.0158 39.1404 44.0141 39.1587 44.0115 39.1779C44.008 39.1938 44.0063 39.2097 44.0063 39.2256C44.0046 39.2581 44.0175 39.2957 44.0365 39.3283C44.0555 39.3634 44.084 39.396 44.1202 39.4119L44.1254 39.4135C44.1366 39.4194 44.1487 39.4252 44.1617 39.4294L44.4094 39.538C44.343 39.5656 44.2765 39.5932 44.21 39.6216C44.1928 39.6291 44.1755 39.6358 44.1582 39.6433C44.1418 39.6483 44.1263 39.6541 44.1125 39.6625C44.0589 39.6876 44.0132 39.7552 44.0037 39.8162V39.8187C44.0037 39.8187 44.0037 39.8229 44.0028 39.8246V39.8279C44.0028 39.8279 44.0028 39.8329 44.0028 39.8363V39.8396C44.0028 39.8396 44.0028 39.8454 44.0028 39.8488C44.0132 39.9515 44.0244 40.0543 44.0348 40.1571C43.9761 40.1145 43.9174 40.0727 43.8587 40.0301C43.8319 40.0109 43.8051 39.9916 43.7784 39.9716C43.7214 39.9307 43.61 39.9298 43.5522 39.9708L43.5479 39.9741C43.5358 39.9808 43.5246 39.9891 43.5133 39.9975C43.44 40.0485 43.3666 40.0994 43.2932 40.1504C43.3018 40.081 43.3096 40.0117 43.3182 39.9424L43.3174 39.9415Z" fill="#5DBDF1"/>
</svg>
