<svg width="68" height="50" viewBox="0 0 68 50" fill="none" xmlns="http://www.w3.org/2000/svg">
<path d="M34.2546 37.4923C41.2909 37.4923 46.995 31.7886 46.995 24.7528C46.995 17.7169 41.2909 12.0132 34.2546 12.0132C27.2182 12.0132 21.5142 17.7169 21.5142 24.7528C21.5142 31.7886 27.2182 37.4923 34.2546 37.4923Z" fill="#FDCC1D"/>
<path d="M31.5256 9.59418L34.2546 0L36.9824 9.59418H31.5256Z" fill="#FDCC1D"/>
<path d="M21.6059 15.9626L16.7505 7.25L25.4637 12.1051L21.6059 15.9626Z" fill="#FDCC1D"/>
<path d="M19.0948 27.4805L9.5 24.7529L19.0948 22.0254V27.4805Z" fill="#FDCC1D"/>
<path d="M25.4637 37.401L16.7505 42.2561L21.6059 33.5435L25.4637 37.401Z" fill="#FDCC1D"/>
<path d="M36.9824 39.9116L34.2546 49.5058L31.5256 39.9116H36.9824Z" fill="#FDCC1D"/>
<path d="M46.9032 33.5435L51.7586 42.2561L43.0454 37.401L46.9032 33.5435Z" fill="#FDCC1D"/>
<path d="M49.4146 22.0254L59.0094 24.7529L49.4146 27.4805V22.0254Z" fill="#FDCC1D"/>
<path d="M43.0454 12.1051L51.7586 7.25L46.9032 15.9626L43.0454 12.1051Z" fill="#FDCC1D"/>
</svg>
