<svg width="68" height="50" viewBox="0 0 68 50" fill="none" xmlns="http://www.w3.org/2000/svg">
<path d="M53.2324 17.5502C53.146 17.5502 53.0596 17.5514 52.9744 17.5538C51.8968 12.6602 47.5648 9 42.3831 9C36.9087 9 32.3822 13.0859 31.6406 18.3954C27.809 18.9238 24.8569 22.2346 24.8569 26.2406C24.8569 30.6143 28.3754 34.1596 32.7158 34.1596C34.1474 34.1596 35.4902 33.7739 36.6459 33.0992C38.2503 34.2938 40.2351 35 42.3831 35C44.5311 35 46.4392 34.3204 48.0268 33.1681C49.474 34.2733 51.2776 34.9299 53.2324 34.9299C57.9953 34.9299 61.8569 31.0387 61.8569 26.2394C61.8569 21.4402 57.9953 17.549 53.2324 17.549V17.5502Z" fill="#CED7EC"/>
<path d="M40.6009 19.1946C40.4979 19.1946 40.3961 19.197 40.2943 19.1993C39.0129 13.3637 33.8603 9 27.699 9C21.1889 9 15.807 13.8709 14.9246 20.2019C10.3677 20.832 6.85693 24.7796 6.85693 29.5559C6.85693 34.7709 11.0417 38.9974 16.2025 38.9974C17.9052 38.9974 19.5014 38.5375 20.8765 37.7336C22.7851 39.1582 25.1443 40 27.699 40C30.2536 40 32.5215 39.1902 34.4103 37.8152C36.1306 39.1334 38.2757 39.9161 40.6009 39.9161C46.2649 39.9161 50.8569 35.2769 50.8569 29.5547C50.8569 23.8326 46.2649 19.1934 40.6009 19.1934V19.1946Z" fill="#E5EAF8"/>
</svg>
