<svg width="17" height="19" viewBox="0 0 17 19" fill="none" xmlns="http://www.w3.org/2000/svg">
<path d="M14.3616 3.07208C14.9482 3.07208 15.4875 3.07208 16.0269 3.07208C16.0742 3.07208 16.1215 3.07209 16.1688 3.07677C16.2398 3.08146 16.2492 3.11893 16.2066 3.17047C16.1688 3.21263 16.1262 3.2548 16.0836 3.29696C13.7513 5.60665 11.419 7.91634 9.08192 10.226C8.96365 10.3432 8.91634 10.4603 8.91634 10.6289C8.92107 12.4982 8.91634 14.3629 8.92107 16.2322C8.92107 17.2254 9.43674 17.7876 10.4444 17.9094C10.662 17.9375 10.8797 17.9422 11.0973 17.9375C11.2203 17.9328 11.2818 17.9703 11.2771 18.1062C11.2723 18.5606 11.3102 18.4856 10.908 18.4903C9.17181 18.495 7.43084 18.4903 5.69461 18.4903C5.61418 18.4903 5.49118 18.5372 5.46279 18.4247C5.42494 18.2795 5.41548 18.1202 5.47698 17.9797C5.50537 17.9188 5.58106 17.9422 5.64257 17.9422C5.95954 17.9422 6.28124 17.9469 6.59347 17.8719C7.35042 17.6892 7.81404 17.1083 7.81404 16.3305C7.81404 14.4285 7.81404 12.5264 7.81878 10.6196C7.81878 10.4603 7.76674 10.3478 7.65319 10.2354C5.30667 7.92103 2.96961 5.60665 0.632553 3.29228C0.580513 3.24074 0.476434 3.18921 0.504819 3.11893C0.537935 3.02992 0.651476 3.07677 0.727171 3.07677C4.80047 3.07209 8.87376 3.07209 12.9471 3.07677C13.1458 3.07677 13.2877 3.02055 13.4296 2.88C14.2339 2.11167 15.0476 1.3527 15.8518 0.584366C15.9606 0.476612 16.0363 0.467242 16.1357 0.584366C16.2208 0.687435 16.3202 0.781135 16.4243 0.870149C16.5283 0.963849 16.5236 1.03412 16.4195 1.12782C16.0316 1.48857 15.6484 1.85399 15.2605 2.21474C14.9719 2.49115 14.6833 2.76756 14.3616 3.07208ZM9.93821 5.72846C9.36104 5.72846 8.92107 6.16417 8.91634 6.73573C8.91161 7.32135 9.35158 7.75706 9.94295 7.75706C10.5201 7.75706 10.9648 7.31667 10.9648 6.74979C10.9695 6.16885 10.5248 5.72846 9.93821 5.72846Z" fill="#18ABC6"/>
</svg>
