<svg width="20" height="17" viewBox="0 0 20 17" fill="none" xmlns="http://www.w3.org/2000/svg">
<path d="M9.98258 15.0401C8.00757 15.0401 6.03307 15.0407 4.05805 15.0401C3.08608 15.0396 2.40492 14.3379 2.40439 13.3371C2.40386 12.4266 2.40175 11.5155 2.40702 10.6049C2.40808 10.4554 2.36909 10.3803 2.22053 10.327C1.08683 9.9196 0.388278 8.77572 0.514713 7.55515C0.63746 6.3732 1.54252 5.4148 2.70625 5.23584C4.18343 5.00794 5.58212 6.23993 5.59055 7.78305C5.59582 8.80945 5.59634 9.83583 5.58792 10.8617C5.58634 11.0537 5.64692 11.101 5.82498 11.1005C8.60919 11.0956 11.3939 11.095 14.1781 11.101C14.3751 11.1016 14.4189 11.0336 14.4173 10.8437C14.4094 9.84454 14.4131 8.84534 14.4141 7.84669C14.4157 6.50265 15.4172 5.35007 16.6868 5.22932C18.0386 5.10041 19.2308 6.03161 19.4615 7.39687C19.6754 8.66313 18.9805 9.89893 17.8026 10.3205C17.6377 10.3798 17.5971 10.4619 17.5982 10.6272C17.6045 11.5449 17.6029 12.4625 17.6008 13.3801C17.5987 14.3281 16.907 15.0401 15.9856 15.0407C13.9848 15.0412 11.9834 15.0396 9.98258 15.0401Z" fill="#18ABC6"/>
<path d="M10.0168 0.00163178C11.2806 0.00163178 12.5445 0.000543927 13.8088 0.00163178C15.3782 0.00326356 16.6499 1.31195 16.6536 2.9285C16.6547 3.41097 16.6483 3.89398 16.6568 4.3759C16.6599 4.54723 16.6157 4.61903 16.4376 4.65547C15.0589 4.93396 14.1233 5.89889 13.8662 7.29406C13.832 7.48009 13.822 7.67155 13.8104 7.86084C13.8036 7.96908 13.7846 8.03 13.6592 7.99138C13.2114 7.85322 12.7505 7.8592 12.2895 7.85975C10.6769 7.86192 9.06382 7.86138 7.45125 7.86029C7.08828 7.86029 6.72688 7.8777 6.37708 7.98485C6.22641 8.03109 6.19954 7.97125 6.19428 7.83146C6.16952 7.15101 5.99514 6.51842 5.60161 5.96199C5.08797 5.2353 4.39943 4.79526 3.54072 4.64786C3.38689 4.62121 3.34844 4.5543 3.35002 4.40744C3.35581 3.91138 3.3516 3.41532 3.35265 2.91926C3.35529 1.52245 4.34675 0.297528 5.67589 0.0456899C5.845 0.0135982 6.01411 0 6.18585 0C7.46284 0.00217571 8.73983 0.00163178 10.0168 0.00163178ZM6.19586 3.5823C6.33915 3.59155 6.49087 3.45067 6.50352 3.29837C6.51563 3.14825 6.38551 2.99323 6.23431 2.97746C6.08207 2.96168 5.92297 3.10746 5.91665 3.269C5.91085 3.41858 6.04782 3.57251 6.19586 3.5823ZM9.03169 3.27716C9.03116 3.12541 8.88892 2.97691 8.74194 2.97474C8.58864 2.97202 8.43692 3.13302 8.44429 3.28967C8.45114 3.44197 8.59865 3.58557 8.74405 3.58176C8.89208 3.57741 9.03222 3.42892 9.03169 3.27716ZM11.5609 3.28858C11.5667 3.13955 11.4282 2.98398 11.2812 2.97474C11.1305 2.96495 10.9725 3.12105 10.9725 3.27879C10.9725 3.42892 11.1158 3.57904 11.2617 3.5823C11.4071 3.58557 11.5551 3.4398 11.5609 3.28858ZM13.7957 2.97474C13.6497 2.97419 13.5049 3.12105 13.5012 3.27281C13.4975 3.43055 13.6524 3.58883 13.8046 3.5823C13.9516 3.57632 14.0922 3.42402 14.0891 3.2739C14.0865 3.12269 13.9411 2.97474 13.7957 2.97474ZM7.76839 5.89291C7.77103 5.74333 7.62984 5.59103 7.48286 5.58505C7.33851 5.57906 7.18837 5.72266 7.17994 5.87496C7.17099 6.03107 7.32218 6.1937 7.47496 6.19316C7.62088 6.19207 7.76576 6.04412 7.76839 5.89291ZM9.9947 5.58613C9.84614 5.59157 9.70759 5.74115 9.70917 5.89291C9.71128 6.04466 9.85457 6.19207 10.001 6.19316C10.1538 6.19424 10.305 6.03161 10.2966 5.8755C10.2887 5.7232 10.1401 5.58069 9.9947 5.58613ZM12.8242 5.89889C12.83 5.74931 12.6925 5.59429 12.5455 5.58505C12.3954 5.57525 12.2368 5.73136 12.2368 5.8891C12.2368 6.04031 12.3785 6.1888 12.526 6.19207C12.6725 6.19533 12.8184 6.05173 12.8242 5.89889Z" fill="#18ABC6"/>
<path d="M10.0021 10.4711C8.81728 10.4711 7.63195 10.4668 6.44715 10.4755C6.2459 10.4771 6.18585 10.414 6.19217 10.2095C6.20587 9.77492 6.20218 9.33923 6.19322 8.90463C6.19006 8.74853 6.2459 8.66748 6.38551 8.62179C6.60572 8.54945 6.82592 8.48526 7.05983 8.48526C9.02168 8.48581 10.9835 8.48526 12.9454 8.48635C13.0176 8.48635 13.0908 8.48853 13.1619 8.49995C13.7925 8.60112 13.8088 8.62125 13.8088 9.27233C13.8088 9.59161 13.7999 9.91144 13.812 10.2307C13.8188 10.4173 13.7582 10.476 13.577 10.475C12.3854 10.4679 11.1937 10.4711 10.0021 10.4711Z" fill="#18ABC6"/>
<path d="M4.86987 15.6646C5.21862 15.6646 5.56737 15.6684 5.91612 15.6629C6.07311 15.6602 6.10103 15.713 6.03044 15.8538C5.87924 16.1552 5.7349 16.4609 5.58739 16.7644C5.50889 16.9259 5.38773 17.0032 5.20756 16.9999C4.8193 16.9934 4.43104 17.0004 4.04278 16.9966C3.78674 16.9945 3.67243 16.8737 3.66927 16.6072C3.6661 16.3352 3.67032 16.0633 3.66821 15.7918C3.66716 15.6782 3.71036 15.6444 3.82415 15.6477C4.17237 15.6575 4.52112 15.6515 4.86987 15.6515C4.86987 15.6553 4.86987 15.6602 4.86987 15.6646Z" fill="#18ABC6"/>
<path d="M15.1543 15.6482C15.5025 15.6482 15.8513 15.6515 16.1995 15.6461C16.2922 15.6444 16.3359 15.6744 16.3354 15.7695C16.3349 16.0752 16.3438 16.3815 16.3312 16.6861C16.3238 16.8737 16.2058 16.9896 16.0235 16.9928C15.5894 17.001 15.1554 16.9972 14.7213 16.9945C14.5811 16.9934 14.4895 16.9047 14.4294 16.7834C14.274 16.469 14.1254 16.1508 13.9695 15.837C13.8963 15.6896 13.959 15.6618 14.0886 15.6629C14.4436 15.6662 14.7992 15.664 15.1543 15.664C15.1543 15.6591 15.1543 15.6537 15.1543 15.6482Z" fill="#18ABC6"/>
</svg>
