<svg width="21" height="20" viewBox="0 0 21 20" fill="none" xmlns="http://www.w3.org/2000/svg">
<path d="M10.4826 16.5401C8.50757 16.5401 6.53307 16.5407 4.55805 16.5401C3.58608 16.5396 2.90492 15.8379 2.90439 14.8371C2.90386 13.9266 2.90175 13.0155 2.90702 12.1049C2.90808 11.9554 2.86909 11.8803 2.72053 11.827C1.58683 11.4196 0.888278 10.2757 1.01471 9.05515C1.13746 7.8732 2.04252 6.9148 3.20625 6.73584C4.68343 6.50794 6.08212 7.73993 6.09055 9.28305C6.09582 10.3094 6.09634 11.3358 6.08792 12.3617C6.08634 12.5537 6.14692 12.601 6.32498 12.6005C9.10919 12.5956 11.8939 12.595 14.6781 12.601C14.8751 12.6016 14.9189 12.5336 14.9173 12.3437C14.9094 11.3445 14.9131 10.3453 14.9141 9.34669C14.9157 8.00265 15.9172 6.85007 17.1868 6.72932C18.5386 6.60041 19.7308 7.53161 19.9615 8.89687C20.1754 10.1631 19.4805 11.3989 18.3026 11.8205C18.1377 11.8798 18.0971 11.9619 18.0982 12.1272C18.1045 13.0449 18.1029 13.9625 18.1008 14.8801C18.0987 15.8281 17.407 16.5401 16.4856 16.5407C14.4848 16.5412 12.4834 16.5396 10.4826 16.5401Z" fill="#18ABC6"/>
<path d="M10.5168 1.50163C11.7806 1.50163 13.0445 1.50054 14.3088 1.50163C15.8782 1.50326 17.1499 2.81195 17.1536 4.4285C17.1547 4.91097 17.1483 5.39398 17.1568 5.8759C17.1599 6.04723 17.1157 6.11903 16.9376 6.15547C15.5589 6.43396 14.6233 7.39889 14.3662 8.79406C14.332 8.98009 14.322 9.17155 14.3104 9.36084C14.3036 9.46908 14.2846 9.53 14.1592 9.49138C13.7114 9.35322 13.2505 9.3592 12.7895 9.35975C11.1769 9.36192 9.56382 9.36138 7.95125 9.36029C7.58828 9.36029 7.22688 9.3777 6.87708 9.48485C6.72641 9.53109 6.69954 9.47125 6.69428 9.33146C6.66952 8.65101 6.49514 8.01842 6.10161 7.46199C5.58797 6.7353 4.89943 6.29526 4.04072 6.14786C3.88689 6.12121 3.84844 6.0543 3.85002 5.90744C3.85581 5.41138 3.8516 4.91532 3.85265 4.41926C3.85529 3.02245 4.84675 1.79753 6.17589 1.54569C6.345 1.5136 6.51411 1.5 6.68585 1.5C7.96284 1.50218 9.23983 1.50163 10.5168 1.50163ZM6.69586 5.0823C6.83915 5.09155 6.99087 4.95067 7.00352 4.79837C7.01563 4.64825 6.88551 4.49323 6.73431 4.47746C6.58207 4.46168 6.42297 4.60746 6.41665 4.769C6.41085 4.91858 6.54782 5.07251 6.69586 5.0823ZM9.53169 4.77716C9.53116 4.62541 9.38892 4.47691 9.24194 4.47474C9.08864 4.47202 8.93692 4.63302 8.94429 4.78967C8.95114 4.94197 9.09865 5.08557 9.24405 5.08176C9.39208 5.07741 9.53222 4.92892 9.53169 4.77716ZM12.0609 4.78858C12.0667 4.63955 11.9282 4.48398 11.7812 4.47474C11.6305 4.46495 11.4725 4.62105 11.4725 4.77879C11.4725 4.92892 11.6158 5.07904 11.7617 5.0823C11.9071 5.08557 12.0551 4.9398 12.0609 4.78858ZM14.2957 4.47474C14.1497 4.47419 14.0049 4.62105 14.0012 4.77281C13.9975 4.93055 14.1524 5.08883 14.3046 5.0823C14.4516 5.07632 14.5922 4.92402 14.5891 4.7739C14.5865 4.62269 14.4411 4.47474 14.2957 4.47474ZM8.26839 7.39291C8.27103 7.24333 8.12984 7.09103 7.98286 7.08505C7.83851 7.07906 7.68837 7.22266 7.67994 7.37496C7.67099 7.53107 7.82218 7.6937 7.97496 7.69316C8.12088 7.69207 8.26576 7.54412 8.26839 7.39291ZM10.4947 7.08613C10.3461 7.09157 10.2076 7.24115 10.2092 7.39291C10.2113 7.54466 10.3546 7.69207 10.501 7.69316C10.6538 7.69424 10.805 7.53161 10.7966 7.3755C10.7887 7.2232 10.6401 7.08069 10.4947 7.08613ZM13.3242 7.39889C13.33 7.24931 13.1925 7.09429 13.0455 7.08505C12.8954 7.07525 12.7368 7.23136 12.7368 7.3891C12.7368 7.54031 12.8785 7.6888 13.026 7.69207C13.1725 7.69533 13.3184 7.55173 13.3242 7.39889Z" fill="#18ABC6"/>
<path d="M10.5021 11.9711C9.31728 11.9711 8.13195 11.9668 6.94715 11.9755C6.7459 11.9771 6.68585 11.914 6.69217 11.7095C6.70587 11.2749 6.70218 10.8392 6.69322 10.4046C6.69006 10.2485 6.7459 10.1675 6.88551 10.1218C7.10572 10.0494 7.32592 9.98526 7.55983 9.98526C9.52168 9.98581 11.4835 9.98526 13.4454 9.98635C13.5176 9.98635 13.5908 9.98853 13.6619 9.99995C14.2925 10.1011 14.3088 10.1212 14.3088 10.7723C14.3088 11.0916 14.2999 11.4114 14.312 11.7307C14.3188 11.9173 14.2582 11.976 14.077 11.975C12.8854 11.9679 11.6937 11.9711 10.5021 11.9711Z" fill="#18ABC6"/>
<path d="M5.36987 17.1646C5.71862 17.1646 6.06737 17.1684 6.41612 17.1629C6.57311 17.1602 6.60103 17.213 6.53044 17.3538C6.37924 17.6552 6.2349 17.9609 6.08739 18.2644C6.00889 18.4259 5.88773 18.5032 5.70756 18.4999C5.3193 18.4934 4.93104 18.5004 4.54278 18.4966C4.28674 18.4945 4.17243 18.3737 4.16927 18.1072C4.1661 17.8352 4.17032 17.5633 4.16821 17.2918C4.16716 17.1782 4.21036 17.1444 4.32415 17.1477C4.67237 17.1575 5.02112 17.1515 5.36987 17.1515C5.36987 17.1553 5.36987 17.1602 5.36987 17.1646Z" fill="#18ABC6"/>
<path d="M15.6543 17.1482C16.0025 17.1482 16.3513 17.1515 16.6995 17.1461C16.7922 17.1444 16.8359 17.1744 16.8354 17.2695C16.8349 17.5752 16.8438 17.8815 16.8312 18.1861C16.8238 18.3737 16.7058 18.4896 16.5235 18.4928C16.0894 18.501 15.6554 18.4972 15.2213 18.4945C15.0811 18.4934 14.9895 18.4047 14.9294 18.2834C14.774 17.969 14.6254 17.6508 14.4695 17.337C14.3963 17.1896 14.459 17.1618 14.5886 17.1629C14.9436 17.1662 15.2992 17.164 15.6543 17.164C15.6543 17.1591 15.6543 17.1537 15.6543 17.1482Z" fill="#18ABC6"/>
</svg>
