<svg width="20" height="20" viewBox="0 0 20 20" fill="none" xmlns="http://www.w3.org/2000/svg">
<path d="M8.88247 2.81009C8.88247 2.18687 8.87594 1.56365 8.88465 0.940436C8.89064 0.505325 9.20852 0.248105 9.53839 0.396548C9.74578 0.490301 9.82525 0.677206 9.83668 0.914594C9.87097 1.63397 9.91343 2.35274 9.94446 3.07212C9.98093 3.91169 10.0217 4.75126 10.037 5.59143C10.0544 6.53257 9.72346 7.32587 9.08714 7.94067C8.23853 8.76041 7.93697 9.77367 8.09102 10.9895C8.232 12.1037 8.32399 13.2245 8.40673 14.3465C8.4862 15.4229 8.56404 16.4999 8.63371 17.5768C8.65984 17.9807 8.69958 18.3911 8.62609 18.7896C8.49709 19.4867 7.9103 19.9964 7.27344 20C6.61589 20.0042 6.03346 19.4855 5.89466 18.7662C5.79831 18.2649 5.88867 17.7625 5.91371 17.2631C5.95834 16.3718 6.03128 15.483 6.09878 14.5935C6.18369 13.4721 6.26698 12.3501 6.41068 11.2359C6.5337 10.2809 6.47818 9.37882 5.93875 8.57291C5.80865 8.37819 5.65787 8.20571 5.49566 8.04585C4.80382 7.36373 4.46199 6.51935 4.50335 5.48927C4.56486 3.96758 4.62093 2.44529 4.68026 0.923609C4.68244 0.864112 4.69115 0.804013 4.70258 0.745117C4.7581 0.455444 4.97093 0.270342 5.20935 0.300391C5.46083 0.332243 5.62957 0.541384 5.63066 0.842476C5.63338 2.03663 5.63175 3.23078 5.63229 4.42433C5.63229 4.51448 5.62957 4.60522 5.64046 4.69417C5.68182 5.03012 5.91534 5.26029 6.18914 5.24226C6.476 5.22363 6.67631 4.98745 6.67794 4.63708C6.68284 3.52586 6.67958 2.41404 6.68067 1.30283C6.68067 1.19044 6.68012 1.07686 6.69427 0.965678C6.74109 0.606891 6.99148 0.368302 7.29086 0.387533C7.60657 0.407966 7.83246 0.677206 7.83355 1.04982C7.83627 2.21392 7.83464 3.37802 7.83519 4.54152C7.83519 4.62385 7.83137 4.70799 7.84117 4.78912C7.87873 5.08961 8.1117 5.30597 8.37951 5.29395C8.65549 5.28193 8.8705 5.05957 8.87485 4.74645C8.88356 4.101 8.87757 3.45494 8.87757 2.80889C8.87975 2.81009 8.88247 2.81009 8.88247 2.81009Z" fill="#18ABC6"/>
<path d="M15.4999 9.68292C15.4999 12.6049 15.5004 15.5269 15.4993 18.4488C15.4993 19.1742 15.1847 19.6881 14.636 19.8708C13.9082 20.113 13.1549 19.4753 13.168 18.6051C13.1767 18.0203 13.2246 17.4362 13.2583 16.852C13.3057 16.0209 13.3568 15.1897 13.4037 14.3586C13.4243 13.9914 13.439 13.6242 13.4543 13.257C13.4706 12.8573 13.3324 12.5388 13.033 12.3128C12.2998 11.7587 11.9547 10.981 11.8888 10.0135C11.7124 7.42082 12.0902 4.92675 12.954 2.51801C13.2001 1.83169 13.5245 1.18744 13.9687 0.626724C14.1494 0.398952 14.3497 0.197022 14.6039 0.0720176C15.0089 -0.126907 15.4024 0.100264 15.4792 0.581049C15.4966 0.691029 15.4988 0.805215 15.4988 0.916998C15.5004 3.83897 15.4999 6.76094 15.4999 9.68292Z" fill="#18ABC6"/>
</svg>
