<svg width="11" height="20" viewBox="0 0 11 20" fill="none" xmlns="http://www.w3.org/2000/svg">
<path d="M4.38247 2.81009C4.38247 2.18687 4.37594 1.56365 4.38465 0.940436C4.39064 0.505325 4.70852 0.248105 5.03839 0.396548C5.24578 0.490301 5.32525 0.677206 5.33668 0.914594C5.37097 1.63397 5.41343 2.35274 5.44446 3.07212C5.48093 3.91169 5.52175 4.75126 5.53699 5.59143C5.55441 6.53257 5.22346 7.32587 4.58714 7.94067C3.73853 8.76041 3.43697 9.77367 3.59102 10.9895C3.732 12.1037 3.82399 13.2245 3.90673 14.3465C3.9862 15.4229 4.06404 16.4999 4.13371 17.5768C4.15984 17.9807 4.19958 18.3911 4.12609 18.7896C3.99709 19.4867 3.4103 19.9964 2.77344 20C2.11589 20.0042 1.53346 19.4855 1.39466 18.7662C1.29831 18.2649 1.38867 17.7625 1.41371 17.2631C1.45834 16.3718 1.53128 15.483 1.59878 14.5935C1.68369 13.4721 1.76698 12.3501 1.91068 11.2359C2.0337 10.2809 1.97818 9.37882 1.43875 8.57291C1.30865 8.37819 1.15787 8.20571 0.995664 8.04585C0.303824 7.36373 -0.0380142 6.51935 0.00335471 5.48927C0.0648637 3.96758 0.120929 2.44529 0.180261 0.923609C0.182439 0.864112 0.191148 0.804013 0.202579 0.745117C0.2581 0.455444 0.470932 0.270342 0.709348 0.300391C0.960827 0.332243 1.12957 0.541384 1.13066 0.842476C1.13338 2.03663 1.13175 3.23078 1.13229 4.42433C1.13229 4.51448 1.12957 4.60522 1.14046 4.69417C1.18182 5.03012 1.41534 5.26029 1.68914 5.24226C1.976 5.22363 2.17631 4.98745 2.17794 4.63708C2.18284 3.52586 2.17958 2.41404 2.18067 1.30283C2.18067 1.19044 2.18012 1.07686 2.19427 0.965678C2.24109 0.606891 2.49148 0.368302 2.79086 0.387533C3.10657 0.407966 3.33246 0.677206 3.33355 1.04982C3.33627 2.21392 3.33464 3.37802 3.33519 4.54152C3.33519 4.62385 3.33137 4.70799 3.34117 4.78912C3.37873 5.08961 3.6117 5.30597 3.87951 5.29395C4.15549 5.28193 4.3705 5.05957 4.37485 4.74645C4.38356 4.101 4.37757 3.45494 4.37757 2.80889C4.37975 2.81009 4.38247 2.81009 4.38247 2.81009Z" fill="#18ABC6"/>
<path d="M10.9999 9.68292C10.9999 12.6049 11.0004 15.5269 10.9993 18.4488C10.9993 19.1742 10.6847 19.6881 10.136 19.8708C9.40825 20.113 8.6549 19.4753 8.66796 18.6051C8.67667 18.0203 8.72457 17.4362 8.75832 16.852C8.80568 16.0209 8.85685 15.1897 8.90366 14.3586C8.92434 13.9914 8.93904 13.6242 8.95428 13.257C8.97061 12.8573 8.83235 12.5388 8.53297 12.3128C7.79976 11.7587 7.45466 10.981 7.38879 10.0135C7.21243 7.42082 7.5902 4.92675 8.45404 2.51801C8.70008 1.83169 9.0245 1.18744 9.46867 0.626724C9.64939 0.398952 9.8497 0.197022 10.1039 0.0720176C10.5089 -0.126907 10.9024 0.100264 10.9792 0.581049C10.9966 0.691029 10.9988 0.805215 10.9988 0.916998C11.0004 3.83897 10.9999 6.76094 10.9999 9.68292Z" fill="#18ABC6"/>
</svg>
