<svg width="21" height="20" viewBox="0 0 21 20" fill="none" xmlns="http://www.w3.org/2000/svg">
<path d="M10.5027 19C8.363 19 6.22333 19 4.08366 19C2.63938 19 1.5 17.866 1.5 16.4163C1.5 12.137 1.5 7.863 1.5 3.58366C1.5 2.13403 2.63403 1 4.08366 1C8.363 1 12.637 1 16.9163 1C18.366 1 19.5 2.13403 19.5 3.58366C19.5 7.863 19.5 12.137 19.5 16.4163C19.5 17.866 18.366 19 16.9163 19C14.7767 19 12.637 19 10.5027 19ZM9.70565 4.87816C9.07979 4.87816 8.57162 4.87816 8.06345 4.87816C7.89762 4.87816 7.7318 4.89955 7.57132 4.9477C6.99896 5.11352 6.66196 5.6003 6.66196 6.2636C6.66196 8.75631 6.66196 11.249 6.66196 13.7418C6.66196 13.8701 6.67801 13.9932 6.69941 14.1215C6.81709 14.7474 7.45899 15.2021 8.07949 15.1004C8.76419 14.9881 9.18143 14.5067 9.19747 13.7952C9.20282 13.4422 9.20282 13.0892 9.19747 12.7308C9.19747 12.6024 9.24027 12.5435 9.374 12.5542C9.45958 12.5596 9.54517 12.5542 9.63611 12.5542C10.3155 12.5435 11.0001 12.6024 11.6795 12.5061C13.9315 12.1905 15.4079 9.97593 14.8516 7.77207C14.4557 6.19406 13.0863 5.04398 11.4709 4.91025C10.8397 4.85676 10.2138 4.89955 9.70565 4.87816Z" fill="#18ABC6"/>
<path d="M9.20282 8.70817C9.20282 8.33908 9.20817 7.97533 9.20282 7.60624C9.20282 7.46716 9.25097 7.41902 9.39004 7.41902C10.0105 7.42437 10.6311 7.40832 11.2569 7.42437C11.8988 7.44042 12.4391 8.02883 12.4444 8.68678C12.4498 9.38217 11.9363 9.98663 11.2783 10.008C10.6418 10.0294 10.0105 10.0134 9.374 10.0187C9.24027 10.0187 9.20282 9.95453 9.20282 9.83685C9.20282 9.45706 9.20282 9.08262 9.20282 8.70817Z" fill="#18ABC6"/>
</svg>
