<svg width="19" height="19" viewBox="0 0 19 19" fill="none" xmlns="http://www.w3.org/2000/svg">
<path d="M9.50268 18.5C7.363 18.5 5.22333 18.5 3.08366 18.5C1.63938 18.5 0.5 17.366 0.5 15.9163C0.5 11.637 0.5 7.363 0.5 3.08366C0.5 1.63403 1.63403 0.5 3.08366 0.5C7.363 0.5 11.637 0.5 15.9163 0.5C17.366 0.5 18.5 1.63403 18.5 3.08366C18.5 7.363 18.5 11.637 18.5 15.9163C18.5 17.366 17.366 18.5 15.9163 18.5C13.7767 18.5 11.637 18.5 9.50268 18.5ZM8.70565 4.37816C8.07979 4.37816 7.57162 4.37816 7.06345 4.37816C6.89762 4.37816 6.7318 4.39955 6.57132 4.4477C5.99896 4.61352 5.66196 5.1003 5.66196 5.7636C5.66196 8.25631 5.66196 10.749 5.66196 13.2418C5.66196 13.3701 5.67801 13.4932 5.69941 13.6215C5.81709 14.2474 6.45899 14.7021 7.07949 14.6004C7.76419 14.4881 8.18143 14.0067 8.19747 13.2952C8.20282 12.9422 8.20282 12.5892 8.19747 12.2308C8.19747 12.1024 8.24027 12.0435 8.374 12.0542C8.45958 12.0596 8.54517 12.0542 8.63611 12.0542C9.31545 12.0435 10.0001 12.1024 10.6795 12.0061C12.9315 11.6905 14.4079 9.47593 13.8516 7.27207C13.4557 5.69406 12.0863 4.54398 10.4709 4.41025C9.83967 4.35676 9.21382 4.39955 8.70565 4.37816Z" fill="#18ABC6"/>
<path d="M8.20282 8.20817C8.20282 7.83908 8.20817 7.47533 8.20282 7.10624C8.20282 6.96716 8.25097 6.91902 8.39004 6.91902C9.01055 6.92437 9.63105 6.90832 10.2569 6.92437C10.8988 6.94042 11.4391 7.52883 11.4444 8.18678C11.4498 8.88217 10.9363 9.48663 10.2783 9.50802C9.64175 9.52942 9.01055 9.51337 8.374 9.51872C8.24027 9.51872 8.20282 9.45453 8.20282 9.33685C8.20282 8.95706 8.20282 8.58262 8.20282 8.20817Z" fill="#18ABC6"/>
</svg>
