<svg width="18" height="18" viewBox="0 0 18 18" fill="none" xmlns="http://www.w3.org/2000/svg">
<path d="M9.0136 0C10.697 0 12.3854 0 14.0688 0C15.6273 0 16.8011 1.10546 16.8061 2.56691C16.8061 3.32574 16.8111 4.08926 16.8011 4.84809C16.8011 5.00735 16.8511 5.05888 17.0209 5.05888C17.6353 5.05419 18 5.40082 18 5.97229C18 6.49691 18 7.02622 18 7.55084C18 8.08952 17.6254 8.44083 17.0559 8.44551C16.8061 8.44551 16.8061 8.44551 16.8061 8.68909C16.8061 10.9094 16.8061 13.125 16.8061 15.3453C16.8061 16.1041 16.4864 16.5444 15.7272 16.8161C15.6373 16.8489 15.6023 16.8957 15.6023 16.9847C15.6073 17.2142 15.6073 17.4391 15.6023 17.6686C15.5973 17.8888 15.4924 17.9965 15.2576 17.9965C14.6832 18.0012 14.1087 18.0012 13.5343 17.9965C13.2895 17.9965 13.1846 17.8934 13.1846 17.6592C13.1796 17.4672 13.1746 17.2704 13.1846 17.0784C13.1946 16.9144 13.1347 16.8676 12.9598 16.8723C11.2115 16.877 9.46317 16.877 7.71484 16.877C6.8207 16.877 5.93155 16.8817 5.0374 16.8723C4.85258 16.8723 4.79763 16.9285 4.80762 17.0924C4.82261 17.2892 4.81262 17.4906 4.80762 17.6873C4.80263 17.8841 4.69273 17.9918 4.48293 17.9965C3.89849 18.0012 3.30906 18.0012 2.72462 17.9965C2.50483 17.9965 2.39993 17.8888 2.39493 17.6733C2.38994 17.4438 2.38994 17.2142 2.39493 16.9894C2.39493 16.891 2.35497 16.8442 2.26006 16.8114C1.55573 16.5725 1.20107 16.0994 1.20107 15.3921C1.20107 13.1624 1.20107 10.9328 1.20107 8.69846C1.20107 8.45488 1.20107 8.45488 0.931331 8.4502C0.381857 8.44551 0.0022201 8.08952 0.0022201 7.57426C-0.00277512 7.0309 0.0022201 6.48754 0.0022201 5.9395C0.0022201 5.41487 0.381857 5.05888 0.941322 5.05419C1.20107 5.05419 1.20107 5.05419 1.20107 4.8153C1.20107 4.06584 1.20107 3.31637 1.20107 2.56691C1.20607 1.11014 2.38494 0.00468415 3.93845 0C5.62684 0 7.32022 0 9.0136 0ZM16.1867 5.74745C16.1867 4.84809 16.1817 3.94405 16.1917 3.04469C16.1917 2.89012 16.1568 2.82922 15.9769 2.82922C14.3285 2.83391 12.6801 2.83391 11.0317 2.82922C10.8718 2.82922 10.8119 2.8667 10.8119 3.02596C10.8169 3.30232 10.712 3.39601 10.4223 3.39601C9.47816 3.39601 8.53905 3.39601 7.59496 3.39601C7.30024 3.39601 7.20033 3.30701 7.20533 3.02596C7.20533 2.88543 7.16537 2.82922 7.00552 2.82922C5.34711 2.83391 3.6837 2.83391 2.02528 2.82922C1.88042 2.82922 1.83047 2.8667 1.83047 3.00722C1.83547 4.81999 1.83547 6.63743 1.83047 8.4502C1.83047 8.55325 1.86544 8.62819 1.94037 8.69846C2.20012 8.93735 2.45487 9.17624 2.70963 9.41982C2.80953 9.5135 2.90944 9.55566 3.0543 9.55566C5.57189 9.55097 8.08449 9.55097 10.6021 9.55566C10.7519 9.55566 10.8269 9.52755 10.8668 9.36829C11.1016 8.46425 11.9408 7.84594 12.8999 7.84126C13.869 7.83657 14.7131 8.46425 14.9529 9.37297C15.0129 9.59781 15.0978 9.62123 15.2726 9.45729C15.5324 9.21371 15.7921 8.96545 16.0569 8.72656C16.1568 8.63756 16.1967 8.54388 16.1917 8.41741C16.1817 7.52742 16.1867 6.63743 16.1867 5.74745ZM3.90848 15.1766C4.27813 15.1766 4.64278 15.1813 5.01243 15.1766C5.27717 15.1719 5.39206 15.0736 5.39206 14.8253C5.39706 14.5115 5.39706 14.193 5.39206 13.8791C5.38707 13.6215 5.27717 13.5184 5.00244 13.5184C4.27313 13.5138 3.54383 13.5184 2.81453 13.5184C2.5348 13.5184 2.4249 13.6215 2.4249 13.8791C2.41991 14.1883 2.41991 14.4974 2.4249 14.8113C2.4249 15.0783 2.5348 15.1813 2.82452 15.1813C3.18418 15.1766 3.54883 15.1766 3.90848 15.1766ZM14.0987 13.5091C13.7291 13.5091 13.3644 13.5044 12.9948 13.5091C12.73 13.5138 12.6152 13.6168 12.6152 13.8604C12.6102 14.1742 12.6102 14.4927 12.6152 14.8066C12.6201 15.0642 12.73 15.1673 13.0048 15.1673C13.7341 15.1719 14.4634 15.1719 15.1927 15.1673C15.4724 15.1673 15.5823 15.0642 15.5823 14.8066C15.5873 14.4974 15.5873 14.1883 15.5823 13.8744C15.5773 13.6074 15.4724 13.5044 15.1827 13.5044C14.823 13.5091 14.4634 13.5091 14.0987 13.5091ZM9.00361 15.1766C9.86279 15.1766 10.727 15.1766 11.5861 15.1766C11.8309 15.1766 11.9758 15.0736 11.9758 14.9096C11.9808 14.7457 11.8359 14.6426 11.5911 14.638C11.5462 14.638 11.5062 14.638 11.4613 14.638C10.0076 14.638 8.55404 14.638 7.10043 14.638C6.87065 14.638 6.64087 14.638 6.40609 14.638C6.16632 14.6426 6.02146 14.7457 6.02146 14.9143C6.02646 15.0736 6.16632 15.1719 6.3961 15.1766C6.44106 15.1766 6.48102 15.1766 6.52598 15.1766C7.36018 15.1766 8.1794 15.1766 9.00361 15.1766ZM12.8799 9.55566C13.3145 9.55566 13.7541 9.55097 14.1886 9.55566C14.3185 9.55566 14.3335 9.5135 14.3035 9.40576C14.1437 8.87646 13.5443 8.45957 12.9149 8.4502C12.2955 8.44083 11.6711 8.85303 11.4962 9.38703C11.4563 9.50881 11.4762 9.55566 11.6261 9.55097C12.0457 9.55097 12.4653 9.55566 12.8799 9.55566ZM9.00361 2.81049C9.27835 2.81049 9.55308 2.81049 9.82782 2.81049C10.2424 2.8058 10.1825 2.86201 10.1975 2.46386C10.2025 2.3046 10.1425 2.26713 9.98267 2.26713C9.38824 2.27649 8.7988 2.26713 8.20437 2.27181C7.76979 2.27649 7.82474 2.20155 7.81475 2.65123C7.81475 2.7777 7.8647 2.81517 7.98958 2.81049C8.32925 2.8058 8.66393 2.81049 9.00361 2.81049Z" fill="#18ABC6"/>
<path d="M3.91847 14.0524C4.15325 14.0524 4.39302 14.0571 4.62779 14.0524C4.75767 14.0478 4.82261 14.0852 4.82261 14.2211C4.81262 14.7176 4.87756 14.6333 4.39801 14.638C3.9984 14.6426 3.59878 14.6333 3.20416 14.6426C3.0493 14.6473 2.99935 14.5911 2.99935 14.4506C3.00934 13.9915 2.9494 14.0665 3.41895 14.0571C3.58379 14.0478 3.75363 14.0524 3.91847 14.0524Z" fill="#18ABC6"/>
<path d="M14.1087 14.0524C14.3535 14.0524 14.5933 14.0571 14.838 14.0524C14.9679 14.0478 15.0129 14.0993 15.0129 14.2164C15.0029 14.7129 15.0678 14.6286 14.5883 14.6333C14.1886 14.638 13.789 14.6286 13.3944 14.638C13.2396 14.6426 13.1896 14.5864 13.1896 14.4459C13.1996 13.9869 13.1397 14.0618 13.6092 14.0524C13.774 14.0478 13.9389 14.0524 14.1087 14.0524Z" fill="#18ABC6"/>
</svg>
