<svg width="24" height="24" viewBox="0 0 24 24" fill="none" xmlns="http://www.w3.org/2000/svg">
<g clip-path="url(#clip0_54_7759)">
<path d="M11.9067 9.63439C9.48208 9.63439 7.0575 9.63268 4.63292 9.63439C3.51677 9.63524 2.98178 10.1711 2.97921 11.2889C2.97579 12.3675 2.97665 13.4469 2.97921 14.5254C2.98007 15.0869 3.09972 15.2091 3.6518 15.21C5.67044 15.2117 7.68907 15.21 9.7077 15.2108C9.87862 15.2108 10.0504 15.2006 10.2153 15.2595C10.4384 15.339 10.5837 15.4937 10.5786 15.733C10.5734 15.9697 10.4316 16.1347 10.2 16.1919C10.0675 16.2244 9.92563 16.2278 9.78803 16.2278C7.97195 16.2304 6.15672 16.2355 4.34063 16.2253C4.04066 16.2236 3.9099 16.3065 3.93041 16.6227C3.95178 16.9526 3.93981 17.285 3.93298 17.6158C3.92614 17.9508 3.72274 18.1687 3.43644 18.161C3.1621 18.1542 2.96981 17.9439 2.96383 17.6235C2.95614 17.2175 2.95614 16.8116 2.96383 16.4056C2.96725 16.2253 2.90486 16.1125 2.74248 16.021C2.23911 15.7407 2.00921 15.2886 2.00579 14.7246C1.9981 13.5067 1.99895 12.2889 2.00323 11.0719C2.00665 10.0198 2.62112 9.14042 3.60907 8.79258C3.83897 8.71139 3.92614 8.59602 3.92358 8.3533C3.91332 7.37048 3.91845 6.38766 3.9193 5.40569C3.9193 3.45799 5.37644 2 7.32158 2C10.4512 2 13.5809 2.00085 16.7105 2C18.5847 2 20.0769 3.47338 20.0854 5.34587C20.0914 6.5526 20.0872 7.76019 20.0854 8.96693C20.0846 9.46688 19.9137 9.63354 19.4052 9.63354C16.9062 9.63439 14.4064 9.63354 11.9075 9.63354L11.9067 9.63439ZM12.0374 2.97342V2.97598C10.4564 2.97598 8.87614 2.96402 7.29508 2.9794C6.0063 2.99222 4.94828 3.92462 4.9064 5.1117C4.86879 6.19964 4.89871 7.29015 4.89358 8.3798C4.89272 8.58576 4.97819 8.6661 5.18159 8.66353C5.76872 8.65755 6.3567 8.65499 6.94383 8.66524C7.18911 8.66952 7.25748 8.56781 7.24551 8.33707C7.23184 8.07128 7.24039 7.80463 7.32072 7.54397C7.65317 6.45688 8.54626 5.79626 9.7265 5.78942C11.1896 5.78173 12.6536 5.8142 14.1159 5.78002C15.7627 5.74071 16.8609 7.0047 16.7575 8.34818C16.7396 8.58491 16.843 8.66952 17.0763 8.66524C17.6318 8.65499 18.1873 8.64986 18.742 8.66524C19.0172 8.67379 19.1197 8.58833 19.1154 8.30203C19.1009 7.39441 19.1129 6.4868 19.1103 5.57833C19.106 3.94342 18.1326 2.97428 16.49 2.97257C15.0055 2.97086 13.521 2.97257 12.0366 2.97257L12.0374 2.97342ZM11.9964 8.66268C13.1271 8.66268 14.2577 8.6567 15.3884 8.66695C15.6662 8.66952 15.7892 8.60456 15.785 8.29433C15.773 7.38586 15.22 6.80899 14.3124 6.80728C12.7656 6.80472 11.2195 6.80472 9.67266 6.80728C8.77444 6.80899 8.23346 7.37048 8.22321 8.27553C8.21979 8.56183 8.30354 8.67122 8.60437 8.66781C9.73505 8.65328 10.8657 8.66182 11.9964 8.66182V8.66268Z" fill="#8897B1"/>
<path d="M17.2337 21.0403C14.5997 21.0403 12.4452 18.8806 12.4512 16.2484C12.4563 13.6546 14.6219 11.4889 17.2089 11.4906C19.8232 11.4923 21.9897 13.646 22.0008 16.2552C22.0119 18.855 19.8335 21.0411 17.2345 21.0403H17.2337ZM20.9812 16.2757C21.0667 14.369 19.4831 12.4769 17.2192 12.4837C15.0287 12.4906 13.4357 14.181 13.4383 16.2748C13.4408 18.4482 15.139 20.0446 17.2029 20.0523C19.5027 20.0617 21.0462 18.161 20.9812 16.2757Z" fill="#8897B1"/>
<path d="M19.0452 16.2526C19.0529 16.5099 18.8512 16.7244 18.5597 16.7475C18.3692 16.7628 18.176 16.7594 17.9846 16.7551C17.7957 16.7509 17.7111 16.8346 17.7145 17.0235C17.7179 17.2149 17.7222 17.4081 17.7068 17.5987C17.6829 17.8918 17.4709 18.0918 17.212 18.085C16.9505 18.0781 16.7633 17.8704 16.736 17.5807C16.7112 17.3209 16.8556 16.997 16.6531 16.8158C16.4702 16.6517 16.1608 16.774 15.9078 16.7534C15.6155 16.7295 15.4113 16.5381 15.4045 16.2757C15.3976 16.0048 15.6138 15.8022 15.9164 15.7749C16.1762 15.751 16.5009 15.8971 16.6804 15.6894C16.8394 15.5048 16.7189 15.1955 16.7377 14.9425C16.759 14.6579 16.959 14.4494 17.2205 14.4451C17.465 14.4417 17.6701 14.634 17.7068 14.9074C17.7154 14.9707 17.7137 15.0348 17.7137 15.0989C17.7179 15.8723 17.6487 15.7672 18.4068 15.7766C18.8025 15.7817 19.0358 15.9569 19.0443 16.2526H19.0452Z" fill="#8897B1"/>
</g>
<defs>
<clipPath id="clip0_54_7759">
<rect width="20" height="19.0403" fill="white" transform="translate(2 2)"/>
</clipPath>
</defs>
</svg>
