<svg width="24" height="24" viewBox="0 0 24 24" fill="none" xmlns="http://www.w3.org/2000/svg">
<path fill-rule="evenodd" clip-rule="evenodd" d="M12 10.2496C16.4045 10.1165 20.0923 13.5664 20.2495 17.9733C20.2498 17.9822 20.25 17.9911 20.25 18V18.0631C20.25 18.4773 19.9142 18.8131 19.5 18.8131C19.0858 18.8131 18.75 18.4773 18.75 18.0631V18.0137C18.6152 14.4313 15.6096 11.6303 12.025 11.7496C12.0083 11.7501 11.9917 11.7501 11.975 11.7496C8.39043 11.6303 5.38484 14.4313 5.25 18.0137V18.0631C5.25 18.4773 4.91421 18.8131 4.5 18.8131C4.08579 18.8131 3.75 18.4773 3.75 18.0631V18C3.75 17.9911 3.75016 17.9822 3.75048 17.9733C3.90771 13.5664 7.59549 10.1165 12 10.2496Z" fill="#8897B1"/>
<path fill-rule="evenodd" clip-rule="evenodd" d="M12 7.25C12.4142 7.25 12.75 7.58579 12.75 8V11C12.75 11.4142 12.4142 11.75 12 11.75C11.5858 11.75 11.25 11.4142 11.25 11V8C11.25 7.58579 11.5858 7.25 12 7.25Z" fill="#8897B1"/>
<path fill-rule="evenodd" clip-rule="evenodd" d="M9.25 8C9.25 7.58579 9.58579 7.25 10 7.25H14C14.4142 7.25 14.75 7.58579 14.75 8C14.75 8.41421 14.4142 8.75 14 8.75H10C9.58579 8.75 9.25 8.41421 9.25 8Z" fill="#8897B1"/>
<path fill-rule="evenodd" clip-rule="evenodd" d="M5 18.75C4.30964 18.75 3.75 19.3096 3.75 20C3.75 20.1381 3.86193 20.25 4 20.25H20C20.1381 20.25 20.25 20.1381 20.25 20C20.25 19.3096 19.6904 18.75 19 18.75H5ZM2.25 20C2.25 18.4812 3.48122 17.25 5 17.25H19C20.5188 17.25 21.75 18.4812 21.75 20C21.75 20.9665 20.9665 21.75 20 21.75H4C3.0335 21.75 2.25 20.9665 2.25 20Z" fill="#8897B1"/>
<path fill-rule="evenodd" clip-rule="evenodd" d="M20.25 10C20.25 9.58579 20.5858 9.25 21 9.25H22C22.4142 9.25 22.75 9.58579 22.75 10C22.75 10.4142 22.4142 10.75 22 10.75H21C20.5858 10.75 20.25 10.4142 20.25 10Z" fill="#8897B1"/>
<path fill-rule="evenodd" clip-rule="evenodd" d="M1.25 10C1.25 9.58579 1.58579 9.25 2 9.25H3C3.41421 9.25 3.75 9.58579 3.75 10C3.75 10.4142 3.41421 10.75 3 10.75H2C1.58579 10.75 1.25 10.4142 1.25 10Z" fill="#8897B1"/>
<path fill-rule="evenodd" clip-rule="evenodd" d="M12 1.25C12.4142 1.25 12.75 1.58579 12.75 2V3C12.75 3.41421 12.4142 3.75 12 3.75C11.5858 3.75 11.25 3.41421 11.25 3V2C11.25 1.58579 11.5858 1.25 12 1.25Z" fill="#8897B1"/>
<path fill-rule="evenodd" clip-rule="evenodd" d="M4.76264 3.76256C5.05553 3.46967 5.53041 3.46967 5.8233 3.76256L6.53041 4.46967C6.8233 4.76256 6.8233 5.23744 6.53041 5.53033C6.23752 5.82322 5.76264 5.82322 5.46975 5.53033L4.76264 4.82322C4.46975 4.53033 4.46975 4.05545 4.76264 3.76256Z" fill="#8897B1"/>
<path fill-rule="evenodd" clip-rule="evenodd" d="M19.2374 3.76256C19.5303 4.05545 19.5303 4.53033 19.2374 4.82322L18.5303 5.53033C18.2374 5.82322 17.7626 5.82322 17.4697 5.53033C17.1768 5.23744 17.1768 4.76256 17.4697 4.46967L18.1768 3.76256C18.4697 3.46967 18.9445 3.46967 19.2374 3.76256Z" fill="#8897B1"/>
</svg>
