<svg width="24" height="24" viewBox="0 0 24 24" fill="none" xmlns="http://www.w3.org/2000/svg">
<path fill-rule="evenodd" clip-rule="evenodd" d="M6.39717 17.075C5.38039 16.6234 4.21986 16.6234 3.20308 17.075C2.95071 17.187 2.65526 17.0733 2.54317 16.821C2.43108 16.5686 2.5448 16.2731 2.79717 16.161C4.07239 15.5947 5.52786 15.5947 6.80308 16.161C7.81986 16.6127 8.98039 16.6127 9.99717 16.161C11.2724 15.5947 12.7279 15.5947 14.0031 16.161C15.0199 16.6127 16.1804 16.6127 17.1972 16.161C18.4724 15.5947 19.9279 15.5947 21.2031 16.161C21.4555 16.2731 21.5692 16.5686 21.4571 16.821C21.345 17.0733 21.0495 17.187 20.7972 17.075C19.7804 16.6234 18.6199 16.6234 17.6031 17.075C16.3279 17.6414 14.8724 17.6414 13.5972 17.075C12.5804 16.6234 11.4199 16.6234 10.4031 17.075C9.12786 17.6414 7.67239 17.6414 6.39717 17.075Z" fill="#8897B1"/>
<path fill-rule="evenodd" clip-rule="evenodd" d="M7.5 8C7.5 7.72386 7.72386 7.5 8 7.5H16C16.2761 7.5 16.5 7.72386 16.5 8C16.5 8.27614 16.2761 8.5 16 8.5H8C7.72386 8.5 7.5 8.27614 7.5 8Z" fill="#8897B1"/>
<path fill-rule="evenodd" clip-rule="evenodd" d="M7.5 12C7.5 11.7239 7.72386 11.5 8 11.5H16C16.2761 11.5 16.5 11.7239 16.5 12C16.5 12.2761 16.2761 12.5 16 12.5H8C7.72386 12.5 7.5 12.2761 7.5 12Z" fill="#8897B1"/>
<path fill-rule="evenodd" clip-rule="evenodd" d="M17.5 3.5C16.9481 3.5 16.5 3.94814 16.5 4.5V14C16.5 14.2761 16.2761 14.5 16 14.5C15.7239 14.5 15.5 14.2761 15.5 14V4.5C15.5 3.39586 16.3959 2.5 17.5 2.5C18.6041 2.5 19.5 3.39586 19.5 4.5C19.5 4.77614 19.2761 5 19 5C18.7239 5 18.5 4.77614 18.5 4.5C18.5 3.94814 18.0519 3.5 17.5 3.5Z" fill="#8897B1"/>
<path fill-rule="evenodd" clip-rule="evenodd" d="M9.5 3.5C8.94814 3.5 8.5 3.94814 8.5 4.5V14C8.5 14.2761 8.27614 14.5 8 14.5C7.72386 14.5 7.5 14.2761 7.5 14V4.5C7.5 3.39586 8.39586 2.5 9.5 2.5C10.6041 2.5 11.5 3.39586 11.5 4.5C11.5 4.77614 11.2761 5 11 5C10.7239 5 10.5 4.77614 10.5 4.5C10.5 3.94814 10.0519 3.5 9.5 3.5Z" fill="#8897B1"/>
<path fill-rule="evenodd" clip-rule="evenodd" d="M6.39717 21.075C5.38039 20.6234 4.21986 20.6234 3.20308 21.075C2.95071 21.187 2.65526 21.0733 2.54317 20.821C2.43108 20.5686 2.5448 20.2731 2.79717 20.161C4.07239 19.5947 5.52786 19.5947 6.80308 20.161C7.81986 20.6127 8.98039 20.6127 9.99717 20.161C11.2724 19.5947 12.7279 19.5947 14.0031 20.161C15.0199 20.6127 16.1804 20.6127 17.1972 20.161C18.4724 19.5947 19.9279 19.5947 21.2031 20.161C21.4555 20.2731 21.5692 20.5686 21.4571 20.821C21.345 21.0733 21.0495 21.187 20.7972 21.075C19.7804 20.6234 18.6199 20.6234 17.6031 21.075C16.3279 21.6414 14.8724 21.6414 13.5972 21.075C12.5804 20.6234 11.4199 20.6234 10.4031 21.075C9.12786 21.6414 7.67239 21.6414 6.39717 21.075Z" fill="#8897B1"/>
</svg>
