<svg width="24" height="24" viewBox="0 0 24 24" fill="none" xmlns="http://www.w3.org/2000/svg">
<path fill-rule="evenodd" clip-rule="evenodd" d="M15.0058 18.2134C15.2011 18.0181 15.5177 18.0181 15.7129 18.2134L18.0022 20.5027L18.0025 20.5027L18.0026 20.5025V18.5669C18.0026 18.2908 18.2265 18.0669 18.5026 18.0669C18.7787 18.0669 19.0026 18.2908 19.0026 18.5669V20.5025C19.0026 20.9071 18.7589 21.2718 18.3852 21.4266C18.0114 21.5814 17.5812 21.4958 17.2952 21.2098L17.2951 21.2098L15.0058 18.9205C14.8106 18.7252 14.8106 18.4086 15.0058 18.2134Z" fill="#8897B1"/>
<path fill-rule="evenodd" clip-rule="evenodd" d="M17.502 9.49896C17.502 9.22282 17.7258 8.99896 18.002 8.99896H18.5057C20.1612 8.99896 21.5032 10.341 21.5032 11.9965V16.0694C21.5032 17.7249 20.1612 19.0669 18.5057 19.0669C18.2296 19.0669 18.0057 18.8431 18.0057 18.5669C18.0057 18.2908 18.2296 18.0669 18.5057 18.0669C19.6089 18.0669 20.5032 17.1726 20.5032 16.0694V11.9965C20.5032 10.8933 19.6089 9.99896 18.5057 9.99896H18.002C17.7258 9.99896 17.502 9.7751 17.502 9.49896Z" fill="#8897B1"/>
<path fill-rule="evenodd" clip-rule="evenodd" d="M9.99902 14.5013C10.2752 14.5013 10.499 14.7251 10.499 15.0013V16.0694C10.499 17.1726 11.3933 18.0669 12.4965 18.0669H15.3629C15.639 18.0669 15.8629 18.2908 15.8629 18.5669C15.8629 18.8431 15.639 19.0669 15.3629 19.0669H12.4965C10.8411 19.0669 9.49902 17.7249 9.49902 16.0694V15.0013C9.49902 14.7251 9.72288 14.5013 9.99902 14.5013Z" fill="#8897B1"/>
<path fill-rule="evenodd" clip-rule="evenodd" d="M5.49359 3.49625C4.39041 3.49625 3.49609 4.39056 3.49609 5.49375V9.50248C3.49609 10.0323 3.70654 10.5403 4.08114 10.9149C4.45575 11.2895 4.96382 11.5 5.49359 11.5H5.49714C5.77328 11.5 5.99714 11.7239 5.99714 12V13.9998L8.35096 11.6465C8.44473 11.5527 8.57191 11.5 8.70452 11.5H12.5036C13.0334 11.5 13.5414 11.2895 13.916 10.9149C14.2906 10.5403 14.5011 10.0323 14.5011 9.50248V5.49375C14.5011 4.39056 13.6068 3.49625 12.5036 3.49625H5.49359ZM2.49609 5.49375C2.49609 3.83828 3.83812 2.49625 5.49359 2.49625H12.5036C14.1591 2.49625 15.5011 3.83828 15.5011 5.49375V9.50248C15.5011 10.2975 15.1853 11.0599 14.6232 11.622C14.061 12.1842 13.2986 12.5 12.5036 12.5H8.91163L6.7046 14.7071C6.41854 14.9932 5.98832 15.0787 5.61456 14.9239C5.2408 14.7691 4.99714 14.4044 4.99714 13.9998V12.4586C4.3863 12.356 3.81777 12.0658 3.37403 11.622C2.81189 11.0599 2.49609 10.2975 2.49609 9.50248V5.49375Z" fill="#8897B1"/>
<path fill-rule="evenodd" clip-rule="evenodd" d="M6.49805 5.9975C6.49805 5.72136 6.7219 5.4975 6.99805 5.4975H9.9993C10.2754 5.4975 10.4993 5.72136 10.4993 5.9975C10.4993 6.27364 10.2754 6.4975 9.9993 6.4975H6.99805C6.7219 6.4975 6.49805 6.27364 6.49805 5.9975Z" fill="#8897B1"/>
<path fill-rule="evenodd" clip-rule="evenodd" d="M6.49805 8.99875C6.49805 8.72261 6.7219 8.49875 6.99805 8.49875H7.99846C8.27461 8.49875 8.49846 8.72261 8.49846 8.99875C8.49846 9.27489 8.27461 9.49875 7.99846 9.49875H6.99805C6.7219 9.49875 6.49805 9.27489 6.49805 8.99875Z" fill="#8897B1"/>
<path fill-rule="evenodd" clip-rule="evenodd" d="M14.501 15.0012C14.501 14.7251 14.7248 14.5012 15.001 14.5012H17.0018C17.278 14.5012 17.5018 14.7251 17.5018 15.0012C17.5018 15.2774 17.278 15.5012 17.0018 15.5012H15.001C14.7248 15.5012 14.501 15.2774 14.501 15.0012Z" fill="#8897B1"/>
</svg>
