<svg width="30" height="30" viewBox="0 0 30 30" fill="none" xmlns="http://www.w3.org/2000/svg">
<path d="M9.375 3.75V7.5" stroke="#18ABC6" stroke-width="1.5" stroke-linecap="round" stroke-linejoin="round"/>
<path d="M20.625 3.75V7.5" stroke="#18ABC6" stroke-width="1.5" stroke-linecap="round" stroke-linejoin="round"/>
<path d="M21.5625 11.5625L19.6875 13.4375" stroke="#18ABC6" stroke-width="1.5" stroke-linecap="round" stroke-linejoin="round"/>
<path d="M21.5625 13.4375L19.6875 11.5625" stroke="#18ABC6" stroke-width="1.5" stroke-linecap="round" stroke-linejoin="round"/>
<path d="M12.4354 17.083H10" stroke="#18ABC6" stroke-width="1.5" stroke-linecap="round" stroke-linejoin="round"/>
<path d="M10 17.083V19.519" stroke="#18ABC6" stroke-width="1.5" stroke-linecap="round" stroke-linejoin="round"/>
<path d="M10.3176 17.083C10.8251 18.015 11.5908 18.7807 12.5228 19.2882" stroke="#18ABC6" stroke-width="1.5" stroke-linecap="round" stroke-linejoin="round"/>
<path d="M20 18.0598C18.0916 20.1454 15.008 20.6632 12.5232 19.3151" stroke="#18ABC6" stroke-width="1.5" stroke-linecap="round" stroke-linejoin="round"/>
<path d="M9.3125 12.4999C9.31254 12.4654 9.34053 12.4375 9.37503 12.4375C9.40952 12.4375 9.43749 12.4655 9.4375 12.5C9.43751 12.5345 9.40957 12.5625 9.37508 12.5625C9.35847 12.5625 9.34255 12.5559 9.33081 12.5442C9.31907 12.5325 9.31248 12.5165 9.3125 12.4999" stroke="#18ABC6" stroke-width="1.5" stroke-linecap="round" stroke-linejoin="round"/>
<path d="M14.9375 12.4999C14.9375 12.4654 14.9655 12.4375 15 12.4375C15.0345 12.4375 15.0625 12.4655 15.0625 12.5C15.0625 12.5345 15.0346 12.5625 15.0001 12.5625C14.9835 12.5625 14.9675 12.5559 14.9558 12.5442C14.9441 12.5325 14.9375 12.5165 14.9375 12.4999" stroke="#18ABC6" stroke-width="1.5" stroke-linecap="round" stroke-linejoin="round"/>
<rect x="3.75" y="5.625" width="22.5" height="20.625" rx="3" stroke="#18ABC6" stroke-width="1.5" stroke-linecap="round" stroke-linejoin="round"/>
</svg>
