<svg width="21" height="20" viewBox="0 0 21 20" fill="none" xmlns="http://www.w3.org/2000/svg">
<path d="M16.3616 3.57208C16.9482 3.57208 17.4875 3.57208 18.0269 3.57208C18.0742 3.57208 18.1215 3.57209 18.1688 3.57677C18.2398 3.58146 18.2492 3.61893 18.2066 3.67047C18.1688 3.71263 18.1262 3.7548 18.0836 3.79696C15.7513 6.10665 13.419 8.41634 11.0819 10.726C10.9637 10.8432 10.9163 10.9603 10.9163 11.1289C10.9211 12.9982 10.9163 14.8629 10.9211 16.7322C10.9211 17.7254 11.4367 18.2876 12.4444 18.4094C12.662 18.4375 12.8797 18.4422 13.0973 18.4375C13.2203 18.4328 13.2818 18.4703 13.2771 18.6062C13.2723 19.0606 13.3102 18.9856 12.908 18.9903C11.1718 18.995 9.43084 18.9903 7.69461 18.9903C7.61418 18.9903 7.49118 19.0372 7.46279 18.9247C7.42494 18.7795 7.41548 18.6202 7.47698 18.4797C7.50537 18.4188 7.58106 18.4422 7.64257 18.4422C7.95954 18.4422 8.28124 18.4469 8.59347 18.3719C9.35042 18.1892 9.81404 17.6083 9.81404 16.8305C9.81404 14.9285 9.81404 13.0264 9.81878 11.1196C9.81878 10.9603 9.76674 10.8478 9.65319 10.7354C7.30667 8.42103 4.96961 6.10665 2.63255 3.79228C2.58051 3.74074 2.47643 3.68921 2.50482 3.61893C2.53794 3.52992 2.65148 3.57677 2.72717 3.57677C6.80047 3.57209 10.8738 3.57209 14.9471 3.57677C15.1458 3.57677 15.2877 3.52055 15.4296 3.38C16.2339 2.61167 17.0476 1.8527 17.8518 1.08437C17.9606 0.976612 18.0363 0.967242 18.1357 1.08437C18.2208 1.18744 18.3202 1.28113 18.4243 1.37015C18.5283 1.46385 18.5236 1.53412 18.4195 1.62782C18.0316 1.98857 17.6484 2.35399 17.2605 2.71474C16.9719 2.99115 16.6833 3.26756 16.3616 3.57208ZM11.9382 6.22846C11.361 6.22846 10.9211 6.66417 10.9163 7.23573C10.9116 7.82135 11.3516 8.25706 11.9429 8.25706C12.5201 8.25706 12.9648 7.81667 12.9648 7.24979C12.9695 6.66885 12.5248 6.22846 11.9382 6.22846Z" fill="#18ABC6"/>
</svg>
