<svg width="20" height="19" viewBox="0 0 20 19" fill="none" xmlns="http://www.w3.org/2000/svg">
<path d="M8.37619 13.5764C7.34886 13.5454 6.3662 13.5196 5.3885 13.3956C5.20487 13.3749 5.06094 13.4111 4.92695 13.5609C4.64902 13.8709 4.34628 14.1654 4.06339 14.4702C3.9691 14.5735 3.89962 14.5787 3.80532 14.4702C3.69614 14.3462 3.58199 14.2274 3.46288 14.1137C3.38347 14.0362 3.37354 13.9639 3.46288 13.8916C3.48769 13.8709 3.50754 13.8451 3.5274 13.8244C7.55234 9.63446 11.5823 5.44452 15.6072 1.24942C16.0836 0.753446 16.6395 0.48996 17.3194 0.500293C18.3567 0.515792 19.2897 1.33725 19.4634 2.40152C19.5825 3.12482 19.4088 3.77061 18.9721 4.33892C18.8778 4.45774 18.8033 4.48874 18.6942 4.35958C18.6048 4.25109 18.5105 4.14776 18.4063 4.05993C18.2872 3.9566 18.2872 3.87911 18.3864 3.74478C19.0068 2.90783 18.6445 1.71439 17.6817 1.40958C17.1606 1.24425 16.6792 1.35275 16.2871 1.75056C15.3144 2.74767 14.3565 3.75512 13.3888 4.75739C13.2845 4.86589 13.2895 4.98988 13.2994 5.11387C13.359 5.88883 13.3391 6.66379 13.3292 7.43875C13.3094 8.76134 13.2399 10.0839 12.9272 11.3755C12.9222 11.3859 12.9222 11.4014 12.9173 11.4117C12.689 12.6568 11.9098 13.2251 10.7534 13.3956C9.94448 13.5144 9.14048 13.5454 8.37619 13.5764Z" fill="#18ABC6"/>
<path d="M9.90478 5.60468C8.90226 5.60468 8.0933 4.76773 8.08834 3.72928C8.08834 2.68051 8.90226 1.82289 9.89981 1.82805C10.9023 1.82805 11.7212 2.68567 11.7163 3.72928C11.7212 4.76256 10.9073 5.60468 9.90478 5.60468Z" fill="#18ABC6"/>
<path d="M14.3268 16.5471C14.3218 17.6165 13.4632 18.5051 12.4359 18.5C11.4085 18.4948 10.55 17.5959 10.5549 16.5264C10.5599 15.457 11.4234 14.5684 12.4508 14.5735C13.4781 14.5787 14.3317 15.4725 14.3268 16.5471ZM12.4408 17.4047C12.9173 17.4047 13.2796 17.0379 13.2895 16.5471C13.2945 16.0511 12.9272 15.6688 12.4458 15.6688C11.9793 15.6688 11.617 16.0356 11.612 16.5161C11.6021 17.0327 11.9545 17.4047 12.4408 17.4047Z" fill="#18ABC6"/>
<path d="M2.38096 18.5C1.34866 18.5 0.5 17.6165 0.5 16.5368C0.5 15.457 1.34866 14.5735 2.38096 14.5735C3.40332 14.5735 4.26687 15.4673 4.27184 16.5368C4.27184 17.601 3.40828 18.5 2.38096 18.5ZM2.38096 17.4047C2.8574 17.4047 3.21969 17.0327 3.21969 16.5419C3.21969 16.0459 2.86732 15.6688 2.39088 15.6688C1.91444 15.6636 1.52733 16.0614 1.53229 16.5419C1.53726 17.0224 1.91444 17.4047 2.38096 17.4047Z" fill="#18ABC6"/>
<path d="M7.92953 8.85434C7.93449 8.64768 7.99901 8.45653 8.03375 8.25504C8.06849 8.04838 8.04864 8.02255 7.85012 8.06388C7.35382 8.16721 6.85257 8.26537 6.35627 8.36353C5.94435 8.44619 5.57213 8.19821 5.48279 7.7849C5.39842 7.37158 5.64161 6.97894 6.0585 6.89111C7.1156 6.66379 8.17271 6.45713 9.22982 6.22981C9.58219 6.15748 9.92959 6.11615 10.277 6.20398C10.4457 6.24531 10.4606 6.28664 10.3415 6.41064C9.58219 7.20109 8.82285 7.99155 8.06352 8.78201C8.03871 8.81817 8.00893 8.86467 7.92953 8.85434Z" fill="#18ABC6"/>
<path d="M3.62665 11.391C3.63658 11.174 3.7011 10.9881 3.84502 10.8434C4.44058 10.2389 5.03613 9.63446 5.63665 9.04033C5.90464 8.77684 6.20242 8.74584 6.52998 8.91633C6.77812 9.04549 7.02627 9.18499 7.27938 9.30898C7.42331 9.38131 7.45805 9.43814 7.32901 9.5673C7.05605 9.83595 6.82775 10.1821 6.51509 10.3888C5.85998 10.8227 5.39843 11.4685 4.8128 11.9645C4.57954 12.1608 4.31154 12.1867 4.04354 12.0523C3.77554 11.918 3.64651 11.6855 3.62665 11.391Z" fill="#18ABC6"/>
</svg>
