<svg width="21" height="20" viewBox="0 0 21 20" fill="none" xmlns="http://www.w3.org/2000/svg">
<path d="M8.87619 14.0764C7.84886 14.0454 6.8662 14.0196 5.8885 13.8956C5.70487 13.8749 5.56094 13.9111 5.42695 14.0609C5.14902 14.3709 4.84628 14.6654 4.56339 14.9702C4.4691 15.0735 4.39962 15.0787 4.30532 14.9702C4.19614 14.8462 4.08199 14.7274 3.96288 14.6137C3.88347 14.5362 3.87354 14.4639 3.96288 14.3916C3.98769 14.3709 4.00754 14.3451 4.0274 14.3244C8.05234 10.1345 12.0823 5.94452 16.1072 1.74942C16.5836 1.25345 17.1395 0.98996 17.8194 1.00029C18.8567 1.01579 19.7897 1.83725 19.9634 2.90152C20.0825 3.62482 19.9088 4.27061 19.4721 4.83892C19.3778 4.95774 19.3033 4.98874 19.1942 4.85958C19.1048 4.75109 19.0105 4.64776 18.9063 4.55993C18.7872 4.4566 18.7872 4.37911 18.8864 4.24478C19.5068 3.40783 19.1445 2.21439 18.1817 1.90958C17.6606 1.74425 17.1792 1.85275 16.7871 2.25056C15.8144 3.24767 14.8565 4.25512 13.8888 5.25739C13.7845 5.36589 13.7895 5.48988 13.7994 5.61387C13.859 6.38883 13.8391 7.16379 13.8292 7.93875C13.8094 9.26134 13.7399 10.5839 13.4272 11.8755C13.4222 11.8859 13.4222 11.9014 13.4173 11.9117C13.189 13.1568 12.4098 13.7251 11.2534 13.8956C10.4445 14.0144 9.64048 14.0454 8.87619 14.0764Z" fill="#18ABC6"/>
<path d="M10.4048 6.10468C9.40226 6.10468 8.5933 5.26773 8.58834 4.22928C8.58834 3.18051 9.40226 2.32289 10.3998 2.32805C11.4023 2.32805 12.2212 3.18567 12.2163 4.22928C12.2212 5.26256 11.4073 6.10468 10.4048 6.10468Z" fill="#18ABC6"/>
<path d="M14.8268 17.0471C14.8218 18.1165 13.9632 19.0051 12.9359 19C11.9085 18.9948 11.05 18.0959 11.0549 17.0264C11.0599 15.957 11.9234 15.0684 12.9508 15.0735C13.9781 15.0787 14.8317 15.9725 14.8268 17.0471ZM12.9408 17.9047C13.4173 17.9047 13.7796 17.5379 13.7895 17.0471C13.7945 16.5511 13.4272 16.1688 12.9458 16.1688C12.4793 16.1688 12.117 16.5356 12.112 17.0161C12.1021 17.5327 12.4545 17.9047 12.9408 17.9047Z" fill="#18ABC6"/>
<path d="M2.88096 19C1.84866 19 1 18.1165 1 17.0368C1 15.957 1.84866 15.0735 2.88096 15.0735C3.90332 15.0735 4.76687 15.9673 4.77184 17.0368C4.77184 18.101 3.90828 19 2.88096 19ZM2.88096 17.9047C3.3574 17.9047 3.71969 17.5327 3.71969 17.0419C3.71969 16.5459 3.36732 16.1688 2.89088 16.1688C2.41444 16.1636 2.02733 16.5614 2.03229 17.0419C2.03726 17.5224 2.41444 17.9047 2.88096 17.9047Z" fill="#18ABC6"/>
<path d="M8.42953 9.35434C8.43449 9.14768 8.49901 8.95653 8.53375 8.75504C8.56849 8.54838 8.54864 8.52255 8.35012 8.56388C7.85382 8.66721 7.35257 8.76537 6.85627 8.86353C6.44435 8.94619 6.07213 8.69821 5.98279 8.2849C5.89842 7.87158 6.14161 7.47894 6.5585 7.39111C7.6156 7.16379 8.67271 6.95713 9.72982 6.72981C10.0822 6.65748 10.4296 6.61615 10.777 6.70398C10.9457 6.74531 10.9606 6.78664 10.8415 6.91064C10.0822 7.70109 9.32285 8.49155 8.56352 9.28201C8.53871 9.31817 8.50893 9.36467 8.42953 9.35434Z" fill="#18ABC6"/>
<path d="M4.12665 11.891C4.13658 11.674 4.2011 11.4881 4.34502 11.3434C4.94058 10.7389 5.53613 10.1345 6.13665 9.54033C6.40464 9.27684 6.70242 9.24584 7.02998 9.41633C7.27812 9.54549 7.52627 9.68499 7.77938 9.80898C7.92331 9.88131 7.95805 9.93814 7.82901 10.0673C7.55605 10.336 7.32775 10.6821 7.01509 10.8888C6.35998 11.3227 5.89843 11.9685 5.3128 12.4645C5.07954 12.6608 4.81154 12.6867 4.54354 12.5523C4.27554 12.418 4.14651 12.1855 4.12665 11.891Z" fill="#18ABC6"/>
</svg>
