<svg width="20" height="20" viewBox="0 0 20 20" fill="none" xmlns="http://www.w3.org/2000/svg">
<path d="M14.7167 9.97687C14.6861 12.6197 12.6328 14.6853 10.006 14.7143C7.45075 14.7423 5.28353 12.5917 5.28945 10.0269C5.29536 7.3889 7.36206 5.28517 10.0066 5.28517C12.6006 5.28517 14.6635 7.33671 14.7167 9.97687Z" fill="#18ABC6"/>
<path d="M15.4999 8.56452C15.9353 8.68719 16.3814 8.81256 16.8275 8.93738C17.6811 9.17627 18.5346 9.41355 19.3882 9.65405C19.5559 9.7014 19.729 9.73906 19.88 9.82945C20.0402 9.92576 20.0402 10.0603 19.8854 10.1609C19.83 10.1969 19.7655 10.2233 19.7016 10.2416C18.3062 10.6365 16.9098 11.0293 15.5149 11.4253C15.3591 11.4694 15.3386 11.4145 15.373 11.2784C15.5837 10.4347 15.5805 9.58949 15.3832 8.74315C15.3628 8.65599 15.3155 8.54246 15.4999 8.56452Z" fill="#18ABC6"/>
<path d="M8.56446 15.4627C8.5736 15.3131 8.67626 15.367 8.75259 15.3852C9.21914 15.4961 9.69161 15.5359 10.1711 15.5267C10.5495 15.5198 10.9203 15.466 11.2858 15.3772C11.4342 15.3411 11.4686 15.3734 11.4272 15.5203C11.0338 16.91 10.6435 18.3009 10.2522 19.6912C10.2447 19.717 10.2356 19.7423 10.2259 19.767C10.1829 19.8741 10.142 19.9962 10.006 20C9.86522 20.0043 9.81684 19.8784 9.78513 19.7719C9.60507 19.1666 9.43146 18.5597 9.25945 17.9522C9.03961 17.1764 8.82354 16.4 8.60585 15.6236C8.59026 15.5719 8.57844 15.5192 8.56446 15.4627Z" fill="#18ABC6"/>
<path d="M2.88304 3.06845C2.87981 2.89897 2.99054 2.83225 3.16845 2.89466C3.42323 2.98451 3.64791 3.13624 3.88226 3.26698C4.94329 3.8599 6.0011 4.45874 7.06052 5.05489C7.26639 5.17111 7.26908 5.18779 7.07396 5.30669C6.34242 5.75165 5.75869 6.34296 5.31148 7.07254C5.19646 7.25977 5.17872 7.2587 5.07068 7.06608C4.4031 5.87648 3.73445 4.68741 3.06794 3.49727C2.98947 3.35684 2.90669 3.21695 2.88304 3.06845Z" fill="#18ABC6"/>
<path d="M11.4374 4.53568C11.4363 4.67342 11.3391 4.62284 11.2681 4.60778C10.88 4.52707 10.4903 4.46843 10.0915 4.46574C9.64592 4.46251 9.20785 4.50609 8.77409 4.60455C8.56016 4.65297 8.53275 4.63038 8.58811 4.43184C8.96813 3.07383 9.34922 1.71582 9.73568 0.35942C9.77761 0.211997 9.80233 0.00108529 10.0012 9.20949e-06C10.2022 -0.00160491 10.2253 0.209307 10.2673 0.357267C10.6532 1.71366 11.0327 3.07221 11.4138 4.42969C11.4234 4.46251 11.4288 4.49587 11.4374 4.53568Z" fill="#18ABC6"/>
<path d="M3.04322 17.1188C2.90078 17.1102 2.861 17.0187 2.89271 16.8842C2.92873 16.732 3.00989 16.5991 3.08568 16.4646C3.74305 15.2927 4.40149 14.1214 5.05886 12.9495C5.18141 12.7316 5.19377 12.7295 5.32008 12.9356C5.76299 13.6598 6.34672 14.2424 7.0702 14.6847C7.26854 14.8058 7.26854 14.8225 7.06536 14.9365C5.87748 15.6048 4.68959 16.2735 3.50063 16.9407C3.36142 17.0193 3.22274 17.1059 3.04322 17.1188Z" fill="#18ABC6"/>
<path d="M16.942 2.86991C17.0844 2.87744 17.1403 2.95869 17.1124 3.09804C17.0812 3.25192 16.9979 3.38428 16.9227 3.51879C16.2653 4.69064 15.6068 5.86195 14.9495 7.0338C14.821 7.263 14.8172 7.26408 14.6818 7.04886C14.2303 6.33219 13.6525 5.74358 12.9258 5.304C12.736 5.1894 12.7355 5.17702 12.9317 5.06619C14.1416 4.38234 15.3526 3.70011 16.5641 3.01895C16.6802 2.95331 16.7996 2.8882 16.942 2.86991Z" fill="#18ABC6"/>
<path d="M4.63423 8.65652C4.55414 9.04284 4.4848 9.4044 4.47835 9.77672C4.46975 10.269 4.49555 10.756 4.61542 11.2364C4.6654 11.435 4.63638 11.4624 4.44933 11.4102C3.10503 11.0347 1.76127 10.6586 0.418044 10.2793C0.309468 10.2486 0.200355 10.205 0.104679 10.1458C-0.0350718 10.0597 -0.0350718 9.92952 0.105754 9.84236C0.200893 9.78372 0.312156 9.74444 0.420732 9.71377C1.76396 9.33445 3.10772 8.95783 4.45201 8.58281C4.53587 8.55968 4.65197 8.50318 4.63423 8.65652Z" fill="#18ABC6"/>
<path d="M16.9436 17.1242C16.7894 17.1054 16.6609 17.0295 16.5324 16.9574C15.7649 16.527 14.9989 16.0944 14.2324 15.6623C13.7938 15.4148 13.3563 15.1652 12.915 14.922C12.778 14.8467 12.7409 14.7961 12.9027 14.7003C13.6584 14.2543 14.2561 13.6463 14.7044 12.893C14.7914 12.7462 14.8436 12.7698 14.9178 12.9022C15.6025 14.1284 16.2911 15.3524 16.9769 16.5775C17.0361 16.683 17.0968 16.7895 17.1145 16.9117C17.135 17.0435 17.0764 17.1161 16.9436 17.1242Z" fill="#18ABC6"/>
</svg>
