<svg width="20" height="20" viewBox="0 0 20 20" fill="none" xmlns="http://www.w3.org/2000/svg">
<path d="M10.0136 1C11.697 1 13.3854 1 15.0688 1C16.6273 1 17.8011 2.10546 17.8061 3.56691C17.8061 4.32574 17.8111 5.08926 17.8011 5.84809C17.8011 6.00735 17.8511 6.05888 18.0209 6.05888C18.6353 6.05419 19 6.40082 19 6.97229C19 7.49691 19 8.02622 19 8.55084C19 9.08952 18.6254 9.44083 18.0559 9.44551C17.8061 9.44551 17.8061 9.44551 17.8061 9.68909C17.8061 11.9094 17.8061 14.125 17.8061 16.3453C17.8061 17.1041 17.4864 17.5444 16.7272 17.8161C16.6373 17.8489 16.6023 17.8957 16.6023 17.9847C16.6073 18.2142 16.6073 18.4391 16.6023 18.6686C16.5973 18.8888 16.4924 18.9965 16.2576 18.9965C15.6832 19.0012 15.1087 19.0012 14.5343 18.9965C14.2895 18.9965 14.1846 18.8934 14.1846 18.6592C14.1796 18.4672 14.1746 18.2704 14.1846 18.0784C14.1946 17.9144 14.1347 17.8676 13.9598 17.8723C12.2115 17.877 10.4632 17.877 8.71484 17.877C7.8207 17.877 6.93155 17.8817 6.0374 17.8723C5.85258 17.8723 5.79763 17.9285 5.80762 18.0924C5.82261 18.2892 5.81262 18.4906 5.80762 18.6873C5.80263 18.8841 5.69273 18.9918 5.48293 18.9965C4.89849 19.0012 4.30906 19.0012 3.72462 18.9965C3.50483 18.9965 3.39993 18.8888 3.39493 18.6733C3.38994 18.4438 3.38994 18.2142 3.39493 17.9894C3.39493 17.891 3.35497 17.8442 3.26006 17.8114C2.55573 17.5725 2.20107 17.0994 2.20107 16.3921C2.20107 14.1624 2.20107 11.9328 2.20107 9.69846C2.20107 9.45488 2.20107 9.45488 1.93133 9.4502C1.38186 9.44551 1.00222 9.08952 1.00222 8.57426C0.997225 8.0309 1.00222 7.48754 1.00222 6.9395C1.00222 6.41487 1.38186 6.05888 1.94132 6.05419C2.20107 6.05419 2.20107 6.05419 2.20107 5.8153C2.20107 5.06584 2.20107 4.31637 2.20107 3.56691C2.20607 2.11014 3.38494 1.00468 4.93845 1C6.62684 1 8.32022 1 10.0136 1ZM17.1867 6.74745C17.1867 5.84809 17.1817 4.94405 17.1917 4.04469C17.1917 3.89012 17.1568 3.82922 16.9769 3.82922C15.3285 3.83391 13.6801 3.83391 12.0317 3.82922C11.8718 3.82922 11.8119 3.8667 11.8119 4.02596C11.8169 4.30232 11.712 4.39601 11.4223 4.39601C10.4782 4.39601 9.53905 4.39601 8.59496 4.39601C8.30024 4.39601 8.20033 4.30701 8.20533 4.02596C8.20533 3.88543 8.16537 3.82922 8.00552 3.82922C6.34711 3.83391 4.6837 3.83391 3.02528 3.82922C2.88042 3.82922 2.83047 3.8667 2.83047 4.00722C2.83547 5.81999 2.83547 7.63743 2.83047 9.4502C2.83047 9.55325 2.86544 9.62819 2.94037 9.69846C3.20012 9.93735 3.45487 10.1762 3.70963 10.4198C3.80953 10.5135 3.90944 10.5557 4.0543 10.5557C6.57189 10.551 9.08449 10.551 11.6021 10.5557C11.7519 10.5557 11.8269 10.5276 11.8668 10.3683C12.1016 9.46425 12.9408 8.84594 13.8999 8.84126C14.869 8.83657 15.7131 9.46425 15.9529 10.373C16.0129 10.5978 16.0978 10.6212 16.2726 10.4573C16.5324 10.2137 16.7921 9.96545 17.0569 9.72656C17.1568 9.63756 17.1967 9.54388 17.1917 9.41741C17.1817 8.52742 17.1867 7.63743 17.1867 6.74745ZM4.90848 16.1766C5.27813 16.1766 5.64278 16.1813 6.01243 16.1766C6.27717 16.1719 6.39206 16.0736 6.39206 15.8253C6.39706 15.5115 6.39706 15.193 6.39206 14.8791C6.38707 14.6215 6.27717 14.5184 6.00244 14.5184C5.27313 14.5138 4.54383 14.5184 3.81453 14.5184C3.5348 14.5184 3.4249 14.6215 3.4249 14.8791C3.41991 15.1883 3.41991 15.4974 3.4249 15.8113C3.4249 16.0783 3.5348 16.1813 3.82452 16.1813C4.18418 16.1766 4.54883 16.1766 4.90848 16.1766ZM15.0987 14.5091C14.7291 14.5091 14.3644 14.5044 13.9948 14.5091C13.73 14.5138 13.6152 14.6168 13.6152 14.8604C13.6102 15.1742 13.6102 15.4927 13.6152 15.8066C13.6201 16.0642 13.73 16.1673 14.0048 16.1673C14.7341 16.1719 15.4634 16.1719 16.1927 16.1673C16.4724 16.1673 16.5823 16.0642 16.5823 15.8066C16.5873 15.4974 16.5873 15.1883 16.5823 14.8744C16.5773 14.6074 16.4724 14.5044 16.1827 14.5044C15.823 14.5091 15.4634 14.5091 15.0987 14.5091ZM10.0036 16.1766C10.8628 16.1766 11.727 16.1766 12.5861 16.1766C12.8309 16.1766 12.9758 16.0736 12.9758 15.9096C12.9808 15.7457 12.8359 15.6426 12.5911 15.638C12.5462 15.638 12.5062 15.638 12.4613 15.638C11.0076 15.638 9.55404 15.638 8.10043 15.638C7.87065 15.638 7.64087 15.638 7.40609 15.638C7.16632 15.6426 7.02146 15.7457 7.02146 15.9143C7.02646 16.0736 7.16632 16.1719 7.3961 16.1766C7.44106 16.1766 7.48102 16.1766 7.52598 16.1766C8.36018 16.1766 9.1794 16.1766 10.0036 16.1766ZM13.8799 10.5557C14.3145 10.5557 14.7541 10.551 15.1886 10.5557C15.3185 10.5557 15.3335 10.5135 15.3035 10.4058C15.1437 9.87646 14.5443 9.45957 13.9149 9.4502C13.2955 9.44083 12.6711 9.85303 12.4962 10.387C12.4563 10.5088 12.4762 10.5557 12.6261 10.551C13.0457 10.551 13.4653 10.5557 13.8799 10.5557ZM10.0036 3.81049C10.2783 3.81049 10.5531 3.81049 10.8278 3.81049C11.2424 3.8058 11.1825 3.86201 11.1975 3.46386C11.2025 3.3046 11.1425 3.26713 10.9827 3.26713C10.3882 3.27649 9.7988 3.26713 9.20437 3.27181C8.76979 3.27649 8.82474 3.20155 8.81475 3.65123C8.81475 3.7777 8.8647 3.81517 8.98958 3.81049C9.32925 3.8058 9.66393 3.81049 10.0036 3.81049Z" fill="#18ABC6"/>
<path d="M4.91847 15.0524C5.15325 15.0524 5.39302 15.0571 5.62779 15.0524C5.75767 15.0478 5.82261 15.0852 5.82261 15.2211C5.81262 15.7176 5.87756 15.6333 5.39801 15.638C4.9984 15.6426 4.59878 15.6333 4.20416 15.6426C4.0493 15.6473 3.99935 15.5911 3.99935 15.4506C4.00934 14.9915 3.9494 15.0665 4.41895 15.0571C4.58379 15.0478 4.75363 15.0524 4.91847 15.0524Z" fill="#18ABC6"/>
<path d="M15.1087 15.0524C15.3535 15.0524 15.5933 15.0571 15.838 15.0524C15.9679 15.0478 16.0129 15.0993 16.0129 15.2164C16.0029 15.7129 16.0678 15.6286 15.5883 15.6333C15.1886 15.638 14.789 15.6286 14.3944 15.638C14.2396 15.6426 14.1896 15.5864 14.1896 15.4459C14.1996 14.9869 14.1397 15.0618 14.6092 15.0524C14.774 15.0478 14.9389 15.0524 15.1087 15.0524Z" fill="#18ABC6"/>
</svg>
