<svg width="20" height="20" viewBox="0 0 20 20" fill="none" xmlns="http://www.w3.org/2000/svg">
<path d="M1.5 6.38673C3.90427 4.51497 6.90576 3.49562 10 3.50001C13.2204 3.50001 16.1777 4.58118 18.5 6.38673L17.5561 7.51051C15.4188 5.84657 12.7506 4.94044 10 4.94446C7.13736 4.94446 4.5092 5.90501 2.44394 7.51051L1.5 6.38673ZM3.86061 9.19617C5.59714 7.84417 7.76508 7.1079 10 7.11112C12.3253 7.11112 14.4612 7.89184 16.1394 9.19545L15.1947 10.3192C13.7253 9.17547 11.891 8.55269 10 8.55556C8.03245 8.55556 6.22498 9.2164 4.80531 10.3192L3.86061 9.19545V9.19617ZM6.22197 12.0056C7.29056 11.1735 8.62465 10.7204 10 10.7222C11.4309 10.7222 12.7454 11.2025 13.778 12.0049L12.8333 13.1287C12.0319 12.5048 11.0314 12.1651 10 12.1667C8.92679 12.1667 7.94076 12.5271 7.16667 13.1287L6.22197 12.0049V12.0056ZM8.58333 14.8151C8.98395 14.5029 9.48421 14.3327 10 14.3333C10.5366 14.3333 11.0296 14.5139 11.4167 14.8143L10 16.5L8.58333 14.8143V14.8151Z" fill="#18ABC6"/>
</svg>
