<svg width="17" height="13" viewBox="0 0 17 13" fill="none" xmlns="http://www.w3.org/2000/svg">
<path d="M0 2.88673C2.40427 1.01497 5.40576 -0.00438462 8.5 1.41771e-05C11.7204 1.41771e-05 14.6777 1.08118 17 2.88673L16.0561 4.01051C13.9188 2.34657 11.2506 1.44044 8.5 1.44446C5.63736 1.44446 3.0092 2.40501 0.943944 4.01051L0 2.88673ZM2.36061 5.69617C4.09714 4.34417 6.26508 3.6079 8.5 3.61112C10.8253 3.61112 12.9612 4.39184 14.6394 5.69545L13.6947 6.81923C12.2253 5.67547 10.391 5.05269 8.5 5.05556C6.53245 5.05556 4.72498 5.7164 3.30531 6.81923L2.36061 5.69545V5.69617ZM4.72197 8.50562C5.79056 7.67354 7.12465 7.22035 8.5 7.22223C9.93095 7.22223 11.2454 7.70251 12.278 8.50489L11.3333 9.62867C10.5319 9.00484 9.53138 8.66514 8.5 8.66667C7.42679 8.66667 6.44076 9.02706 5.66667 9.62867L4.72197 8.50489V8.50562ZM7.08333 11.3151C7.48395 11.0029 7.98421 10.8327 8.5 10.8333C9.03661 10.8333 9.52962 11.0139 9.91667 11.3143L8.5 13L7.08333 11.3143V11.3151Z" fill="#18ABC6"/>
</svg>
