<svg width="19" height="17" viewBox="0 0 19 17" fill="none" xmlns="http://www.w3.org/2000/svg">
<path d="M15.1343 16.3141C14.9889 16.3132 14.8482 16.2627 14.7348 16.1708L10.5214 12.7644C10.4954 12.8007 10.4674 12.8355 10.4376 12.8686L7.86057 15.4739C7.78423 15.5518 7.68963 15.6091 7.58557 15.6402C7.4815 15.6714 7.37133 15.6755 7.26529 15.6521C7.15925 15.6287 7.06078 15.5786 6.979 15.5064C6.89723 15.4343 6.83481 15.3424 6.79754 15.2394L4.95496 10.2698L1.3149 8.42663C1.20467 8.36943 1.1131 8.28131 1.05115 8.17283C0.989204 8.06436 0.959511 7.94012 0.96563 7.81502C0.97175 7.68992 1.01342 7.56925 1.08565 7.46748C1.15788 7.36571 1.25761 7.28716 1.37288 7.24123L18.1236 0.728078C18.231 0.686774 18.3474 0.67526 18.4607 0.694729C18.5739 0.714197 18.68 0.76394 18.7679 0.838801C18.8597 0.916628 18.9283 1.01882 18.9659 1.13388C19.0034 1.24894 19.0085 1.37231 18.9805 1.49012L15.7592 15.8191C15.7345 15.9267 15.6831 16.0263 15.6098 16.1083C15.5366 16.1903 15.4438 16.2522 15.3404 16.288C15.2735 16.3079 15.2039 16.3167 15.1343 16.3141ZM9.70315 10.4522L14.7348 14.5229L17.46 2.38242L3.19613 7.92511L5.77317 9.22774C5.91844 9.30063 6.03117 9.42623 6.08886 9.57945L7.66729 13.8391L9.5292 11.9633L8.30511 10.9668C8.22596 10.9068 8.16154 10.8291 8.11685 10.7399C8.07216 10.6507 8.0484 10.5522 8.04741 10.4522C8.04551 10.356 8.06475 10.2605 8.10374 10.1726C8.14273 10.0848 8.2005 10.0068 8.2729 9.94419L12.7827 6.0363C12.847 5.9807 12.9215 5.93845 13.002 5.91197C13.0824 5.88548 13.1672 5.87527 13.2516 5.88192C13.3359 5.88858 13.4182 5.91196 13.4936 5.95074C13.569 5.98952 13.6361 6.04294 13.6911 6.10794C13.7461 6.17295 13.7879 6.24826 13.8141 6.3296C13.8403 6.41093 13.8504 6.49668 13.8438 6.58196C13.8372 6.66724 13.8141 6.75037 13.7757 6.82661C13.7374 6.90285 13.6845 6.9707 13.6202 7.0263L9.70315 10.4522Z" fill="#8897B1"/>
</svg>
