<svg width="116" height="30" viewBox="0 0 116 30" fill="none" xmlns="http://www.w3.org/2000/svg">
<path d="M20.8665 13.0796C21.3466 13.0796 22.1568 13.1096 22.6669 13.1996C22.7569 11.4292 21.6767 10.9791 20.5664 10.9791C19.4862 10.9791 18.646 11.3992 17.8658 12.0893L15.5253 9.7188C16.9656 7.76835 19.1861 6.92816 21.4066 6.92816C24.5873 6.92816 27.558 8.66856 27.558 12.4794V22.0216C25.5776 22.7418 23.3871 23.0719 21.5566 23.0719C17.1456 23.0719 15.0151 21.1514 15.0151 17.9107C15.0151 15.2401 16.9656 13.0796 20.8665 13.0796ZM22.6069 19.171V16.5004C21.2866 16.0803 19.7562 16.5904 19.7562 17.8807C19.7562 19.441 21.4366 19.471 22.6069 19.171Z" fill="white"/>
<path d="M12.873 22.7718H7.77178V16.9205H5.10117V22.7718H0V7.22824H5.10117V12.4194H7.77178V7.22824H12.873V22.7718Z" fill="white"/>
<g clip-path="url(#clip0_5_493)">
<path d="M35.4151 20.3279C35.8873 20.3211 36.3545 20.4001 36.7903 20.5573C37.5352 20.8248 38.259 20.8342 39.0141 20.6031C40.0402 20.2888 41.0748 20.3152 42.1095 20.604C42.8604 20.8129 43.6053 20.7323 44.3469 20.519C45.1819 20.2795 46.0288 20.2922 46.8612 20.5165C47.8432 20.7815 48.8073 20.7883 49.7875 20.5021C50.71 20.2328 51.6393 20.3526 52.555 20.57C53.2855 20.7433 54.0075 20.762 54.7329 20.5513C55.5977 20.3007 56.4658 20.3203 57.328 20.5649C58.0976 20.7832 58.8637 20.7722 59.6291 20.5522C60.1218 20.4103 60.6238 20.3432 61.136 20.3517C61.2056 20.3814 61.2694 20.4316 61.2303 20.5088C61.0544 20.858 61.1105 21.3235 60.707 21.5579C60.4335 21.5239 60.1676 21.5876 59.9111 21.6547C58.9725 21.9011 58.0398 21.8612 57.0961 21.6811C56.4734 21.5622 55.8355 21.4713 55.2078 21.6344C54.1273 21.9138 53.0587 21.8756 51.9774 21.631C51.2231 21.4602 50.4594 21.4908 49.7068 21.6879C48.769 21.9342 47.8347 21.9155 46.8952 21.6828C46.0721 21.4789 45.2422 21.4713 44.4165 21.6751C43.5195 21.896 42.6259 21.8849 41.7289 21.676C41.0315 21.5137 40.3231 21.4806 39.6249 21.6437C38.5529 21.8934 37.4885 21.9334 36.4208 21.6378C36.3775 21.6335 36.335 21.6301 36.2917 21.6259C36.2543 21.6106 36.2169 21.5961 36.1795 21.5808C35.7217 21.4772 35.3479 20.8639 35.4151 20.3279Z" fill="white"/>
<path d="M60.2 22.4729C60.2603 22.5001 60.3776 22.5315 60.3274 22.5995C60.0327 22.9962 59.9223 23.5347 59.4338 23.7836C58.6685 23.894 57.9133 23.8295 57.1607 23.6681C56.3869 23.5024 55.6131 23.539 54.846 23.7139C54.1028 23.8838 53.357 23.9119 52.6162 23.7411C51.5366 23.4922 50.468 23.4803 49.3909 23.7581C48.7241 23.9305 48.0454 23.9204 47.3727 23.7683C46.2523 23.5135 45.1353 23.482 44.0115 23.7581C43.4423 23.8974 42.8605 23.8855 42.2845 23.7734C41.3349 23.5891 40.3844 23.471 39.4228 23.68C38.8256 23.8099 38.2225 23.8643 37.6118 23.8482C37.532 23.8439 37.4513 23.8397 37.3714 23.8354C37.351 23.8099 37.3272 23.804 37.3001 23.8184C36.691 23.6078 36.5848 22.9936 36.2756 22.5426C36.3249 22.5205 36.3733 22.4984 36.4226 22.4755C37.289 22.7243 38.1682 22.8178 39.0499 22.5935C40.0166 22.3472 40.9773 22.3336 41.9431 22.5697C42.728 22.7617 43.5111 22.7575 44.2909 22.5468C45.1582 22.3115 46.0246 22.3421 46.8927 22.5324C47.7847 22.7277 48.674 22.8254 49.5744 22.5613C50.4774 22.2962 51.3888 22.3226 52.2977 22.5434C53.193 22.7609 54.0824 22.7719 54.9777 22.5213C55.6411 22.3362 56.3206 22.354 56.9942 22.4941C57.1692 22.5307 57.3383 22.6003 57.5149 22.6309C58.4221 22.7872 59.3149 22.6904 60.2009 22.4721L60.2 22.4729Z" fill="white"/>
<path d="M38.7237 25.7679C38.3975 25.4247 38.0229 25.124 37.7859 24.7027C38.2522 24.7053 38.7169 24.6806 39.1696 24.5642C40.0794 24.3307 40.9883 24.3587 41.898 24.5625C42.6387 24.729 43.3862 24.7817 44.1218 24.571C45.1174 24.2856 46.1027 24.3315 47.094 24.5693C47.8882 24.7596 48.6859 24.8089 49.4826 24.5863C50.4586 24.3137 51.4346 24.3315 52.4157 24.56C53.255 24.7554 54.0908 24.7656 54.9309 24.5379C55.5799 24.3621 56.2458 24.3391 56.9067 24.4598C57.5175 24.571 58.1248 24.7036 58.7491 24.7188C58.4765 25.107 58.1995 25.4918 57.8232 25.7908C56.9254 25.5292 56.0148 25.4587 55.1025 25.6821C54.2038 25.9021 53.3127 25.9132 52.4149 25.7016C51.5034 25.4867 50.5928 25.491 49.6839 25.7178C48.8303 25.931 47.9783 25.9395 47.1229 25.7297C46.101 25.4791 45.0792 25.4842 44.0598 25.7475C43.4457 25.9064 42.818 25.9301 42.2115 25.7764C41.0435 25.4799 39.8865 25.5301 38.7237 25.7688V25.7679Z" fill="white"/>
<path d="M56.9662 26.4763C56.482 26.9885 55.873 27.3232 55.275 27.6749C54.2489 27.7938 53.2261 27.8915 52.1992 27.6502C51.4151 27.4659 50.6218 27.5118 49.8437 27.7012C48.8465 27.9424 47.8594 27.928 46.8622 27.7003C46.2132 27.5525 45.5498 27.4311 44.8855 27.5678C43.7396 27.804 42.5921 27.8685 41.4351 27.68C40.7318 27.4634 40.2043 26.963 39.6199 26.5545C40.2366 26.2546 40.8668 26.3897 41.4835 26.5298C42.4358 26.7456 43.382 26.8288 44.3359 26.5579C45.1319 26.3319 45.9295 26.3497 46.7271 26.5468C47.7753 26.8059 48.8218 26.845 49.8726 26.5536C50.6252 26.3455 51.3854 26.3616 52.1406 26.5409C53.193 26.7906 54.2353 26.8059 55.2852 26.5026C55.8348 26.3438 56.4047 26.354 56.9671 26.4772L56.9662 26.4763Z" fill="white"/>
<path d="M43.2936 28.7664C44.2806 28.4733 45.277 28.2211 46.3082 28.5082C47.6325 28.8768 48.9466 28.9015 50.2726 28.5141C51.1305 28.2635 51.9808 28.4886 52.8294 28.6169C53.0103 28.6441 53.1921 28.6704 53.373 28.6976C51.8236 29.333 50.2003 29.5954 48.5372 29.6303C46.738 29.6676 45.0001 29.3058 43.2936 28.7655V28.7664Z" fill="white"/>
<path d="M37.3 23.8192C37.327 23.8049 37.3506 23.8108 37.3708 23.836C37.3472 23.8301 37.3236 23.8242 37.3 23.8192Z" fill="white"/>
</g>
<mask id="mask0_5_493" style="mask-type:alpha" maskUnits="userSpaceOnUse" x="34" y="0" width="29" height="19">
<rect x="34.558" y="0.366333" width="27.8615" height="18.5177" fill="url(#paint0_linear_5_493)"/>
</mask>
<g mask="url(#mask0_5_493)">
<path fill-rule="evenodd" clip-rule="evenodd" d="M48.4038 29.502C56.0506 29.502 62.2496 23.303 62.2496 15.6562C62.2496 8.00935 56.0506 1.81036 48.4038 1.81036C40.757 1.81036 34.558 8.00935 34.558 15.6562C34.558 23.303 40.757 29.502 48.4038 29.502ZM48.3174 23.2987C52.5391 23.2987 55.9615 19.8763 55.9615 15.6546C55.9615 11.4328 52.5391 8.01045 48.3174 8.01045C44.0957 8.01045 40.6733 11.4328 40.6733 15.6546C40.6733 19.8763 44.0957 23.2987 48.3174 23.2987Z" fill="white"/>
</g>
<path d="M108.602 13.0796C109.082 13.0796 109.892 13.1096 110.402 13.1996C110.492 11.4292 109.412 10.9791 108.301 10.9791C107.221 10.9791 106.381 11.3992 105.601 12.0893L103.26 9.7188C104.701 7.76835 106.921 6.92816 109.142 6.92816C112.322 6.92816 115.293 8.66856 115.293 12.4794V22.0216C113.313 22.7418 111.122 23.0719 109.292 23.0719C104.881 23.0719 102.75 21.1514 102.75 17.9107C102.75 15.2401 104.701 13.0796 108.602 13.0796ZM110.342 19.171V16.5004C109.022 16.0803 107.491 16.5904 107.491 17.8807C107.491 19.441 109.172 19.471 110.342 19.171Z" fill="white"/>
<path d="M96.7336 22.7718H91.6324V7.22824H101.775V11.7293H96.7336V22.7718Z" fill="white"/>
<path d="M74.4907 7.22823V12.6895H76.1711C76.1711 8.8486 79.5019 6.95817 82.6526 6.92816C85.8033 6.95817 89.1341 8.81859 89.1341 12.6595V17.5806C89.1341 21.2414 85.8633 23.0719 82.6526 23.0719C79.4419 23.0719 76.1711 21.2414 76.1711 17.5806V16.7704H74.4907V22.7718H69.4196V7.22823H74.4907ZM82.6526 18.5708C83.3728 18.5708 84.0029 18.1207 84.0329 17.4006V12.5695C84.0329 11.8493 83.3127 11.4292 82.6526 11.4292C81.9924 11.4292 81.2723 11.8493 81.2723 12.5695V17.4006C81.3023 18.1207 81.9324 18.5708 82.6526 18.5708Z" fill="white"/>
<defs>
<linearGradient id="paint0_linear_5_493" x1="48.4887" y1="0.366333" x2="48.4887" y2="18.8841" gradientUnits="userSpaceOnUse">
<stop stop-color="#ED8D10"/>
<stop offset="1" stop-color="#DB5622"/>
</linearGradient>
<clipPath id="clip0_5_493">
<rect width="25.8356" height="9.30558" fill="white" transform="translate(35.4075 20.3281)"/>
</clipPath>
</defs>
</svg>
