<svg width="158" height="158" viewBox="0 0 158 158" fill="none" xmlns="http://www.w3.org/2000/svg">
<g clip-path="url(#clip0_262_12748)">
<path d="M27.9083 92.9726C27.9083 115.448 39.3134 135.26 56.6538 146.939C57.95 147.812 59.279 148.64 60.6391 149.42C69.0664 154.252 78.6789 157.253 88.9341 157.878C89.5868 157.917 90.2416 157.947 90.8993 157.968C91.5819 157.989 92.2666 158 92.9542 158C94.8913 158 96.8087 157.915 98.7025 157.749C98.8046 157.74 98.9068 157.731 99.0089 157.722C110.538 156.658 121.194 152.587 130.188 146.3C130.958 145.761 131.717 145.206 132.463 144.635C147.988 132.75 158 114.03 158 92.9726C158 57.0591 128.878 27.9453 92.9542 27.9453C57.03 27.9453 27.9083 57.0591 27.9083 92.9726Z" fill="#EAEFF9"/>
<path d="M76.2426 64.1979C75.6458 68.5937 75.4748 74.6455 78.3315 76.7749C80.7709 78.5934 84.4022 78.0207 87.2035 77.6838C90.839 77.2464 94.3964 77.4821 98.0722 77.4682C100.557 77.459 103.159 77.3539 105.311 76.1127C112.587 71.9173 104.717 58.6352 100.591 54.7175C97.773 52.0422 91.4997 48.8914 88.1907 52.6116C87.543 53.3397 87.1177 54.2339 86.7012 55.115C85.4231 53.5595 83.027 53.2028 81.1857 54.0171C78.4508 55.2267 77.3606 58.2705 76.7924 60.9898C76.6142 61.842 76.4112 62.9533 76.2426 64.1975V64.1979Z" fill="#102F5D"/>
<path d="M78.5625 79.7784C77.9405 80.8078 77.6244 82.0007 77.5092 83.1982C76.9133 89.3953 80.3681 96.7673 82.5141 102.419C83.1281 104.036 83.8536 105.747 85.309 106.683C86.3295 107.339 87.579 107.522 88.7899 107.608C91.9148 107.83 95.0775 107.505 98.0923 106.654C99.6053 106.226 101.132 105.635 102.236 104.515C104.225 102.498 104.355 99.3543 104.364 96.5219C104.38 91.2462 105.235 78.1683 99.198 75.4762C97.9515 74.9203 96.5304 74.9687 95.1666 75.0275C89.8562 75.2561 81.8341 74.3645 78.5629 79.778L78.5625 79.7784Z" fill="#FF6933"/>
<path d="M117.318 85.47C123.931 81.8036 132.316 75.5829 136.972 69.5689C146.514 57.244 152.014 34.6857 143.996 19.8166C143.607 19.0947 142.84 18.9334 142.079 19.2103C141.986 19.2443 141.013 17.372 140.251 17.5002C139.191 17.6783 139.404 18.8952 139.411 19.7317C139.428 21.7923 140.365 26.6297 138.614 28.1776C136.656 29.9083 136.421 26.0549 135.257 25.2347C131.955 22.9091 134.153 29.6617 134.555 30.6768V30.6785C137.435 37.958 136.812 45.2716 133.418 52.1855C129.004 61.1772 121.185 68.0236 111.68 71.2059C111.144 71.3854 106.825 72.9341 106.547 72.548C106.574 72.5854 113.697 87.4772 117.318 85.4696L117.318 85.47Z" fill="#FFB797"/>
<path d="M142.253 24.9562C142.901 23.2264 142.791 21.2087 141.961 19.5591C141.8 19.2402 142.282 18.9969 142.444 19.3162C143.34 21.0982 143.458 23.2772 142.759 25.1453C142.634 25.4802 142.128 25.2907 142.253 24.9562Z" fill="#231F20"/>
<path d="M144.126 28.1008C145.628 24.3314 144.664 22.7125 145.352 22.7062C145.5 22.7045 145.623 22.8247 145.624 22.9738C145.642 24.7806 145.297 26.6226 144.628 28.3008C144.495 28.6327 143.994 28.4327 144.126 28.1008Z" fill="#231F20"/>
<path d="M74.0723 93.1782C68.8102 99.2026 58.8467 100.97 51.2697 101.241C44.8464 101.472 39.9907 102.19 41.0612 94.1463C41.9846 87.2071 47.7682 89.0353 52.9504 87.976C59.8651 86.5621 65.8888 82.6377 72.3297 79.8751C72.6706 79.7288 73.0396 79.5797 73.4019 79.6595C73.7285 79.7314 73.9874 79.9772 74.2017 80.2339C75.3361 81.5923 75.6753 83.4264 75.9518 85.1743C76.2267 86.9104 76.4717 88.7357 75.8686 90.387C75.5996 91.1239 75.1709 91.7929 74.6952 92.4168C74.4959 92.6782 74.2883 92.9319 74.0727 93.179L74.0723 93.1782Z" fill="#FFB797"/>
<path d="M60.6423 149.42C69.0696 154.252 78.6821 157.253 88.9373 157.878C89.59 157.917 90.2448 157.947 90.9026 157.968C91.388 156.402 91.8752 154.837 92.3652 153.272C93.6404 149.202 95.7057 146.83 97.6084 143.165C101.858 134.98 103.133 125.122 103.163 116.018C103.18 112.569 102.918 108.841 100.374 106.125C97.2894 102.831 91.9613 102.162 87.3637 102.083C76.8875 101.903 71.2013 120.979 67.9188 128.445C66.8059 130.977 65.7459 133.542 64.7658 136.139C63.1258 140.482 61.709 144.914 60.6423 149.42Z" fill="#FF6933"/>
<path d="M89.2387 108.717C89.2497 111.673 90.0718 117.867 90.9187 122.362C93.2025 134.49 94.0406 146.552 98.7025 157.749C98.8046 157.74 98.9068 157.731 99.0089 157.722C110.538 156.658 121.194 152.587 130.188 146.3C128.525 138.262 119.988 115.486 116.068 110.808C110.153 103.749 100.221 98.8732 90.7161 103.97C89.0937 104.867 89.3131 107.059 89.2387 108.717Z" fill="#FF6933"/>
<path d="M99.4753 83.4528C100.505 85.4436 100.781 87.7184 101.943 89.6525C102.907 91.2567 102.743 92.5828 103.36 94.2794C103.439 94.4975 103.584 94.7332 103.815 94.7538C104.066 94.7765 104.253 94.5357 104.393 94.326C108.204 88.6188 113.708 89.1487 119.161 86.5738C119.889 86.2297 120.735 85.699 120.685 84.8953C120.664 84.5469 120.466 84.2373 120.276 83.9448C119.01 82.0091 117.787 80.3914 116.216 78.6968C114.511 76.859 113.222 74.638 112.472 72.2468C112.223 71.4531 111.987 70.5736 111.306 70.0955C110.261 69.3614 108.277 71.1812 107.347 71.6623C105.52 72.6073 103.691 73.5691 101.729 74.2081C98.9524 75.1123 96.0016 75.4107 93.1272 75.0548C92.904 75.0271 92.672 74.9968 92.4585 75.0745C91.9554 75.2586 91.7999 75.9561 91.9314 76.4943C92.1441 77.3662 92.8574 78.0061 93.6206 78.4132C94.3839 78.8204 95.2244 79.0511 95.9932 79.4469C96.8573 79.8914 97.228 80.457 97.721 81.2645C98.1396 81.9503 98.8419 82.4288 99.2798 83.112C99.3509 83.2225 99.416 83.3364 99.4761 83.4532L99.4753 83.4528Z" fill="#FF6933"/>
<path d="M66.9285 86.9444C67.2538 89.3873 67.6783 91.8168 68.2012 94.2248C68.5967 96.0479 69.2771 98.1269 71.0306 98.7648C72.597 99.3349 74.2959 98.4702 75.6946 97.5631C77.3216 96.5076 78.2525 96.1345 80.0522 96.187C81.4988 96.2294 82.529 96.4946 83.1594 94.5845C83.4952 93.5672 83.3889 92.4617 83.2334 91.4021C82.7337 87.9945 81.7367 84.7885 83.1594 81.4229C84.2888 78.7515 86.8286 75.9414 86.6983 75.0426C86.563 74.1073 71.7417 79.4788 70.2379 79.688C69.3982 79.8049 68.5357 79.862 67.7515 80.1847C65.0313 81.3032 66.6432 84.7986 66.929 86.9444H66.9285Z" fill="#FF6933"/>
<path d="M92.7364 74.2985C92.8529 76.7137 92.8541 79.6868 91.3003 81.5591C90.6888 82.281 89.8293 82.8125 88.8563 82.5356C86.4526 81.8201 85.9403 79.0562 85.8823 76.9339C85.9441 75.4078 86.5489 73.8582 86.8658 72.4098C87.1133 71.28 87.0915 71.343 87.1314 71.3157C89.2077 69.8451 91.3772 65.7698 92.4809 63.4711C92.9092 62.5748 92.4284 67.8976 92.7364 74.299V74.2985Z" fill="#FFB797"/>
<path d="M86.7228 73.0153C89.3887 72.1313 90.3125 67.8346 90.3125 67.8346C88.417 69.5018 88.0866 70.5388 87.4722 71.0544C86.985 71.4536 87.2002 70.9523 86.7228 73.0153Z" fill="#E2A086"/>
<path d="M92.5632 63.3564C92.6338 63.7446 92.5859 64.1639 92.3783 64.5996C92.1396 65.1001 91.8084 65.3522 91.6495 65.6463C91.1094 66.6472 90.5324 67.6308 89.8948 68.5732C89.0828 69.7732 87.5949 72.1355 85.8776 72.0296C82.4249 71.817 82.9746 63.2656 85.1181 61.9358C85.9898 61.395 87.0376 61.2311 88.0577 61.1223C88.6217 61.0622 89.1929 61.0156 89.754 61.0954C91.0245 61.2765 92.3476 62.1715 92.5632 63.3564Z" fill="#FFB797"/>
<path d="M97.4015 154.748C97.4288 154.748 97.4566 154.744 97.4835 154.735C97.6167 154.689 97.6877 154.545 97.6428 154.412C94.7255 145.837 93.742 130.894 93.5104 126.518C93.5037 126.395 93.4995 126.314 93.4974 126.279C93.4932 126.211 93.4621 126.148 93.4112 126.104C93.3604 126.059 93.294 126.036 93.2263 126.041C91.6431 126.147 89.9934 125.444 88.7006 124.113C88.6027 124.013 88.4413 124.01 88.3404 124.108C88.2395 124.206 88.237 124.368 88.3354 124.468C89.6395 125.81 91.2904 126.56 92.9136 126.56C92.9435 126.56 92.9729 126.56 93.0027 126.56C93.257 131.35 93.6512 135.374 93.9374 137.906C94.7448 145.054 95.8296 150.662 97.1607 154.575C97.1968 154.681 97.2956 154.748 97.4019 154.748L97.4015 154.748Z" fill="#231F20"/>
<path d="M63.1688 141.345C63.2751 141.345 63.3743 141.278 63.41 141.172C67.8513 127.985 68.8495 125.962 72.1563 119.259C72.5119 118.538 72.8797 117.792 73.2865 116.963C73.3483 116.837 73.2962 116.684 73.1701 116.622C73.044 116.56 72.8914 116.613 72.8292 116.739C72.4224 117.568 72.055 118.313 71.6995 119.034C68.3808 125.76 67.3797 127.79 62.9271 141.009C62.8821 141.142 62.954 141.287 63.0873 141.332C63.1142 141.341 63.1415 141.345 63.1684 141.345H63.1688Z" fill="#231F20"/>
<path d="M52.7047 85.6372C53.3633 82.4931 54.7338 79.4922 55.872 76.4791C56.5205 74.7619 57.1888 73.011 58.3551 71.5933C59.1276 70.6547 60.0985 69.8891 60.8352 68.9219C63.1948 65.8235 59.7307 61.8735 56.215 63.2067C53.5213 64.2281 51.9393 66.2916 50.6469 67.9983C46.7457 72.8732 44.7078 77.8056 42.5647 82.651C40.5981 87.0893 38.4714 92.2356 40.2299 97.0924C41.8825 101.656 45.5752 102.131 49.9463 100.874C50.4477 100.73 50.9546 100.552 51.3509 100.212C53.23 98.6042 52.2604 95.6743 52.0209 93.6201C51.7019 90.8877 52.1444 88.3087 52.7038 85.6368L52.7047 85.6372Z" fill="#FFB797"/>
<path d="M56.5173 71.0342C56.2021 71.4258 55.7881 71.5703 54.9 71.3426C53.8917 71.0842 52.73 70.0976 52.3068 69.1484C51.6415 67.6547 52.3959 65.9442 53.1382 64.487C54.1254 62.5492 55.1127 60.6117 56.1 58.6739C56.7464 57.4054 57.5516 56.0054 58.934 55.6646C60.2613 55.3377 63.0461 55.9239 63.9254 57.0512C64.4806 57.763 64.4571 58.7928 64.1137 59.6273C63.7703 60.4617 63.1567 61.1508 62.5746 61.8403C60.4475 64.3601 58.6049 67.1093 57.0864 70.035C56.8737 70.4447 56.7153 70.7879 56.5169 71.0337L56.5173 71.0342Z" fill="#C64B20"/>
<path d="M66.7788 60.6601C62.7704 61.9907 59.0807 58.9655 56.2559 56.6113C55.2228 55.7503 54.9875 55.2978 55.5074 54.1007C56.1861 52.5389 58.6747 47.2981 60.268 46.6674C61.3452 46.241 62.7612 46.8536 63.9389 47.4443C66.5594 48.7591 70.6614 49.8969 70.6442 55.2096C70.8279 57.7033 68.8802 59.8748 66.7792 60.6601H66.7788Z" fill="#102F5D"/>
<path d="M44.5041 30.2315C34.9058 22.283 37.6247 19.4485 34.6638 19.3964C31.2859 19.3368 32.4391 25.3587 32.1462 27.373C31.5956 31.1558 30.9811 35.0256 29.0066 38.3832C27.7352 40.545 17.5267 51.5183 22.1651 52.7276C23.1381 52.9813 24.1606 52.7372 25.155 52.5881C29.5379 51.9305 33.8635 53.1612 38.0375 54.3633C42.0571 55.5213 46.0251 56.0158 50.0789 56.8591C53.4009 57.552 55.9066 57.0814 58.1186 54.8011C69.2009 43.7152 54.0401 37.908 44.5041 30.2315Z" fill="#FF6933"/>
<path d="M21.7546 52.7221C18.3099 51.3349 18.5885 42.5883 22.3769 33.186C26.1653 23.7837 32.0289 17.2862 35.4737 18.6733C38.9184 20.0605 38.6398 28.8071 34.8514 38.2094C31.063 47.6117 25.1994 54.1092 21.7546 52.7221Z" fill="#C64B20"/>
<path d="M22.6914 49.383C24.7941 50.2296 27.9833 47.5338 30.7736 42.9425C31.7752 41.295 32.7251 39.403 33.5547 37.3429C34.2499 35.6172 34.803 33.9181 35.2102 32.305C36.6472 26.6314 36.2946 22.0326 34.0692 21.1372C31.2116 19.9864 26.3479 25.3768 23.2058 33.1765C20.0637 40.9761 19.8338 48.2317 22.691 49.3825L22.6914 49.383Z" fill="#102F5D"/>
<path d="M25.1044 36.5979C25.2133 37.4849 28.8757 41.2408 29.4019 41.7736C29.734 42.1093 30.2715 42.8341 30.8368 43.3804C31.8384 41.7329 32.7882 39.8408 33.6179 37.7807C34.3131 36.0551 34.8662 34.3559 35.2734 32.7428C31.1966 32.2432 27.3009 32.8823 26.5406 33.3286C25.4751 33.9542 25.0469 36.124 25.1044 36.5979Z" fill="#FF6933"/>
<path d="M59.3303 59.9252C58.2417 59.0676 56.9682 59.5454 56.8968 61.0118C56.8527 61.916 57.3873 62.2026 57.9156 62.7551C58.4825 63.3475 58.6998 64.1131 58.8074 64.9123C58.9348 65.8547 58.6885 68.4291 60.0301 68.2854C60.9156 68.1904 61.5709 67.3098 61.8424 66.5408C62.4194 64.9072 61.8693 63.1479 60.9266 61.7698C60.5903 61.2782 60.0028 60.4555 59.3294 59.9252H59.3303Z" fill="#FFB797"/>
<path d="M57.2539 65.5097C56.5322 65.5173 55.9762 65.3135 52.3734 64.2807C50.7339 63.8105 52.46 62.0185 53.5675 61.9273C54.8187 61.8244 58.1319 62.6551 58.532 64.5652C58.6303 65.0358 57.68 65.5055 57.2539 65.5097Z" fill="#FFB797"/>
<path d="M55.4161 67.3325C54.6974 67.4001 54.1266 67.2434 50.4503 66.5144C48.7771 66.1824 50.3478 64.253 51.4439 64.0694C52.6821 63.8622 56.0533 64.4144 56.611 66.2841C56.7484 66.7446 55.8402 67.2921 55.4161 67.332V67.3325Z" fill="#FFB797"/>
<path d="M54.3744 69.5703C53.7099 69.7006 53.164 69.58 49.6726 69.1022C48.0835 68.8846 49.383 66.7026 50.3896 66.4186C51.5269 66.098 54.7182 66.4119 55.3991 68.3577C55.5668 68.8371 54.767 69.4934 54.3744 69.5703Z" fill="#FFB797"/>
<path d="M58.8518 61.047C59.2822 61.047 59.7038 60.8226 59.937 60.4567C60.0118 60.3394 59.9774 60.1835 59.8597 60.1088C59.742 60.034 59.5865 60.0684 59.5117 60.1861C59.3549 60.4319 59.0439 60.5756 58.7552 60.5365C58.4664 60.497 58.2054 60.2751 58.1201 59.9966C58.0793 59.8634 57.9385 59.7886 57.8053 59.8289C57.6721 59.8697 57.5973 60.0104 57.6376 60.1436C57.7805 60.6113 58.2021 60.9701 58.6871 61.0361C58.7417 61.0436 58.7968 61.047 58.8518 61.047Z" fill="#231F20"/>
<path d="M56.2732 65.6949C56.8062 65.6949 57.3382 65.6071 57.8413 65.4252C57.9725 65.3777 58.0401 65.2332 57.9926 65.1025C57.9451 64.9714 57.8006 64.9038 57.6699 64.9512C56.2022 65.4819 54.455 65.1172 53.3219 64.0445C53.2206 63.9487 53.0613 63.9529 52.9655 64.0542C52.8697 64.1554 52.8739 64.3147 52.9752 64.4105C53.8549 65.2437 55.0657 65.6949 56.2732 65.6949Z" fill="#231F20"/>
<path d="M54.482 67.6005C54.999 67.6005 55.5164 67.5262 56.0157 67.3761C56.1489 67.3362 56.2246 67.1955 56.1846 67.0623C56.1447 66.9291 56.0043 66.853 55.8707 66.8934C54.8305 67.2056 53.702 67.1568 52.6933 66.7551C52.5638 66.7039 52.4171 66.7669 52.3659 66.8963C52.3142 67.0257 52.3776 67.1724 52.5071 67.2236C53.1371 67.4745 53.8096 67.6005 54.4825 67.6005H54.482Z" fill="#231F20"/>
<path d="M30.2082 12.4518C30.2216 12.451 30.2351 12.4493 30.2485 12.4464C30.4129 12.4132 30.5196 12.2531 30.486 12.0884C29.6437 7.92069 28.1983 3.90719 26.1889 0.160079C26.1095 0.0121782 25.9258 -0.0432847 25.7775 0.0357079C25.6295 0.115121 25.574 0.299157 25.653 0.447058C27.6343 4.14207 29.0599 8.09926 29.89 12.209C29.9207 12.3598 30.0581 12.4619 30.2078 12.4518H30.2082Z" fill="#231F20"/>
<path d="M18.1772 23.3032C18.2672 23.2973 18.3538 23.2511 18.4084 23.1708C18.5025 23.0322 18.4668 22.8431 18.3281 22.749L9.8239 16.9678C9.68521 16.8737 9.49608 16.9094 9.40194 17.0481C9.30779 17.1867 9.34351 17.3758 9.48221 17.4699L17.9868 23.2511C18.0453 23.2906 18.1125 23.3074 18.1777 23.3032H18.1772Z" fill="#231F20"/>
<path d="M12.7319 37.5462C12.85 37.5383 12.9576 37.4614 12.9987 37.3429C13.0538 37.1845 12.9697 37.0114 12.8113 36.9563C9.36783 35.7613 5.63184 35.3277 2.00597 35.7021C1.83911 35.7193 1.71765 35.8685 1.73488 36.0353C1.75211 36.2021 1.90133 36.3227 2.06818 36.3063C5.60579 35.9412 9.25183 36.3643 12.6117 37.5303C12.6512 37.5441 12.6919 37.5492 12.7314 37.5467L12.7319 37.5462Z" fill="#231F20"/>
<path d="M0.325227 58.2759C0.353806 58.2738 0.382388 58.268 0.410547 58.2579C4.4067 56.7801 8.30702 54.9566 12.0035 52.8381C12.1489 52.7549 12.1994 52.5691 12.1161 52.4233C12.0329 52.278 11.8472 52.2275 11.7013 52.3107C8.03383 54.4124 4.16419 56.2217 0.19956 57.6877C0.0423698 57.7461 -0.0383272 57.9205 0.0200939 58.078C0.0680075 58.207 0.194516 58.2843 0.325227 58.2759Z" fill="#231F20"/>
<path d="M15.9453 71.0762C16.0386 71.0699 16.1273 71.0211 16.1815 70.9362C17.4618 68.9303 18.5579 66.7929 19.4392 64.5824C19.5014 64.4265 19.4254 64.25 19.2694 64.1878C19.1135 64.1257 18.937 64.2017 18.8748 64.3576C18.0077 66.5324 16.9292 68.6358 15.6692 70.6093C15.5788 70.7509 15.6205 70.9383 15.7621 71.0287C15.8188 71.0648 15.8831 71.0799 15.9453 71.0757V71.0762Z" fill="#231F20"/>
<path d="M93.6051 64.3887C93.6371 64.5807 93.661 64.7916 93.5606 64.9584C93.4547 65.1341 93.2412 65.2089 93.0419 65.2572C90.8362 65.7891 88.5087 64.4937 87.1742 62.6592C87.075 62.5227 86.9708 62.376 86.814 62.3134C86.5127 62.1933 86.2004 62.4328 85.9453 62.6323C85.1959 63.2185 84.2792 63.5882 83.3332 63.687C82.9103 63.7311 82.4119 63.687 82.1736 63.3349C82.0303 63.1235 82.0202 62.8492 82.0492 62.5958C82.2337 61 83.7236 59.8727 85.2203 59.2882C87.1221 58.5457 89.4169 58.0226 91.0691 59.4588C92.4943 60.6979 93.3 62.5555 93.6056 64.3887H93.6051Z" fill="#102F5D"/>
<path d="M92.8221 67.6261C92.1025 67.6261 91.5192 67.0429 91.5192 66.3235C91.5192 65.6042 92.1025 65.021 92.8221 65.021C93.5417 65.021 94.125 65.6042 94.125 66.3235C94.125 67.0429 93.5417 67.6261 92.8221 67.6261Z" fill="#FFB797"/>
</g>
<defs>
<clipPath id="clip0_262_12748">
<rect width="158" height="158" fill="white" transform="matrix(-1 0 0 1 158 0)"/>
</clipPath>
</defs>
</svg>
