<svg width="20" height="20" viewBox="0 0 20 20" fill="none" xmlns="http://www.w3.org/2000/svg">
<path d="M9.16667 2.5H6.66667C4.36548 2.5 2.5 4.36548 2.5 6.66667V13.3333C2.5 15.6345 4.36548 17.5 6.66667 17.5H13.3333C15.6345 17.5 17.5 15.6345 17.5 13.3333V10" stroke="#8897B1" stroke-linecap="round" stroke-linejoin="round"/>
<path d="M14.584 4.375C14.699 4.37546 14.7918 4.46893 14.7915 4.58388C14.7912 4.69883 14.6978 4.79181 14.5829 4.79166C14.4679 4.79151 14.3748 4.69828 14.3748 4.58333C14.3745 4.52784 14.3965 4.47455 14.4358 4.43539C14.4751 4.39623 14.5285 4.37448 14.584 4.375" stroke="#8897B1" stroke-linecap="round" stroke-linejoin="round"/>
<path fill-rule="evenodd" clip-rule="evenodd" d="M17.4998 4.58332V4.58332C17.4998 2.97249 16.194 1.66666 14.5832 1.66666V1.66666C12.9723 1.66666 11.6665 2.97249 11.6665 4.58332V4.58332C11.6665 5.94875 13.1565 7.40734 14.0065 8.12862C14.3422 8.40157 14.8233 8.40157 15.159 8.12862C16.0098 7.40733 17.4998 5.94875 17.4998 4.58332Z" stroke="#8897B1" stroke-linecap="round" stroke-linejoin="round"/>
<path d="M3.3335 4.16666L15.8335 16.6667" stroke="#8897B1" stroke-linecap="round" stroke-linejoin="round"/>
<path d="M3.3335 15.8333L9.16683 10" stroke="#8897B1" stroke-linecap="round" stroke-linejoin="round"/>
</svg>
