<svg width="16" height="16" viewBox="0 0 16 16" fill="none" xmlns="http://www.w3.org/2000/svg">
<path d="M8.01364 6.85424C10 6.85424 11.9869 6.85328 13.9732 6.85471C15.1454 6.85519 15.9986 7.71064 15.9991 8.88439C16.0001 10.5734 16.0001 12.2619 15.9991 13.951C15.9982 15.1457 15.1477 15.9987 13.9552 15.9992C9.97622 16.0002 5.9968 16.0002 2.01786 15.9992C0.861916 15.9987 0.000549514 15.1347 0.000549514 13.9781C7.36209e-05 12.2834 -0.000402272 10.5886 0.000549514 8.8939C0.00102541 7.71207 0.856205 6.85519 2.03594 6.85471C4.02851 6.85376 6.02107 6.85424 8.01364 6.85424ZM8.01078 14.8464C9.25381 14.8464 10.4964 14.8478 11.7394 14.8459C12.2029 14.845 12.5451 14.6266 12.6998 14.2117C12.9491 13.5427 13.3931 13.0684 14.0351 12.7525C14.5752 12.4865 14.8589 12.0369 14.856 11.4198C14.8532 10.8103 14.5719 10.365 14.0375 10.1038C13.3955 9.7898 12.9444 9.32258 12.694 8.65173C12.5318 8.21735 12.1944 8.01847 11.7399 8.00848C11.4962 8.00324 11.2521 8.00753 11.0084 8.00753C8.7784 8.00753 6.54836 8.00705 4.3188 8.008C3.86766 8.008 3.50883 8.18499 3.34417 8.61938C3.0791 9.31878 2.61368 9.80455 1.94267 10.1343C1.38683 10.4074 1.14269 10.944 1.16887 11.4802C1.19932 12.1002 1.52341 12.5331 2.08211 12.8005C2.66127 13.0774 3.05959 13.5242 3.29373 14.1203C3.49741 14.6394 3.80008 14.8464 4.3545 14.8469C5.57278 14.8469 6.79154 14.8464 8.01078 14.8464ZM14.8437 14.2878C14.8484 13.9938 14.5933 13.7288 14.2964 13.7183C13.9966 13.7078 13.7225 13.9714 13.7177 14.2745C13.7129 14.5685 13.968 14.8335 14.2654 14.844C14.5653 14.8545 14.8389 14.5914 14.8437 14.2878ZM2.3191 8.57894C2.32148 8.27254 2.05641 8.00658 1.75088 8.00943C1.45726 8.01228 1.19314 8.2811 1.19552 8.57466C1.19837 8.87154 1.46344 9.13608 1.75707 9.13512C2.05926 9.13465 2.31672 8.88011 2.3191 8.57894Z" fill="#08151A"/>
<path d="M15.5613 6.29377C15.4599 6.2971 15.3767 6.25475 15.3019 6.19195C14.8898 5.84653 14.4101 5.72093 13.879 5.7214C9.96052 5.72521 6.04249 5.72473 2.12398 5.72236C1.61335 5.72188 1.15031 5.84749 0.743895 6.16626C0.573049 6.30043 0.376981 6.29805 0.236117 6.17958C0.0995353 6.06492 0.0733612 5.89316 0.159498 5.69095C0.355566 5.23088 0.689643 4.90687 1.14317 4.70609C4.00757 3.43814 6.87292 2.17209 9.73732 0.905086C10.2808 0.664817 10.8238 0.422169 11.3673 0.1819C12.3571 -0.255341 13.406 0.113864 13.8586 1.09397C14.4215 2.31339 14.9531 3.54709 15.498 4.7746C15.6113 5.0301 15.7264 5.28464 15.8354 5.54156C15.8768 5.63957 15.913 5.74186 15.9349 5.84558C15.9867 6.09204 15.8107 6.29852 15.5613 6.29377Z" fill="#08151A"/>
<path d="M10.2917 11.4312C10.2908 12.7087 9.28189 13.7164 8.00555 13.7155C6.74491 13.7145 5.71269 12.6816 5.71365 11.4212C5.7146 10.16 6.74633 9.1356 8.01459 9.1375C9.28951 9.13941 10.2932 10.1504 10.2917 11.4312Z" fill="#08151A"/>
</svg>
