<svg width="24" height="24" viewBox="0 0 24 24" fill="none" xmlns="http://www.w3.org/2000/svg">
<path d="M5.99734 13.1535C4.15958 13.9778 2.99609 15.1703 2.99609 16.5019C2.99609 18.9879 7.02677 21.0037 11.9998 21.0037C16.9729 21.0037 21.0036 18.9879 21.0036 16.5019C21.0036 15.1703 19.8401 13.9778 18.0023 13.1535" stroke="#08151A" stroke-width="1.7" stroke-linecap="round" stroke-linejoin="round"/>
<path d="M15.6547 17.0021C14.5706 17.7075 13.2934 18.0572 12.0012 18.0025C10.7089 18.0572 9.43177 17.7075 8.34766 17.0021" stroke="#08151A" stroke-width="1.7" stroke-linecap="round" stroke-linejoin="round"/>
<path d="M14.2022 3.90963C15.0941 4.80145 15.3609 6.1427 14.8782 7.30794C14.3956 8.47319 13.2585 9.23295 11.9973 9.23295C10.736 9.23295 9.59899 8.47319 9.11635 7.30794C8.6337 6.1427 8.90052 4.80145 9.79238 3.90963C10.377 3.32462 11.1702 2.99594 11.9973 2.99594C12.8244 2.99594 13.6176 3.32462 14.2022 3.90963" stroke="#08151A" stroke-width="1.7" stroke-linecap="round" stroke-linejoin="round"/>
<path d="M12.0002 9.23083V15.0012" stroke="#08151A" stroke-width="1.7" stroke-linecap="round" stroke-linejoin="round"/>
</svg>
