<svg width="13" height="14" viewBox="0 0 13 14" fill="none" xmlns="http://www.w3.org/2000/svg">
<path d="M6.51842 0.5C7.08168 0.5 7.94071 2.85399 8.34415 4.06099C8.48234 4.47442 8.8633 4.76051 9.29881 4.77956C10.5572 4.83463 13 5.0188 13 5.61885C13 6.20639 11.2826 7.60695 10.3447 8.32804C9.99443 8.59731 9.84877 9.0585 9.98039 9.48023C10.3555 10.682 11.0099 13.0338 10.5251 13.4318C10.0518 13.8204 8.16761 12.4554 7.15378 11.664C6.77104 11.3652 6.22867 11.3649 5.8459 11.6636C4.83197 12.4549 2.95148 13.8205 2.51175 13.4318C2.06024 13.0328 2.68255 10.6696 3.03569 9.47073C3.15863 9.05339 3.01166 8.60175 2.66663 8.33673C1.73127 7.61826 0 6.20876 0 5.61885C0 5.01785 2.45047 4.83405 3.70712 4.77931C4.13971 4.76046 4.519 4.47792 4.65936 4.0683C5.0722 2.86353 5.95403 0.5 6.51842 0.5Z" fill="#E7E7E7"/>
</svg>
