<svg width="16" height="17" viewBox="0 0 16 17" fill="none" xmlns="http://www.w3.org/2000/svg">
<path d="M8.02092 0.500001C12.4415 0.502666 16.0035 4.08585 16 8.52597C15.9964 12.9359 12.4078 16.5035 7.98496 16.5C3.56348 16.4964 -0.0229732 12.8658 0.000110812 8.45626C0.0231948 4.06231 3.60255 0.497337 8.02092 0.500001ZM13.954 8.51088C13.9579 5.28157 11.246 2.55445 8.02225 2.54601C4.78916 2.53802 2.05281 5.25982 2.04926 8.48779C2.04615 11.7149 4.76119 14.4451 7.9823 14.4531C11.2176 14.4611 13.95 11.7424 13.954 8.51088Z" fill="#08151A"/>
<path d="M6.9231 8.69292C6.98258 7.37865 7.03718 6.17226 7.09134 4.96544C7.09667 4.84378 7.09534 4.72167 7.10022 4.59957C7.12197 4.07741 7.5002 3.69822 7.99828 3.69689C8.49503 3.69556 8.88169 4.07652 8.90299 4.59335C8.93984 5.48449 8.97402 6.37606 9.00953 7.26764C9.02019 7.53361 9.03617 7.79913 9.04194 8.06464C9.04594 8.24536 9.10587 8.38611 9.24171 8.51665C9.86897 9.12006 10.4882 9.73147 11.1057 10.3451C11.3841 10.6213 11.4445 11.0062 11.2811 11.3579C11.1324 11.678 10.791 11.8836 10.4328 11.8658C10.2388 11.8561 10.0643 11.7899 9.91248 11.6687C9.0375 10.9698 8.16209 10.2718 7.28889 9.57074C6.97326 9.3172 6.88714 8.97354 6.9231 8.69292Z" fill="#08151A"/>
</svg>
