<svg width="20" height="20" viewBox="0 0 20 20" fill="none" xmlns="http://www.w3.org/2000/svg">
<g clip-path="url(#clip0_246_22512)">
<path d="M18.7617 11.4667C18.4527 11.0401 18.2863 10.5268 18.2863 10C18.2863 9.47323 18.4527 8.95992 18.7617 8.53333L19.395 7.65833C19.4725 7.55148 19.5234 7.42777 19.5437 7.29738C19.564 7.16699 19.553 7.03365 19.5117 6.90833C19.47 6.78432 19.4001 6.67165 19.3076 6.57913C19.2151 6.48661 19.1024 6.41674 18.9784 6.375L17.9534 6.04166C17.4513 5.87969 17.0136 5.56237 16.7035 5.13549C16.3935 4.70861 16.2271 4.19426 16.2284 3.66666V2.58333C16.2283 2.4518 16.197 2.32216 16.1372 2.20502C16.0774 2.08787 15.9907 1.98655 15.8843 1.90933C15.7778 1.83211 15.6545 1.7812 15.5246 1.76075C15.3947 1.74029 15.2618 1.75089 15.1367 1.79166L14.1034 2.125C13.6017 2.28733 13.0616 2.2869 12.5602 2.12375C12.0588 1.96061 11.6218 1.64312 11.3117 1.21666L10.6784 0.341664C10.5975 0.240254 10.4948 0.158368 10.378 0.10209C10.2611 0.0458112 10.1331 0.0165863 10.0034 0.0165863C9.87367 0.0165863 9.74563 0.0458112 9.62877 0.10209C9.51192 0.158368 9.40924 0.240254 9.32837 0.341664L8.69504 1.21666C8.38495 1.64312 7.94797 1.96061 7.44658 2.12375C6.94518 2.2869 6.40504 2.28733 5.90337 2.125L4.87004 1.79166C4.74499 1.75089 4.61206 1.74029 4.48213 1.76075C4.35221 1.7812 4.22896 1.83211 4.12248 1.90933C4.016 1.98655 3.92932 2.08787 3.86951 2.20502C3.8097 2.32216 3.77847 2.4518 3.77837 2.58333V3.66666C3.77965 4.19426 3.61326 4.70861 3.30321 5.13549C2.99316 5.56237 2.55549 5.87969 2.05337 6.04166L1.02837 6.375C0.904367 6.41674 0.791697 6.48661 0.699175 6.57913C0.606653 6.67165 0.536787 6.78432 0.495041 6.90833C0.453717 7.03365 0.442745 7.16699 0.463028 7.29738C0.483311 7.42777 0.534269 7.55148 0.611707 7.65833L1.24504 8.53333C1.55408 8.95992 1.72047 9.47323 1.72047 10C1.72047 10.5268 1.55408 11.0401 1.24504 11.4667L0.611707 12.3417C0.534269 12.4485 0.483311 12.5722 0.463028 12.7026C0.442745 12.833 0.453717 12.9663 0.495041 13.0917C0.536787 13.2157 0.606653 13.3283 0.699175 13.4209C0.791697 13.5134 0.904367 13.5833 1.02837 13.625L2.05337 13.9583C2.55549 14.1203 2.99316 14.4376 3.30321 14.8645C3.61326 15.2914 3.77965 15.8057 3.77837 16.3333V17.4167C3.77847 17.5482 3.8097 17.6778 3.86951 17.795C3.92932 17.9121 4.016 18.0134 4.12248 18.0907C4.22896 18.1679 4.35221 18.2188 4.48213 18.2392C4.61206 18.2597 4.74499 18.2491 4.87004 18.2083L5.89504 17.875C6.39777 17.7099 6.93996 17.709 7.44327 17.8722C7.94658 18.0355 8.38495 18.3546 8.69504 18.7833L9.32837 19.6583C9.40618 19.7643 9.50782 19.8504 9.62508 19.9098C9.74235 19.9691 9.87194 20.0001 10.0034 20.0001C10.1348 20.0001 10.2644 19.9691 10.3817 19.9098C10.4989 19.8504 10.6006 19.7643 10.6784 19.6583L11.3117 18.7833C11.6223 18.3552 12.0607 18.0366 12.5638 17.8734C13.067 17.7102 13.6089 17.7107 14.1117 17.875L15.1367 18.2083C15.2618 18.2491 15.3947 18.2597 15.5246 18.2392C15.6545 18.2188 15.7778 18.1679 15.8843 18.0907C15.9907 18.0134 16.0774 17.9121 16.1372 17.795C16.197 17.6778 16.2283 17.5482 16.2284 17.4167V16.3333C16.2271 15.8057 16.3935 15.2914 16.7035 14.8645C17.0136 14.4376 17.4513 14.1203 17.9534 13.9583L18.9784 13.625C19.1024 13.5833 19.2151 13.5134 19.3076 13.4209C19.4001 13.3283 19.47 13.2157 19.5117 13.0917C19.553 12.9663 19.564 12.833 19.5437 12.7026C19.5234 12.5722 19.4725 12.4485 19.395 12.3417L18.7617 11.4667ZM13.9284 8.9225L9.76171 13.0892C9.60543 13.2454 9.39351 13.3332 9.17254 13.3332C8.95157 13.3332 8.73965 13.2454 8.58337 13.0892L6.08337 10.5892C6.00378 10.5123 5.9403 10.4203 5.89662 10.3187C5.85295 10.217 5.82996 10.1076 5.829 9.997C5.82804 9.88635 5.84912 9.77662 5.89102 9.6742C5.93292 9.57179 5.9948 9.47875 6.07304 9.4005C6.15129 9.32226 6.24433 9.26038 6.34675 9.21848C6.44916 9.17658 6.55889 9.15549 6.66954 9.15645C6.78019 9.15742 6.88954 9.1804 6.99121 9.22408C7.09288 9.26775 7.18483 9.33124 7.26171 9.41083L9.17004 11.3217L12.7475 7.74416C12.9047 7.59237 13.1152 7.50837 13.3337 7.51027C13.5522 7.51217 13.7612 7.59981 13.9157 7.75431C14.0702 7.90882 14.1579 8.11783 14.1598 8.33633C14.1617 8.55483 14.0777 8.76533 13.9259 8.9225H13.9284Z" fill="#18ABC6"/>
</g>
<defs>
<clipPath id="clip0_246_22512">
<rect width="20" height="20" fill="white"/>
</clipPath>
</defs>
</svg>
