<svg width="389" height="452" viewBox="0 0 389 452" fill="none" xmlns="http://www.w3.org/2000/svg">
<path d="M47.9727 215.047C42.7104 194.859 42.7495 189.56 42.7495 189.56C42.7495 189.56 24.769 195.514 17.8711 198.831C19.3389 205.546 20.9121 218.277 22.5243 230.767C32.5491 233.408 42.648 223.467 47.9727 215.047Z" fill="#F7D4AB"/>
<path d="M16.5957 104.416C16.5957 104.416 15.7876 101.993 16.3068 100.577C16.6308 99.6912 18.6998 98.6066 19.6718 99.621C20.2652 100.237 20.7297 100.628 21.409 102.298L16.5918 104.416H16.5957Z" fill="#FFDEBD"/>
<path d="M52.7939 251.111C52.7939 251.111 42.4139 189.634 42.1797 185.522C41.9415 181.355 45.6032 164.414 45.8179 160.652C46.0326 156.891 37.9519 143.98 37.9519 143.98C37.9519 143.98 32.8849 133.028 30.0235 125.583C28.2356 119.001 25.7411 113.024 25.2141 111.919C24.7183 108.513 20.557 95.4462 16.38 101.693C15.0918 103.62 16.989 108.587 18.9916 114.549C20.1588 118.997 25.218 135.872 24.7027 136.941C24.0274 138.342 11.0436 149.993 11.0436 149.993C11.4418 151.569 4.53612 152.388 1.75667 157.695C1.35459 158.463 0 165.28 0 165.28C2.65453 173.228 8.25636 187.66 16.6962 195.951C22.6923 201.843 23.6799 241.504 26.0378 251.988L52.7861 251.111H52.7939Z" fill="#F7D4AB"/>
<path d="M19.6406 100.238C19.6406 100.238 20.8742 100.803 21.9672 102.715C23.0603 104.623 24.8248 107.983 25.2932 111.857C25.2932 111.857 28.99 120.027 30.0635 125.56C30.0635 125.56 34.2444 135.611 34.9822 137.39C34.9822 137.39 29.8488 128.705 29.0642 125.845C28.2796 122.985 25.6641 114.576 24.4305 112.075C24.4305 112.075 22.3225 102.766 19.6406 100.241V100.238Z" fill="url(#paint0_linear_112_6551)"/>
<path d="M16.8704 101.041C16.8704 101.041 16.0272 101.724 15.9608 103.097C15.8906 104.471 16.7884 109.75 18.8808 114.561C18.8808 114.561 24.2328 134.206 24.3226 134.936C24.3226 134.936 24.713 133.356 22.3434 122.154C21.4573 117.975 19.603 113.25 18.428 110.441C17.253 107.635 15.9374 103.328 16.8743 101.045L16.8704 101.041Z" fill="url(#paint1_linear_112_6551)"/>
<path d="M9.71635 171.698C6.56215 167.219 0.00390625 165.49 0.00390625 165.28C0.00390625 164.811 24.9838 142.958 29.8634 143.875C34.7392 144.792 38.5726 152.58 37.9129 158.76C37.2532 164.944 18.5895 187.192 14.6741 189.233C13.015 190.095 15.244 179.545 9.71635 171.694V171.698Z" fill="url(#paint2_linear_112_6551)"/>
<path d="M6.11719 154.167C6.11719 154.167 6.2343 165.818 12.773 168.92C14.5375 169.755 25.7802 165.775 26.6195 165.073C27.4588 164.371 35.2194 158.736 35.2194 158.736L34.6729 144.624L26.7522 142.7L6.11719 154.164V154.167Z" fill="url(#paint3_linear_112_6551)"/>
<path d="M15.1641 143.469C15.1641 143.469 15.4998 138.42 16.7763 137.491C17.4438 137.008 20.844 134.819 22.8232 135.654C24.7984 136.489 28.1361 148.389 28.6943 150.227C29.2526 152.068 33.6911 163.118 29.315 164.413C26.0242 165.389 24.8921 162.205 22.8271 158.038C21.6091 155.576 15.3553 145.993 15.1641 143.469Z" fill="#F7D4AB"/>
<path d="M8.42035 151.799C8.08854 150.523 8.27982 147.999 8.44768 146.727C8.5726 145.783 9.12692 144.971 10.4112 144.237C13.5186 142.466 16.1341 142.997 17.3989 145.974C18.3202 148.147 22.6416 157.539 23.0124 158.319C26.4789 165.654 27.611 169.404 24.4685 171.113C20.9122 173.048 16.2083 163.262 15.2948 161.62C14.5804 160.34 8.42426 151.795 8.42426 151.795L8.42035 151.799Z" fill="#F7D4AB"/>
<path d="M23.1993 135.919C23.1993 135.919 23.5506 136.239 23.8434 136.801C24.9325 138.873 26.9351 143.89 28.118 148.213C28.118 148.213 23.2617 143.391 22.3717 140.071C21.4817 136.75 22.9963 136.021 23.1954 135.919H23.1993Z" fill="url(#paint4_linear_112_6551)"/>
<path d="M36.8275 141.534L34.8484 137.093L23.9023 133.199L24.7729 136.672L36.8275 141.534Z" fill="url(#paint5_linear_112_6551)"/>
<path d="M25.649 173.231C25.852 170.602 35.0687 158.51 34.6353 157.078C33.2339 152.462 33.23 148.803 33.23 148.803C33.23 148.803 26.5781 145.911 24.0446 141.272C22.3308 138.135 22.7719 134.124 31.1532 137.956C34.0771 139.29 37.3718 140.64 39.433 142.653C41.3536 144.53 46.9321 157.355 46.6002 159.419C46.1591 162.17 38.2307 186.466 36.8253 187.313C35.4239 188.16 24.3451 190.064 25.649 173.231Z" fill="#F7D4AB"/>
<path d="M32.3652 138.482C30.4368 137.702 24.5812 135.088 23.9762 135.743C23.375 136.399 22.0711 138.42 26.6697 140.059C32.174 142.021 32.8025 138.658 32.3613 138.482H32.3652Z" fill="#FFDEBD"/>
<path d="M40.8392 156.544C43.6576 160.172 43.1658 171.784 40.0233 179.923C36.9823 187.801 31.3648 192.377 29.7136 186.17C27.2737 177.004 30.6075 169.318 32.6257 166.641C36.3382 161.725 39.9686 155.424 40.8392 156.544Z" fill="url(#paint6_linear_112_6551)"/>
<path d="M33.4336 138.998C33.4336 138.998 36.8259 140.172 39.3985 142.517C40.5462 143.563 43.5715 150.02 44.1688 151.206C44.7661 152.392 47.3113 158.479 46.9522 159.536C46.5774 160.648 43.8643 172.744 43.8643 172.744C43.8643 172.744 45.4609 161.261 45.2501 159.014C45.0432 156.766 40.6281 145.026 38.5006 142.923C36.3731 140.82 33.4336 139.005 33.4336 139.005V138.998Z" fill="url(#paint7_linear_112_6551)"/>
<path d="M16.0017 157.628C16.1578 157.066 18.7538 155.104 20.1357 155.802C21.5176 156.501 23.0869 161.397 22.5248 161.877C21.9627 162.353 18.7421 163.403 18.5469 163.387C18.3517 163.372 15.3537 159.993 16.0017 157.628Z" fill="url(#paint8_linear_112_6551)"/>
<path d="M21.7894 151.932C21.9534 150.96 25.6502 148.541 26.6027 150.356C27.8558 152.747 28.7029 156.415 28.4687 157.316C28.2345 158.218 25.6151 159.708 24.8538 158.233C24.0926 156.758 21.5825 153.169 21.7894 151.932Z" fill="url(#paint9_linear_112_6551)"/>
<path d="M22.6124 164.039C23.5805 163.906 26.4146 168.631 26.0047 169.654C25.6456 170.543 23.1745 171.999 22.6085 171.64C21.3983 170.871 19.9461 167.238 20.0437 165.998C20.1413 164.757 21.5076 164.187 22.6163 164.039H22.6124Z" fill="#FFDEBD"/>
<path d="M27.6562 157.745C28.6009 157.648 31.2125 162.334 30.7792 163.317C30.4044 164.172 27.949 165.514 27.4103 165.147C26.2548 164.363 24.9587 160.781 25.0914 159.575C25.2242 158.37 26.5749 157.859 27.6562 157.745Z" fill="#FFDEBD"/>
<path d="M8.34756 151.577C9.33911 151.799 14.3632 158.869 15.0346 160.016C15.7061 161.163 20.98 169.58 20.2734 170.621C19.5668 171.659 16.7913 173.907 15.5382 173.029C14.2851 172.151 1.3521 159.236 1.62536 158.073C1.89862 156.907 4.97475 150.824 8.35147 151.577H8.34756Z" fill="#F7D4AB"/>
<path d="M10.5851 164.382C10.6398 163.863 12.6385 161.753 13.9618 162.162C15.2852 162.576 17.3893 166.657 16.9638 167.164C16.5383 167.668 13.8525 169.068 13.6808 169.084C13.509 169.1 10.3665 166.563 10.5851 164.382Z" fill="url(#paint10_linear_112_6551)"/>
<path d="M16.3445 167.059C17.176 166.801 20.3732 170.547 20.1624 171.507C19.9789 172.342 18.0153 173.992 17.461 173.758C16.2821 173.259 14.4629 170.274 14.3653 169.166C14.2677 168.058 15.3881 167.356 16.3445 167.059Z" fill="#FFDEBD"/>
<path d="M8.34561 151.577C8.10358 149.431 8.31828 147.648 8.31828 147.648L16.7035 162.806L8.34561 151.577Z" fill="url(#paint11_linear_112_6551)"/>
<path d="M15.1719 143.52C15.1719 143.52 15.2343 140.948 15.9097 139.068L23.9045 160.235C23.9045 160.235 18.4861 147.074 15.1758 143.524L15.1719 143.52Z" fill="url(#paint12_linear_112_6551)"/>
<path d="M24.7617 142.396C24.7617 142.396 27.4631 146.703 33.2289 148.803C33.2289 148.803 33.2991 154.023 34.56 156.825L28.8606 167.086C28.8606 167.086 37.1326 157.332 36.8281 156.844C36.5275 156.356 34.5366 149.224 34.5366 148.217C34.5366 147.211 25.9289 144.14 24.7617 142.396Z" fill="url(#paint13_linear_112_6551)"/>
<path d="M0.429685 163.204C0.429685 163.204 1.29631 158.522 1.83112 157.301C2.42839 155.939 5.36398 150.648 8.34252 151.581L10.6574 154.69C10.6574 154.69 7.92482 152.529 7.51884 152.556C7.35878 152.568 2.78753 157.215 2.61186 157.336C2.4362 157.461 0.425781 163.2 0.425781 163.2L0.429685 163.204Z" fill="url(#paint14_linear_112_6551)"/>
<path d="M8.3125 147.652C8.3125 147.652 8.32031 146.922 8.54282 146.118C8.92148 144.721 12.306 142.298 15.1713 143.52C15.1713 143.52 12.1772 144.132 10.9748 145.841C10.362 146.715 9.4719 148.276 9.98329 150.668L8.3164 147.655L8.3125 147.652Z" fill="url(#paint15_linear_112_6551)"/>
<path d="M17.1672 142.396L15.9102 139.068C15.9102 139.068 16.1522 138.19 16.4684 137.733C16.7651 137.304 20.5283 134.67 22.8275 135.658C22.8275 135.658 19.3415 136.477 18.2797 138.654C17.2179 140.835 17.1672 142.4 17.1672 142.4V142.396Z" fill="url(#paint16_linear_112_6551)"/>
<path d="M10.6602 188.405C12.4676 191.929 16.75 195.561 17.2691 196.806C17.7883 198.051 19.5801 209.249 20.2828 213.841C20.2828 213.841 20.0213 201.433 23.0427 199.311C26.0642 197.188 28.8593 195.421 28.8593 195.421C28.8593 195.421 22.2347 196.306 20.6693 195.951C19.1039 195.596 11.9523 189.876 10.6602 188.401V188.405Z" fill="url(#paint17_linear_112_6551)"/>
<path d="M42.4539 181.636C42.4539 181.636 42.1416 185.577 42.3759 187.231C42.6101 188.885 46.7949 210.431 46.7949 210.431C46.7949 210.431 42.1924 193.302 37.9881 192.951C33.7838 192.596 39.8033 191.008 42.4539 181.64V181.636Z" fill="url(#paint18_linear_112_6551)"/>
<path d="M19.4219 208.371L20.753 214.785C20.753 214.785 26.7452 215.308 31.5156 213.072C36.2859 210.833 44.8468 200.2 44.8468 200.2L44.1714 196.763C44.1714 196.763 32.1363 212.526 19.4258 208.375L19.4219 208.371Z" fill="url(#paint19_linear_112_6551)"/>
<path d="M138.948 169.283C138.948 169.283 128.092 170.481 122.912 176.887C117.736 183.294 102.136 206.377 96.8195 217.392C91.5026 228.402 64.4889 265.648 64.4889 265.648L59.4258 313.242C59.4258 313.242 63.5169 313.078 69.8214 309.746C76.4304 306.25 129.259 251.996 129.259 251.996L138.948 169.287V169.283Z" fill="#F1F0F5"/>
<path d="M64.4968 265.641C64.4968 265.641 57.8449 244.298 54.8156 232.569C54.2183 230.263 52.7974 229.124 51.9386 228.66C47.9685 230.88 38.7791 233.365 23.4609 240.81C26.4161 256.444 26.3302 261.434 29.6483 272.543C35.7147 292.855 40.9262 310.94 43.4128 312.59C45.8995 314.245 52.7974 313.847 59.4337 313.234C65.5157 312.672 64.4968 265.641 64.4968 265.641Z" fill="#F1F0F5"/>
<path d="M54.25 231.2C54.9605 236.233 58.4582 254.06 59.4302 267.595C60.4062 281.232 60.1212 293.932 61.671 294.291C65.481 295.169 64.4934 265.641 64.4934 265.641C62.8772 258.879 59.4302 248.937 54.25 231.2Z" fill="url(#paint20_linear_112_6551)"/>
<path d="M81.9102 299.215C81.9102 299.215 124.402 257.95 127.427 253.978C130.453 250.006 132.003 211.348 132.003 211.348L81.9141 299.215H81.9102Z" fill="url(#paint21_linear_112_6551)"/>
<path d="M40.2001 242.094C35.9724 235.835 32.4474 231.836 29.1721 229.124C26.6035 229.6 27.2125 242.507 23.4649 240.81C20.3107 246.233 25.1786 263.147 28.5202 277.713C31.4714 290.573 34.934 306.57 43.4168 312.59C48.394 316.121 50.018 256.628 40.204 242.094H40.2001Z" fill="url(#paint22_linear_112_6551)"/>
<path d="M73.582 252.741C73.582 252.741 91.3635 224.879 94.6777 219.136C99.9595 209.99 113.458 188.257 122.32 174.5C122.32 174.5 122.792 197.692 111.019 217.669C99.2451 237.646 88.9432 242.905 73.582 252.738V252.741Z" fill="url(#paint23_linear_112_6551)"/>
<path d="M276.833 247.103C274.077 248.676 272.968 250.51 270.926 253.007C266.527 258.395 256.409 255.051 253.606 244.349C251.498 236.303 252.798 189.787 267.413 179.295C267.413 179.295 277.208 180.871 283.902 185.288C302.64 197.649 343.118 249.718 345.741 252.714C348.364 255.711 388.467 299.161 385.844 316.02C383.998 327.87 348.279 346.922 339.659 353.29C333.995 357.472 335.713 357.074 282.087 386.735L275.256 369.205C324.809 330.371 324.052 330.41 340.12 306.656C340.12 306.656 283.364 254.45 276.829 247.103H276.833Z" fill="#F7D4AB"/>
<path d="M177.01 21.9098C200.464 18.0393 257.204 35.8976 259.422 83.2181C261.639 130.539 260.932 175.155 254.089 181.956C247.246 188.757 146.265 179.939 144.047 178.156C141.83 176.372 135.174 136.493 137.391 121.908C139.609 107.327 145 35.9015 147.849 32.031C150.703 28.1604 177.01 21.9137 177.01 21.9137V21.9098Z" fill="url(#paint24_linear_112_6551)"/>
<path d="M151.223 99.1645V102.941C151.223 102.941 148.479 110.87 148.424 121.432C148.358 133.812 171.827 138.717 168.474 167.968L128.23 179.092C128.23 179.092 129.019 148.28 130.862 136.949C132.704 125.618 151.227 99.1684 151.227 99.1684L151.223 99.1645Z" fill="url(#paint25_linear_112_6551)"/>
<path d="M246.917 114.998C246.917 114.998 239.129 130.449 237.181 134.772C235.233 139.099 231.779 150.008 232.423 159.478C233.067 168.947 238.899 181.956 238.899 181.956H267.174C267.174 181.956 265.643 125.384 246.917 114.998Z" fill="url(#paint26_linear_112_6551)"/>
<path d="M151.678 179.353C155.231 173.021 161.996 165.623 161.996 165.623L151.304 167.554C151.304 167.554 150.652 169.006 149.523 171.519C149.578 174.702 150.082 178.116 150.609 181.538C151.065 180.539 151.432 179.79 151.678 179.349V179.353Z" fill="url(#paint27_linear_112_6551)"/>
<path d="M140.176 169.892C140.176 169.892 142.518 244.255 169.649 246.167C196.776 248.079 236.406 208.64 258.474 176.614C258.474 176.614 225.581 170.539 223.52 164.144C220.085 153.5 223.243 131.51 223.598 130.519L178.284 131.475C178.284 131.475 175.914 163.321 174.474 165.171C172.303 167.96 140.176 169.888 140.176 169.888V169.892Z" fill="#F6D3AA"/>
<path d="M225.371 164.558C222.916 160.008 224.458 129.528 224.223 135.092L174.759 126.325C174.759 126.325 175.06 135.623 175.341 145.576C175.544 152.732 175.361 160.41 174.982 163.473C174.892 163.926 158.411 166.618 158.411 166.618L141.062 169.841C141.062 169.841 156.697 172.463 180.264 173.239C180.264 173.239 181.103 168.772 181.423 164.999C193.802 165.295 205.849 163.325 216.19 156.083C216.19 156.083 215.748 173.427 217.181 174.141C218.614 174.859 250.253 179.357 250.253 179.357L251.897 174.699C251.897 174.699 228.24 169.876 225.371 164.558Z" fill="url(#paint28_linear_112_6551)"/>
<path d="M175.277 159.248C175.277 159.248 199.507 164.691 223.972 145.088L224.382 134.167L174.648 131.744C174.648 131.744 175.57 147.784 175.277 159.248Z" fill="url(#paint29_linear_112_6551)"/>
<path d="M161.998 166.169L166.394 165.389C166.394 165.389 167.573 182.018 169.204 195.674C170.336 205.144 173.791 223.256 176.418 238.73C176.418 238.73 192.701 224.895 203.932 211.566C214.089 199.514 225.02 185.752 235.052 170.118C235.052 170.118 238.987 171.226 241.751 172.217C241.751 172.217 194.333 228.551 193.021 230.615C191.709 232.679 169.661 250.986 169.661 250.986C169.661 250.986 157.833 225.328 158.918 215.035C160.003 204.742 161.994 166.177 161.994 166.177L161.998 166.169Z" fill="url(#paint30_linear_112_6551)"/>
<path d="M269.202 441.415C253.322 392.51 241.548 362.63 239.924 357.386C237.629 349.946 238.933 326.676 242.774 317.741C246.931 308.068 247.17 274.482 247.17 274.482L247.857 253.311C252.354 217.501 266.719 182.17 283.751 182.908C273.906 178.386 238.496 169.966 238.496 169.966C210.752 216.233 172.683 245.184 172.683 245.184L158.411 166.614L124.566 173.349C115.56 188.659 125.549 196.915 117.328 218.176C110.411 236.069 105.5 248.446 104.984 265.141C104.539 279.644 122.965 298.263 123.789 333.094C124.523 364.293 123.375 396.283 111.488 442.136L263.674 443.424C265.533 442.78 267.375 442.117 269.202 441.418V441.415Z" fill="#F1F0F5"/>
<path d="M193.931 188.718C196.613 186.903 200.833 180.356 200.833 180.356C199.002 180.774 193.99 184.445 192.994 183.684C191.995 182.923 188.411 175.647 188.271 177.125C188.122 178.608 191.249 190.532 193.931 188.718Z" fill="url(#paint31_linear_112_6551)"/>
<path d="M145.025 190.727C161.901 203.849 168.225 254.532 176.582 255.96C184.94 257.384 219.082 215.136 241.255 201.149C245.936 198.195 228.564 256.386 200.836 262.039C173.108 267.693 125.104 259.651 126.045 245.71C128.801 204.91 145.025 190.727 145.025 190.727Z" fill="url(#paint32_linear_112_6551)"/>
<path d="M361.857 324.616C369.239 318.673 385.162 311.623 376.894 292.344C376.894 292.344 388.266 309.387 387.575 314.908C386.786 321.205 371.445 333.718 359.101 342.712C346.679 351.764 279.922 388.273 279.922 388.273C323.456 355.775 323.031 355.876 361.857 324.612V324.616Z" fill="url(#paint33_linear_112_6551)"/>
<path d="M281.676 182.174C281.676 182.174 288.015 183.255 321.494 223.248C354.972 263.245 390.379 299.984 387.58 314.908C385.394 326.578 342.621 356.052 321.767 368.932C315.947 372.529 312.999 371.558 312.999 371.558L294.898 351.932C294.898 351.932 336.874 311.404 337.593 309.734C338.311 308.064 279.236 247.97 276.211 249.362C273.189 250.755 247.632 250.974 247.632 250.974C247.632 250.974 237.693 260.447 247.335 221.691C259.062 174.57 281.676 182.17 281.676 182.17V182.174Z" fill="#F1F0F5"/>
<path d="M113.459 229.698C113.459 229.698 105.195 269.964 150.474 272.543C191.823 274.9 235.853 279.23 266.208 227.298C266.208 227.298 228.924 316.473 230.977 321.163C233.03 325.853 245.393 367.348 245.393 367.348C245.393 367.348 233.44 386.696 230.157 386.271C221.14 385.101 197.553 375.381 184.734 372.954C173.233 370.777 145.142 379.357 123.601 364.293C124.011 359.388 126.896 323.039 115.38 299.25C97.5869 262.496 113.459 229.694 113.459 229.694V229.698Z" fill="url(#paint34_linear_112_6551)"/>
<path d="M173.117 244.415L177.31 273.249L205.639 367.18L220.395 367.945C220.395 367.945 188.268 314.12 179.234 255.465C178.571 251.146 176.783 241.867 176.783 241.867L173.117 244.419V244.415Z" fill="url(#paint35_linear_112_6551)"/>
<path d="M149.402 167.367L161.988 165.627C161.988 165.627 164.486 207.376 172.797 243.112C172.899 243.545 173.086 244.318 173.18 244.747C174.925 252.862 194.143 336.212 220.388 367.941C211.71 367.941 208.227 381.499 205.428 376.041C201.162 367.714 178.29 334.768 158.842 243.689C156.07 230.716 149.402 200.957 149.402 167.363V167.367Z" fill="url(#paint36_linear_112_6551)"/>
<path d="M266.202 227.298C266.202 227.298 265.05 253.892 277.198 258.27C277.198 258.27 263.816 273.616 246.226 315.029C244.454 319.204 241.308 341.218 243.459 348.389C245.61 355.56 254.151 375.928 269.161 421.945C264.5 412.354 233.231 341.471 228.199 331.413C224.362 323.742 231.084 300.159 241.194 282.933C251.313 265.691 258.468 240.677 266.198 227.298H266.202Z" fill="url(#paint37_linear_112_6551)"/>
<path d="M111.55 257.236C110.411 244.302 120.744 207.095 119.459 202.85C119.459 202.85 108.119 243.775 107.432 247.064C106.655 250.783 100.257 260.514 109.411 284.865C116.863 304.686 111.668 341.655 123.141 353.668C124.511 355.104 125.537 356.598 126.299 358.12C126.794 358.022 127.298 357.968 127.802 357.968C131.994 343.992 136.097 328.307 136.69 318.822C137.612 304.03 115.915 306.636 111.55 257.24V257.236Z" fill="url(#paint38_linear_112_6551)"/>
<path d="M254.948 378.44L120.465 372.658C120.465 372.658 106.143 416.018 103.32 452H276.013C274.428 437.107 270.032 417.313 254.952 378.44H254.948Z" fill="url(#paint39_linear_112_6551)"/>
<path d="M214.989 418.898C215.11 415.862 135.29 410.318 133.873 415.043C132.238 420.489 144.515 441.376 158.923 452H189.872C203.594 441.45 214.903 421.122 214.989 418.898Z" fill="url(#paint40_linear_112_6551)"/>
<path d="M274.659 442.398C273.125 430.907 254.945 378.44 254.945 378.44C254.945 378.44 265.005 413.938 265.126 452H276.306C275.67 448.063 274.991 444.887 274.659 442.398Z" fill="url(#paint41_linear_112_6551)"/>
<path d="M165.758 273.241L180.553 273.772C180.553 273.772 197.53 338.397 218.965 365.014L198.744 364.012C198.744 364.012 182.84 341.346 165.758 273.241Z" fill="url(#paint42_linear_112_6551)"/>
<path d="M247.777 357.855C247.777 357.855 249.736 361.507 254.944 378.436C254.944 378.436 169.773 395.167 120.461 372.654C120.461 372.654 122.397 364.316 122.877 353.598C122.877 353.598 161.208 364.058 247.777 357.855Z" fill="url(#paint43_linear_112_6551)"/>
<path d="M276.369 369.966C276.369 369.966 272.766 372.635 269.35 370.77C268.874 370.508 259.017 365.873 259.017 365.873C259.017 365.873 244.745 352.143 243.894 351.928C243.043 351.713 229.197 343.625 228.662 343.73C228.131 343.836 214.175 346.286 211.727 347.242C209.28 348.202 209.811 351.608 212.153 352.139C214.495 352.673 226.105 351.073 226.636 350.968C227.17 350.863 235.372 355.545 235.372 355.545C235.372 355.545 224.293 352.989 223.232 353.309C222.166 353.629 212.368 356.29 211.407 356.821C210.447 357.351 205.973 361.183 205.657 361.503C205.337 361.823 203.74 365.869 207.363 365.76C210.982 365.654 216.63 361.714 217.802 361.608C218.973 361.503 223.661 361.078 223.661 361.078L215.034 364.168C215.034 364.168 208.858 367.254 207.472 368.639C206.09 370.024 205.985 372.9 208.647 372.791C211.31 372.681 222.068 368.534 222.814 368.319C223.56 368.109 233.506 370.067 233.826 370.173C234.146 370.278 233.783 371.14 233.783 371.14C233.783 371.14 227.498 371.94 226.222 372.576C224.945 373.216 216.326 378.663 215.573 379.072C214.343 379.74 214.081 383.864 217.278 383.224C220.472 382.584 227.272 379.076 227.272 379.076L236.461 379.506C236.461 379.506 255.691 391.273 257.643 391.847C260.879 392.799 269.756 392.799 272.977 392.061C274.534 391.702 282.389 386.763 282.389 386.763L276.377 369.966H276.369Z" fill="#F7D4AB"/>
<path d="M246.967 354.523C246.967 354.523 258.027 364.761 258.647 365.319C259.268 365.877 270.546 371.054 270.733 371.054C274.735 372.365 274.028 375.393 273.076 376.536C268.27 382.327 247.124 373.146 245.461 371.113C243.798 369.08 243.642 358.218 246.971 354.523H246.967Z" fill="url(#paint44_linear_112_6551)"/>
<path d="M271.476 385.038C273.662 386.634 269.626 392.307 259.394 389.72C249.163 387.134 238.189 377.89 238.806 376.291C239.423 374.691 263.708 379.369 271.476 385.038Z" fill="url(#paint45_linear_112_6551)"/>
<path d="M208.844 358.916C209.215 358.67 211.186 360.149 209.215 362.365C207.243 364.585 206.377 364.831 206.01 364.831C205.643 364.831 203.273 363.504 204.405 362.365C205.764 361.011 207.735 359.653 208.844 358.916Z" fill="#FFDEBD"/>
<path d="M210.82 366.645C211.207 366.481 212.776 368.202 210.555 369.911C208.334 371.624 207.491 371.698 207.147 371.632C206.803 371.565 204.84 369.919 206.093 369.064C207.592 368.046 209.657 367.133 210.817 366.645H210.82Z" fill="#FFDEBD"/>
<path d="M218.326 377.601C218.646 377.473 219.899 378.909 218.053 380.27C216.206 381.632 215.511 381.679 215.23 381.62C214.949 381.562 213.372 380.177 214.414 379.502C215.656 378.694 217.366 377.984 218.326 377.605V377.601Z" fill="#FFDEBD"/>
<path d="M215.541 346.407C215.978 346.333 217.169 348.494 214.456 349.704C211.743 350.914 210.857 350.785 210.517 350.629C210.181 350.477 208.569 348.292 210.072 347.726C211.868 347.047 214.222 346.626 215.537 346.407H215.541Z" fill="#FFDEBD"/>
<path d="M217.949 345.755C219.831 345.385 226.815 343.395 228.665 343.73C230.515 344.066 239.369 349.517 239.369 349.517C239.369 349.517 230.328 345.634 228.294 345.357C226.26 345.08 217.949 345.751 217.949 345.751V345.755Z" fill="url(#paint46_linear_112_6551)"/>
<path d="M210.668 351.167C210.668 351.167 211.062 351.979 212.241 352.213C214.025 352.568 223.324 351.772 226.638 350.972L235.375 355.549C235.375 355.549 236.678 355.681 237.17 355.619C237.697 355.553 228.848 349.427 226.814 349.244C224.78 349.06 215.196 352.092 210.668 351.167Z" fill="url(#paint47_linear_112_6551)"/>
<path d="M205.797 365.405C205.797 365.405 206.71 366.154 208.393 365.748C210.286 365.291 213.636 363.817 217.801 361.612L223.949 361.07C223.949 361.07 235.571 363.442 235.879 363.196C236.187 362.95 226.018 360.485 224.816 360.207C223.613 359.93 216.926 360.426 216.095 360.609C215.263 360.793 210.61 364.757 205.805 365.405H205.797Z" fill="url(#paint48_linear_112_6551)"/>
<path d="M207.113 372.365C207.113 372.365 207.945 373.083 209.424 372.81C210.904 372.533 222.806 368.327 222.806 368.327C222.806 368.327 233.253 369.923 233.776 370.348C234.018 370.547 233.78 371.113 233.78 371.113C233.78 371.113 234.486 370.379 234.486 369.638C234.486 368.897 226.042 367.082 223.267 367.176C220.495 367.266 210.529 372.182 207.109 372.369L207.113 372.365Z" fill="url(#paint49_linear_112_6551)"/>
<path d="M215.551 382.974C215.551 382.974 216.367 383.669 218.197 383.122C221.274 382.202 227.281 379.182 227.281 379.182L236.334 379.607L246.324 385.471C246.324 385.471 238.618 379.681 237.88 378.94C237.138 378.202 228.015 378.046 227.278 378.14C226.536 378.234 219.064 383.255 215.555 382.978L215.551 382.974Z" fill="url(#paint50_linear_112_6551)"/>
<path d="M213.832 355.997C213.832 355.997 222.654 353.29 223.459 353.247C225.36 353.145 233.565 355.135 233.565 355.135C233.565 355.135 224.567 354.355 223.521 354.417C222.471 354.48 213.836 355.997 213.836 355.997H213.832Z" fill="url(#paint51_linear_112_6551)"/>
<path d="M216.352 363.707C216.352 363.707 222.383 361.218 223.659 361.085C224.936 360.949 234.621 363.083 234.621 363.083C234.621 363.083 224.955 361.831 223.476 362.076C221.996 362.322 216.355 363.711 216.355 363.711L216.352 363.707Z" fill="url(#paint52_linear_112_6551)"/>
<path d="M220.492 376.041C220.492 376.041 225.329 372.845 226.235 372.463C227.601 371.885 233.769 371.144 233.769 371.144C233.769 371.144 227.515 372.966 226.469 373.579C225.419 374.195 220.492 376.041 220.492 376.041Z" fill="url(#paint53_linear_112_6551)"/>
<path d="M279.815 364.8C276.922 367.11 273.971 369.396 270.949 371.64C268.689 373.341 268.373 380.212 273.163 376.817C276.016 374.796 279.452 372.116 283.137 369.119C281.364 368.245 280.197 366.637 279.815 364.8Z" fill="url(#paint54_linear_112_6551)"/>
<path d="M268.148 93.7879C270.202 97.9745 273.227 103.464 275.608 107.471C278.333 112.052 281.035 116.734 282.557 121.877C284.243 127.581 284.13 133.301 282.846 139.072C282.21 141.92 281.402 144.737 280.472 147.503C279.563 150.219 278.403 152.845 277.486 155.557C276.44 158.643 276.229 161.706 276.908 164.897C277.607 168.167 275.784 171.253 277.018 174.347C273.961 171.308 274.465 167.391 273.321 163.212C271.755 157.507 273.922 152.131 275.523 146.707C277.131 141.249 278.946 135.502 279.055 129.766C279.161 124.214 277.494 118.857 275.503 113.734C273.137 107.635 269.667 100.175 268.152 93.784L268.148 93.7879Z" fill="url(#paint55_linear_112_6551)"/>
<path d="M159.325 152.997C148.851 141.385 138.534 138.096 144.073 122.544C148.211 110.932 156.296 97.3541 161.691 80.6468C168.346 60.0338 149.316 91.3688 149.316 91.3688C149.316 91.3688 134.825 104.28 127.264 126.379C117.914 153.699 124.394 160.683 127.264 168.187C129.387 173.739 150.811 177.434 139.677 182.506C160.254 186.068 169.182 163.918 159.329 152.997H159.325Z" fill="url(#paint56_linear_112_6551)"/>
<path d="M151.378 87.9626C153.267 103.3 153.806 114.974 153.806 114.974C147.665 114.974 146.459 108.4 144.062 102.602C140.396 93.7411 138.409 84.2013 148.067 83.3624C149.691 83.2219 151.381 87.9587 151.381 87.9587L151.378 87.9626Z" fill="url(#paint57_linear_112_6551)"/>
<path d="M150.259 109.812C150.259 109.812 147.253 106.414 148.186 99.7303C150.384 83.9594 140.379 82.8786 142.651 93.6435C142.651 93.6435 144.032 88.5674 145.301 90.0851C146.859 91.9502 143.63 92.9763 145.278 101.119C146.137 105.349 150.259 109.812 150.259 109.812Z" fill="url(#paint58_linear_112_6551)"/>
<path d="M247.487 87.9353C245.597 103.273 245.059 114.947 245.059 114.947C251.199 114.947 252.405 108.373 254.802 102.575C258.468 93.7138 260.634 84.213 252.288 83.7058C250.66 83.6082 247.487 87.9353 247.487 87.9353Z" fill="#F0C499"/>
<path d="M248.605 109.789C248.605 109.789 251.611 106.391 250.678 99.7068C248.481 83.936 258.486 82.8552 256.214 93.6201C256.214 93.6201 254.832 88.5439 253.563 90.0617C252.006 91.9267 255.234 92.9529 253.587 101.096C252.728 105.325 248.605 109.789 248.605 109.789Z" fill="url(#paint59_linear_112_6551)"/>
<path d="M206.811 19.2917C153.798 18.6635 156.808 41.2937 151.343 74.1816C148.275 92.6369 149.477 109.102 158.834 122.669C162.628 128.17 167.309 130.827 172.77 135.158C176.241 137.909 181.659 143.808 185.36 146.676C188.737 149.286 192.398 151.389 196.923 151.561C210.664 152.084 219.689 141.253 223.64 137.355C237.513 123.648 250.247 118.548 247.452 80.3932C245.258 50.416 225.955 19.9355 206.811 19.2956V19.2917Z" fill="#F6D3AA"/>
<path d="M222.29 66.2766C206.011 69.3551 206.659 82.3245 205.438 97.4907C231.729 108.884 246.918 95.4578 246.918 95.4578C246.918 95.4578 246.84 78.6764 243.218 72.9213C241.82 70.7012 237.495 63.4049 222.294 66.2766H222.29Z" fill="url(#paint60_linear_112_6551)"/>
<path d="M228.861 86.0781C221.206 87.7285 213.636 96.7728 215.303 105.442C216.978 114.112 222.345 121.549 229.618 124.581C239.124 128.545 245.94 112.438 247.579 96.4801C248.485 87.7051 236.516 84.4276 228.861 86.0781Z" fill="url(#paint61_radial_112_6551)"/>
<path d="M172.563 67.014C165.849 66.5146 160.321 67.65 156.855 70.3968C148.786 76.7879 153.611 94.4629 153.611 94.4629C153.611 94.4629 166.224 110.035 192.8 98.9733C190.946 86.9559 194.077 68.602 172.563 67.014Z" fill="url(#paint62_linear_112_6551)"/>
<path d="M170.948 88.1108C178.603 89.7612 186.172 98.8055 184.505 107.475C182.83 116.145 177.463 123.582 170.19 126.613C160.685 130.577 152.936 118.084 152.229 98.5128C151.909 89.6949 163.292 86.4603 170.948 88.1108Z" fill="url(#paint63_radial_112_6551)"/>
<path d="M237.849 94.1312C235.242 94.8257 233.427 96.601 233.778 98.0992C234.137 99.5975 236.534 100.257 239.134 99.5663C241.734 98.8718 243.557 97.1004 243.198 95.5943C242.842 94.096 240.442 93.4406 237.846 94.1273L237.849 94.1312Z" fill="url(#paint64_linear_112_6551)"/>
<path d="M159.82 94.5331C157.212 94.0064 154.878 94.7984 154.604 96.2967C154.331 97.8028 156.224 99.4493 158.828 99.9838C161.44 100.507 163.778 99.7185 164.051 98.2203C164.325 96.7142 162.431 95.0637 159.82 94.5331Z" fill="url(#paint65_linear_112_6551)"/>
<path d="M219.159 16.5761C219.159 16.5761 171.537 2.79509 156.777 27.2201C146.386 44.419 147.127 92.4691 151.769 109.301C151.769 109.301 152.405 90.764 158.686 86.5306C158.686 86.5306 158.417 84.17 162.723 60.0065C165.986 41.6956 182.675 22.6433 184.291 23.0452C205.336 28.2657 203.302 44.9964 209.692 53.4984C226.279 75.5706 246.274 84.9192 244.955 96.5269C244.955 96.5269 253.574 72.2775 247.582 54.1383C241.918 36.9783 234.364 19.7209 219.159 16.58V16.5761Z" fill="url(#paint66_linear_112_6551)"/>
<path d="M199.568 137.928C195.941 137.729 192.881 138.65 192.736 139.988C192.588 141.327 195.406 142.575 199.037 142.774C202.659 142.973 205.712 142.053 205.864 140.71C206.013 139.376 203.186 138.123 199.568 137.928Z" fill="url(#paint67_linear_112_6551)"/>
<path d="M243.491 113.472C240.47 119.235 236.144 124.175 232.565 127.577C223.2 136.477 219.339 141.534 217.836 143.032C219.187 141.787 231.667 130.273 235.231 127.616C237.034 126.27 241.649 121.689 244.947 115.099C244.311 114.744 243.815 114.167 243.491 113.472Z" fill="url(#paint68_linear_112_6551)"/>
<path d="M167.037 129.465C148.483 115.326 154.026 90.0422 154.026 90.0422C144.353 115.708 161.01 127.253 164.379 129.614C171.327 134.487 182.878 144.554 182.878 144.554C180.286 142.053 177.253 137.249 167.037 129.465Z" fill="#F0C498"/>
<path d="M184.738 146.169C184.738 146.169 196.106 162.002 214.891 145.439C214.891 145.439 199.803 157.894 184.738 146.169Z" fill="url(#paint69_linear_112_6551)"/>
<path d="M241.938 81.4233C241.938 81.4233 245.932 90.5417 244.531 98.5871C241.493 116.012 231.871 119.356 231.348 130.843C231.348 130.843 232.933 129.567 235.232 127.616C237.531 125.665 244.082 120.659 247.856 108.794C251.631 96.9288 243.769 81.4701 242.415 80.6507L241.938 81.4233Z" fill="url(#paint70_linear_112_6551)"/>
<path d="M175.053 116.192C174.541 117.14 175.232 118.131 176.47 118.541C177.711 118.95 180.015 119.891 182.731 121.884C180.721 119.009 175.506 115.341 175.053 116.192Z" fill="url(#paint71_linear_112_6551)"/>
<path d="M216.684 121.849C219.237 119.649 221.458 118.533 222.664 118.029C223.866 117.522 224.479 116.484 223.894 115.579C223.375 114.768 218.464 118.825 216.688 121.849H216.684Z" fill="url(#paint72_linear_112_6551)"/>
<path d="M187.578 128.225C188.964 131.167 194.008 134.78 199.851 134.772C203.919 134.764 208.377 133.004 212.257 128.037C212.257 128.037 198.797 134.093 187.578 128.225Z" fill="url(#paint73_linear_112_6551)"/>
<path d="M176.375 117.144C176.461 117.288 176.508 117.358 176.582 117.475C178.1 118.146 179.849 118.587 182.082 120.183C183.616 121.283 185.139 128.72 200.192 128.509C208.413 128.392 213.371 125.571 218.207 119.93C219.718 118.174 221.166 117.62 222.353 116.917C222.384 116.781 222.451 116.718 222.482 116.578C219.187 117.526 212.578 119.773 198.4 119.652C186.29 119.539 179.233 117.733 176.371 117.144H176.375Z" fill="#951C27"/>
<path d="M211.971 120.94C203.531 122.868 192.034 122.669 187.869 121.919C185.445 120.858 185.695 123.929 185.695 123.929C191.004 129.337 195.251 128.303 199.51 128.396C203.71 128.498 209.98 126.781 213.692 123.457C214.051 122.454 213.15 120.671 211.971 120.944V120.94Z" fill="url(#paint74_linear_112_6551)"/>
<path d="M191.347 119.918C188.649 119.797 187.006 119.407 183.633 118.619C183.633 118.619 184.261 119.391 184.659 120.292C185.175 121.471 187.736 125.466 199.853 125.283C208.972 125.142 213.766 121.88 214.406 119.91C214.796 118.724 215.639 118.197 215.71 117.795C215.71 117.795 212.958 119.145 206.489 119.851C199.962 120.562 197.21 120.179 191.343 119.918H191.347Z" fill="url(#paint75_linear_112_6551)"/>
<path d="M201 127.955C182.484 127.994 188.898 120.413 176.582 117.475C176.664 117.495 179.42 118.966 182.672 122.708C186.263 126.828 189.363 133.328 199.739 133.211C209.1 133.094 214.233 126.266 217.212 122.513C220.62 118.221 222.322 116.937 222.4 116.917C212.36 119.695 215.713 127.444 201 127.952V127.955Z" fill="#F16D79"/>
<path d="M208.886 126.04C206.821 126.762 203.327 127.624 199.439 127.807C196.96 127.924 192.803 127.429 190.039 126.282C187.185 124.83 184.636 121.736 184.102 121.346C184.773 122.251 188.817 132.041 199.24 131.783C211.295 131.483 213.442 123.39 215.589 120.979C214.574 122.056 212.029 124.947 208.89 126.044L208.886 126.04Z" fill="url(#paint76_linear_112_6551)"/>
<path d="M204.501 128.252C203.287 128.677 199.094 128.986 199.254 129.407C199.418 129.832 201.925 130.675 205.079 129.774C207.534 129.079 208.686 127.671 208.53 127.249C208.366 126.828 205.715 127.827 204.501 128.252Z" fill="#F497A1"/>
<path d="M176.781 118.189C177.518 118.521 178.077 117.963 180.985 119.005C180.985 119.005 176.031 116.445 175.703 116.594C175.473 116.695 175.695 117.698 176.781 118.189Z" fill="#951C27"/>
<path d="M218.348 118.619C220.877 117.475 221.693 118.006 222.415 117.651C223.485 117.136 223.661 116.168 223.454 116.028C223.048 115.759 218.348 118.615 218.348 118.615V118.619Z" fill="#951C27"/>
<path d="M184.675 120.347C184.675 120.347 189.93 123.149 200.696 123.078C208.468 123.028 214.355 120.051 214.355 120.051L214.964 118.615L183.887 118.907L184.675 120.347Z" fill="url(#paint77_linear_112_6551)"/>
<path d="M206.528 117.788C202.929 117.518 202.527 118.107 199.946 118.139C197.421 118.166 195.398 117.436 192.283 117.725C188.227 118.1 183.266 118.427 177.375 117.226C177.375 117.226 179.569 118.564 190.425 120.624C193.653 121.233 196.519 121.845 199.845 121.76C203.815 121.767 207.11 120.932 210.186 120.398C215.397 119.496 221.557 116.882 221.585 116.769C218.805 117.565 210.506 118.076 206.532 117.788H206.528Z" fill="#F16D79"/>
<path d="M204.463 118.127C203.573 118.33 200.329 118.537 199.267 118.54C198.206 118.54 195.251 118.033 194.368 118.033C193.482 118.033 188.095 118.525 187.994 118.899C187.697 120.019 200.04 120.776 201.161 120.671C202.281 120.569 211.787 119.395 211.845 118.935C211.904 118.478 205.349 117.92 204.467 118.123L204.463 118.127Z" fill="url(#paint78_linear_112_6551)"/>
<path d="M199.919 115.47C201.684 115.236 208.269 108.747 208.269 108.747L189.504 108.739C189.504 108.739 198.155 115.7 199.919 115.47Z" fill="url(#paint79_linear_112_6551)"/>
<path d="M198.91 100.909C193.933 101.045 192.524 102.305 192.891 103.636C193.781 106.867 195.893 107.471 199.004 107.463C202.279 107.452 204.832 106.73 205.336 103.25C205.484 102.223 203.899 100.772 198.91 100.909Z" fill="url(#paint80_linear_112_6551)"/>
<path d="M202.254 109.586C202.254 109.586 211.4 109.726 208.445 106.71C207.45 105.7 202.254 109.586 202.254 109.586Z" fill="url(#paint81_linear_112_6551)"/>
<path d="M189.536 107.116C186.48 109.715 196.118 109.578 196.118 109.578C196.118 109.578 190.614 106.203 189.536 107.116Z" fill="url(#paint82_linear_112_6551)"/>
<path d="M198.987 108.38C189.72 108.248 188.665 103.718 187.405 106.625C186.885 107.815 187.873 108.17 189.501 108.743C189.501 108.743 188.97 107.409 191.047 107.545C192.55 107.643 193.752 110.839 199.104 110.683C204.819 110.519 205.6 107.647 207.068 107.573C208.407 107.506 208.262 108.751 208.262 108.751C208.262 108.751 210.971 107.35 209.949 106.102C208.086 103.823 207.517 108.498 198.983 108.384L198.987 108.38Z" fill="#F0C498"/>
<path d="M210.508 89.3828C210.508 89.3828 211.656 82.5937 216.668 78.6139C223.581 73.1203 232.689 76.7177 236.007 79.0978C239.743 81.7783 239.555 84.7748 239.555 84.7748C239.555 84.7748 239.93 89.0277 234.531 92.2623C231.635 93.9946 226.556 95.2978 222.808 94.7906C218.85 94.2561 215.032 92.988 210.512 89.3828H210.508Z" fill="url(#paint83_linear_112_6551)"/>
<path d="M211.223 89.2579C213.018 86.1014 217.633 80.4595 225.744 81.314C233.856 82.1724 236.854 88.2435 236.854 88.2435C236.854 88.2435 233.263 92.0789 229.808 92.8358C219.807 95.0286 214.119 91.1698 211.223 89.254V89.2579Z" fill="url(#paint84_linear_112_6551)"/>
<path d="M211.227 89.2579C211.227 89.2579 217.664 84.2324 224.441 84.767C231.346 85.3132 233.81 87.545 235.941 89.293C235.941 89.293 236.249 88.9653 236.858 88.2434C236.858 88.2434 234.009 81.63 223.02 81.1266C219.499 80.9667 213.186 85.6878 211.223 89.2579H211.227Z" fill="#DDDDDD"/>
<path d="M231.364 87.5022C231.239 83.3468 227.597 80.085 223.237 80.2176C218.876 80.3503 215.441 83.8267 215.566 87.9821C215.628 90.0735 216.756 91.9814 217.998 92.6291C221.671 93.7762 224.927 94.1586 228.343 93.3119C230.478 91.9073 231.446 90.1515 231.364 87.4983V87.5022Z" fill="url(#paint85_linear_112_6551)"/>
<path d="M215.652 86.6399C215.652 86.6399 222.8 81.8173 231.213 86.238C231.213 86.238 230.81 82.9605 227.992 81.1228H218.994C218.994 81.1228 216.062 83.1244 215.648 86.6399H215.652Z" fill="url(#paint86_linear_112_6551)"/>
<path d="M218.027 86.5969C217.738 89.133 219.826 91.3961 222.672 91.6575C225.522 91.915 228.059 90.0617 228.34 87.5255C228.621 84.9894 226.537 82.7225 223.687 82.4688C220.837 82.2074 218.3 84.0569 218.023 86.5969H218.027Z" fill="url(#paint87_radial_112_6551)"/>
<path d="M211.223 89.2579C211.223 89.2579 214.299 82.2387 224.741 82.3518C232.869 82.4377 236.55 88.4854 237.44 88.3566C241.035 87.8299 241.262 83.2805 241.254 82.8318C237.436 84.5212 232.213 78.4852 225.374 78.4228C217.02 78.3447 211.746 83.5341 211.227 89.2618L211.223 89.2579Z" fill="url(#paint88_linear_112_6551)"/>
<path d="M212.184 84.4393C212.203 84.4042 213.566 80.2722 217.789 77.5215C220.729 75.6057 226.842 74.3259 233.131 77.4903C233.131 77.4903 224.734 74.5522 219.339 77.658C214.569 80.4049 212.188 84.4354 212.188 84.4354L212.184 84.4393Z" fill="url(#paint89_linear_112_6551)"/>
<path d="M211.223 89.258C211.223 89.258 214.787 82.4846 223.98 82.5782C231.534 82.6562 236.519 87.8885 236.519 87.8885C236.519 87.8885 233.06 81.8252 224.366 81.6496C219.014 81.5403 214.01 82.9801 211.223 89.258Z" fill="url(#paint90_linear_112_6551)"/>
<path d="M223.704 87.1978C223.423 87.8338 222.697 88.1147 222.088 87.8299C221.475 87.5412 221.218 86.792 221.503 86.156C221.788 85.524 222.51 85.2352 223.123 85.5279C223.728 85.8127 223.989 86.5618 223.704 87.1978Z" fill="white"/>
<path d="M228.385 88.6493C227.998 89.4765 226.999 89.8393 226.156 89.457C225.312 89.0668 224.938 88.0874 225.324 87.2564C225.711 86.4292 226.714 86.0663 227.553 86.4526C228.404 86.8389 228.767 87.8221 228.385 88.6493Z" fill="white"/>
<path d="M237.441 88.3566C237.937 87.8767 236.043 87.5412 236.285 87.2758C233.459 91.521 228.681 93.1597 224.555 93.7762C228.302 93.8698 231.476 92.8944 234.474 90.8186C238.073 91.3259 240.806 87.6231 240.806 87.6231C238.401 89.375 237.437 88.3566 237.437 88.3566H237.441Z" fill="url(#paint91_linear_112_6551)"/>
<path d="M187.537 89.297C187.537 89.297 186.35 82.5158 181.314 78.5633C174.369 73.1125 165.281 76.7607 161.975 79.1602C158.255 81.8603 158.458 84.8568 158.458 84.8568C158.458 84.8568 158.106 89.1097 163.529 92.313C166.433 94.0298 171.523 95.3018 175.267 94.7751C179.222 94.2171 183.032 92.9295 187.533 89.297H187.537Z" fill="url(#paint92_linear_112_6551)"/>
<path d="M186.823 89.1799C185.008 86.0351 180.363 80.4166 172.255 81.3218C164.147 82.227 161.184 88.3176 161.184 88.3176C161.184 88.3176 164.798 92.1335 168.257 92.871C178.27 95.0052 183.934 91.1152 186.823 89.1838V89.1799Z" fill="url(#paint93_linear_112_6551)"/>
<path d="M186.823 89.1799C186.823 89.1799 180.359 84.1934 173.582 84.767C166.68 85.3523 164.229 87.5997 162.109 89.3594C162.109 89.3594 161.796 89.0316 161.188 88.3137C161.188 88.3137 163.998 81.6846 174.983 81.115C178.5 80.9316 184.844 85.6176 186.827 89.176L186.823 89.1799Z" fill="#DDDDDD"/>
<path d="M166.667 87.5373C166.769 83.3819 170.391 80.1006 174.752 80.2059C179.116 80.3151 182.567 83.7721 182.466 87.9275C182.415 90.0188 181.337 91.8409 179.909 92.6369C176.243 93.8074 173.393 94.0883 169.72 93.3314C167.573 91.9385 166.601 90.1866 166.667 87.5373Z" fill="url(#paint94_linear_112_6551)"/>
<path d="M182.373 86.5852C182.373 86.5852 175.198 81.8056 166.809 86.2731C166.809 86.2731 167.156 83.4053 169.998 81.1423L177.965 81.5481C177.965 81.5481 181.881 82.305 182.377 86.5891L182.373 86.5852Z" fill="url(#paint95_linear_112_6551)"/>
<path d="M180.002 86.558C180.307 89.0941 178.23 91.3689 175.384 91.6459C172.534 91.919 169.985 90.0813 169.692 87.549C169.396 85.0129 171.469 82.7343 174.314 82.4651C177.164 82.188 179.713 84.0219 180.002 86.558Z" fill="url(#paint96_radial_112_6551)"/>
<path d="M186.82 89.1799C186.82 89.1799 183.627 82.1568 173.184 82.3285C165.057 82.4611 161.489 88.5518 160.599 88.4269C157 87.9197 156.227 83.0074 156.234 82.5587C160.337 84.9582 165.767 78.5282 172.607 78.4228C180.961 78.298 186.266 83.4561 186.816 89.1799H186.82Z" fill="url(#paint97_linear_112_6551)"/>
<path d="M185.834 84.3651C185.815 84.33 184.425 80.2059 180.189 77.4824C177.238 75.5862 171.121 74.3376 164.852 77.541C164.852 77.541 173.229 74.5561 178.643 77.6307C183.429 80.3502 185.834 84.369 185.834 84.369V84.3651Z" fill="url(#paint98_linear_112_6551)"/>
<path d="M186.816 89.1799C186.816 89.1799 183.212 82.4259 174.023 82.5742C166.469 82.6951 161.516 87.9586 161.516 87.9586C161.516 87.9586 164.939 81.8758 173.629 81.6495C178.977 81.509 183.993 82.9214 186.816 89.1799Z" fill="url(#paint99_linear_112_6551)"/>
<path d="M175.915 87.229C175.603 87.865 174.849 88.1186 174.24 87.8065C173.631 87.4865 173.401 86.714 173.713 86.078C174.033 85.442 174.779 85.1845 175.392 85.5044C175.997 85.8205 176.227 86.593 175.911 87.229H175.915Z" fill="white"/>
<path d="M180.611 88.8795C180.181 89.7066 179.151 90.0305 178.307 89.6052C177.464 89.1721 177.129 88.1616 177.558 87.3344C177.987 86.5033 179.022 86.1795 179.861 86.6087C180.704 87.0339 181.036 88.0523 180.615 88.8795H180.611Z" fill="white"/>
<path d="M173.575 93.7567C169.449 93.1636 164.597 91.5717 161.743 87.3422C161.989 87.6075 160.096 87.9548 160.596 88.4308C160.611 88.4464 160.627 88.4581 160.642 88.4737C160.424 88.6454 159.428 89.2346 157.316 87.7168C157.316 87.7168 160.033 91.3415 163.586 90.8811C166.592 92.9334 169.832 93.8738 173.571 93.7567H173.575Z" fill="url(#paint100_linear_112_6551)"/>
<path d="M217.885 66.7136C214.286 68.3485 211.663 73.0267 214.782 72.0434C217.901 71.0602 229.429 69.199 231.935 69.1678C235.831 69.1288 241.55 71.2397 243.056 72.1995C243.056 72.1995 237.337 66.7136 233.055 66.2259C228.784 65.7343 219.821 65.8318 217.885 66.7136Z" fill="url(#paint101_linear_112_6551)"/>
<path d="M180.077 66.6356C183.715 68.1924 185.835 72.4999 182.696 71.5869C179.558 70.67 167.937 69.1054 165.438 69.004C161.89 68.8596 155.87 71.3801 154.383 72.3712C154.383 72.3712 159.981 66.6473 164.251 66.0542C168.51 65.4729 178.125 65.8006 180.077 66.6356Z" fill="url(#paint102_linear_112_6551)"/>
<path d="M182.785 12.9865C185.561 4.68749 215.19 -6.79146 246.923 22.6043C265.079 39.4248 267.554 64.9423 265.431 81.6106C264.084 92.2077 284.13 119.937 275.573 141.089C275.573 141.089 291.094 191.5 247.626 186.7C247.626 186.7 266.165 182.506 244.323 160.094C240.697 156.372 234.096 151.713 233.963 143.032C233.787 131.405 256.542 111.291 249.531 83.9633C247.118 74.564 221.334 55.6561 213.515 37.4193C203.729 14.5901 184.28 23.0452 184.28 23.0452C184.28 23.0452 183.909 19.4946 182.773 12.9865H182.785Z" fill="url(#paint103_linear_112_6551)"/>
<path d="M254.449 163.98C264.813 177.04 264.579 187.602 247.629 186.704C255.827 186.704 262.322 180.368 254.449 163.98Z" fill="url(#paint104_linear_112_6551)"/>
<path d="M137.235 39.1243C130.263 56.6432 132.149 63.7444 132.149 71.6064C132.149 79.4685 135.428 85.126 125.157 104.131C119.266 115.037 123.198 125.583 126.324 136.153C122.866 141.959 126.656 125.455 141.034 99.8395C149.349 87.0574 153.967 83.9867 155.602 68.329C159.323 32.7177 184.287 23.0413 184.287 23.0413L183.436 12.7641C167.762 0.93788 144.207 21.6055 137.235 39.1243Z" fill="url(#paint105_linear_112_6551)"/>
<path d="M184.289 23.0451C209.694 21.3986 212.173 45.0588 219.586 55.4063C227 65.7537 249.645 81.31 247.861 93.2455C245.437 109.442 238.562 130.905 238.488 138.654C238.371 151.339 244.769 153.407 250.691 159.614C261.727 171.179 265.432 185.421 253.279 192.935C253.279 192.935 295.537 186.813 280.024 154.8C270.499 135.143 248.743 141.452 248.876 121.884C248.927 114.229 272.97 78.2081 249.536 66.1283C222.713 52.3005 209.206 2.6975 184.289 23.0451Z" fill="url(#paint106_linear_112_6551)"/>
<path d="M122.752 98.3217C118.696 103.737 114.698 109.793 114.304 116.754C113.921 123.5 116.455 129.696 119.804 135.427C120.452 136.539 121.135 137.632 121.826 138.72C122.31 137.78 123.158 137.012 124.149 136.68C122.974 133.933 121.807 131.182 120.866 128.35C119.867 125.345 119.125 122.2 119.172 119.017C119.215 115.958 119.98 113.047 121.241 110.269C123.919 104.366 128.104 99.1606 131.734 93.823C135.364 88.4815 140.861 78.6335 141.657 61.5789C137.902 81.6925 126.893 92.7969 122.755 98.3217H122.752Z" fill="url(#paint107_linear_112_6551)"/>
<path d="M241.496 17.9495C255.53 28.5076 258.626 36.7013 263.373 48.5548C266.168 55.5351 267.019 62.8743 266.82 70.35C266.613 78.0521 265.5 85.7034 265.461 93.4133C265.418 101.829 267.085 110.113 270.469 117.83C266.683 113.578 264.173 108.096 262.682 102.641C260.855 95.9455 260.769 88.9419 261.093 82.0514C261.432 74.8488 262.194 67.611 261.522 60.4084C260.827 52.9443 258.278 45.8977 254.675 39.3623C250.623 32.0153 246.727 24.4771 241.492 17.9456L241.496 17.9495Z" fill="url(#paint108_linear_112_6551)"/>
<path d="M188.602 18.882C189.355 14.0205 193.54 10.5713 198.294 9.83777C204.31 8.90915 210.119 11.8628 214.472 15.7879C219.027 19.8965 222.646 25.0429 226.124 30.0567C229.692 35.2031 233.096 40.4782 237.015 45.3749C240.958 50.299 245.834 55.7848 252.443 56.7212C247.774 57.8371 242.918 55.5741 239.217 52.8897C234.47 49.4445 230.547 44.895 227.053 40.2246C223.458 35.4216 220.241 30.3532 216.775 25.4604C213.46 20.7861 209.775 15.8348 204.384 13.4352C201.39 12.1008 197.947 11.6404 194.808 12.768C191.986 13.7824 189.527 15.9791 188.602 18.882Z" fill="url(#paint109_linear_112_6551)"/>
<path d="M182.968 12.5144C182.831 9.08082 184.76 6.27936 187.293 4.00854C190.4 1.22269 194.527 0.0443606 198.637 0.00144136C203.037 -0.0453797 207.37 1.05491 211.539 2.3659C215.669 3.66519 219.702 5.29612 223.547 7.28601C227.673 9.42418 231.612 11.9642 235.153 14.9842C232.225 14.5901 229.309 13.56 226.502 12.6782C223.102 11.6092 219.729 10.4659 216.348 9.33444C212.449 8.03125 208.545 6.68124 204.587 5.55364C200.57 4.40652 196.19 3.4662 192.048 4.53528C188.015 5.57705 183.846 8.28876 182.964 12.5183L182.968 12.5144Z" fill="url(#paint110_linear_112_6551)"/>
<path d="M278.758 144.862C272.231 134.803 259.946 127.441 256.546 115.47C254.219 107.28 258.049 95.5203 259.587 86.9637C253.798 98.2593 249.113 110.881 255.051 122.692C260.758 134.042 274.312 141.03 277.275 153.801C281.584 172.373 275.26 187.602 253.279 192.935C284.696 190.032 290.368 163.383 278.762 144.862H278.758Z" fill="url(#paint111_linear_112_6551)"/>
<path d="M182.969 12.5144C170.189 3.82126 154.07 19.3658 146.544 28.7925C137.214 40.486 131.234 56.6744 132.147 71.6025C131.397 62.4256 131.374 54.5089 132.908 46.92C134.505 39.0307 137.23 32.0309 142.429 25.9013C150.401 16.5137 171.379 -0.0648861 182.969 12.5144Z" fill="url(#paint112_linear_112_6551)"/>
<path d="M229.395 48.1764C229.395 48.1764 240.071 60.268 245.618 63.4596C251.665 66.94 259.672 70.1199 259.672 81.4233C259.672 81.4233 257.177 72.937 251.423 69.558C245.669 66.1791 237.905 64.119 229.395 48.1803V48.1764Z" fill="url(#paint113_linear_112_6551)"/>
<path d="M247.339 131.405C246.64 145.724 259.955 149.056 263.929 153.801C268.79 159.607 272.416 167.27 267.029 172.576C270.948 152.4 238.458 154.086 247.343 131.401L247.339 131.405Z" fill="url(#paint114_linear_112_6551)"/>
<path d="M237.181 73.7328C256.516 89.8002 250.071 102.668 242.673 118.053C238.73 126.25 233.656 133.484 234.011 142.017C234.304 149.044 237.661 156.707 249.306 162.053C229.049 158.256 225.95 138.642 237.583 118.978C248.22 100.994 250.289 90.8966 237.177 73.7328H237.181Z" fill="url(#paint115_linear_112_6551)"/>
<path d="M255.528 51.5905C247.061 37.2984 237.723 26.4008 226.273 17.2824C247.272 26.0223 252.545 36.6273 255.528 51.5905Z" fill="url(#paint116_linear_112_6551)"/>
<path d="M184.289 23.0452C184.289 23.0452 198.627 20.4076 209.694 36.1824C209.694 36.1824 200.825 16.58 184.289 23.0452Z" fill="url(#paint117_linear_112_6551)"/>
<path d="M148.418 85.5864C148.73 85.9258 149.214 95.9729 150.128 100.756C150.128 100.756 150.799 89.2501 152.923 81.3647L148.414 85.5864H148.418Z" fill="url(#paint118_linear_112_6551)"/>
<path d="M184.252 23.0452C184.252 23.0452 158.16 25.2263 156.064 57.8293C154.943 75.2585 157.227 87.034 142.549 106.894C135.19 116.851 131.111 121.588 127.961 132.571C122.831 150.465 148.436 156.353 150.259 169.345C151.773 180.145 146.82 191.5 124.951 192.409C132.31 191.191 133 182.541 130.857 177.434C129.6 174.441 124.838 171.842 119.583 166.696C93.6666 141.319 129.288 116.274 135.737 103.058C142.19 89.8354 141.975 88.1265 143.907 73.7914C144.86 66.7097 144.907 46.8537 150.224 38.3089C155.544 29.7601 164.632 19.7053 184.252 23.0452Z" fill="url(#paint119_linear_112_6551)"/>
<path d="M154.722 32.1948C154.722 32.1948 146.934 39.6393 146.286 49.5771C145.638 59.5109 144.611 65.6172 143.909 73.7953C143.39 79.8118 136.894 102.777 129.738 112.11C129.738 112.11 147.649 92.8787 147.418 70.748C147.188 48.6172 149.69 40.7552 154.722 32.1948Z" fill="url(#paint120_linear_112_6551)"/>
<path d="M155.421 72.3009C154.16 99.4766 144.569 96.0509 139.611 123.18C136.484 140.277 152.88 154.967 130.465 161.237C147.981 156.801 131.585 133.886 132.834 121.682C134.962 100.905 150.768 100.936 155.421 72.3048V72.3009Z" fill="url(#paint121_linear_112_6551)"/>
<path d="M122.576 152.275C122.392 179.915 128.872 186.833 146.615 189.763C120.581 192.502 114.269 176.868 122.576 152.275Z" fill="#824137"/>
<path d="M130.856 146.906C130.856 146.906 136.941 153.184 144.761 160.118C147.88 162.884 152.759 169.568 150.253 177.886C147.747 186.205 141.025 192.413 124.945 192.413C124.945 192.413 144.846 189.268 146.033 177.438C147.22 165.608 138.366 157.691 130.852 146.906H130.856Z" fill="url(#paint122_linear_112_6551)"/>
<path d="M128.244 121.026C123.939 130.18 116.475 144.417 121.241 154.246C125.359 162.736 150.382 168.506 135.798 181.956C141.166 168.034 125.941 168.284 119.754 160.399C107.812 145.178 122.736 134.838 128.244 121.03V121.026Z" fill="url(#paint123_linear_112_6551)"/>
<path d="M152.858 157.363C159.475 162.486 161.489 177.18 150.949 179.603C156.153 174.347 156.45 162.408 152.858 157.363Z" fill="url(#paint124_linear_112_6551)"/>
<path d="M203.031 28.3321C202.953 28.2852 202.91 28.2618 202.91 28.2618C202.953 28.2852 202.988 28.3086 203.031 28.3321Z" fill="url(#paint125_linear_112_6551)"/>
<path d="M224.498 56.0191C212.818 41.208 217.401 36.3035 203.039 28.3361C203.792 28.7887 208.02 31.6877 212.919 42.3239C215.078 47.006 216.901 52.8899 222.245 58.645C223.526 60.0223 224.709 61.2825 225.802 62.4375L225.809 62.4453C234.081 71.1813 237.181 73.733 237.181 73.733C232.684 68.8246 230.841 64.0645 224.498 56.0191Z" fill="url(#paint126_linear_112_6551)"/>
<path d="M250.508 264.568C250.508 264.568 265.674 223.065 267.516 225.948C298.004 273.639 347.125 306.469 347.125 306.469C347.125 306.469 342.433 309.738 337.592 309.738C289.194 270.697 278.685 256.167 277.205 258.27C275.73 260.373 254.349 296.23 254.349 296.23L250.512 264.568H250.508Z" fill="url(#paint127_linear_112_6551)"/>
<path d="M375.792 288.583C375.792 288.583 389.635 307.245 388.467 314.58C387.487 320.749 376.338 331.011 351.956 349.521C343.899 355.638 329.662 366.634 323.135 370.336C318.103 373.189 312.993 371.562 312.993 371.562L307.973 369.685C307.973 369.685 327.241 361.078 362.164 329.434C369.214 323.047 387.808 312.118 375.792 288.579V288.583Z" fill="url(#paint128_linear_112_6551)"/>
<path d="M276.294 205.55C269.552 192.327 276.223 178.351 285.815 184.921C295.406 191.492 328.779 225.917 351.838 275.633C358.436 289.859 341.064 298.068 317.54 266.085C292.451 231.976 282.36 217.446 276.294 205.55Z" fill="url(#paint129_linear_112_6551)"/>
<path d="M294.891 351.936C294.891 351.936 295.058 349.739 300.122 344.753C312.559 332.509 336.781 311.155 337.586 309.742C337.586 309.742 350.218 303.726 354.793 306.149C359.372 308.572 295.051 358.982 295.051 358.982L294.887 351.936H294.891Z" fill="url(#paint130_linear_112_6551)"/>
<path d="M273.555 369.677L277.501 366.634L289.189 383.181L285.032 385.471L273.555 369.677Z" fill="url(#paint131_linear_112_6551)"/>
<path d="M274.734 368.163L294.893 351.936L312.995 371.561L288.374 386.739C288.374 386.739 285.743 383.903 274.734 368.163Z" fill="#F1F0F5"/>
<path d="M274.734 368.163L278.068 372.896L298.738 356.103L294.893 351.936L274.734 368.163Z" fill="url(#paint132_linear_112_6551)"/>
<path d="M294.898 351.936L313.004 371.561L310.837 372.896L294.898 351.936Z" fill="url(#paint133_linear_112_6551)"/>
<path d="M290.14 268.797L272.136 247.298C266.206 259.585 241.254 312.949 241.254 312.949L242.749 340.176C242.749 340.176 243.78 321.038 246.231 315.029C248.683 309.02 277.203 258.27 277.203 258.27C279.987 260.241 290.14 268.797 290.14 268.797Z" fill="url(#paint134_linear_112_6551)"/>
<path d="M45.3308 199.553C45.3308 199.553 49.742 222.148 51.9398 228.66C41.6731 240.373 23.4622 240.81 23.4622 240.81L19.4219 210.692C19.4219 210.692 30.8246 216.939 45.3269 199.553H45.3308Z" fill="#F1F0F5"/>
<path d="M19.4258 210.692C19.4258 210.692 22.1545 212.354 28.053 211.457L31.5078 240.318C31.5078 240.318 24.3523 240.209 23.0601 237.809L19.4219 210.692H19.4258Z" fill="url(#paint135_linear_112_6551)"/>
<path d="M51.9383 228.66C37.7834 249.429 23.4607 240.81 23.4607 240.81L23.0586 237.809C23.0586 237.809 32.9155 246.233 51.9383 228.66Z" fill="url(#paint136_linear_112_6551)"/>
<path d="M164.621 193.942C164.621 193.942 169.044 229.487 181.064 273.768C193.079 318.045 204.486 341.452 207.945 347.632C207.945 347.632 190.46 319.169 178.452 273.76C166.444 228.352 164.621 193.946 164.621 193.946V193.942Z" fill="url(#paint137_linear_112_6551)"/>
<defs>
<linearGradient id="paint0_linear_112_6551" x1="17.2329" y1="95.1851" x2="28.3473" y2="120.619" gradientUnits="userSpaceOnUse">
<stop stop-color="#FFD9B3"/>
<stop offset="0.68" stop-color="#FCD7B0"/>
<stop offset="1" stop-color="#F7D4AB"/>
</linearGradient>
<linearGradient id="paint1_linear_112_6551" x1="11.8798" y1="98.0534" x2="21.297" y2="119.598" gradientUnits="userSpaceOnUse">
<stop stop-color="#FFD9B3"/>
<stop offset="0.68" stop-color="#FCD7B0"/>
<stop offset="1" stop-color="#F7D4AB"/>
</linearGradient>
<linearGradient id="paint2_linear_112_6551" x1="24.933" y1="199.373" x2="17.34" y2="149.882" gradientUnits="userSpaceOnUse">
<stop stop-color="#F7D4AB"/>
<stop offset="0.29" stop-color="#F5D0A7"/>
<stop offset="0.54" stop-color="#F1C69C"/>
<stop offset="0.55" stop-color="#F1C69C"/>
</linearGradient>
<linearGradient id="paint3_linear_112_6551" x1="-27.8106" y1="108.964" x2="28.0477" y2="161.103" gradientUnits="userSpaceOnUse">
<stop stop-color="#DBA379"/>
<stop offset="0.49" stop-color="#E3B086"/>
<stop offset="1" stop-color="#F0C499"/>
</linearGradient>
<linearGradient id="paint4_linear_112_6551" x1="18.4339" y1="131.787" x2="26.3474" y2="143.675" gradientUnits="userSpaceOnUse">
<stop stop-color="#F7D4AB"/>
<stop offset="0.52" stop-color="#F5D0A7"/>
<stop offset="0.97" stop-color="#F1C69C"/>
<stop offset="1" stop-color="#F1C69C"/>
</linearGradient>
<linearGradient id="paint5_linear_112_6551" x1="29.0892" y1="130.472" x2="31.0995" y2="141.281" gradientUnits="userSpaceOnUse">
<stop stop-color="#F7D4AB"/>
<stop offset="0.52" stop-color="#F5D0A7"/>
<stop offset="0.97" stop-color="#F1C69C"/>
<stop offset="1" stop-color="#F1C69C"/>
</linearGradient>
<linearGradient id="paint6_linear_112_6551" x1="32.2439" y1="196.193" x2="35.7578" y2="173.074" gradientUnits="userSpaceOnUse">
<stop stop-color="#FFD9B3"/>
<stop offset="0.68" stop-color="#FCD7B0"/>
<stop offset="1" stop-color="#F7D4AB"/>
</linearGradient>
<linearGradient id="paint7_linear_112_6551" x1="63.8474" y1="210.084" x2="34.8483" y2="139.533" gradientUnits="userSpaceOnUse">
<stop stop-color="#FFD9B3"/>
<stop offset="0.68" stop-color="#FCD7B0"/>
<stop offset="1" stop-color="#F7D4AB"/>
</linearGradient>
<linearGradient id="paint8_linear_112_6551" x1="10.9019" y1="141.112" x2="20.2218" y2="161.799" gradientUnits="userSpaceOnUse">
<stop stop-color="#FFD9B3"/>
<stop offset="0.68" stop-color="#FCD7B0"/>
<stop offset="1" stop-color="#F7D4AB"/>
</linearGradient>
<linearGradient id="paint9_linear_112_6551" x1="16.7797" y1="136.149" x2="27.2411" y2="157.85" gradientUnits="userSpaceOnUse">
<stop stop-color="#FFD9B3"/>
<stop offset="0.68" stop-color="#FCD7B0"/>
<stop offset="1" stop-color="#F7D4AB"/>
</linearGradient>
<linearGradient id="paint10_linear_112_6551" x1="3.65389" y1="150.58" x2="14.9203" y2="167.437" gradientUnits="userSpaceOnUse">
<stop stop-color="#FFD9B3"/>
<stop offset="0.68" stop-color="#FCD7B0"/>
<stop offset="1" stop-color="#F7D4AB"/>
</linearGradient>
<linearGradient id="paint11_linear_112_6551" x1="-1.83919" y1="127.62" x2="12.8698" y2="157.942" gradientUnits="userSpaceOnUse">
<stop stop-color="#F7D4AB"/>
<stop offset="0.52" stop-color="#F5D0A7"/>
<stop offset="0.97" stop-color="#F1C69C"/>
<stop offset="1" stop-color="#F1C69C"/>
</linearGradient>
<linearGradient id="paint12_linear_112_6551" x1="6.85305" y1="123.402" x2="21.5659" y2="153.725" gradientUnits="userSpaceOnUse">
<stop stop-color="#F7D4AB"/>
<stop offset="0.52" stop-color="#F5D0A7"/>
<stop offset="0.97" stop-color="#F1C69C"/>
<stop offset="1" stop-color="#F1C69C"/>
</linearGradient>
<linearGradient id="paint13_linear_112_6551" x1="13.5893" y1="120.343" x2="34.0047" y2="162.416" gradientUnits="userSpaceOnUse">
<stop stop-color="#F7D4AB"/>
<stop offset="0.52" stop-color="#F5D0A7"/>
<stop offset="0.97" stop-color="#F1C69C"/>
<stop offset="1" stop-color="#F1C69C"/>
</linearGradient>
<linearGradient id="paint14_linear_112_6551" x1="2.17074" y1="153.032" x2="4.56581" y2="157.231" gradientUnits="userSpaceOnUse">
<stop stop-color="#FFD9B3"/>
<stop offset="0.68" stop-color="#FCD7B0"/>
<stop offset="1" stop-color="#F7D4AB"/>
</linearGradient>
<linearGradient id="paint15_linear_112_6551" x1="10.0965" y1="143.457" x2="12.1094" y2="146.408" gradientUnits="userSpaceOnUse">
<stop stop-color="#FFD9B3"/>
<stop offset="0.68" stop-color="#FCD7B0"/>
<stop offset="1" stop-color="#F7D4AB"/>
</linearGradient>
<linearGradient id="paint16_linear_112_6551" x1="17.8893" y1="135.927" x2="19.5746" y2="138.401" gradientUnits="userSpaceOnUse">
<stop stop-color="#FFD9B3"/>
<stop offset="0.68" stop-color="#FCD7B0"/>
<stop offset="1" stop-color="#F7D4AB"/>
</linearGradient>
<linearGradient id="paint17_linear_112_6551" x1="17.6361" y1="212.362" x2="20.5415" y2="184.336" gradientUnits="userSpaceOnUse">
<stop stop-color="#F7D4AB"/>
<stop offset="0.29" stop-color="#F5D0A7"/>
<stop offset="0.54" stop-color="#F1C69C"/>
<stop offset="0.55" stop-color="#F1C69C"/>
</linearGradient>
<linearGradient id="paint18_linear_112_6551" x1="42.4617" y1="209.28" x2="40.4299" y2="189.135" gradientUnits="userSpaceOnUse">
<stop stop-color="#F7D4AB"/>
<stop offset="0.29" stop-color="#F5D0A7"/>
<stop offset="0.54" stop-color="#F1C69C"/>
<stop offset="0.55" stop-color="#F1C69C"/>
</linearGradient>
<linearGradient id="paint19_linear_112_6551" x1="19.4219" y1="205.795" x2="44.8429" y2="205.795" gradientUnits="userSpaceOnUse">
<stop stop-color="#F7D4AB"/>
<stop offset="0.29" stop-color="#F5D0A7"/>
<stop offset="0.54" stop-color="#F1C69C"/>
<stop offset="0.55" stop-color="#F1C69C"/>
</linearGradient>
<linearGradient id="paint20_linear_112_6551" x1="87.7595" y1="332.907" x2="46.6922" y2="236.476" gradientUnits="userSpaceOnUse">
<stop stop-color="#E1E1E5"/>
<stop offset="1" stop-color="#F1F0F5"/>
</linearGradient>
<linearGradient id="paint21_linear_112_6551" x1="127.154" y1="235.476" x2="82.9609" y2="283.56" gradientUnits="userSpaceOnUse">
<stop stop-color="#D1D0D4"/>
<stop offset="1" stop-color="#E1E1E5"/>
</linearGradient>
<linearGradient id="paint22_linear_112_6551" x1="59.7421" y1="375.639" x2="27.4466" y2="224.022" gradientUnits="userSpaceOnUse">
<stop stop-color="white"/>
<stop offset="0.36" stop-color="#F8F8FA"/>
<stop offset="1" stop-color="#F1F0F5"/>
</linearGradient>
<linearGradient id="paint23_linear_112_6551" x1="9.95535" y1="285.84" x2="153.192" y2="170.188" gradientUnits="userSpaceOnUse">
<stop stop-color="white"/>
<stop offset="0.36" stop-color="#F8F8FA"/>
<stop offset="1" stop-color="#F1F0F5"/>
</linearGradient>
<linearGradient id="paint24_linear_112_6551" x1="197.407" y1="98.63" x2="204.75" y2="191.406" gradientUnits="userSpaceOnUse">
<stop offset="0.23" stop-color="#492219"/>
<stop offset="0.59" stop-color="#56281E"/>
<stop offset="1" stop-color="#652F23"/>
</linearGradient>
<linearGradient id="paint25_linear_112_6551" x1="170.437" y1="52.363" x2="146.301" y2="168.741" gradientUnits="userSpaceOnUse">
<stop offset="0.23" stop-color="#492219"/>
<stop offset="0.59" stop-color="#56281E"/>
<stop offset="1" stop-color="#652F23"/>
</linearGradient>
<linearGradient id="paint26_linear_112_6551" x1="261.107" y1="90.9084" x2="249.458" y2="169.995" gradientUnits="userSpaceOnUse">
<stop offset="0.23" stop-color="#492219"/>
<stop offset="0.59" stop-color="#56281E"/>
<stop offset="1" stop-color="#652F23"/>
</linearGradient>
<linearGradient id="paint27_linear_112_6551" x1="159.205" y1="174.433" x2="312.448" y2="219.474" gradientUnits="userSpaceOnUse">
<stop stop-color="#A9563F"/>
<stop offset="1" stop-color="#C57D4E"/>
</linearGradient>
<linearGradient id="paint28_linear_112_6551" x1="247.817" y1="154.749" x2="138.451" y2="148.824" gradientUnits="userSpaceOnUse">
<stop stop-color="#F6D3AA"/>
<stop offset="0.15" stop-color="#F3CDA3"/>
<stop offset="0.48" stop-color="#F0C69A"/>
<stop offset="1" stop-color="#F0C498"/>
</linearGradient>
<linearGradient id="paint29_linear_112_6551" x1="117.724" y1="135.404" x2="229.127" y2="150.792" gradientUnits="userSpaceOnUse">
<stop stop-color="#DAA279"/>
<stop offset="0.48" stop-color="#E3AF85"/>
<stop offset="1" stop-color="#F0C498"/>
</linearGradient>
<linearGradient id="paint30_linear_112_6551" x1="227.721" y1="226.76" x2="158.905" y2="179.298" gradientUnits="userSpaceOnUse">
<stop stop-color="#F6D3AA"/>
<stop offset="0.15" stop-color="#F3CDA3"/>
<stop offset="0.48" stop-color="#F0C69A"/>
<stop offset="1" stop-color="#F0C498"/>
</linearGradient>
<linearGradient id="paint31_linear_112_6551" x1="192.049" y1="201.52" x2="197.729" y2="181.522" gradientUnits="userSpaceOnUse">
<stop stop-color="#F6D3AA"/>
<stop offset="0.15" stop-color="#F3CDA3"/>
<stop offset="0.48" stop-color="#F0C69A"/>
<stop offset="1" stop-color="#F0C498"/>
</linearGradient>
<linearGradient id="paint32_linear_112_6551" x1="164.539" y1="290.6" x2="204.539" y2="144.727" gradientUnits="userSpaceOnUse">
<stop stop-color="white"/>
<stop offset="0.36" stop-color="#F8F8FA"/>
<stop offset="1" stop-color="#F1F0F5"/>
</linearGradient>
<linearGradient id="paint33_linear_112_6551" x1="392.774" y1="298.003" x2="319.138" y2="356.375" gradientUnits="userSpaceOnUse">
<stop stop-color="#FFDEB3"/>
<stop offset="1" stop-color="#F7D9AB"/>
</linearGradient>
<linearGradient id="paint34_linear_112_6551" x1="185.483" y1="226.323" x2="193.903" y2="379.065" gradientUnits="userSpaceOnUse">
<stop stop-color="#F1F0F5"/>
<stop offset="1" stop-color="#E1E1E5"/>
</linearGradient>
<linearGradient id="paint35_linear_112_6551" x1="169.416" y1="287.884" x2="340.16" y2="418.364" gradientUnits="userSpaceOnUse">
<stop stop-color="#E1E1E5"/>
<stop offset="1" stop-color="#D1D0D4"/>
</linearGradient>
<linearGradient id="paint36_linear_112_6551" x1="201.181" y1="368.811" x2="163.637" y2="166.873" gradientUnits="userSpaceOnUse">
<stop stop-color="white"/>
<stop offset="0.36" stop-color="#F8F8FA"/>
<stop offset="1" stop-color="#F1F0F5"/>
</linearGradient>
<linearGradient id="paint37_linear_112_6551" x1="334.973" y1="404.984" x2="236.919" y2="287.766" gradientUnits="userSpaceOnUse">
<stop stop-color="#F1F0F5"/>
<stop offset="1" stop-color="#E1E1E5"/>
</linearGradient>
<linearGradient id="paint38_linear_112_6551" x1="118.94" y1="526.2" x2="120.251" y2="342.224" gradientUnits="userSpaceOnUse">
<stop stop-color="#F1F0F5"/>
<stop offset="1" stop-color="#E1E1E5"/>
</linearGradient>
<linearGradient id="paint39_linear_112_6551" x1="183.971" y1="475.364" x2="215.607" y2="320.758" gradientUnits="userSpaceOnUse">
<stop stop-color="#2B2A2D"/>
<stop offset="0.24" stop-color="#28272A"/>
<stop offset="1" stop-color="#232225"/>
</linearGradient>
<linearGradient id="paint40_linear_112_6551" x1="174.206" y1="423.896" x2="172.257" y2="506.16" gradientUnits="userSpaceOnUse">
<stop stop-color="#2B2A2D"/>
<stop offset="0.24" stop-color="#28272A"/>
<stop offset="1" stop-color="#232225"/>
</linearGradient>
<linearGradient id="paint41_linear_112_6551" x1="259.977" y1="443.369" x2="273.896" y2="373.935" gradientUnits="userSpaceOnUse">
<stop stop-color="#1D1C1E"/>
<stop offset="1" stop-color="#232225"/>
</linearGradient>
<linearGradient id="paint42_linear_112_6551" x1="187.295" y1="298.805" x2="222.637" y2="440.67" gradientUnits="userSpaceOnUse">
<stop stop-color="#F1F0F5"/>
<stop offset="1" stop-color="#E1E1E5"/>
</linearGradient>
<linearGradient id="paint43_linear_112_6551" x1="185.169" y1="389.506" x2="194.44" y2="330.932" gradientUnits="userSpaceOnUse">
<stop stop-color="#1D1C1E"/>
<stop offset="1" stop-color="#232225"/>
</linearGradient>
<linearGradient id="paint44_linear_112_6551" x1="274.54" y1="376.097" x2="243.353" y2="363.019" gradientUnits="userSpaceOnUse">
<stop stop-color="#F0C499"/>
<stop offset="0.52" stop-color="#F1C69B"/>
<stop offset="0.85" stop-color="#F4CEA4"/>
<stop offset="1" stop-color="#F7D4AB"/>
</linearGradient>
<linearGradient id="paint45_linear_112_6551" x1="269.295" y1="387.089" x2="216.542" y2="364.271" gradientUnits="userSpaceOnUse">
<stop stop-color="#FFD9B3"/>
<stop offset="1" stop-color="#F7D4AB"/>
</linearGradient>
<linearGradient id="paint46_linear_112_6551" x1="239.792" y1="349.362" x2="219.802" y2="340.98" gradientUnits="userSpaceOnUse">
<stop stop-color="#FFD9B3"/>
<stop offset="1" stop-color="#F7D4AB"/>
</linearGradient>
<linearGradient id="paint47_linear_112_6551" x1="237.316" y1="357.048" x2="212.637" y2="346.699" gradientUnits="userSpaceOnUse">
<stop stop-color="#F0C499"/>
<stop offset="0.52" stop-color="#F1C69B"/>
<stop offset="0.85" stop-color="#F4CEA4"/>
<stop offset="1" stop-color="#F7D4AB"/>
</linearGradient>
<linearGradient id="paint48_linear_112_6551" x1="233.411" y1="371.698" x2="208.056" y2="361.065" gradientUnits="userSpaceOnUse">
<stop stop-color="#F0C499"/>
<stop offset="0.52" stop-color="#F1C69B"/>
<stop offset="0.85" stop-color="#F4CEA4"/>
<stop offset="1" stop-color="#F7D4AB"/>
</linearGradient>
<linearGradient id="paint49_linear_112_6551" x1="232.842" y1="375.485" x2="209.931" y2="365.877" gradientUnits="userSpaceOnUse">
<stop stop-color="#F0C499"/>
<stop offset="0.52" stop-color="#F1C69B"/>
<stop offset="0.85" stop-color="#F4CEA4"/>
<stop offset="1" stop-color="#F7D4AB"/>
</linearGradient>
<linearGradient id="paint50_linear_112_6551" x1="245.413" y1="390.199" x2="217.743" y2="378.596" gradientUnits="userSpaceOnUse">
<stop stop-color="#F0C499"/>
<stop offset="0.52" stop-color="#F1C69B"/>
<stop offset="0.85" stop-color="#F4CEA4"/>
<stop offset="1" stop-color="#F7D4AB"/>
</linearGradient>
<linearGradient id="paint51_linear_112_6551" x1="232.711" y1="358.152" x2="215.871" y2="351.091" gradientUnits="userSpaceOnUse">
<stop stop-color="#FFD9B3"/>
<stop offset="1" stop-color="#F7D4AB"/>
</linearGradient>
<linearGradient id="paint52_linear_112_6551" x1="233.209" y1="368.188" x2="217.551" y2="361.622" gradientUnits="userSpaceOnUse">
<stop stop-color="#FFD9B3"/>
<stop offset="1" stop-color="#F7D4AB"/>
</linearGradient>
<linearGradient id="paint53_linear_112_6551" x1="232.65" y1="373.871" x2="222.893" y2="369.78" gradientUnits="userSpaceOnUse">
<stop stop-color="#FFD9B3"/>
<stop offset="1" stop-color="#F7D4AB"/>
</linearGradient>
<linearGradient id="paint54_linear_112_6551" x1="275.308" y1="374.393" x2="356.304" y2="309.494" gradientUnits="userSpaceOnUse">
<stop stop-color="#F0C499"/>
<stop offset="0.52" stop-color="#F1C69B"/>
<stop offset="0.85" stop-color="#F4CEA4"/>
<stop offset="1" stop-color="#F7D4AB"/>
</linearGradient>
<linearGradient id="paint55_linear_112_6551" x1="283.037" y1="-18.0715" x2="272.757" y2="172.713" gradientUnits="userSpaceOnUse">
<stop stop-color="#673024"/>
<stop offset="0.38" stop-color="#6B3227"/>
<stop offset="0.8" stop-color="#783B30"/>
<stop offset="1" stop-color="#824137"/>
</linearGradient>
<linearGradient id="paint56_linear_112_6551" x1="149.23" y1="106.348" x2="129.122" y2="264.141" gradientUnits="userSpaceOnUse">
<stop stop-color="#673024"/>
<stop offset="0.38" stop-color="#6B3227"/>
<stop offset="0.8" stop-color="#783B30"/>
<stop offset="1" stop-color="#824137"/>
</linearGradient>
<linearGradient id="paint57_linear_112_6551" x1="141.033" y1="99.1645" x2="153.806" y2="99.1645" gradientUnits="userSpaceOnUse">
<stop stop-color="#DAA279"/>
<stop offset="0.48" stop-color="#E3AF85"/>
<stop offset="1" stop-color="#F0C498"/>
</linearGradient>
<linearGradient id="paint58_linear_112_6551" x1="148.896" y1="108.252" x2="155.055" y2="135.885" gradientUnits="userSpaceOnUse">
<stop stop-color="#DBA379"/>
<stop offset="0.49" stop-color="#E3B086"/>
<stop offset="1" stop-color="#F0C499"/>
</linearGradient>
<linearGradient id="paint59_linear_112_6551" x1="248.863" y1="230.396" x2="247.623" y2="273.842" gradientUnits="userSpaceOnUse">
<stop stop-color="#DBA379"/>
<stop offset="0.49" stop-color="#E3B086"/>
<stop offset="1" stop-color="#F0C499"/>
</linearGradient>
<linearGradient id="paint60_linear_112_6551" x1="226.588" y1="101.603" x2="224.876" y2="75.3364" gradientUnits="userSpaceOnUse">
<stop stop-color="#F6D3AA"/>
<stop offset="0.52" stop-color="#F5D0A7"/>
<stop offset="0.85" stop-color="#F2C99E"/>
<stop offset="1" stop-color="#F0C498"/>
</linearGradient>
<radialGradient id="paint61_radial_112_6551" cx="0" cy="0" r="1" gradientUnits="userSpaceOnUse" gradientTransform="translate(232.994 105.025) scale(17.6229 18.5411)">
<stop stop-color="#F9B28D"/>
<stop offset="0.61" stop-color="#F7C49D"/>
<stop offset="1" stop-color="#F6D3AA"/>
</radialGradient>
<linearGradient id="paint62_linear_112_6551" x1="170.018" y1="68.6059" x2="173.832" y2="103.956" gradientUnits="userSpaceOnUse">
<stop stop-color="#F0C498"/>
<stop offset="0.15" stop-color="#F2C99E"/>
<stop offset="0.48" stop-color="#F5D0A7"/>
<stop offset="1" stop-color="#F6D3AA"/>
</linearGradient>
<radialGradient id="paint63_radial_112_6551" cx="0" cy="0" r="1" gradientUnits="userSpaceOnUse" gradientTransform="translate(157.079 107.116) rotate(180) scale(17.6489 18.5684)">
<stop stop-color="#F9B28D"/>
<stop offset="0.61" stop-color="#F7C49D"/>
<stop offset="1" stop-color="#F6D3AA"/>
</radialGradient>
<linearGradient id="paint64_linear_112_6551" x1="233.63" y1="96.8507" x2="243.139" y2="96.8507" gradientUnits="userSpaceOnUse">
<stop stop-color="#FFD8B2"/>
<stop offset="1" stop-color="#F6D3AA"/>
</linearGradient>
<linearGradient id="paint65_linear_112_6551" x1="154.94" y1="97.2604" x2="164.438" y2="97.2604" gradientUnits="userSpaceOnUse">
<stop stop-color="#FFD8B2"/>
<stop offset="1" stop-color="#F6D3AA"/>
</linearGradient>
<linearGradient id="paint66_linear_112_6551" x1="205.211" y1="-45.852" x2="197.177" y2="107.167" gradientUnits="userSpaceOnUse">
<stop stop-color="#F6D3AA"/>
<stop offset="0.48" stop-color="#F2C99E"/>
<stop offset="1" stop-color="#F0C498"/>
</linearGradient>
<linearGradient id="paint67_linear_112_6551" x1="188.34" y1="140.351" x2="205.587" y2="140.351" gradientUnits="userSpaceOnUse">
<stop stop-color="#FFD8B2"/>
<stop offset="0.65" stop-color="#FCD6AF"/>
<stop offset="1" stop-color="#F6D3AA"/>
</linearGradient>
<linearGradient id="paint68_linear_112_6551" x1="217.84" y1="128.252" x2="248.574" y2="128.252" gradientUnits="userSpaceOnUse">
<stop stop-color="#FFD8B2"/>
<stop offset="0.65" stop-color="#FCD6AF"/>
<stop offset="1" stop-color="#F6D3AA"/>
</linearGradient>
<linearGradient id="paint69_linear_112_6551" x1="200.068" y1="151.904" x2="201.07" y2="175.584" gradientUnits="userSpaceOnUse">
<stop stop-color="#DAA279"/>
<stop offset="0.48" stop-color="#E3AF85"/>
<stop offset="1" stop-color="#F0C498"/>
</linearGradient>
<linearGradient id="paint70_linear_112_6551" x1="250.207" y1="81.6769" x2="233.521" y2="124.352" gradientUnits="userSpaceOnUse">
<stop stop-color="#F1C397"/>
<stop offset="0.55" stop-color="#F9B28D"/>
<stop offset="1" stop-color="#F0C498"/>
</linearGradient>
<linearGradient id="paint71_linear_112_6551" x1="184.141" y1="123.788" x2="177.975" y2="118.678" gradientUnits="userSpaceOnUse">
<stop stop-color="#F6D3AA"/>
<stop offset="0.52" stop-color="#F5D0A7"/>
<stop offset="0.85" stop-color="#F2C99E"/>
<stop offset="1" stop-color="#F0C498"/>
</linearGradient>
<linearGradient id="paint72_linear_112_6551" x1="215.169" y1="128.205" x2="222.151" y2="116.247" gradientUnits="userSpaceOnUse">
<stop stop-color="#F6D3AA"/>
<stop offset="0.52" stop-color="#F5D0A7"/>
<stop offset="0.85" stop-color="#F2C99E"/>
<stop offset="1" stop-color="#F0C498"/>
</linearGradient>
<linearGradient id="paint73_linear_112_6551" x1="187.578" y1="131.405" x2="212.257" y2="131.405" gradientUnits="userSpaceOnUse">
<stop stop-color="#DAA279"/>
<stop offset="0.48" stop-color="#E3AF85"/>
<stop offset="1" stop-color="#F0C498"/>
</linearGradient>
<linearGradient id="paint74_linear_112_6551" x1="186.019" y1="124.666" x2="213.36" y2="124.666" gradientUnits="userSpaceOnUse">
<stop stop-color="#E7D7D6"/>
<stop offset="0.14" stop-color="#EFE4E4"/>
<stop offset="0.4" stop-color="#FAF8F7"/>
<stop offset="0.57" stop-color="white"/>
<stop offset="1" stop-color="#E7D1D0"/>
</linearGradient>
<linearGradient id="paint75_linear_112_6551" x1="177.164" y1="121.541" x2="220.226" y2="121.541" gradientUnits="userSpaceOnUse">
<stop stop-color="#E7D7D6"/>
<stop offset="0.05" stop-color="#EADDDC"/>
<stop offset="0.21" stop-color="#F6F0EF"/>
<stop offset="0.39" stop-color="#FCFBFB"/>
<stop offset="0.57" stop-color="white"/>
<stop offset="0.69" stop-color="#FBF7F7"/>
<stop offset="0.87" stop-color="#F0E3E3"/>
<stop offset="1" stop-color="#E7D1D0"/>
</linearGradient>
<linearGradient id="paint76_linear_112_6551" x1="185.003" y1="126.383" x2="216.487" y2="126.383" gradientUnits="userSpaceOnUse">
<stop stop-color="#F16E7F"/>
<stop offset="0.23" stop-color="#F17785"/>
<stop offset="0.53" stop-color="#F27B87"/>
<stop offset="0.78" stop-color="#F17784"/>
<stop offset="1" stop-color="#F16D7D"/>
</linearGradient>
<linearGradient id="paint77_linear_112_6551" x1="183.317" y1="120.78" x2="216.651" y2="120.874" gradientUnits="userSpaceOnUse">
<stop stop-color="#E7D7D6"/>
<stop offset="0.05" stop-color="#E9DBDA"/>
<stop offset="0.31" stop-color="#F5EEED"/>
<stop offset="0.48" stop-color="#FAF5F5"/>
<stop offset="1" stop-color="#E7D1D0"/>
</linearGradient>
<linearGradient id="paint78_linear_112_6551" x1="187.982" y1="119.356" x2="211.841" y2="119.356" gradientUnits="userSpaceOnUse">
<stop stop-color="#F16E7F"/>
<stop offset="0.23" stop-color="#F17785"/>
<stop offset="0.53" stop-color="#F27B87"/>
<stop offset="0.78" stop-color="#F17784"/>
<stop offset="1" stop-color="#F16D7D"/>
</linearGradient>
<linearGradient id="paint79_linear_112_6551" x1="198.97" y1="118.427" x2="198.881" y2="108.494" gradientUnits="userSpaceOnUse">
<stop stop-color="#F6D3AA"/>
<stop offset="0.52" stop-color="#F5D0A7"/>
<stop offset="0.85" stop-color="#F2C99E"/>
<stop offset="1" stop-color="#F0C498"/>
</linearGradient>
<linearGradient id="paint80_linear_112_6551" x1="201.143" y1="108.568" x2="194.821" y2="92.2406" gradientUnits="userSpaceOnUse">
<stop stop-color="#FFD8B2"/>
<stop offset="1" stop-color="#F6D3AA"/>
</linearGradient>
<linearGradient id="paint81_linear_112_6551" x1="208.687" y1="107.202" x2="202.439" y2="110.299" gradientUnits="userSpaceOnUse">
<stop stop-color="#DAA279"/>
<stop offset="0.48" stop-color="#E3AF85"/>
<stop offset="1" stop-color="#F0C498"/>
</linearGradient>
<linearGradient id="paint82_linear_112_6551" x1="189.353" y1="107.538" x2="196.035" y2="110.263" gradientUnits="userSpaceOnUse">
<stop stop-color="#DAA279"/>
<stop offset="0.48" stop-color="#E3AF85"/>
<stop offset="1" stop-color="#F0C498"/>
</linearGradient>
<linearGradient id="paint83_linear_112_6551" x1="238.499" y1="84.796" x2="213.942" y2="85.7186" gradientUnits="userSpaceOnUse">
<stop stop-color="#DBA379"/>
<stop offset="0.49" stop-color="#E3B086"/>
<stop offset="1" stop-color="#F0C499"/>
</linearGradient>
<linearGradient id="paint84_linear_112_6551" x1="211.189" y1="87.7536" x2="236.832" y2="86.9697" gradientUnits="userSpaceOnUse">
<stop stop-color="white"/>
<stop offset="0.47" stop-color="#FCFCFC"/>
<stop offset="0.77" stop-color="#F5F3F3"/>
<stop offset="1" stop-color="#ECE7E7"/>
</linearGradient>
<linearGradient id="paint85_linear_112_6551" x1="229.525" y1="93.1138" x2="219.254" y2="83.6695" gradientUnits="userSpaceOnUse">
<stop stop-color="#DDDDDA"/>
<stop offset="1" stop-color="#A4A59D"/>
</linearGradient>
<linearGradient id="paint86_linear_112_6551" x1="220.718" y1="83.5746" x2="243.298" y2="89.6907" gradientUnits="userSpaceOnUse">
<stop stop-color="#94958D"/>
<stop offset="1" stop-color="#C5C6C0"/>
</linearGradient>
<radialGradient id="paint87_radial_112_6551" cx="0" cy="0" r="1" gradientUnits="userSpaceOnUse" gradientTransform="translate(225.672 87.8862) rotate(-174.843) scale(6.0074 5.45858)">
<stop stop-color="#2A3A3B"/>
<stop offset="1" stop-color="#1C2727"/>
</radialGradient>
<linearGradient id="paint88_linear_112_6551" x1="211.075" y1="84.0486" x2="241.276" y2="83.1255" gradientUnits="userSpaceOnUse">
<stop stop-color="#5A2A1F"/>
<stop offset="0.29" stop-color="#492219"/>
<stop offset="0.66" stop-color="#3D1C14"/>
<stop offset="1" stop-color="#391B13"/>
</linearGradient>
<linearGradient id="paint89_linear_112_6551" x1="225.663" y1="77.395" x2="202.703" y2="89.8494" gradientUnits="userSpaceOnUse">
<stop stop-color="#DBA379"/>
<stop offset="0.49" stop-color="#E3B086"/>
<stop offset="1" stop-color="#F0C499"/>
</linearGradient>
<linearGradient id="paint90_linear_112_6551" x1="205.692" y1="85.7488" x2="231.005" y2="85.1476" gradientUnits="userSpaceOnUse">
<stop stop-color="#5A2A1F"/>
<stop offset="0.29" stop-color="#492219"/>
<stop offset="0.66" stop-color="#3D1C14"/>
<stop offset="1" stop-color="#391B13"/>
</linearGradient>
<linearGradient id="paint91_linear_112_6551" x1="224.484" y1="90.6966" x2="240.871" y2="90.3074" gradientUnits="userSpaceOnUse">
<stop stop-color="#5A2A1F"/>
<stop offset="0.29" stop-color="#492219"/>
<stop offset="0.66" stop-color="#3D1C14"/>
<stop offset="1" stop-color="#391B13"/>
</linearGradient>
<linearGradient id="paint92_linear_112_6551" x1="159.538" y1="84.7237" x2="184.1" y2="85.5048" gradientUnits="userSpaceOnUse">
<stop stop-color="#DBA379"/>
<stop offset="0.49" stop-color="#E3B086"/>
<stop offset="1" stop-color="#F0C499"/>
</linearGradient>
<linearGradient id="paint93_linear_112_6551" x1="186.862" y1="87.5238" x2="161.219" y2="86.8879" gradientUnits="userSpaceOnUse">
<stop stop-color="white"/>
<stop offset="0.47" stop-color="#FCFCFC"/>
<stop offset="0.77" stop-color="#F5F3F3"/>
<stop offset="1" stop-color="#ECE7E7"/>
</linearGradient>
<linearGradient id="paint94_linear_112_6551" x1="170.268" y1="81.4953" x2="179.167" y2="94.389" gradientUnits="userSpaceOnUse">
<stop stop-color="#A4A59D"/>
<stop offset="1" stop-color="#DDDDDA"/>
</linearGradient>
<linearGradient id="paint95_linear_112_6551" x1="173.146" y1="83.8923" x2="185.505" y2="98.8287" gradientUnits="userSpaceOnUse">
<stop stop-color="#94958D"/>
<stop offset="1" stop-color="#C5C6C0"/>
</linearGradient>
<radialGradient id="paint96_radial_112_6551" cx="0" cy="0" r="1" gradientUnits="userSpaceOnUse" gradientTransform="translate(170.401 87.4106) rotate(-5.48725) scale(6.0074 5.45858)">
<stop stop-color="#2A3A3B"/>
<stop offset="1" stop-color="#1C2727"/>
</radialGradient>
<linearGradient id="paint97_linear_112_6551" x1="186.951" y1="83.8183" x2="156.223" y2="83.0562" gradientUnits="userSpaceOnUse">
<stop stop-color="#5A2A1F"/>
<stop offset="0.29" stop-color="#492219"/>
<stop offset="0.66" stop-color="#3D1C14"/>
<stop offset="1" stop-color="#391B13"/>
</linearGradient>
<linearGradient id="paint98_linear_112_6551" x1="172.243" y1="77.4305" x2="195.278" y2="89.7525" gradientUnits="userSpaceOnUse">
<stop stop-color="#DBA379"/>
<stop offset="0.49" stop-color="#E3B086"/>
<stop offset="1" stop-color="#F0C499"/>
</linearGradient>
<linearGradient id="paint99_linear_112_6551" x1="192.258" y1="85.6652" x2="166.943" y2="85.2098" gradientUnits="userSpaceOnUse">
<stop stop-color="#5A2A1F"/>
<stop offset="0.29" stop-color="#492219"/>
<stop offset="0.66" stop-color="#3D1C14"/>
<stop offset="1" stop-color="#391B13"/>
</linearGradient>
<linearGradient id="paint100_linear_112_6551" x1="157.278" y1="90.3739" x2="173.639" y2="90.6682" gradientUnits="userSpaceOnUse">
<stop stop-color="#391B13"/>
<stop offset="0.34" stop-color="#3D1C14"/>
<stop offset="0.71" stop-color="#492219"/>
<stop offset="1" stop-color="#5A2A1F"/>
</linearGradient>
<linearGradient id="paint101_linear_112_6551" x1="213.51" y1="68.7505" x2="243.149" y2="69.8794" gradientUnits="userSpaceOnUse">
<stop stop-color="#5A2A1F"/>
<stop offset="0.29" stop-color="#492219"/>
<stop offset="0.66" stop-color="#3D1C14"/>
<stop offset="1" stop-color="#391B13"/>
</linearGradient>
<linearGradient id="paint102_linear_112_6551" x1="183.838" y1="68.1051" x2="154.025" y2="69.9086" gradientUnits="userSpaceOnUse">
<stop stop-color="#5A2A1F"/>
<stop offset="0.29" stop-color="#492219"/>
<stop offset="0.66" stop-color="#3D1C14"/>
<stop offset="1" stop-color="#391B13"/>
</linearGradient>
<linearGradient id="paint103_linear_112_6551" x1="236.356" y1="-23.9397" x2="221.642" y2="256.375" gradientUnits="userSpaceOnUse">
<stop stop-color="#673024"/>
<stop offset="0.38" stop-color="#6B3227"/>
<stop offset="0.8" stop-color="#783B30"/>
<stop offset="1" stop-color="#824137"/>
</linearGradient>
<linearGradient id="paint104_linear_112_6551" x1="259.996" y1="167.363" x2="235.139" y2="226.683" gradientUnits="userSpaceOnUse">
<stop stop-color="#673024"/>
<stop offset="0.38" stop-color="#6B3227"/>
<stop offset="0.8" stop-color="#783B30"/>
<stop offset="1" stop-color="#824137"/>
</linearGradient>
<linearGradient id="paint105_linear_112_6551" x1="145.882" y1="156.786" x2="161.372" y2="-29.0601" gradientUnits="userSpaceOnUse">
<stop stop-color="#824137"/>
<stop offset="0.2" stop-color="#783B30"/>
<stop offset="0.62" stop-color="#6B3227"/>
<stop offset="1" stop-color="#673024"/>
</linearGradient>
<linearGradient id="paint106_linear_112_6551" x1="231.43" y1="303.347" x2="233.088" y2="161.998" gradientUnits="userSpaceOnUse">
<stop stop-color="#673024"/>
<stop offset="0.74" stop-color="#7A3C31"/>
<stop offset="1" stop-color="#824137"/>
</linearGradient>
<linearGradient id="paint107_linear_112_6551" x1="116.533" y1="163.376" x2="126.407" y2="100.353" gradientUnits="userSpaceOnUse">
<stop stop-color="#CB8076"/>
<stop offset="0.31" stop-color="#B76F65"/>
<stop offset="0.95" stop-color="#86443A"/>
<stop offset="1" stop-color="#824137"/>
</linearGradient>
<linearGradient id="paint108_linear_112_6551" x1="241.496" y1="67.888" x2="270.473" y2="67.888" gradientUnits="userSpaceOnUse">
<stop stop-color="#673024"/>
<stop offset="0.74" stop-color="#7A3C31"/>
<stop offset="1" stop-color="#824137"/>
</linearGradient>
<linearGradient id="paint109_linear_112_6551" x1="214.893" y1="10.5635" x2="241.916" y2="141.504" gradientUnits="userSpaceOnUse">
<stop stop-color="#824137"/>
<stop offset="0.26" stop-color="#7A3C31"/>
<stop offset="1" stop-color="#673024"/>
</linearGradient>
<linearGradient id="paint110_linear_112_6551" x1="182.96" y1="7.49281" x2="235.153" y2="7.49281" gradientUnits="userSpaceOnUse">
<stop stop-color="#824137"/>
<stop offset="0.26" stop-color="#7A3C31"/>
<stop offset="1" stop-color="#673024"/>
</linearGradient>
<linearGradient id="paint111_linear_112_6551" x1="238.234" y1="245.952" x2="268.358" y2="136.754" gradientUnits="userSpaceOnUse">
<stop stop-color="#CB8076"/>
<stop offset="0.31" stop-color="#B76F65"/>
<stop offset="0.95" stop-color="#86443A"/>
<stop offset="1" stop-color="#824137"/>
</linearGradient>
<linearGradient id="paint112_linear_112_6551" x1="139.162" y1="150.64" x2="164.695" y2="-14.2048" gradientUnits="userSpaceOnUse">
<stop stop-color="#673024"/>
<stop offset="0.74" stop-color="#7A3C31"/>
<stop offset="1" stop-color="#824137"/>
</linearGradient>
<linearGradient id="paint113_linear_112_6551" x1="237.116" y1="56.9476" x2="293.405" y2="108.655" gradientUnits="userSpaceOnUse">
<stop stop-color="#824137"/>
<stop offset="0.05" stop-color="#86443A"/>
<stop offset="0.69" stop-color="#B76F65"/>
<stop offset="1" stop-color="#CB8076"/>
</linearGradient>
<linearGradient id="paint114_linear_112_6551" x1="264.753" y1="135.502" x2="217.585" y2="243.683" gradientUnits="userSpaceOnUse">
<stop stop-color="#824137"/>
<stop offset="0.05" stop-color="#86443A"/>
<stop offset="0.69" stop-color="#B76F65"/>
<stop offset="1" stop-color="#CB8076"/>
</linearGradient>
<linearGradient id="paint115_linear_112_6551" x1="239.222" y1="174.956" x2="242.662" y2="78.247" gradientUnits="userSpaceOnUse">
<stop stop-color="#824137"/>
<stop offset="0.26" stop-color="#7A3C31"/>
<stop offset="1" stop-color="#673024"/>
</linearGradient>
<linearGradient id="paint116_linear_112_6551" x1="248.208" y1="83.7058" x2="233.638" y2="-14.6322" gradientUnits="userSpaceOnUse">
<stop stop-color="#824137"/>
<stop offset="0.26" stop-color="#7A3C31"/>
<stop offset="1" stop-color="#673024"/>
</linearGradient>
<linearGradient id="paint117_linear_112_6551" x1="184.289" y1="28.9602" x2="209.694" y2="28.9602" gradientUnits="userSpaceOnUse">
<stop stop-color="#824137"/>
<stop offset="0.2" stop-color="#783B30"/>
<stop offset="0.62" stop-color="#6B3227"/>
<stop offset="1" stop-color="#673024"/>
</linearGradient>
<linearGradient id="paint118_linear_112_6551" x1="147.719" y1="72.3282" x2="152.75" y2="97.1093" gradientUnits="userSpaceOnUse">
<stop stop-color="#824137"/>
<stop offset="0.2" stop-color="#783B30"/>
<stop offset="0.62" stop-color="#6B3227"/>
<stop offset="1" stop-color="#673024"/>
</linearGradient>
<linearGradient id="paint119_linear_112_6551" x1="129.069" y1="294.588" x2="151.942" y2="30.1366" gradientUnits="userSpaceOnUse">
<stop stop-color="#673024"/>
<stop offset="0.05" stop-color="#6C3328"/>
<stop offset="0.22" stop-color="#783B30"/>
<stop offset="0.45" stop-color="#803F35"/>
<stop offset="1" stop-color="#824137"/>
</linearGradient>
<linearGradient id="paint120_linear_112_6551" x1="143.253" y1="57.4508" x2="133.032" y2="204.653" gradientUnits="userSpaceOnUse">
<stop stop-color="#824137"/>
<stop offset="0.05" stop-color="#86443A"/>
<stop offset="0.69" stop-color="#B76F65"/>
<stop offset="1" stop-color="#CB8076"/>
</linearGradient>
<linearGradient id="paint121_linear_112_6551" x1="145.404" y1="82.149" x2="136.466" y2="189.097" gradientUnits="userSpaceOnUse">
<stop stop-color="#673024"/>
<stop offset="0.05" stop-color="#6C3328"/>
<stop offset="0.22" stop-color="#783B30"/>
<stop offset="0.45" stop-color="#803F35"/>
<stop offset="1" stop-color="#824137"/>
</linearGradient>
<linearGradient id="paint122_linear_112_6551" x1="132.378" y1="240.291" x2="140.521" y2="156.797" gradientUnits="userSpaceOnUse">
<stop stop-color="#CB8076"/>
<stop offset="0.31" stop-color="#B76F65"/>
<stop offset="0.95" stop-color="#86443A"/>
<stop offset="1" stop-color="#824137"/>
</linearGradient>
<linearGradient id="paint123_linear_112_6551" x1="133.491" y1="215.113" x2="123.823" y2="124.599" gradientUnits="userSpaceOnUse">
<stop stop-color="#673024"/>
<stop offset="0.38" stop-color="#6B3227"/>
<stop offset="0.8" stop-color="#783B30"/>
<stop offset="1" stop-color="#824137"/>
</linearGradient>
<linearGradient id="paint124_linear_112_6551" x1="150.617" y1="133.422" x2="154.591" y2="173.708" gradientUnits="userSpaceOnUse">
<stop offset="0.23" stop-color="#492219"/>
<stop offset="0.59" stop-color="#56281E"/>
<stop offset="1" stop-color="#652F23"/>
</linearGradient>
<linearGradient id="paint125_linear_112_6551" x1="203.031" y1="28.4608" x2="202.961" y2="28.2696" gradientUnits="userSpaceOnUse">
<stop stop-color="#CB8076"/>
<stop offset="0.31" stop-color="#B76F65"/>
<stop offset="0.95" stop-color="#86443A"/>
<stop offset="1" stop-color="#824137"/>
</linearGradient>
<linearGradient id="paint126_linear_112_6551" x1="250.637" y1="134.94" x2="214.809" y2="36.37" gradientUnits="userSpaceOnUse">
<stop stop-color="#CB8076"/>
<stop offset="0.31" stop-color="#B76F65"/>
<stop offset="0.95" stop-color="#86443A"/>
<stop offset="1" stop-color="#824137"/>
</linearGradient>
<linearGradient id="paint127_linear_112_6551" x1="365.933" y1="379.209" x2="262.124" y2="255.113" gradientUnits="userSpaceOnUse">
<stop stop-color="#F1F0F5"/>
<stop offset="1" stop-color="#E1E1E5"/>
</linearGradient>
<linearGradient id="paint128_linear_112_6551" x1="418.698" y1="274.821" x2="308.231" y2="364.495" gradientUnits="userSpaceOnUse">
<stop stop-color="white"/>
<stop offset="0.36" stop-color="#F8F8FA"/>
<stop offset="1" stop-color="#F1F0F5"/>
</linearGradient>
<linearGradient id="paint129_linear_112_6551" x1="228.254" y1="126.777" x2="364.853" y2="304.054" gradientUnits="userSpaceOnUse">
<stop stop-color="white"/>
<stop offset="0.36" stop-color="#F8F8FA"/>
<stop offset="1" stop-color="#F1F0F5"/>
</linearGradient>
<linearGradient id="paint130_linear_112_6551" x1="352.143" y1="301.053" x2="294.093" y2="360.662" gradientUnits="userSpaceOnUse">
<stop stop-color="#F1F0F5"/>
<stop offset="0.54" stop-color="#E6E6EA"/>
<stop offset="1" stop-color="#E1E1E5"/>
</linearGradient>
<linearGradient id="paint131_linear_112_6551" x1="274.905" y1="376.052" x2="289.509" y2="376.052" gradientUnits="userSpaceOnUse">
<stop stop-color="#F0C499"/>
<stop offset="0.52" stop-color="#F1C69B"/>
<stop offset="0.85" stop-color="#F4CEA4"/>
<stop offset="1" stop-color="#F7D4AB"/>
</linearGradient>
<linearGradient id="paint132_linear_112_6551" x1="306.413" y1="386.006" x2="258.703" y2="328.977" gradientUnits="userSpaceOnUse">
<stop stop-color="#F1F0F5"/>
<stop offset="1" stop-color="#E1E1E5"/>
</linearGradient>
<linearGradient id="paint133_linear_112_6551" x1="389.567" y1="464.954" x2="182.762" y2="217.738" gradientUnits="userSpaceOnUse">
<stop stop-color="#F1F0F5"/>
<stop offset="1" stop-color="#E1E1E5"/>
</linearGradient>
<linearGradient id="paint134_linear_112_6551" x1="271.941" y1="267.537" x2="237.5" y2="396.331" gradientUnits="userSpaceOnUse">
<stop stop-color="#D1D0D4"/>
<stop offset="1" stop-color="#E1E1E5"/>
</linearGradient>
<linearGradient id="paint135_linear_112_6551" x1="124.319" y1="342.607" x2="-112.025" y2="60.0806" gradientUnits="userSpaceOnUse">
<stop stop-color="white"/>
<stop offset="0.36" stop-color="#F8F8FA"/>
<stop offset="1" stop-color="#F1F0F5"/>
</linearGradient>
<linearGradient id="paint136_linear_112_6551" x1="-110.238" y1="279.126" x2="246.79" y2="177.452" gradientUnits="userSpaceOnUse">
<stop stop-color="#F1F0F5"/>
<stop offset="1" stop-color="#E1E1E5"/>
</linearGradient>
<linearGradient id="paint137_linear_112_6551" x1="157.161" y1="376.883" x2="224.008" y2="133.093" gradientUnits="userSpaceOnUse">
<stop stop-color="white"/>
<stop offset="0.36" stop-color="#F8F8FA"/>
<stop offset="1" stop-color="#F1F0F5"/>
</linearGradient>
</defs>
</svg>
